<svg xmlns="http://www.w3.org/2000/svg" xmlns:xlink="http://www.w3.org/1999/xlink" width="750" zoomAndPan="magnify" viewBox="0 0 562.5 299.999988" height="400" preserveAspectRatio="xMidYMid meet" version="1.2"><defs><clipPath id="a6c0b1890b"><path d="M 272.914062 44.355469 L 407.941406 44.355469 L 407.941406 227.910156 L 272.914062 227.910156 Z M 272.914062 44.355469 "/></clipPath><clipPath id="191cd8a5bb"><path d="M 55.308594 0.355469 L 135.941406 0.355469 L 135.941406 183.910156 L 55.308594 183.910156 Z M 55.308594 0.355469 "/></clipPath><clipPath id="dad383f2ff"><path d="M 1.210938 4 L 77 4 L 77 183 L 1.210938 183 Z M 1.210938 4 "/></clipPath><clipPath id="486691a471"><rect x="0" width="136" y="0" height="184"/></clipPath><clipPath id="114aeee7fa"><rect x="0" width="528" y="0" height="284"/></clipPath></defs><g id="b5f0ca4b77"><g transform="matrix(1,0,0,1,14,13)"><g clip-path="url(#114aeee7fa)"><g style="fill:#ffffff;fill-opacity:1;"><g transform="translate(6.314842, 220.373517)"><path style="stroke:none" d="M -2.359375 0 C 2.097656 -13 6.660156 -26.296875 11.328125 -39.890625 C 15.992188 -53.484375 19.929688 -67.273438 23.140625 -81.265625 C 26.359375 -95.253906 27.96875 -109.273438 27.96875 -123.328125 C 27.96875 -134.234375 27.179688 -144.28125 25.609375 -153.46875 C 24.035156 -162.664062 21.738281 -169.890625 18.71875 -175.140625 L 103.234375 -175.140625 C 103.234375 -152.023438 104.148438 -130.253906 105.984375 -109.828125 C 107.828125 -89.410156 110.984375 -70.140625 115.453125 -52.015625 C 119.921875 -33.890625 126.09375 -16.550781 133.96875 0 L 66.78125 0 C 62.84375 -7.75 60.019531 -15.003906 58.3125 -21.765625 C 56.601562 -28.535156 55.75 -34.941406 55.75 -40.984375 C 55.75 -50.441406 57.390625 -59.109375 60.671875 -66.984375 C 63.960938 -74.867188 67.972656 -82.023438 72.703125 -88.453125 C 77.429688 -94.890625 81.894531 -100.671875 86.09375 -105.796875 C 89.90625 -110.265625 93.09375 -114.300781 95.65625 -117.90625 C 98.21875 -121.519531 99.5 -124.96875 99.5 -128.25 C 99.5 -131.269531 98.707031 -133.367188 97.125 -134.546875 C 95.550781 -135.734375 93.648438 -136.328125 91.421875 -136.328125 C 87.867188 -136.328125 83.5 -135.34375 78.3125 -133.375 C 73.125 -131.40625 67.738281 -128.453125 62.15625 -124.515625 C 56.570312 -120.578125 51.347656 -115.550781 46.484375 -109.4375 C 41.628906 -103.332031 37.691406 -96.140625 34.671875 -87.859375 C 31.648438 -79.585938 30.140625 -70.203125 30.140625 -59.703125 C 30.140625 -50.898438 31.351562 -41.472656 33.78125 -31.421875 C 36.21875 -21.378906 40.257812 -10.90625 45.90625 0 Z M -2.359375 0 "/></g></g><g style="fill:#ffffff;fill-opacity:1;"><g transform="translate(138.505457, 220.373517)"><path style="stroke:none" d="M 120.765625 0 C 114.066406 1.050781 107.894531 1.707031 102.25 1.96875 C 96.601562 2.226562 92.53125 2.359375 90.03125 2.359375 C 75.0625 2.359375 62.023438 -0.195312 50.921875 -5.3125 C 39.828125 -10.4375 30.664062 -17.300781 23.4375 -25.90625 C 16.21875 -34.507812 10.832031 -44.195312 7.28125 -54.96875 C 3.738281 -65.738281 1.96875 -76.769531 1.96875 -88.0625 C 1.96875 -99.226562 3.675781 -110.128906 7.09375 -120.765625 C 10.507812 -131.410156 15.726562 -141 22.75 -149.53125 C 29.78125 -158.070312 38.613281 -164.867188 49.25 -169.921875 C 59.894531 -174.984375 72.441406 -177.515625 86.890625 -177.515625 C 90.691406 -177.515625 94.460938 -177.28125 98.203125 -176.8125 C 101.953125 -176.351562 105.664062 -175.796875 109.34375 -175.140625 L 109.34375 -131.40625 C 102.78125 -131.40625 95.914062 -130.09375 88.75 -127.46875 C 81.59375 -124.84375 74.46875 -121.296875 67.375 -116.828125 C 60.28125 -112.359375 53.613281 -107.332031 47.375 -101.75 C 41.144531 -96.175781 35.597656 -90.460938 30.734375 -84.609375 C 25.867188 -78.765625 22.054688 -73.082031 19.296875 -67.5625 C 16.546875 -62.050781 15.171875 -57.195312 15.171875 -53 C 15.171875 -49.0625 16.085938 -46.101562 17.921875 -44.125 C 19.765625 -42.15625 22.066406 -40.8125 24.828125 -40.09375 C 27.585938 -39.375 30.34375 -39.015625 33.09375 -39.015625 C 39.269531 -39.015625 46.296875 -40.097656 54.171875 -42.265625 C 62.054688 -44.429688 69.972656 -47.351562 77.921875 -51.03125 C 85.867188 -54.707031 93.023438 -58.910156 99.390625 -63.640625 C 105.765625 -68.367188 110.523438 -73.289062 113.671875 -78.40625 L 113.671875 -79.203125 L 67.765625 -67.96875 L 67.765625 -89.25 L 120.765625 -81.953125 Z M 120.765625 0 "/></g></g><g style="fill:#ffffff;fill-opacity:1;"><g transform="translate(262.62633, 220.373517)"><path style="stroke:none" d=""/></g></g><g style="fill:#ffffff;fill-opacity:1;"><g transform="translate(313.847741, 220.373517)"><path style="stroke:none" d=""/></g></g><g style="fill:#ffffff;fill-opacity:1;"><g transform="translate(365.069152, 220.373517)"><path style="stroke:none" d=""/></g></g><g style="fill:#ffffff;fill-opacity:1;"><g transform="translate(416.314334, 220.373517)"><path style="stroke:none" d="M 3.34375 0 L 3.34375 -55.5625 C 5.707031 -54.507812 9.285156 -53 14.078125 -51.03125 C 18.878906 -49.0625 24.660156 -47.054688 31.421875 -45.015625 C 38.179688 -42.984375 45.765625 -41.242188 54.171875 -39.796875 C 62.578125 -38.347656 71.578125 -37.625 81.171875 -37.625 C 82.617188 -37.625 84.457031 -37.722656 86.6875 -37.921875 C 88.914062 -38.117188 91.144531 -38.578125 93.375 -39.296875 C 95.613281 -40.023438 97.519531 -41.109375 99.09375 -42.546875 C 100.675781 -43.992188 101.46875 -45.96875 101.46875 -48.46875 C 101.46875 -51.75 99.363281 -54.207031 95.15625 -55.84375 C 90.957031 -57.488281 85.640625 -59.164062 79.203125 -60.875 C 73.421875 -62.445312 67.179688 -64.285156 60.484375 -66.390625 C 53.785156 -68.492188 47.148438 -71.21875 40.578125 -74.5625 C 34.015625 -77.914062 28.039062 -82.117188 22.65625 -87.171875 C 17.269531 -92.234375 12.9375 -98.441406 9.65625 -105.796875 C 6.375 -113.148438 4.734375 -122.015625 4.734375 -132.390625 C 4.734375 -142.242188 6.535156 -150.191406 10.140625 -156.234375 C 13.753906 -162.273438 18.515625 -166.804688 24.421875 -169.828125 C 30.335938 -172.847656 36.707031 -174.882812 43.53125 -175.9375 C 50.363281 -176.988281 57 -177.515625 63.4375 -177.515625 C 65.40625 -177.515625 68.097656 -177.445312 71.515625 -177.3125 C 74.929688 -177.175781 78.578125 -176.976562 82.453125 -176.71875 C 86.328125 -176.457031 89.90625 -176.195312 93.1875 -175.9375 C 96.46875 -175.675781 98.960938 -175.410156 100.671875 -175.140625 L 100.671875 -118.40625 C 98.046875 -121.164062 94.628906 -123.988281 90.421875 -126.875 C 86.222656 -129.769531 81.132812 -132.234375 75.15625 -134.265625 C 69.1875 -136.296875 62.191406 -137.3125 54.171875 -137.3125 C 47.472656 -137.3125 41.101562 -135.960938 35.0625 -133.265625 C 29.019531 -130.578125 24.0625 -127.195312 20.1875 -123.125 C 16.3125 -119.0625 14.375 -114.992188 14.375 -110.921875 C 14.375 -106.191406 15.953125 -103.070312 19.109375 -101.5625 C 22.265625 -100.050781 25.484375 -99.296875 28.765625 -99.296875 C 33.359375 -99.296875 38.675781 -99.65625 44.71875 -100.375 C 50.757812 -101.101562 56.929688 -101.46875 63.234375 -101.46875 C 68.890625 -101.46875 74.375 -100.875 79.6875 -99.6875 C 85.007812 -98.507812 89.804688 -96.34375 94.078125 -93.1875 C 98.347656 -90.03125 101.726562 -85.398438 104.21875 -79.296875 C 106.71875 -73.191406 107.96875 -65.210938 107.96875 -55.359375 C 107.96875 -44.585938 106.160156 -35.488281 102.546875 -28.0625 C 98.929688 -20.644531 94.203125 -14.703125 88.359375 -10.234375 C 82.515625 -5.773438 76.242188 -2.5625 69.546875 -0.59375 C 62.847656 1.375 56.410156 2.359375 50.234375 2.359375 C 46.429688 2.359375 41.671875 2.257812 35.953125 2.0625 C 30.242188 1.863281 24.5 1.597656 18.71875 1.265625 C 12.9375 0.941406 7.8125 0.519531 3.34375 0 Z M 3.34375 0 "/></g></g><g clip-rule="nonzero" clip-path="url(#a6c0b1890b)"><g transform="matrix(1,0,0,1,272,44)"><g id="8f5ed1f0d5" clip-path="url(#486691a471)"><g clip-rule="nonzero" clip-path="url(#191cd8a5bb)"><path style=" stroke:none;fill-rule:nonzero;fill:#ffffff;fill-opacity:1;" d="M 63.484375 171.964844 C 63.976562 175.203125 65.09375 178.316406 66.742188 181.148438 C 66.753906 181.164062 66.761719 181.183594 66.773438 181.199219 C 67.964844 183.242188 70.140625 184.417969 72.695312 184.089844 C 106.164062 179.816406 136.234375 138.84375 136.234375 90.886719 C 136.234375 40.066406 108.101562 2.828125 66.640625 0.394531 C 63.382812 0.207031 60.160156 0.730469 57.015625 1.371094 C 55.472656 1.6875 54.847656 3.363281 55.84375 4.484375 C 77.265625 28.671875 89.535156 50.105469 87.304688 79.882812 C 86.503906 90.546875 82.703125 103.792969 77.972656 116.410156 C 73.582031 128.289062 60.027344 149.144531 63.484375 171.964844 "/></g><g clip-rule="nonzero" clip-path="url(#dad383f2ff)"><path style=" stroke:none;fill-rule:nonzero;fill:#ffffff;fill-opacity:1;" d="M 0.917969 92.4375 C 0.917969 136.046875 22.574219 172.582031 51.675781 182.070312 C 55.421875 183.292969 59.046875 179.929688 58.167969 176.085938 C 56.648438 169.4375 55.679688 162.621094 55.921875 155.746094 C 57.175781 119.875 73.675781 108.519531 75.570312 84.949219 C 77.335938 63.011719 74.808594 42.503906 57.386719 15.078125 C 55.492188 12.097656 53.269531 9.335938 50.753906 6.855469 C 49.601562 5.082031 47.128906 4.476562 45.136719 5.441406 C 19.394531 17.910156 0.917969 52.167969 0.917969 92.4375 "/></g></g></g></g></g></g></g></svg>