<svg xmlns="http://www.w3.org/2000/svg" xmlns:xlink="http://www.w3.org/1999/xlink" width="500" zoomAndPan="magnify" viewBox="0 0 375 374.999991" height="500" preserveAspectRatio="xMidYMid meet" version="1.2"><defs><clipPath id="6c6de6f4ee"><rect x="0" width="324" y="0" height="375"/></clipPath></defs><g id="9d477a0f99"><g transform="matrix(1,0,0,1,51,0)"><g clip-path="url(#6c6de6f4ee)"><g style="fill:#ffffff;fill-opacity:1;"><g transform="translate(8.285574, 367.882496)"><path style="stroke:none" d="M -4.90625 0 C 4.351562 -26.96875 13.816406 -54.546875 23.484375 -82.734375 C 33.160156 -110.929688 41.332031 -139.535156 48 -168.546875 C 54.675781 -197.554688 58.015625 -226.640625 58.015625 -255.796875 C 58.015625 -278.398438 56.378906 -299.234375 53.109375 -318.296875 C 49.847656 -337.367188 45.082031 -352.351562 38.8125 -363.25 L 214.109375 -363.25 C 214.109375 -315.3125 216.015625 -270.160156 219.828125 -227.796875 C 223.640625 -185.441406 230.175781 -145.46875 239.4375 -107.875 C 248.707031 -70.28125 261.515625 -34.320312 277.859375 0 L 138.515625 0 C 130.347656 -16.070312 124.492188 -31.117188 120.953125 -45.140625 C 117.410156 -59.171875 115.640625 -72.453125 115.640625 -84.984375 C 115.640625 -104.597656 119.039062 -122.578125 125.84375 -138.921875 C 132.65625 -155.265625 140.960938 -170.109375 150.765625 -183.453125 C 160.578125 -196.804688 169.84375 -208.796875 178.5625 -219.421875 C 186.457031 -228.679688 193.0625 -237.054688 198.375 -244.546875 C 203.6875 -252.046875 206.34375 -259.195312 206.34375 -266 C 206.34375 -272.269531 204.707031 -276.628906 201.4375 -279.078125 C 198.175781 -281.523438 194.226562 -282.75 189.59375 -282.75 C 182.238281 -282.75 173.179688 -280.707031 162.421875 -276.625 C 151.660156 -272.539062 140.488281 -266.410156 128.90625 -258.234375 C 117.332031 -250.066406 106.503906 -239.648438 96.421875 -226.984375 C 86.347656 -214.316406 78.175781 -199.398438 71.90625 -182.234375 C 65.644531 -165.078125 62.515625 -145.601562 62.515625 -123.8125 C 62.515625 -105.5625 65.035156 -86.015625 70.078125 -65.171875 C 75.117188 -44.335938 83.492188 -22.613281 95.203125 0 Z M -4.90625 0 "/></g></g><g style="fill:#ffffff;fill-opacity:1;"><g transform="translate(282.46665, 367.882496)"><path style="stroke:none" d=""/></g></g></g></g></g></svg>