<svg xmlns="http://www.w3.org/2000/svg" xmlns:xlink="http://www.w3.org/1999/xlink" width="200" zoomAndPan="magnify" viewBox="0 0 150 47.25" height="63" preserveAspectRatio="xMidYMid meet" version="1.0"><defs><clipPath id="847e942642"><path d="M 1.171875 9.117188 L 30 9.117188 L 30 37 L 1.171875 37 Z M 1.171875 9.117188 " clip-rule="nonzero"/></clipPath><clipPath id="9035702f7c"><path d="M 31 9.117188 L 60 9.117188 L 60 37 L 31 37 Z M 31 9.117188 " clip-rule="nonzero"/></clipPath><clipPath id="656f54d1c4"><path d="M 61 9.117188 L 89 9.117188 L 89 37 L 61 37 Z M 61 9.117188 " clip-rule="nonzero"/></clipPath><clipPath id="9413bf10d0"><path d="M 90 9.117188 L 119 9.117188 L 119 37 L 90 37 Z M 90 9.117188 " clip-rule="nonzero"/></clipPath><clipPath id="b36a8dbd94"><path d="M 120 9.117188 L 148.828125 9.117188 L 148.828125 37 L 120 37 Z M 120 9.117188 " clip-rule="nonzero"/></clipPath><clipPath id="018d63be2f"><path d="M 1.171875 9.117188 L 29 9.117188 L 29 35 L 1.171875 35 Z M 1.171875 9.117188 " clip-rule="nonzero"/></clipPath><clipPath id="d7011f6e91"><path d="M 31 9.117188 L 59 9.117188 L 59 35 L 31 35 Z M 31 9.117188 " clip-rule="nonzero"/></clipPath><clipPath id="a7d60daafd"><path d="M 61 9.117188 L 88 9.117188 L 88 35 L 61 35 Z M 61 9.117188 " clip-rule="nonzero"/></clipPath><clipPath id="45dd97633c"><path d="M 90 9.117188 L 118 9.117188 L 118 35 L 90 35 Z M 90 9.117188 " clip-rule="nonzero"/></clipPath></defs><g clip-path="url(#847e942642)"><path fill="#ffce00" d="M 24.546875 25.984375 C 24.074219 26.441406 23.859375 27.101562 23.972656 27.75 L 25.027344 33.902344 C 25.308594 35.53125 23.597656 36.769531 22.136719 36 L 16.609375 33.09375 C 16.03125 32.789062 15.335938 32.789062 14.753906 33.09375 L 9.226562 36 C 7.914062 36.695312 6.398438 35.757812 6.316406 34.378906 C 6.300781 34.226562 6.3125 34.066406 6.339844 33.902344 L 7.394531 27.75 C 7.503906 27.101562 7.289062 26.441406 6.820312 25.984375 L 2.347656 21.625 C 1.164062 20.472656 1.820312 18.464844 3.453125 18.226562 L 9.632812 17.332031 C 10.28125 17.234375 10.839844 16.832031 11.128906 16.242188 L 13.898438 10.640625 C 14.625 9.160156 16.734375 9.160156 17.46875 10.640625 L 20.230469 16.242188 C 20.519531 16.828125 21.082031 17.234375 21.730469 17.332031 L 27.910156 18.226562 C 28.066406 18.25 28.214844 18.289062 28.351562 18.34375 C 29.65625 18.839844 30.085938 20.582031 29.015625 21.625 Z M 24.546875 25.984375 " fill-opacity="1" fill-rule="nonzero"/></g><g clip-path="url(#9035702f7c)"><path fill="#ffce00" d="M 54.230469 25.984375 C 53.761719 26.441406 53.546875 27.101562 53.65625 27.75 L 54.710938 33.902344 C 54.992188 35.53125 53.28125 36.769531 51.824219 36 L 46.296875 33.09375 C 45.714844 32.789062 45.019531 32.789062 44.441406 33.09375 L 38.914062 36 C 37.597656 36.695312 36.082031 35.757812 36 34.378906 C 35.988281 34.226562 35.996094 34.066406 36.023438 33.902344 L 37.082031 27.75 C 37.1875 27.101562 36.972656 26.441406 36.507812 25.984375 L 32.035156 21.625 C 30.851562 20.472656 31.507812 18.464844 33.140625 18.226562 L 39.320312 17.332031 C 39.964844 17.234375 40.527344 16.832031 40.816406 16.242188 L 43.582031 10.640625 C 44.3125 9.160156 46.421875 9.160156 47.152344 10.640625 L 49.917969 16.242188 C 50.207031 16.828125 50.765625 17.234375 51.414062 17.332031 L 57.597656 18.226562 C 57.753906 18.25 57.902344 18.289062 58.039062 18.34375 C 59.339844 18.839844 59.769531 20.582031 58.699219 21.625 Z M 54.230469 25.984375 " fill-opacity="1" fill-rule="nonzero"/></g><g clip-path="url(#656f54d1c4)"><path fill="#ffce00" d="M 83.914062 25.984375 C 83.445312 26.441406 83.230469 27.101562 83.34375 27.75 L 84.398438 33.902344 C 84.675781 35.53125 82.96875 36.769531 81.507812 36 L 75.980469 33.09375 C 75.398438 32.789062 74.707031 32.789062 74.125 33.09375 L 68.597656 36 C 67.285156 36.695312 65.765625 35.757812 65.683594 34.378906 C 65.671875 34.226562 65.679688 34.066406 65.707031 33.902344 L 66.765625 27.75 C 66.875 27.101562 66.65625 26.441406 66.191406 25.984375 L 61.71875 21.625 C 60.535156 20.472656 61.191406 18.464844 62.824219 18.226562 L 69.003906 17.332031 C 69.652344 17.234375 70.210938 16.832031 70.5 16.242188 L 73.265625 10.640625 C 73.996094 9.160156 76.105469 9.160156 76.839844 10.640625 L 79.601562 16.242188 C 79.890625 16.828125 80.449219 17.234375 81.097656 17.332031 L 87.28125 18.226562 C 87.4375 18.25 87.585938 18.289062 87.722656 18.34375 C 89.023438 18.839844 89.453125 20.582031 88.382812 21.625 Z M 83.914062 25.984375 " fill-opacity="1" fill-rule="nonzero"/></g><g clip-path="url(#9413bf10d0)"><path fill="#ffce00" d="M 113.601562 25.984375 C 113.128906 26.441406 112.914062 27.101562 113.027344 27.75 L 114.082031 33.902344 C 114.363281 35.53125 112.652344 36.769531 111.191406 36 L 105.667969 33.09375 C 105.085938 32.789062 104.390625 32.789062 103.808594 33.09375 L 98.285156 36 C 96.96875 36.695312 95.453125 35.757812 95.371094 34.378906 C 95.355469 34.226562 95.367188 34.066406 95.394531 33.902344 L 96.449219 27.75 C 96.558594 27.101562 96.34375 26.441406 95.875 25.984375 L 91.40625 21.625 C 90.21875 20.472656 90.875 18.464844 92.507812 18.226562 L 98.6875 17.332031 C 99.335938 17.234375 99.894531 16.832031 100.183594 16.242188 L 102.953125 10.640625 C 103.683594 9.160156 105.789062 9.160156 106.523438 10.640625 L 109.289062 16.242188 C 109.578125 16.828125 110.136719 17.234375 110.785156 17.332031 L 116.964844 18.226562 C 117.125 18.25 117.269531 18.289062 117.40625 18.34375 C 118.710938 18.839844 119.140625 20.582031 118.070312 21.625 Z M 113.601562 25.984375 " fill-opacity="1" fill-rule="nonzero"/></g><g clip-path="url(#b36a8dbd94)"><path fill="#ffce00" d="M 134.421875 10.894531 C 134.539062 10.894531 134.828125 10.929688 134.984375 11.246094 L 137.75 16.847656 C 138.238281 17.835938 139.179688 18.519531 140.273438 18.683594 L 146.449219 19.578125 C 146.519531 19.589844 146.5625 19.601562 146.585938 19.613281 C 146.59375 19.613281 146.597656 19.617188 146.605469 19.617188 C 146.796875 19.691406 146.9375 19.863281 146.984375 20.078125 C 147.015625 20.226562 147.007812 20.449219 146.800781 20.648438 L 142.335938 25.007812 C 141.539062 25.78125 141.179688 26.890625 141.367188 27.980469 L 142.421875 34.136719 C 142.457031 34.328125 142.410156 34.496094 142.292969 34.636719 C 142.167969 34.785156 141.988281 34.871094 141.804688 34.871094 C 141.707031 34.871094 141.609375 34.847656 141.511719 34.792969 L 135.984375 31.886719 C 135.503906 31.636719 134.964844 31.503906 134.421875 31.503906 C 133.882812 31.503906 133.339844 31.636719 132.859375 31.890625 L 127.332031 34.796875 C 127.234375 34.847656 127.136719 34.871094 127.039062 34.871094 C 126.757812 34.871094 126.4375 34.640625 126.417969 34.300781 C 126.417969 34.285156 126.414062 34.273438 126.414062 34.257812 C 126.410156 34.246094 126.410156 34.207031 126.421875 34.136719 L 127.480469 27.976562 C 127.664062 26.890625 127.304688 25.78125 126.515625 25.007812 L 122.039062 20.648438 C 121.796875 20.414062 121.835938 20.144531 121.882812 20.007812 C 121.917969 19.894531 122.039062 19.628906 122.390625 19.578125 L 128.570312 18.679688 C 129.660156 18.519531 130.601562 17.835938 131.089844 16.847656 L 133.859375 11.242188 C 134.011719 10.941406 134.277344 10.894531 134.421875 10.894531 M 134.421875 9.53125 C 133.710938 9.53125 133.003906 9.902344 132.636719 10.640625 L 129.871094 16.242188 C 129.582031 16.828125 129.023438 17.234375 128.375 17.332031 L 122.195312 18.226562 C 120.5625 18.464844 119.90625 20.472656 121.089844 21.625 L 125.5625 25.984375 C 126.03125 26.441406 126.246094 27.101562 126.136719 27.75 L 125.078125 33.902344 C 125.054688 34.066406 125.042969 34.226562 125.054688 34.378906 C 125.117188 35.4375 126.027344 36.234375 127.042969 36.234375 C 127.347656 36.234375 127.664062 36.164062 127.972656 36 L 133.496094 33.09375 C 133.789062 32.941406 134.105469 32.867188 134.425781 32.867188 C 134.742188 32.867188 135.0625 32.941406 135.351562 33.09375 L 140.878906 36 C 141.183594 36.160156 141.5 36.234375 141.804688 36.234375 C 142.964844 36.234375 143.988281 35.1875 143.769531 33.902344 L 142.714844 27.746094 C 142.601562 27.097656 142.816406 26.441406 143.285156 25.984375 L 147.753906 21.625 C 148.828125 20.578125 148.398438 18.839844 147.09375 18.34375 C 146.957031 18.285156 146.8125 18.25 146.652344 18.226562 L 140.46875 17.328125 C 139.820312 17.234375 139.261719 16.828125 138.972656 16.242188 L 136.210938 10.640625 C 135.84375 9.902344 135.132812 9.53125 134.421875 9.53125 Z M 134.421875 9.53125 " fill-opacity="1" fill-rule="nonzero"/></g><g clip-path="url(#018d63be2f)"><path fill="#ffce00" d="M 28.351562 18.34375 C 23.460938 26.246094 15.59375 32.113281 6.316406 34.378906 C 6.300781 34.226562 6.3125 34.066406 6.339844 33.902344 L 7.394531 27.75 C 7.503906 27.101562 7.289062 26.441406 6.820312 25.984375 L 2.347656 21.625 C 1.164062 20.472656 1.820312 18.464844 3.453125 18.226562 L 9.632812 17.332031 C 10.28125 17.234375 10.839844 16.832031 11.128906 16.242188 L 13.898438 10.640625 C 14.625 9.160156 16.734375 9.160156 17.46875 10.640625 L 20.230469 16.242188 C 20.519531 16.828125 21.082031 17.234375 21.730469 17.332031 L 27.910156 18.226562 C 28.070312 18.25 28.214844 18.289062 28.351562 18.34375 Z M 28.351562 18.34375 " fill-opacity="1" fill-rule="nonzero"/></g><g clip-path="url(#d7011f6e91)"><path fill="#ffce00" d="M 58.039062 18.34375 C 53.144531 26.246094 45.28125 32.113281 36 34.378906 C 35.988281 34.226562 35.996094 34.066406 36.023438 33.902344 L 37.082031 27.75 C 37.1875 27.101562 36.972656 26.441406 36.507812 25.984375 L 32.035156 21.625 C 30.851562 20.472656 31.507812 18.464844 33.140625 18.226562 L 39.320312 17.332031 C 39.964844 17.234375 40.527344 16.832031 40.816406 16.242188 L 43.582031 10.640625 C 44.3125 9.160156 46.421875 9.160156 47.152344 10.640625 L 49.917969 16.242188 C 50.207031 16.828125 50.765625 17.234375 51.414062 17.332031 L 57.597656 18.226562 C 57.753906 18.25 57.902344 18.289062 58.039062 18.34375 Z M 58.039062 18.34375 " fill-opacity="1" fill-rule="nonzero"/></g><g clip-path="url(#a7d60daafd)"><path fill="#ffce00" d="M 87.722656 18.34375 C 82.832031 26.246094 74.964844 32.113281 65.683594 34.378906 C 65.671875 34.226562 65.679688 34.066406 65.707031 33.902344 L 66.765625 27.75 C 66.875 27.101562 66.65625 26.441406 66.191406 25.984375 L 61.71875 21.625 C 60.535156 20.472656 61.191406 18.464844 62.824219 18.226562 L 69.003906 17.332031 C 69.652344 17.234375 70.210938 16.832031 70.5 16.242188 L 73.265625 10.640625 C 73.996094 9.160156 76.105469 9.160156 76.839844 10.640625 L 79.601562 16.242188 C 79.890625 16.828125 80.449219 17.234375 81.097656 17.332031 L 87.28125 18.226562 C 87.4375 18.25 87.585938 18.289062 87.722656 18.34375 Z M 87.722656 18.34375 " fill-opacity="1" fill-rule="nonzero"/></g><g clip-path="url(#45dd97633c)"><path fill="#ffce00" d="M 117.40625 18.34375 C 112.515625 26.246094 104.648438 32.113281 95.367188 34.378906 C 95.355469 34.226562 95.367188 34.066406 95.390625 33.902344 L 96.449219 27.75 C 96.558594 27.101562 96.34375 26.441406 95.875 25.984375 L 91.402344 21.625 C 90.21875 20.472656 90.875 18.464844 92.507812 18.226562 L 98.6875 17.332031 C 99.335938 17.234375 99.894531 16.832031 100.183594 16.242188 L 102.949219 10.640625 C 103.679688 9.160156 105.789062 9.160156 106.523438 10.640625 L 109.285156 16.242188 C 109.574219 16.828125 110.132812 17.234375 110.78125 17.332031 L 116.964844 18.226562 C 117.125 18.25 117.269531 18.289062 117.40625 18.34375 Z M 117.40625 18.34375 " fill-opacity="1" fill-rule="nonzero"/></g></svg>