<svg xmlns="http://www.w3.org/2000/svg" xmlns:xlink="http://www.w3.org/1999/xlink" width="200" zoomAndPan="magnify" viewBox="0 0 150 47.25" height="63" preserveAspectRatio="xMidYMid meet" version="1.0"><defs><clipPath id="a8d500bc29"><path d="M 1.171875 9.117188 L 30 9.117188 L 30 37 L 1.171875 37 Z M 1.171875 9.117188 " clip-rule="nonzero"/></clipPath><clipPath id="822335b617"><path d="M 31 9.117188 L 60 9.117188 L 60 37 L 31 37 Z M 31 9.117188 " clip-rule="nonzero"/></clipPath><clipPath id="28d8a3f8c8"><path d="M 61 9.117188 L 89 9.117188 L 89 37 L 61 37 Z M 61 9.117188 " clip-rule="nonzero"/></clipPath><clipPath id="0fbd4973f4"><path d="M 90 9.117188 L 119 9.117188 L 119 37 L 90 37 Z M 90 9.117188 " clip-rule="nonzero"/></clipPath><clipPath id="3437548eb6"><path d="M 120 9.117188 L 148.828125 9.117188 L 148.828125 37 L 120 37 Z M 120 9.117188 " clip-rule="nonzero"/></clipPath><clipPath id="1fb9bb5344"><path d="M 1.171875 9.117188 L 29 9.117188 L 29 35 L 1.171875 35 Z M 1.171875 9.117188 " clip-rule="nonzero"/></clipPath><clipPath id="2555b87da4"><path d="M 31 9.117188 L 59 9.117188 L 59 35 L 31 35 Z M 31 9.117188 " clip-rule="nonzero"/></clipPath><clipPath id="1a2f431a57"><path d="M 61 9.117188 L 88 9.117188 L 88 35 L 61 35 Z M 61 9.117188 " clip-rule="nonzero"/></clipPath><clipPath id="c4afb168f2"><path d="M 90 9.117188 L 118 9.117188 L 118 35 L 90 35 Z M 90 9.117188 " clip-rule="nonzero"/></clipPath><clipPath id="03f11ace45"><path d="M 120 9.117188 L 148 9.117188 L 148 35 L 120 35 Z M 120 9.117188 " clip-rule="nonzero"/></clipPath></defs><g clip-path="url(#a8d500bc29)"><path fill="#ffce00" d="M 24.546875 25.984375 C 24.074219 26.441406 23.859375 27.097656 23.972656 27.746094 L 25.027344 33.902344 C 25.308594 35.527344 23.597656 36.769531 22.136719 36 L 16.609375 33.089844 C 16.03125 32.789062 15.335938 32.789062 14.753906 33.089844 L 9.226562 36 C 7.914062 36.691406 6.398438 35.757812 6.316406 34.375 C 6.300781 34.222656 6.3125 34.066406 6.339844 33.902344 L 7.394531 27.746094 C 7.503906 27.097656 7.289062 26.441406 6.820312 25.984375 L 2.347656 21.625 C 1.164062 20.472656 1.820312 18.464844 3.453125 18.226562 L 9.632812 17.328125 C 10.28125 17.234375 10.839844 16.828125 11.128906 16.242188 L 13.898438 10.640625 C 14.625 9.160156 16.734375 9.160156 17.46875 10.640625 L 20.230469 16.242188 C 20.519531 16.828125 21.082031 17.234375 21.730469 17.328125 L 27.910156 18.226562 C 28.066406 18.25 28.214844 18.289062 28.351562 18.34375 C 29.65625 18.839844 30.085938 20.578125 29.015625 21.625 Z M 24.546875 25.984375 " fill-opacity="1" fill-rule="nonzero"/></g><g clip-path="url(#822335b617)"><path fill="#ffce00" d="M 54.230469 25.984375 C 53.761719 26.441406 53.546875 27.097656 53.65625 27.746094 L 54.710938 33.902344 C 54.992188 35.527344 53.28125 36.769531 51.824219 36 L 46.296875 33.089844 C 45.714844 32.789062 45.019531 32.789062 44.441406 33.089844 L 38.914062 36 C 37.597656 36.691406 36.082031 35.757812 36 34.375 C 35.988281 34.222656 35.996094 34.066406 36.023438 33.902344 L 37.082031 27.746094 C 37.1875 27.097656 36.972656 26.441406 36.507812 25.984375 L 32.035156 21.625 C 30.851562 20.472656 31.507812 18.464844 33.140625 18.226562 L 39.320312 17.328125 C 39.964844 17.234375 40.527344 16.828125 40.816406 16.242188 L 43.582031 10.640625 C 44.3125 9.160156 46.421875 9.160156 47.152344 10.640625 L 49.917969 16.242188 C 50.207031 16.828125 50.765625 17.234375 51.414062 17.328125 L 57.597656 18.226562 C 57.753906 18.25 57.902344 18.289062 58.039062 18.34375 C 59.339844 18.839844 59.769531 20.578125 58.699219 21.625 Z M 54.230469 25.984375 " fill-opacity="1" fill-rule="nonzero"/></g><g clip-path="url(#28d8a3f8c8)"><path fill="#ffce00" d="M 83.914062 25.984375 C 83.445312 26.441406 83.230469 27.097656 83.34375 27.746094 L 84.398438 33.902344 C 84.675781 35.527344 82.96875 36.769531 81.507812 36 L 75.980469 33.089844 C 75.398438 32.789062 74.707031 32.789062 74.125 33.089844 L 68.597656 36 C 67.285156 36.691406 65.765625 35.757812 65.683594 34.375 C 65.671875 34.222656 65.679688 34.066406 65.707031 33.902344 L 66.765625 27.746094 C 66.875 27.097656 66.65625 26.441406 66.191406 25.984375 L 61.71875 21.625 C 60.535156 20.472656 61.191406 18.464844 62.824219 18.226562 L 69.003906 17.328125 C 69.652344 17.234375 70.210938 16.828125 70.5 16.242188 L 73.265625 10.640625 C 73.996094 9.160156 76.105469 9.160156 76.839844 10.640625 L 79.601562 16.242188 C 79.890625 16.828125 80.449219 17.234375 81.097656 17.328125 L 87.28125 18.226562 C 87.4375 18.25 87.585938 18.289062 87.722656 18.34375 C 89.023438 18.839844 89.453125 20.578125 88.382812 21.625 Z M 83.914062 25.984375 " fill-opacity="1" fill-rule="nonzero"/></g><g clip-path="url(#0fbd4973f4)"><path fill="#ffce00" d="M 113.601562 25.984375 C 113.128906 26.441406 112.914062 27.097656 113.027344 27.746094 L 114.082031 33.902344 C 114.363281 35.527344 112.652344 36.769531 111.191406 36 L 105.667969 33.089844 C 105.085938 32.789062 104.390625 32.789062 103.808594 33.089844 L 98.285156 36 C 96.96875 36.691406 95.453125 35.757812 95.371094 34.375 C 95.355469 34.222656 95.367188 34.066406 95.394531 33.902344 L 96.449219 27.746094 C 96.558594 27.097656 96.34375 26.441406 95.875 25.984375 L 91.40625 21.625 C 90.21875 20.472656 90.875 18.464844 92.507812 18.226562 L 98.6875 17.328125 C 99.335938 17.234375 99.894531 16.828125 100.183594 16.242188 L 102.953125 10.640625 C 103.683594 9.160156 105.789062 9.160156 106.523438 10.640625 L 109.289062 16.242188 C 109.578125 16.828125 110.136719 17.234375 110.785156 17.328125 L 116.964844 18.226562 C 117.121094 18.25 117.269531 18.289062 117.40625 18.34375 C 118.710938 18.839844 119.140625 20.578125 118.070312 21.625 Z M 113.601562 25.984375 " fill-opacity="1" fill-rule="nonzero"/></g><g clip-path="url(#3437548eb6)"><path fill="#ffce00" d="M 143.285156 25.984375 C 142.816406 26.441406 142.601562 27.097656 142.710938 27.746094 L 143.765625 33.902344 C 144.046875 35.527344 142.335938 36.769531 140.878906 36 L 135.351562 33.089844 C 134.769531 32.789062 134.074219 32.789062 133.496094 33.089844 L 127.96875 36 C 126.652344 36.691406 125.136719 35.757812 125.054688 34.375 C 125.039062 34.222656 125.050781 34.066406 125.078125 33.902344 L 126.132812 27.746094 C 126.242188 27.097656 126.027344 26.441406 125.5625 25.984375 L 121.089844 21.625 C 119.902344 20.472656 120.558594 18.464844 122.195312 18.226562 L 128.371094 17.328125 C 129.019531 17.234375 129.578125 16.828125 129.871094 16.242188 L 132.636719 10.640625 C 133.367188 9.160156 135.472656 9.160156 136.207031 10.640625 L 138.972656 16.242188 C 139.261719 16.828125 139.820312 17.234375 140.46875 17.328125 L 146.652344 18.226562 C 146.808594 18.25 146.953125 18.289062 147.089844 18.34375 C 148.394531 18.839844 148.824219 20.578125 147.753906 21.625 Z M 143.285156 25.984375 " fill-opacity="1" fill-rule="nonzero"/></g><g clip-path="url(#1fb9bb5344)"><path fill="#ffce00" d="M 28.351562 18.34375 C 23.460938 26.242188 15.59375 32.113281 6.316406 34.375 C 6.300781 34.222656 6.3125 34.066406 6.339844 33.902344 L 7.394531 27.746094 C 7.503906 27.097656 7.289062 26.441406 6.820312 25.984375 L 2.347656 21.625 C 1.164062 20.472656 1.820312 18.464844 3.453125 18.226562 L 9.632812 17.328125 C 10.28125 17.234375 10.839844 16.828125 11.128906 16.242188 L 13.898438 10.640625 C 14.625 9.160156 16.734375 9.160156 17.46875 10.640625 L 20.230469 16.242188 C 20.519531 16.828125 21.082031 17.234375 21.730469 17.328125 L 27.910156 18.226562 C 28.070312 18.25 28.214844 18.285156 28.351562 18.34375 Z M 28.351562 18.34375 " fill-opacity="1" fill-rule="nonzero"/></g><g clip-path="url(#2555b87da4)"><path fill="#ffce00" d="M 58.039062 18.34375 C 53.144531 26.242188 45.28125 32.113281 36 34.375 C 35.988281 34.222656 35.996094 34.066406 36.023438 33.902344 L 37.082031 27.746094 C 37.1875 27.097656 36.972656 26.441406 36.507812 25.984375 L 32.035156 21.625 C 30.851562 20.472656 31.507812 18.464844 33.140625 18.226562 L 39.320312 17.328125 C 39.964844 17.234375 40.527344 16.828125 40.816406 16.242188 L 43.582031 10.640625 C 44.3125 9.160156 46.421875 9.160156 47.152344 10.640625 L 49.917969 16.242188 C 50.207031 16.828125 50.765625 17.234375 51.414062 17.328125 L 57.597656 18.226562 C 57.753906 18.25 57.902344 18.285156 58.039062 18.34375 Z M 58.039062 18.34375 " fill-opacity="1" fill-rule="nonzero"/></g><g clip-path="url(#1a2f431a57)"><path fill="#ffce00" d="M 87.722656 18.34375 C 82.832031 26.242188 74.964844 32.113281 65.683594 34.375 C 65.671875 34.222656 65.679688 34.066406 65.707031 33.902344 L 66.765625 27.746094 C 66.875 27.097656 66.65625 26.441406 66.191406 25.984375 L 61.71875 21.625 C 60.535156 20.472656 61.191406 18.464844 62.824219 18.226562 L 69.003906 17.328125 C 69.652344 17.234375 70.210938 16.828125 70.5 16.242188 L 73.265625 10.640625 C 73.996094 9.160156 76.105469 9.160156 76.839844 10.640625 L 79.601562 16.242188 C 79.890625 16.828125 80.449219 17.234375 81.097656 17.328125 L 87.28125 18.226562 C 87.4375 18.25 87.585938 18.285156 87.722656 18.34375 Z M 87.722656 18.34375 " fill-opacity="1" fill-rule="nonzero"/></g><g clip-path="url(#c4afb168f2)"><path fill="#ffce00" d="M 117.40625 18.34375 C 112.515625 26.242188 104.648438 32.113281 95.367188 34.375 C 95.355469 34.222656 95.367188 34.066406 95.390625 33.902344 L 96.449219 27.746094 C 96.558594 27.097656 96.34375 26.441406 95.875 25.984375 L 91.402344 21.625 C 90.21875 20.472656 90.875 18.464844 92.507812 18.226562 L 98.6875 17.328125 C 99.335938 17.234375 99.894531 16.828125 100.183594 16.242188 L 102.949219 10.640625 C 103.679688 9.160156 105.789062 9.160156 106.523438 10.640625 L 109.285156 16.242188 C 109.574219 16.828125 110.132812 17.234375 110.78125 17.328125 L 116.964844 18.226562 C 117.125 18.25 117.269531 18.285156 117.40625 18.34375 Z M 117.40625 18.34375 " fill-opacity="1" fill-rule="nonzero"/></g><g clip-path="url(#03f11ace45)"><path fill="#ffce00" d="M 147.09375 18.34375 C 142.199219 26.242188 134.335938 32.113281 125.054688 34.375 C 125.039062 34.222656 125.050781 34.066406 125.078125 33.902344 L 126.132812 27.746094 C 126.242188 27.097656 126.027344 26.441406 125.5625 25.984375 L 121.089844 21.625 C 119.902344 20.472656 120.558594 18.464844 122.195312 18.226562 L 128.371094 17.328125 C 129.019531 17.234375 129.578125 16.828125 129.871094 16.242188 L 132.636719 10.640625 C 133.367188 9.160156 135.472656 9.160156 136.207031 10.640625 L 138.972656 16.242188 C 139.261719 16.828125 139.820312 17.234375 140.46875 17.328125 L 146.652344 18.226562 C 146.808594 18.25 146.957031 18.285156 147.09375 18.34375 Z M 147.09375 18.34375 " fill-opacity="1" fill-rule="nonzero"/></g></svg>