<svg xmlns="http://www.w3.org/2000/svg" xmlns:xlink="http://www.w3.org/1999/xlink" width="242" zoomAndPan="magnify" viewBox="0 0 181.5 197.999996" height="264" preserveAspectRatio="xMidYMid meet" version="1.2"><defs><clipPath id="6a517f2f22"><path d="M 0 0.273438 L 180 0.273438 L 180 197.726562 L 0 197.726562 Z M 0 0.273438 "/></clipPath></defs><g id="8a34dd8b11"><g clip-rule="nonzero" clip-path="url(#6a517f2f22)"><path style=" stroke:none;fill-rule:nonzero;fill:#000000;fill-opacity:1;" d="M 38.972656 114.464844 C 38.175781 114.210938 37.769531 114.613281 37.335938 114.832031 C 36.160156 115.414062 34.980469 115.996094 33.867188 116.691406 C 29.757812 119.242188 25.925781 118.5 22.3125 115.707031 C 18.21875 112.546875 18.0625 107.574219 19.640625 103.59375 C 20.109375 102.40625 21.21875 101.703125 22.25 101.003906 C 26.484375 98.113281 31.066406 95.875 35.738281 93.804688 C 37.0625 93.21875 38.703125 92.941406 39.574219 91.816406 C 40.460938 90.664062 39.964844 88.988281 40.097656 87.554688 C 40.28125 85.59375 40.183594 83.609375 40.269531 81.640625 C 40.3125 80.695312 39.902344 80.3125 39.015625 80.277344 C 37.414062 80.222656 35.8125 80.089844 34.210938 80.089844 C 32.230469 80.089844 30.277344 79.8125 28.347656 79.46875 C 22.5625 78.4375 18.34375 73.9375 17.558594 68.027344 C 17.320312 66.214844 16.84375 64.453125 16.511719 62.65625 C 16.316406 61.59375 15.796875 61.273438 14.761719 61.167969 C 13.320312 61.023438 11.867188 60.742188 10.488281 60.300781 C 5.621094 58.746094 2.289062 55.714844 1.257812 50.484375 C 0.941406 48.902344 0.652344 47.304688 0.617188 45.71875 C 0.4375 38.042969 0.691406 30.375 1.789062 22.765625 C 2.230469 19.710938 3.367188 16.84375 4.550781 14.019531 C 5.414062 11.960938 6.851562 10.324219 8.691406 9.027344 C 13.335938 5.746094 18.550781 4.027344 24.140625 3.429688 C 31.097656 2.679688 38.078125 2.15625 45.070312 1.808594 C 48.785156 1.625 52.496094 1.324219 56.210938 1.3125 C 66.566406 1.269531 76.890625 0.355469 87.246094 0.320312 C 101.496094 0.277344 115.640625 1.332031 129.695312 3.714844 C 137.8125 5.089844 145.992188 6.074219 154.042969 7.808594 C 157.460938 8.542969 160.890625 9.238281 164.199219 10.410156 C 166.542969 11.242188 168.773438 12.292969 170.921875 13.550781 C 175.578125 16.277344 177.785156 20.4375 178.523438 25.679688 C 179.355469 31.554688 179.566406 37.46875 179.695312 43.371094 C 179.859375 50.820312 180.164062 58.28125 179.738281 65.726562 C 179.082031 77.117188 179.347656 88.515625 179.332031 99.914062 C 179.324219 105.683594 179.667969 111.449219 179.757812 117.21875 C 179.960938 130.445312 179.6875 143.667969 178.988281 156.875 C 178.679688 162.722656 179.046875 168.558594 179.394531 174.394531 C 179.699219 179.503906 179.621094 184.621094 179.488281 189.734375 C 179.398438 193.261719 179.101562 193.546875 175.703125 194.101562 C 171.523438 194.789062 167.292969 195.140625 163.082031 195.230469 C 157.015625 195.363281 150.996094 195.921875 145.019531 196.796875 C 140.3125 197.488281 135.589844 197.5 130.878906 197.535156 C 112.285156 197.683594 93.691406 197.675781 75.097656 197.714844 C 64.664062 197.738281 54.253906 197.148438 43.839844 196.722656 C 33.492188 196.296875 23.148438 195.800781 12.789062 195.808594 C 11.324219 195.808594 9.875 195.644531 8.441406 195.371094 C 4.441406 194.605469 1.558594 191.601562 0.84375 187.585938 C 0.117188 183.488281 0.863281 179.425781 1.105469 175.351562 C 1.21875 173.460938 1.457031 171.570312 1.71875 169.691406 C 2.113281 166.878906 3.527344 164.671875 5.785156 162.941406 C 9.824219 159.851562 14.503906 158.667969 19.429688 158.191406 C 25.46875 157.609375 31.511719 157.632812 37.554688 158.160156 C 39.222656 158.304688 39.3125 158.207031 39.371094 156.332031 C 39.628906 147.574219 39.773438 138.8125 39.4375 130.050781 C 39.253906 125.308594 38.90625 120.5625 39.066406 115.8125 C 39.078125 115.378906 39.003906 114.945312 38.972656 114.464844 Z M 141.488281 88.765625 C 141.296875 88.105469 140.976562 87.542969 140.015625 86.917969 C 140.476562 87.917969 140.699219 88.539062 141.230469 89.003906 C 142.335938 91.425781 142.675781 91.929688 144.050781 92.996094 C 143.222656 91.378906 142.550781 89.960938 141.488281 88.765625 Z M 135.683594 98.078125 C 135.796875 100.261719 136 102.152344 135.972656 104.039062 C 135.886719 109.589844 135.691406 115.140625 135.570312 120.695312 C 135.378906 129.324219 135.933594 137.933594 136.117188 146.554688 C 136.445312 161.746094 136.625 176.945312 136.878906 192.144531 C 136.921875 194.875 137.738281 195.59375 140.503906 195.402344 C 140.941406 195.375 141.371094 195.289062 141.804688 195.238281 C 147.8125 194.523438 153.789062 193.578125 159.859375 193.433594 C 164.886719 193.316406 169.90625 192.972656 174.914062 192.449219 C 175.421875 192.398438 175.925781 192.335938 176.429688 192.257812 C 177.261719 192.128906 177.65625 191.71875 177.664062 190.792969 C 177.707031 185.457031 177.765625 180.132812 177.480469 174.796875 C 177.207031 169.695312 176.835938 164.601562 177.09375 159.46875 C 177.617188 149.03125 178 138.589844 178.070312 128.136719 C 178.125 119.804688 177.558594 111.484375 177.414062 103.160156 C 177.199219 90.523438 177.242188 77.878906 177.722656 65.234375 C 178.144531 54.132812 177.789062 43.015625 177.3125 31.917969 C 177.1875 29.003906 176.765625 26.101562 176.4375 23.203125 C 176.359375 22.511719 176.410156 21.5625 175.574219 21.371094 C 174.652344 21.160156 174.191406 22.027344 173.769531 22.699219 C 173.421875 23.253906 173.136719 23.855469 172.886719 24.457031 C 171.882812 26.847656 171.457031 29.359375 171.453125 31.941406 C 171.445312 35.160156 171.46875 38.371094 171.484375 41.589844 C 171.550781 57.449219 171.75 73.3125 171.378906 89.167969 C 171.039062 103.710938 170.816406 118.253906 171.039062 132.796875 C 171.191406 142.511719 171.636719 152.226562 171.960938 161.941406 C 172.144531 167.417969 172.34375 172.894531 172.710938 178.363281 C 172.875 180.835938 172.875 183.328125 172.863281 185.8125 C 172.859375 186.625 173.058594 187.875 171.871094 187.902344 C 170.707031 187.9375 170.820312 186.71875 170.773438 185.882812 C 170.613281 182.890625 170.46875 179.898438 170.363281 176.902344 C 170.136719 170.546875 169.890625 164.195312 169.726562 157.839844 C 169.390625 144.988281 168.5625 132.144531 168.863281 119.273438 C 169.0625 110.796875 169.171875 102.320312 169.296875 93.839844 C 169.585938 74.328125 169.542969 54.816406 169.601562 35.300781 C 169.605469 33.40625 169.664062 31.488281 169.949219 29.617188 C 170.53125 25.773438 171.402344 22.011719 175.128906 19.730469 C 174.363281 18.4375 173.328125 17.523438 172.222656 16.6875 C 169.824219 14.867188 167.210938 13.449219 164.375 12.417969 C 160.042969 10.84375 155.5625 9.828125 151.046875 9.023438 C 137.125 6.546875 123.160156 4.332031 109.074219 3 C 106.800781 2.785156 104.5 2.597656 102.078125 2.773438 C 102.519531 3.566406 103.203125 3.679688 103.746094 3.980469 C 109.691406 7.257812 113.507812 12.171875 115.148438 18.78125 C 116.539062 24.382812 116.613281 30.078125 116.234375 35.773438 C 115.953125 40 115.5625 44.21875 115.449219 48.453125 C 115.359375 51.8125 115.34375 55.179688 115.371094 58.539062 C 115.386719 60.457031 115.464844 60.46875 117.425781 60.234375 C 119.019531 60.046875 120.609375 59.832031 122.203125 59.660156 C 125.898438 59.261719 129.574219 58.648438 133.320312 58.996094 C 136.066406 59.25 137.148438 60.113281 137.890625 62.847656 C 138.550781 65.257812 138.78125 67.742188 138.753906 70.226562 C 138.722656 72.789062 139.011719 75.332031 139.09375 77.882812 C 139.117188 78.589844 139.339844 79.136719 139.816406 79.640625 C 141.523438 81.464844 142.835938 83.582031 144.058594 85.742188 C 149.558594 95.464844 155.03125 105.199219 160.496094 114.9375 C 160.992188 115.824219 161.414062 116.769531 161.773438 117.722656 C 162.507812 119.644531 162.082031 121.230469 160.53125 122.621094 C 159.707031 123.359375 158.75 123.882812 157.746094 124.328125 C 156.191406 125.015625 154.769531 124.789062 153.421875 123.808594 C 152.222656 122.9375 151.289062 121.808594 150.515625 120.5625 C 146.242188 113.679688 141.285156 107.234375 137.410156 100.089844 C 137.046875 99.425781 136.789062 98.613281 135.683594 98.078125 Z M 52.984375 159.214844 C 53.085938 158.882812 53.144531 158.800781 53.125 158.742188 C 52.878906 157.980469 52.609375 157.222656 52.371094 156.457031 C 50.046875 149.171875 48.5 141.800781 49.4375 134.058594 C 49.742188 131.523438 50.984375 130.09375 53.230469 129.253906 C 55.367188 128.457031 57.574219 128.027344 59.851562 127.96875 C 66.5625 127.804688 73.269531 127.855469 79.964844 128.441406 C 83.375 128.742188 86.765625 129.210938 90.066406 130.210938 C 92.546875 130.96875 94.140625 132.402344 94.152344 135.183594 C 94.152344 135.464844 94.183594 135.769531 94.570312 135.910156 C 95.0625 135.992188 95.5 135.683594 95.984375 135.542969 C 100.679688 134.179688 104.597656 135.597656 107.910156 138.988281 C 109.183594 140.292969 109.878906 141.917969 109.664062 143.773438 C 109.46875 145.453125 108.960938 147.046875 108.007812 148.480469 C 106.109375 151.351562 103.636719 153.558594 100.554688 155.078125 C 97.527344 156.566406 94.335938 157.566406 91.035156 158.230469 C 90.539062 158.328125 89.988281 158.363281 89.570312 158.605469 C 89.140625 158.851562 88.808594 159.351562 88.925781 159.898438 C 89.046875 160.449219 89.601562 160.335938 90.007812 160.375 C 90.445312 160.410156 90.882812 160.394531 91.320312 160.40625 C 105.167969 160.722656 119.027344 160.507812 132.871094 161.125 C 134.332031 161.1875 134.453125 161.117188 134.4375 159.757812 C 134.386719 154.859375 134.332031 149.964844 134.195312 145.074219 C 133.976562 137.476562 133.578125 129.886719 133.773438 122.285156 C 133.992188 113.882812 134.460938 105.492188 134.523438 97.085938 C 134.53125 95.933594 134.261719 94.972656 133.613281 94.019531 C 132.210938 91.972656 130.632812 90.035156 129.519531 87.804688 C 129.027344 86.820312 128.460938 86.730469 127.425781 86.917969 C 123.625 87.605469 119.867188 88.488281 116.144531 89.503906 C 113.777344 90.148438 111.792969 89.699219 109.898438 88.015625 C 107.109375 85.535156 104.429688 82.960938 102.136719 80.007812 C 101.539062 79.238281 100.933594 78.914062 99.929688 78.980469 C 96.511719 79.210938 93.085938 79.320312 89.664062 79.496094 C 87.617188 79.597656 87.554688 79.613281 87.578125 81.605469 C 87.617188 84.453125 87.808594 87.304688 87.835938 90.152344 C 87.871094 93.976562 86.070312 95.933594 82.238281 96.269531 C 81.003906 96.375 79.761719 96.363281 78.523438 96.308594 C 77.464844 96.261719 76.835938 96.535156 76.910156 97.738281 C 77.027344 99.574219 76.5625 100.960938 74.902344 102.210938 C 73.855469 102.996094 72.921875 103.257812 71.796875 103.371094 C 70.464844 103.511719 69.304688 103.292969 68.976562 101.679688 C 68.945312 101.511719 68.679688 101.363281 68.492188 101.257812 C 67.144531 100.507812 66.988281 99.234375 66.929688 97.871094 C 66.902344 97.210938 67.238281 96.445312 66.601562 95.777344 C 64.980469 97.0625 63.480469 98.335938 61.890625 99.484375 C 55.621094 104.023438 49.046875 108.097656 42.347656 111.964844 C 40.945312 112.777344 40.433594 113.667969 40.492188 115.25 C 40.636719 119.046875 40.625 122.847656 40.660156 126.648438 C 40.734375 134.683594 41.378906 142.710938 40.78125 150.75 C 40.632812 152.785156 40.777344 154.839844 40.734375 156.886719 C 40.710938 157.871094 41.070312 158.34375 42.074219 158.453125 C 45.667969 158.835938 49.292969 159.015625 52.984375 159.214844 Z M 79.242188 62.644531 C 83.652344 62.757812 91.519531 62.511719 99.375 62.023438 C 101.046875 61.921875 102.722656 61.808594 104.386719 61.628906 C 106.128906 61.441406 106.199219 61.378906 106.257812 59.640625 C 106.363281 56.644531 106.457031 53.648438 106.453125 50.65625 C 106.453125 45.683594 106.726562 40.722656 107 35.761719 C 107.148438 33.058594 107.246094 30.378906 106.933594 27.671875 C 106.039062 19.9375 102.003906 14.078125 95.683594 9.992188 C 89.207031 5.804688 81.773438 3.976562 74.144531 3.398438 C 68.195312 2.953125 62.222656 2.800781 56.230469 3.078125 C 45.890625 3.554688 35.546875 3.90625 25.25 5.019531 C 19.707031 5.617188 14.613281 7.410156 10.070312 10.691406 C 8.683594 11.691406 7.496094 12.867188 6.789062 14.441406 C 5.203125 17.984375 3.878906 21.601562 3.394531 25.488281 C 2.558594 32.25 2.414062 39.035156 2.507812 45.832031 C 2.527344 47.148438 2.730469 48.441406 2.929688 49.746094 C 3.574219 54.027344 6.191406 56.632812 9.996094 58.226562 C 10.992188 58.648438 12.078125 58.902344 13.148438 59.089844 C 19.335938 60.175781 25.597656 60.5625 31.855469 60.808594 C 39.207031 61.101562 46.574219 60.964844 53.929688 61.503906 C 61.199219 62.027344 68.496094 62.175781 79.242188 62.644531 Z M 4.019531 170.820312 C 3.359375 173.089844 3.488281 175.300781 3.261719 177.453125 C 2.945312 180.429688 2.742188 183.421875 3.019531 186.417969 C 3.382812 190.359375 5.789062 192.855469 9.714844 193.277344 C 11.519531 193.476562 13.351562 193.570312 15.171875 193.578125 C 26.542969 193.621094 37.90625 193.949219 49.265625 194.496094 C 57.859375 194.90625 66.457031 195.292969 75.050781 195.214844 C 87.808594 195.101562 100.5625 195.382812 113.316406 195.347656 C 120.023438 195.324219 126.726562 195.238281 133.433594 195.21875 C 134.5625 195.214844 134.925781 194.824219 134.90625 193.675781 C 134.816406 187.902344 134.808594 182.132812 134.761719 176.367188 C 134.746094 174.289062 134.695312 174.191406 132.578125 173.984375 C 126.777344 173.421875 120.984375 172.839844 115.136719 172.863281 C 104.128906 172.914062 93.128906 173.085938 82.128906 173.371094 C 77.03125 173.503906 71.921875 173.492188 66.824219 173.609375 C 51.964844 173.953125 37.105469 174.355469 22.253906 173.09375 C 16.175781 172.566406 10.027344 172.785156 4.019531 170.820312 Z M 65.707031 78.84375 C 69.496094 78.699219 73.277344 78.476562 77.066406 78.425781 C 85.375 78.320312 93.683594 78.285156 101.964844 77.511719 C 106.390625 77.101562 110.84375 77.042969 115.230469 76.234375 C 116.878906 75.925781 118.515625 75.59375 120.082031 74.980469 C 122.070312 74.210938 123.230469 72.871094 123.621094 70.660156 C 124.0625 68.148438 123.675781 65.714844 123.492188 63.25 C 123.371094 61.589844 123.277344 61.539062 121.648438 61.640625 C 121.363281 61.65625 121.070312 61.679688 120.78125 61.71875 C 110.15625 63.203125 99.464844 63.710938 88.757812 64.136719 C 76.871094 64.609375 65.007812 64.058594 53.144531 63.453125 C 50.378906 63.308594 47.617188 63.035156 44.851562 62.984375 C 39.605469 62.882812 34.359375 62.796875 29.121094 62.425781 C 25.78125 62.1875 22.441406 61.886719 19.101562 61.648438 C 17.792969 61.554688 17.675781 61.679688 17.851562 62.953125 C 18.085938 64.613281 18.457031 66.257812 18.675781 67.917969 C 19.347656 73.175781 22.757812 76.902344 27.941406 77.9375 C 30.304688 78.410156 32.703125 78.726562 35.101562 78.71875 C 45.308594 78.675781 55.503906 79.519531 65.707031 78.84375 Z M 30.421875 159.46875 C 27.039062 159.21875 23.117188 159.632812 19.195312 159.917969 C 16.496094 160.113281 13.878906 160.796875 11.410156 161.949219 C 9.007812 163.070312 6.839844 164.550781 5.25 166.722656 C 4.210938 168.15625 4.433594 168.699219 6.09375 169.195312 C 6.71875 169.382812 7.367188 169.5 8.011719 169.628906 C 14.402344 170.898438 20.917969 170.882812 27.375 171.253906 C 37.628906 171.84375 47.910156 171.929688 58.191406 171.671875 C 74.292969 171.269531 90.398438 171.179688 106.503906 170.875 C 115.402344 170.707031 124.28125 170.742188 133.105469 172.105469 C 134.539062 172.328125 134.746094 172.136719 134.71875 170.609375 C 134.683594 168.566406 134.488281 166.523438 134.507812 164.480469 C 134.519531 163.207031 133.96875 162.9375 132.835938 162.867188 C 127.378906 162.519531 121.921875 162.3125 116.457031 162.1875 C 107.207031 161.980469 97.945312 162.277344 88.695312 161.839844 C 87.734375 161.796875 87.039062 162.007812 86.371094 162.710938 C 84.515625 164.664062 82.21875 165.886719 79.632812 166.582031 C 74.316406 168.003906 68.953125 167.976562 63.625 166.792969 C 60.4375 166.085938 57.609375 164.566406 55.46875 162 C 54.910156 161.328125 54.277344 161.042969 53.410156 160.988281 C 45.9375 160.539062 38.511719 159.234375 30.421875 159.46875 Z M 81.816406 2.621094 C 84.421875 3.449219 86.960938 4.300781 89.507812 5.136719 C 93.964844 6.605469 97.800781 8.941406 101.015625 12.417969 C 106.136719 17.949219 109.261719 24.234375 108.871094 31.957031 C 108.65625 36.1875 108.402344 40.410156 108.117188 44.636719 C 107.878906 48.207031 108.136719 51.792969 107.734375 55.367188 C 107.554688 56.957031 107.644531 58.574219 107.605469 60.183594 C 107.589844 60.917969 107.902344 61.238281 108.667969 61.144531 C 109.824219 60.996094 110.988281 60.914062 112.144531 60.777344 C 113.875 60.574219 113.925781 60.480469 113.96875 58.769531 C 114.164062 51.25 114.191406 43.726562 114.71875 36.214844 C 115.121094 30.445312 115.03125 24.679688 113.820312 18.980469 C 111.488281 7.976562 100.839844 2.082031 93.359375 2.285156 C 90.59375 2.363281 87.820312 2.265625 85.050781 2.28125 C 83.972656 2.285156 82.878906 2.148438 81.816406 2.621094 Z M 68.652344 93.832031 C 68.90625 94.238281 69.199219 94.28125 69.480469 94.304688 C 73.542969 94.648438 77.597656 95.136719 81.691406 95.054688 C 82.730469 95.035156 83.703125 94.800781 84.65625 94.382812 C 85.84375 93.863281 86.5625 92.972656 86.582031 91.699219 C 86.644531 88.050781 86.617188 84.398438 86.628906 80.746094 C 86.632812 79.910156 86.195312 79.5625 85.394531 79.59375 C 84.960938 79.609375 84.519531 79.601562 84.085938 79.601562 C 77.375 79.554688 70.6875 80.085938 63.988281 80.375 C 61.371094 80.488281 58.742188 80.515625 56.121094 80.492188 C 54.96875 80.484375 54.558594 80.898438 54.671875 82.039062 C 54.769531 83.054688 54.726562 84.082031 54.75 85.105469 C 54.769531 85.972656 55.140625 86.261719 56.015625 85.984375 C 57.402344 85.542969 58.800781 85.128906 60.21875 84.796875 C 62.125 84.347656 64.050781 83.542969 65.992188 83.8125 C 67.40625 84.007812 68.503906 83.757812 69.703125 83.144531 C 71.316406 82.320312 72.46875 82.769531 73.539062 84.449219 C 74.707031 86.289062 74.730469 87.308594 73.257812 88.445312 C 71.300781 89.945312 70.308594 92.179688 68.652344 93.832031 Z M 112.757812 78.472656 C 115.351562 81.199219 115.824219 81.367188 119.121094 80.667969 C 121.472656 80.171875 123.828125 79.695312 126.152344 79.097656 C 127.414062 78.777344 128.753906 78.65625 129.898438 77.953125 C 131.773438 76.804688 133.769531 76.847656 135.816406 77.269531 C 136.359375 77.378906 136.882812 77.777344 137.5625 77.335938 C 137.425781 72.714844 137.085938 68.074219 136.160156 63.492188 C 136.074219 63.066406 135.933594 62.644531 135.777344 62.242188 C 135.367188 61.171875 134.589844 60.578125 133.429688 60.648438 C 130.960938 60.789062 128.46875 60.640625 126.019531 61.105469 C 124.527344 61.390625 124.457031 61.40625 124.773438 62.960938 C 125.242188 65.265625 125.429688 67.550781 125.175781 69.910156 C 124.746094 73.949219 123.351562 75.792969 119.453125 76.941406 C 117.847656 77.414062 116.214844 77.800781 114.53125 77.910156 C 113.960938 77.941406 113.359375 77.929688 112.757812 78.472656 Z M 67.277344 128.972656 C 65.453125 128.972656 63.636719 128.921875 61.816406 128.984375 C 59.203125 129.082031 56.546875 129.066406 54.140625 130.324219 C 53.21875 130.804688 51.675781 130.972656 51.796875 132.21875 C 51.898438 133.28125 53.382812 133.308594 54.324219 133.558594 C 57.78125 134.464844 61.324219 134.882812 64.890625 135.109375 C 71.941406 135.566406 78.988281 135.988281 86.050781 135.386719 C 87.433594 135.269531 88.777344 134.976562 90.046875 134.363281 C 90.769531 134.019531 91.683594 133.804688 91.703125 132.847656 C 91.71875 131.828125 90.75 131.652344 90.003906 131.433594 C 88.75 131.0625 87.480469 130.714844 86.195312 130.476562 C 79.9375 129.332031 73.617188 129.023438 67.277344 128.972656 Z M 102.578125 78.851562 C 105.621094 81.992188 108.488281 84.453125 111.296875 86.980469 C 112.539062 88.105469 113.859375 88.5 115.5 88.128906 C 119.609375 87.203125 123.65625 86.011719 127.828125 85.359375 C 128.652344 85.230469 129.089844 84.75 129.355469 83.996094 C 129.707031 82.996094 129.675781 81.988281 129.460938 80.980469 C 129.320312 80.304688 128.945312 79.976562 128.203125 80.242188 C 125.386719 81.253906 122.363281 81.402344 119.515625 82.261719 C 116.550781 83.148438 114.078125 82.589844 111.988281 80.296875 C 111.597656 79.871094 111.144531 79.492188 110.695312 79.128906 C 110.117188 78.664062 109.453125 78.320312 108.695312 78.367188 C 106.828125 78.488281 104.972656 78.65625 102.578125 78.851562 Z M 41.289062 90.898438 C 42.085938 91.125 42.621094 90.660156 43.214844 90.445312 C 45.46875 89.625 47.699219 88.742188 49.964844 87.964844 C 54.148438 86.527344 54.121094 86.554688 53.816406 81.984375 C 53.742188 80.863281 53.34375 80.449219 52.238281 80.445312 C 49.113281 80.441406 45.988281 80.339844 42.863281 80.339844 C 41.386719 80.339844 41.355469 80.429688 41.3125 82.023438 C 41.253906 84.136719 41.203125 86.25 41.179688 88.359375 C 41.175781 89.210938 41.015625 90.082031 41.289062 90.898438 Z M 20.386719 108.113281 C 20.265625 110.617188 21.472656 112.71875 23.472656 114.375 C 24.832031 115.507812 26.585938 115.925781 28.183594 115.316406 C 29.941406 114.640625 30.648438 112.933594 30.746094 111.0625 C 30.910156 108.023438 29.09375 105.082031 26.34375 103.863281 C 22.820312 102.308594 20.46875 103.820312 20.386719 107.699219 C 20.386719 107.773438 20.386719 107.84375 20.386719 108.113281 Z M 91.824219 152.964844 C 94.085938 152.152344 95.875 151.195312 97.585938 150.089844 C 98.816406 149.292969 99.945312 148.355469 100.777344 147.132812 C 102.042969 145.285156 101.613281 143.640625 99.621094 142.609375 C 97.898438 141.71875 96.113281 141.824219 94.296875 142.273438 C 93.703125 142.417969 93.429688 142.785156 93.34375 143.320312 C 92.847656 146.410156 92.367188 149.496094 91.824219 152.964844 Z M 70.765625 95.742188 C 70.765625 95.753906 70.761719 95.761719 70.761719 95.773438 C 70.402344 95.742188 70.039062 95.695312 69.679688 95.683594 C 68.207031 95.632812 68.121094 95.722656 68.085938 97.253906 C 68.035156 99.996094 68.484375 100.492188 71.273438 100.746094 C 71.628906 100.777344 71.992188 100.804688 72.355469 100.800781 C 75.824219 100.769531 75.277344 101.054688 75.425781 97.773438 C 75.476562 96.722656 75.121094 96.140625 73.992188 96.085938 C 72.917969 96.027344 71.84375 95.859375 70.765625 95.742188 Z M 71.316406 88.78125 C 72.117188 87.90625 73.25 87.746094 73.371094 86.8125 C 73.507812 85.769531 72.90625 84.847656 72.085938 84.164062 C 71.257812 83.472656 70.472656 83.886719 69.675781 84.316406 C 69.082031 84.632812 68.960938 84.996094 69.398438 85.511719 C 70.144531 86.398438 70.609375 87.46875 71.316406 88.78125 Z M 51.3125 92.496094 C 47.980469 93 43.316406 95.007812 42.132812 96.613281 C 45.292969 95.070312 48.472656 94.667969 51.3125 92.496094 Z M 139.445312 93.105469 C 139.582031 93.042969 139.710938 92.980469 139.84375 92.914062 C 139.445312 92.015625 139.054688 91.105469 138.640625 90.210938 C 138.476562 89.855469 138.15625 89.59375 137.785156 89.761719 C 137.300781 89.988281 137.601562 90.371094 137.78125 90.644531 C 138.324219 91.472656 138.890625 92.289062 139.445312 93.105469 Z M 47.441406 97.789062 C 50.28125 97.0625 50.65625 96.859375 51.773438 95.457031 C 50.160156 96.132812 48.746094 96.832031 47.441406 97.789062 Z M 67.84375 149.007812 C 66.898438 150.273438 67.195312 151.140625 67.683594 152.28125 C 68.253906 151.199219 68.144531 150.34375 67.84375 149.007812 Z M 62.238281 156.941406 C 62.691406 156.046875 62.246094 155.417969 61.996094 154.78125 C 61.945312 154.648438 61.628906 154.535156 61.453125 154.550781 C 61.078125 154.585938 61.039062 154.890625 61.136719 155.191406 C 61.332031 155.789062 61.402344 156.460938 62.238281 156.941406 Z M 83.355469 142.246094 C 83.121094 143.132812 83.117188 143.824219 83.386719 144.742188 C 83.917969 143.867188 84.414062 143.230469 83.355469 142.246094 Z M 50.085938 98.699219 C 49.308594 98.097656 48.730469 98.671875 48.113281 98.941406 C 47.917969 99.027344 47.773438 99.222656 47.929688 99.4375 C 48.050781 99.59375 48.25 99.804688 48.414062 99.804688 C 49.191406 99.804688 49.714844 99.371094 50.085938 98.699219 Z M 76.109375 165.652344 C 76.886719 165.726562 77.683594 165.894531 78.230469 165.191406 C 78.367188 165.011719 78.273438 164.734375 78.0625 164.683594 C 77.203125 164.488281 76.65625 165.054688 76.109375 165.652344 Z M 60.429688 138.578125 C 59.746094 137.90625 59.097656 137.835938 58.386719 138.125 C 58.3125 138.152344 58.25 138.410156 58.296875 138.488281 C 58.746094 139.21875 59.425781 138.847656 60.03125 138.824219 C 60.089844 138.820312 60.148438 138.753906 60.429688 138.578125 Z M 72.890625 102.21875 C 72.148438 102.171875 71.410156 101.628906 70.65625 102.09375 C 71.386719 102.582031 72.140625 102.410156 72.890625 102.21875 Z M 105.6875 145.210938 C 106.566406 144.78125 106.957031 144.289062 106.84375 143.566406 C 106.796875 143.25 106.511719 142.957031 106.050781 143.0625 C 105.761719 143.648438 105.800781 144.296875 105.6875 145.210938 Z M 91.851562 136.226562 C 91.953125 135.9375 92.097656 135.628906 92.164062 135.300781 C 92.222656 135.03125 92.003906 134.917969 91.78125 134.992188 C 91.410156 135.113281 91.242188 135.398438 91.359375 135.796875 C 91.417969 135.992188 91.496094 136.191406 91.851562 136.226562 Z M 72.078125 150.207031 C 71.5 150.789062 71.074219 151.273438 71.558594 152.167969 C 71.894531 151.5625 72.265625 151.128906 72.078125 150.207031 Z M 65.4375 155.292969 C 65.390625 154.945312 65.296875 154.589844 64.8125 154.652344 C 64.601562 154.675781 64.382812 154.800781 64.488281 155.082031 C 64.601562 155.394531 64.628906 155.828125 65.105469 155.792969 C 65.339844 155.777344 65.429688 155.550781 65.4375 155.292969 Z M 33.03125 100.726562 C 33.421875 100.675781 33.671875 100.464844 33.667969 100.058594 C 33.667969 99.816406 33.480469 99.714844 33.261719 99.804688 C 32.941406 99.933594 32.605469 100.117188 32.578125 100.492188 C 32.554688 100.707031 32.832031 100.726562 33.03125 100.726562 Z M 104.210938 140.902344 C 104.214844 140.484375 104.007812 140.242188 103.605469 140.183594 C 103.371094 140.152344 103.183594 140.261719 103.175781 140.511719 C 103.167969 140.925781 103.4375 141.140625 103.804688 141.246094 C 104.097656 141.332031 104.148438 141.105469 104.210938 140.902344 Z M 64.023438 146.53125 C 63.976562 146.371094 63.921875 146.140625 63.914062 146.144531 C 63.660156 146.191406 63.585938 146.398438 63.574219 146.613281 C 63.5625 146.785156 63.480469 147.078125 63.769531 147.042969 C 63.878906 147.03125 63.949219 146.695312 64.023438 146.53125 Z M 132.5 84.683594 C 132.578125 85.015625 132.894531 85.078125 133.128906 85.230469 C 133.285156 85.335938 133.460938 85.257812 133.441406 85.097656 C 133.394531 84.789062 133.175781 84.574219 132.867188 84.527344 C 132.757812 84.511719 132.628906 84.625 132.5 84.683594 Z M 61.1875 89.28125 C 61.324219 89.046875 61.28125 88.933594 61.097656 88.894531 C 60.816406 88.832031 60.519531 88.824219 60.332031 89.066406 C 60.191406 89.25 60.292969 89.503906 60.519531 89.5 C 60.769531 89.488281 61.015625 89.34375 61.1875 89.28125 Z M 103.0625 142.980469 C 102.832031 142.949219 102.703125 143.027344 102.726562 143.183594 C 102.757812 143.386719 102.804688 143.644531 102.941406 143.75 C 103.234375 143.972656 103.3125 143.660156 103.296875 143.480469 C 103.277344 143.296875 103.132812 143.125 103.0625 142.980469 Z M 54.292969 146.21875 C 54.230469 146.078125 54.132812 145.730469 54.070312 145.738281 C 53.820312 145.765625 53.84375 146.019531 53.863281 146.210938 C 53.882812 146.394531 53.871094 146.636719 54.140625 146.636719 C 54.183594 146.636719 54.230469 146.402344 54.292969 146.21875 Z M 158.183594 118.878906 C 157.707031 119.589844 157.859375 120.089844 158.246094 120.597656 C 158.6875 120.082031 158.726562 119.582031 158.183594 118.878906 Z M 133.582031 80.785156 C 133.699219 81.148438 133.957031 81.367188 134.285156 81.535156 C 134.445312 81.617188 134.613281 81.601562 134.640625 81.4375 C 134.734375 80.875 134.265625 80.765625 133.894531 80.621094 C 133.824219 80.59375 133.6875 80.722656 133.582031 80.785156 Z M 25.773438 101.003906 C 26.355469 101.105469 26.785156 101.058594 27.078125 100.546875 C 27.109375 100.492188 26.980469 100.261719 26.90625 100.246094 C 26.398438 100.167969 26.082031 100.445312 25.773438 101.003906 Z M 41.917969 98.019531 C 42.277344 97.945312 42.554688 97.742188 42.789062 97.460938 C 42.679688 97.40625 42.53125 97.269531 42.460938 97.300781 C 42.207031 97.410156 41.980469 97.578125 41.753906 97.734375 C 41.746094 97.742188 41.855469 97.910156 41.917969 98.019531 Z M 131.429688 83.597656 C 131.371094 83.441406 131.359375 83.253906 131.277344 83.226562 C 131 83.113281 130.9375 83.339844 130.917969 83.542969 C 130.898438 83.730469 130.863281 84 131.089844 84.03125 C 131.1875 84.039062 131.324219 83.738281 131.429688 83.597656 Z M 131.429688 83.597656 "/></g><path style=" stroke:none;fill-rule:nonzero;fill:#000000;fill-opacity:1;" d="M 139.609375 159.691406 C 139.609375 154.195312 139.597656 147.414062 139.628906 140.632812 C 139.632812 139.964844 139.34375 138.757812 140.128906 138.738281 C 141.199219 138.714844 140.808594 139.964844 140.867188 140.664062 C 141.578125 149.464844 141.488281 158.296875 141.578125 167.113281 C 141.632812 172.28125 141.398438 177.464844 141.292969 182.640625 C 141.277344 183.472656 141.46875 184.890625 140.582031 184.910156 C 139.355469 184.9375 139.679688 183.464844 139.652344 182.636719 C 139.5625 179.722656 139.554688 176.804688 139.636719 173.886719 C 139.75 169.582031 139.734375 165.28125 139.609375 159.691406 Z M 139.609375 159.691406 "/><path style=" stroke:none;fill-rule:nonzero;fill:#000000;fill-opacity:1;" d="M 160.023438 13.308594 C 158.320312 13.574219 126.398438 9.269531 124.746094 8.425781 C 136.019531 9.25 147.304688 10.015625 158.390625 12.476562 C 158.964844 12.605469 159.707031 12.523438 160.023438 13.308594 Z M 160.023438 13.308594 "/><path style=" stroke:none;fill-rule:nonzero;fill:#000000;fill-opacity:1;" d="M 144.378906 155.910156 C 145.042969 157.046875 145.035156 157.859375 145.054688 158.625 C 145.195312 164.816406 145.828125 170.992188 145.628906 177.195312 C 145.621094 177.484375 145.640625 177.777344 145.617188 178.066406 C 145.574219 178.621094 145.730469 179.4375 144.960938 179.453125 C 144.148438 179.472656 144.34375 178.589844 144.289062 178.082031 C 144.125 176.632812 144.007812 175.175781 143.96875 173.726562 C 143.855469 169.425781 143.78125 165.128906 143.710938 160.828125 C 143.6875 159.3125 143.804688 157.8125 144.378906 155.910156 Z M 144.378906 155.910156 "/><path style=" stroke:none;fill-rule:nonzero;fill:#000000;fill-opacity:1;" d="M 146.265625 30.535156 C 148.679688 30.519531 150.207031 32.046875 150.1875 34.457031 C 150.167969 36.769531 148.007812 38.917969 145.71875 38.90625 C 143.617188 38.894531 141.84375 36.996094 141.847656 34.746094 C 141.851562 32.054688 143.429688 30.554688 146.265625 30.535156 Z M 146.101562 31.71875 C 144.632812 31.667969 143.527344 32.757812 143.460938 34.316406 C 143.402344 35.796875 144.691406 37.398438 145.953125 37.410156 C 147.308594 37.421875 148.894531 35.832031 148.9375 34.417969 C 148.984375 32.957031 147.738281 31.769531 146.101562 31.71875 Z M 146.101562 31.71875 "/><path style=" stroke:none;fill-rule:nonzero;fill:#000000;fill-opacity:1;" d="M 134.753906 12.816406 C 134.878906 12.253906 135.199219 12.269531 135.472656 12.300781 C 141.402344 12.945312 147.320312 13.6875 153.128906 15.109375 C 153.765625 15.261719 154.410156 15.386719 154.949219 15.804688 C 155.136719 15.957031 155.238281 16.171875 155.144531 16.367188 C 155.058594 16.542969 154.867188 16.734375 154.691406 16.777344 C 154.417969 16.839844 154.109375 16.832031 153.832031 16.773438 C 147.871094 15.4375 141.886719 14.21875 135.878906 13.132812 C 135.484375 13.066406 135.105469 12.917969 134.753906 12.816406 Z M 134.753906 12.816406 "/><path style=" stroke:none;fill-rule:nonzero;fill:#000000;fill-opacity:1;" d="M 48.867188 43.570312 C 42.074219 43.558594 35.367188 37.3125 37.855469 29.140625 C 38.304688 27.671875 38.875 26.25 39.589844 24.894531 C 41.484375 21.328125 44.652344 19.589844 48.445312 18.78125 C 51.292969 18.175781 54.023438 18.234375 56.695312 19.707031 C 58.496094 20.699219 59.894531 21.914062 60.769531 23.78125 C 63.292969 29.1875 62.804688 34.222656 59.0625 38.921875 C 56.390625 42.289062 52.746094 43.394531 48.867188 43.570312 Z M 45.808594 28.886719 C 45.9375 28.984375 46.066406 29.085938 46.203125 29.183594 C 46.867188 28.257812 47.523438 27.332031 48.1875 26.402344 C 46.789062 26.785156 46.292969 27.832031 45.808594 28.886719 Z M 55.0625 27.636719 C 54.589844 28.441406 54.773438 28.992188 55.386719 29.652344 C 55.644531 28.851562 55.863281 28.230469 55.0625 27.636719 Z M 44.9375 21.617188 C 45.632812 21.953125 46.058594 21.734375 46.441406 21.359375 C 46.601562 21.203125 46.714844 21.015625 46.476562 20.808594 C 45.875 20.792969 45.363281 20.976562 44.9375 21.617188 Z M 44.261719 32.628906 C 44.992188 31.925781 45.242188 31.28125 45.171875 30.507812 C 44.542969 30.996094 44.199219 31.601562 44.261719 32.628906 Z M 53.339844 23.75 C 53.289062 23.6875 53.257812 23.601562 53.203125 23.589844 C 52.855469 23.515625 52.503906 23.445312 52.152344 23.410156 C 52.121094 23.40625 51.992188 23.699219 52.039062 23.769531 C 52.296875 24.152344 52.695312 23.957031 53.039062 23.949219 C 53.144531 23.945312 53.242188 23.816406 53.339844 23.75 Z M 41.695312 31.496094 C 42.191406 30.960938 42.636719 30.644531 42.253906 30.03125 C 41.875 30.339844 41.679688 30.707031 41.695312 31.496094 Z M 49.449219 42.066406 C 49.332031 42.050781 49.210938 42.019531 49.097656 42.019531 C 49.058594 42.019531 49.023438 42.101562 48.980469 42.144531 C 49.101562 42.164062 49.226562 42.195312 49.347656 42.199219 C 49.378906 42.199219 49.417969 42.113281 49.449219 42.066406 Z M 53.414062 36.660156 C 54.1875 36.460938 54.449219 36.070312 54.664062 35.40625 C 53.824219 35.453125 53.609375 35.902344 53.414062 36.660156 Z M 53.414062 36.660156 "/><path style=" stroke:none;fill-rule:nonzero;fill:#000000;fill-opacity:1;" d="M 95.015625 23.671875 C 95.023438 27.503906 92.355469 30.550781 88.589844 30.96875 C 87.578125 31.078125 86.574219 31.257812 85.546875 31.160156 C 80.191406 30.648438 77.484375 25.253906 80.3125 20.664062 C 81.414062 18.875 82.957031 17.554688 84.886719 16.75 C 87.109375 15.828125 89.265625 15.761719 91.175781 17.554688 C 91.488281 17.847656 91.910156 18.027344 92.261719 18.277344 C 94.136719 19.582031 95.0625 21.378906 95.015625 23.671875 Z M 86.386719 29.265625 C 87.773438 29.21875 89.140625 29.078125 90.386719 28.390625 C 92.332031 27.3125 93.386719 25.683594 93.328125 23.425781 C 93.269531 21.121094 91.964844 19.644531 89.976562 18.75 C 87.0625 17.4375 84.023438 18.523438 82.140625 21.507812 C 81.167969 23.046875 80.621094 24.644531 81.625 26.414062 C 82.671875 28.28125 84.1875 29.34375 86.386719 29.265625 Z M 86.386719 29.265625 "/><path style=" stroke:none;fill-rule:nonzero;fill:#000000;fill-opacity:1;" d="M 8.507812 17.167969 C 8.003906 16.25 8.53125 15.488281 8.945312 14.761719 C 10.632812 11.820312 13.207031 10.027344 16.433594 9.121094 C 19.175781 8.351562 21.964844 7.792969 24.785156 7.464844 C 31.878906 6.644531 38.996094 6.085938 46.144531 6.035156 C 46.652344 6.03125 47.167969 6.050781 47.675781 6.070312 C 48.128906 6.089844 48.628906 6.21875 48.699219 6.699219 C 48.785156 7.273438 48.230469 7.371094 47.8125 7.441406 C 47.09375 7.554688 46.367188 7.625 45.640625 7.667969 C 40.625 7.984375 35.601562 8.25 30.589844 8.601562 C 26.371094 8.902344 22.1875 9.472656 18.0625 10.433594 C 14.652344 11.234375 11.894531 12.976562 9.921875 15.910156 C 9.640625 16.332031 9.300781 16.714844 8.960938 17.089844 C 8.894531 17.171875 8.699219 17.136719 8.507812 17.167969 Z M 8.507812 17.167969 "/><path style=" stroke:none;fill-rule:nonzero;fill:#000000;fill-opacity:1;" d="M 85.523438 40.738281 C 87.703125 40.738281 89.882812 40.675781 92.058594 40.757812 C 93.828125 40.824219 94.40625 41.414062 94.476562 42.890625 C 94.582031 45.125 93.925781 46.425781 92.320312 46.585938 C 88.210938 46.988281 84.082031 47.332031 79.960938 46.835938 C 77.273438 46.511719 76.421875 45.03125 77.078125 42.378906 C 77.367188 41.199219 78.003906 40.636719 79.21875 40.683594 C 80.304688 40.730469 81.394531 40.714844 82.484375 40.71875 C 83.503906 40.722656 84.515625 40.71875 85.535156 40.71875 C 85.523438 40.726562 85.523438 40.734375 85.523438 40.738281 Z M 87.902344 45.882812 C 88.621094 45.882812 89.859375 45.902344 91.09375 45.878906 C 93.289062 45.847656 93.289062 45.839844 93.425781 43.550781 C 93.523438 41.933594 93.296875 41.675781 91.671875 41.585938 C 91.382812 41.570312 91.085938 41.570312 90.796875 41.601562 C 87.316406 41.984375 83.824219 41.988281 80.324219 41.890625 C 78.660156 41.84375 78.539062 41.976562 78.335938 43.242188 C 78.085938 44.757812 78.507812 45.621094 79.785156 45.980469 C 80.402344 46.15625 81.097656 46.324219 81.710938 46.21875 C 83.601562 45.894531 85.5 46.113281 87.902344 45.882812 Z M 87.902344 45.882812 "/><path style=" stroke:none;fill-rule:nonzero;fill:#000000;fill-opacity:1;" d="M 17.289062 39.679688 C 15.761719 39.757812 14.304688 39.917969 12.851562 39.890625 C 10.867188 39.847656 10.320312 39.261719 10.109375 37.257812 C 9.742188 33.789062 10.078125 33.40625 13.636719 33.183594 C 17.128906 32.964844 20.613281 32.804688 24.109375 33.078125 C 26.117188 33.234375 26.597656 33.527344 26.648438 35.03125 C 26.730469 37.519531 26.027344 38.96875 24.398438 39.207031 C 22.019531 39.5625 19.621094 39.726562 17.289062 39.679688 Z M 18.128906 34.128906 C 18.128906 34.101562 18.128906 34.078125 18.128906 34.054688 C 16.242188 34.175781 14.355469 34.277344 12.472656 34.429688 C 11.042969 34.542969 10.902344 34.734375 11.011719 36.199219 C 11.03125 36.488281 11.089844 36.777344 11.140625 37.0625 C 11.421875 38.714844 11.59375 38.949219 13.222656 38.921875 C 16.855469 38.867188 20.484375 38.652344 24.101562 38.257812 C 25.535156 38.097656 25.882812 37.613281 25.863281 36.289062 C 25.84375 34.8125 25.414062 34.21875 24.019531 34.15625 C 22.054688 34.058594 20.089844 34.128906 18.128906 34.128906 Z M 18.128906 34.128906 "/><path style=" stroke:none;fill-rule:nonzero;fill:#000000;fill-opacity:1;" d="M 18.6875 28.285156 C 16.730469 28.210938 14.78125 28.746094 12.820312 28.5625 C 10.167969 28.3125 8.824219 25.917969 10.039062 23.554688 C 10.292969 23.0625 10.664062 22.78125 11.191406 22.648438 C 12.042969 22.425781 12.898438 22.308594 13.773438 22.308594 C 17.117188 22.308594 20.453125 22.273438 23.792969 22.304688 C 26.683594 22.332031 28.019531 24.597656 26.757812 27.226562 C 26.394531 27.976562 25.769531 28.242188 24.996094 28.269531 C 24.851562 28.277344 24.707031 28.285156 24.5625 28.285156 C 22.601562 28.285156 20.644531 28.285156 18.6875 28.285156 Z M 18.464844 27.542969 C 18.464844 27.515625 18.464844 27.488281 18.464844 27.464844 C 20.5 27.464844 22.535156 27.523438 24.566406 27.445312 C 25.984375 27.386719 26.351562 26.832031 26.152344 25.480469 C 25.882812 23.671875 25.769531 23.539062 23.8125 23.269531 C 19.894531 22.726562 15.984375 23.058594 12.082031 23.453125 C 11.726562 23.488281 11.277344 23.476562 11.113281 23.832031 C 10.691406 24.730469 10.894531 25.691406 11.070312 26.597656 C 11.214844 27.378906 11.898438 27.539062 12.59375 27.539062 C 14.546875 27.546875 16.507812 27.542969 18.464844 27.542969 Z M 18.464844 27.542969 "/><path style=" stroke:none;fill-rule:nonzero;fill:#000000;fill-opacity:1;" d="M 19.609375 51.257812 C 17.5 51.707031 15.398438 51.359375 13.304688 51.246094 C 11.324219 51.136719 10.628906 50.320312 10.535156 48.332031 C 10.511719 47.824219 10.554688 47.3125 10.597656 46.804688 C 10.691406 45.714844 11.25 45.058594 12.382812 44.984375 C 12.671875 44.960938 12.964844 44.921875 13.253906 44.933594 C 16.238281 45.050781 19.207031 44.871094 22.179688 44.714844 C 22.542969 44.695312 22.910156 44.699219 23.269531 44.703125 C 26.457031 44.765625 27.714844 46.386719 27 49.472656 C 26.847656 50.117188 26.414062 50.429688 25.855469 50.671875 C 24.902344 51.082031 23.894531 51.21875 22.875 51.25 C 21.785156 51.285156 20.699219 51.257812 19.609375 51.257812 Z M 18.640625 45.816406 C 18.640625 45.828125 18.640625 45.839844 18.640625 45.851562 C 17.039062 45.851562 15.433594 45.851562 13.835938 45.851562 C 11.683594 45.851562 11.492188 46.050781 11.59375 48.222656 C 11.671875 49.800781 12.011719 50.273438 13.460938 50.351562 C 16.878906 50.523438 20.296875 50.699219 23.71875 50.425781 C 26.277344 50.222656 26.328125 50.050781 25.933594 47.445312 C 25.757812 46.273438 25.265625 45.78125 24.101562 45.808594 C 22.28125 45.84375 20.460938 45.816406 18.640625 45.816406 Z M 18.640625 45.816406 "/><path style=" stroke:none;fill-rule:nonzero;fill:#000000;fill-opacity:1;" d="M 20.347656 11.824219 C 21.417969 11.054688 22.398438 11.054688 23.292969 10.992188 C 28.945312 10.621094 34.605469 10.300781 40.265625 10.027344 C 40.945312 9.992188 42.183594 9.578125 42.179688 10.710938 C 42.175781 11.53125 40.972656 11.210938 40.316406 11.304688 C 35.84375 11.9375 31.324219 11.777344 26.828125 12.09375 C 25.667969 12.175781 24.507812 12.273438 23.34375 12.300781 C 22.4375 12.316406 21.484375 12.519531 20.347656 11.824219 Z M 20.347656 11.824219 "/><path style=" stroke:none;fill-rule:nonzero;fill:#000000;fill-opacity:1;" d="M 38.441406 55.089844 C 36.664062 55.050781 35.527344 53.847656 35.527344 52.015625 C 35.527344 49.941406 37.382812 48.039062 39.351562 48.089844 C 40.984375 48.140625 42.601562 49.773438 42.535156 51.316406 C 42.449219 53.199219 40.355469 55.132812 38.441406 55.089844 Z M 41.238281 51.210938 C 41.207031 50.3125 40.25 49.453125 39.296875 49.460938 C 38.234375 49.472656 37.046875 50.886719 37.113281 52.066406 C 37.164062 53.054688 37.890625 53.734375 38.804688 53.667969 C 39.929688 53.589844 41.277344 52.230469 41.238281 51.210938 Z M 41.238281 51.210938 "/><path style=" stroke:none;fill-rule:nonzero;fill:#000000;fill-opacity:1;" d="M 55.234375 52.042969 C 55.261719 54.007812 53.390625 55.753906 51.210938 55.785156 C 49.59375 55.808594 48.273438 54.589844 48.195312 52.992188 C 48.105469 51.15625 50.179688 49.222656 52.242188 49.21875 C 53.863281 49.21875 55.210938 50.488281 55.234375 52.042969 Z M 52.230469 50.703125 C 50.941406 50.710938 49.824219 51.644531 49.796875 52.734375 C 49.777344 53.722656 50.59375 54.496094 51.628906 54.476562 C 52.882812 54.449219 54.15625 53.246094 54.089844 52.148438 C 54.042969 51.285156 53.285156 50.695312 52.230469 50.703125 Z M 52.230469 50.703125 "/><path style=" stroke:none;fill-rule:nonzero;fill:#000000;fill-opacity:1;" d="M 64.269531 56.246094 C 62.769531 56.261719 61.464844 55.019531 61.394531 53.507812 C 61.320312 51.835938 62.9375 50.253906 64.792969 50.199219 C 66.628906 50.140625 67.523438 51.09375 67.5 53.078125 C 67.484375 54.871094 66.101562 56.226562 64.269531 56.246094 Z M 65.023438 51.171875 C 64.070312 51.121094 62.742188 52.375 62.695312 53.371094 C 62.652344 54.304688 63.488281 55.140625 64.472656 55.144531 C 65.546875 55.148438 66.503906 54.367188 66.601562 53.394531 C 66.710938 52.304688 65.945312 51.226562 65.023438 51.171875 Z M 65.023438 51.171875 "/><path style=" stroke:none;fill-rule:nonzero;fill:#000000;fill-opacity:1;" d="M 44.019531 54.464844 C 43.984375 54.691406 43.84375 54.859375 43.625 54.859375 C 43.398438 54.859375 43.25 54.664062 43.253906 54.453125 C 43.257812 54.234375 43.410156 54.054688 43.644531 54.066406 C 43.863281 54.070312 44.003906 54.226562 44.019531 54.464844 Z M 44.019531 54.464844 "/><path style=" stroke:none;fill-rule:nonzero;fill:#000000;fill-opacity:1;" d="M 36.273438 176.609375 C 44.792969 176.765625 53.097656 176.917969 61.398438 177.089844 C 62.488281 177.113281 63.574219 177.246094 64.660156 177.359375 C 65.101562 177.402344 65.574219 177.550781 65.59375 178.09375 C 65.613281 178.675781 65.121094 178.753906 64.6875 178.804688 C 64.035156 178.882812 63.378906 178.953125 62.726562 178.96875 C 52.453125 179.246094 42.191406 179.070312 31.933594 178.382812 C 26.050781 177.988281 20.15625 177.726562 14.261719 177.441406 C 12.726562 177.367188 11.214844 177.175781 9.753906 176.710938 C 9.363281 176.582031 8.839844 176.390625 8.988281 175.835938 C 9.125 175.308594 9.652344 175.351562 10.085938 175.398438 C 15.671875 176 21.292969 175.644531 26.890625 176.082031 C 30.085938 176.332031 33.292969 176.445312 36.273438 176.609375 Z M 36.273438 176.609375 "/><path style=" stroke:none;fill-rule:nonzero;fill:#000000;fill-opacity:1;" d="M 79.277344 191.039062 C 80.0625 190.480469 80.792969 190.535156 81.484375 190.480469 C 93.34375 189.566406 105.226562 189.265625 117.113281 189.359375 C 117.730469 189.363281 118.734375 189.128906 118.773438 189.933594 C 118.820312 190.8125 117.789062 190.554688 117.195312 190.621094 C 112.769531 191.089844 108.328125 191.316406 103.878906 191.359375 C 98.191406 191.40625 92.503906 191.484375 86.824219 191.84375 C 84.859375 191.964844 82.882812 191.957031 80.921875 191.695312 C 80.429688 191.628906 79.90625 191.609375 79.277344 191.039062 Z M 79.277344 191.039062 "/><path style=" stroke:none;fill-rule:nonzero;fill:#000000;fill-opacity:1;" d="M 116.253906 186.828125 C 109.472656 188.113281 102.585938 187.929688 95.707031 187.949219 C 94.476562 187.953125 93.160156 188.183594 91.703125 187.457031 C 94.949219 186.574219 114.09375 185.933594 116.253906 186.828125 Z M 116.253906 186.828125 "/><path style=" stroke:none;fill-rule:nonzero;fill:#000000;fill-opacity:1;" d="M 16.558594 180.113281 C 16.976562 179.535156 17.257812 179.507812 17.546875 179.507812 C 24.605469 179.539062 31.667969 179.304688 38.707031 180.101562 C 39.703125 180.21875 40.703125 180.273438 41.742188 181.453125 C 38.660156 181.304688 35.957031 181.144531 33.253906 181.0625 C 30.421875 180.976562 27.582031 180.988281 24.738281 180.925781 C 22.046875 180.867188 19.34375 180.820312 16.558594 180.113281 Z M 16.558594 180.113281 "/></g></svg>