<svg xmlns="http://www.w3.org/2000/svg" xmlns:xlink="http://www.w3.org/1999/xlink" width="1083" zoomAndPan="magnify" viewBox="0 0 812.25 237" height="316" preserveAspectRatio="xMidYMid meet" version="1.0"><defs><clipPath id="843c5464a8"><path d="M 0 0.109375 L 810.75 0.109375 L 810.75 236.140625 L 0 236.140625 Z M 0 0.109375 " clip-rule="nonzero"/></clipPath><clipPath id="07849ad3df"><path d="M 0.304688 0.109375 L 810.75 0.109375 L 810.75 236.140625 L 0.304688 236.140625 Z M 0.304688 0.109375 " clip-rule="nonzero"/></clipPath><clipPath id="3b071ceca5"><rect x="0" width="811" y="0" height="237"/></clipPath></defs><g clip-path="url(#843c5464a8)"><g transform="matrix(1, 0, 0, 1, 0, -0.000000000000011074)"><g clip-path="url(#3b071ceca5)"><g clip-path="url(#07849ad3df)"><path fill="#f4c340" d="M 327.289062 125.628906 C 345.492188 125.988281 363.703125 126.320312 381.90625 126.703125 C 403.578125 127.15625 425.246094 127.65625 446.914062 128.121094 C 459.972656 128.402344 473.027344 128.636719 486.082031 128.917969 C 504.554688 129.320312 523.027344 129.761719 541.5 130.152344 C 555.976562 130.460938 570.457031 130.699219 584.933594 131 C 603.671875 131.390625 622.410156 131.8125 641.152344 132.214844 C 644.257812 132.28125 647.371094 132.371094 650.476562 132.339844 C 652.234375 132.324219 653.734375 132.851562 655.230469 133.726562 C 671.917969 143.480469 684.691406 156.996094 693.820312 173.972656 C 700.957031 187.246094 705.238281 201.453125 707.378906 216.335938 C 708.226562 222.230469 708.847656 228.144531 708.929688 234.105469 C 708.933594 234.460938 708.921875 234.820312 708.972656 235.167969 C 709.074219 235.863281 709.472656 236.324219 710.199219 236.308594 C 710.808594 236.292969 711.179688 235.855469 711.253906 235.285156 C 711.355469 234.496094 711.367188 233.695312 711.398438 232.898438 C 712.078125 215.070312 715.425781 197.808594 722.8125 181.5 C 736.90625 150.371094 760.671875 130.71875 793.75 122.285156 C 798.570312 121.054688 803.460938 120.199219 808.398438 119.59375 C 808.664062 119.5625 808.933594 119.566406 809.195312 119.523438 C 810.027344 119.386719 810.820312 119.136719 810.753906 118.082031 C 810.699219 117.199219 810.015625 116.988281 809.25 116.902344 C 808.015625 116.761719 806.785156 116.578125 805.554688 116.398438 C 786.691406 113.609375 769.371094 107.03125 754.183594 95.324219 C 738.207031 83.003906 727.160156 67.074219 720.085938 48.289062 C 714.59375 33.695312 711.894531 18.554688 711.386719 2.996094 C 711.363281 2.289062 711.289062 1.585938 711.1875 0.886719 C 711.113281 0.382812 710.726562 0.148438 710.246094 0.113281 C 709.640625 0.0703125 709.175781 0.355469 709.039062 0.933594 C 708.917969 1.441406 708.941406 1.988281 708.929688 2.519531 C 708.617188 13.925781 707.054688 25.164062 704.09375 36.183594 C 698.832031 55.757812 689.652344 73.148438 675.109375 87.488281 C 667.976562 94.523438 659.925781 100.300781 651.050781 104.945312 C 649.828125 105.582031 648.601562 105.871094 647.238281 105.898438 C 634.800781 106.136719 622.367188 106.425781 609.929688 106.667969 C 598.203125 106.898438 586.476562 107.101562 574.75 107.300781 C 549.078125 107.734375 523.40625 108.140625 497.730469 108.59375 C 476.765625 108.960938 455.804688 109.414062 434.835938 109.773438 C 414.582031 110.121094 394.328125 110.375 374.074219 110.707031 C 357.90625 110.972656 341.738281 111.3125 325.570312 111.578125 C 296.339844 112.058594 267.113281 112.507812 237.886719 112.972656 C 215.144531 113.332031 192.402344 113.710938 169.660156 114.050781 C 149.046875 114.355469 128.4375 114.597656 107.824219 114.910156 C 91.835938 115.152344 75.84375 115.484375 59.855469 115.734375 C 41.199219 116.027344 22.539062 116.269531 3.882812 116.539062 C 3.089844 116.550781 2.28125 116.578125 1.503906 116.710938 C 0.851562 116.824219 0.378906 117.257812 0.367188 117.992188 C 0.351562 118.726562 0.828125 119.148438 1.449219 119.335938 C 1.949219 119.488281 2.496094 119.515625 3.023438 119.523438 C 18.210938 119.777344 33.398438 120.003906 48.585938 120.269531 C 63.242188 120.519531 77.894531 120.808594 92.550781 121.078125 C 107.117188 121.34375 121.683594 121.59375 136.25 121.867188 C 151.082031 122.144531 165.914062 122.445312 180.742188 122.726562 C 195.488281 123.003906 210.230469 123.261719 224.976562 123.542969 C 241.050781 123.847656 257.125 124.15625 273.199219 124.488281 C 291.230469 124.855469 309.257812 125.246094 327.289062 125.628906 Z M 327.289062 125.628906 " fill-opacity="1" fill-rule="nonzero"/></g></g></g></g></svg>