<svg xmlns="http://www.w3.org/2000/svg" xmlns:xlink="http://www.w3.org/1999/xlink" width="195" zoomAndPan="magnify" viewBox="0 0 146.25 216.749994" height="289" preserveAspectRatio="xMidYMid meet" version="1.2"><defs><clipPath id="3016953cf7"><path d="M 130 64 L 145.503906 64 L 145.503906 83 L 130 83 Z M 130 64 "/></clipPath><clipPath id="4523cd1fa3"><path d="M 0 75 L 139 75 L 139 215.328125 L 0 215.328125 Z M 0 75 "/></clipPath></defs><g id="4c1a0e924b"><path style=" stroke:none;fill-rule:nonzero;fill:#000000;fill-opacity:1;" d="M 128.652344 63.28125 C 128.453125 62.226562 128.863281 60.421875 127.640625 59.949219 C 126.175781 60.132812 126.875 62.25 126.640625 63.269531 C 126.792969 65.164062 125.976562 67.183594 126.59375 69.027344 C 126.90625 69.285156 127.265625 69.433594 127.671875 69.46875 C 129.371094 69.460938 128.648438 64.574219 128.652344 63.28125 Z M 128.652344 63.28125 "/><path style=" stroke:none;fill-rule:nonzero;fill:#000000;fill-opacity:1;" d="M 49.871094 42.386719 C 56.089844 34.855469 59.90625 28.695312 70.515625 27.414062 C 81.246094 25.199219 88.515625 22.019531 99.589844 25.613281 C 106.882812 27.871094 115.527344 29.15625 120.777344 35.140625 C 122.746094 37.996094 124.007812 41.230469 125.355469 44.410156 L 125.285156 44.410156 C 123.097656 44.605469 120.902344 44.621094 118.703125 44.621094 C 114.011719 44.527344 109.347656 44.992188 104.695312 45.550781 C 100.273438 46.0625 95.917969 47.191406 91.4375 47.035156 C 88.046875 47.035156 84.664062 46.636719 81.273438 46.753906 C 79.132812 46.78125 76.996094 47.0625 74.851562 47.074219 C 72.710938 47.089844 70.484375 46.792969 68.300781 46.703125 C 66.753906 46.609375 65.191406 46.664062 63.652344 46.703125 C 62.601562 46.738281 61.542969 46.773438 60.484375 46.765625 C 58.648438 46.613281 56.847656 46.214844 55.039062 45.878906 C 54.992188 45.25 54.304688 45.339844 54.242188 45.878906 C 53.828125 47.207031 55.332031 47.261719 56.238281 47.496094 C 58.042969 47.769531 59.871094 47.863281 61.652344 48.28125 C 65.339844 49.085938 69.070312 49.421875 72.839844 49.292969 C 75.007812 49.359375 77.15625 49.699219 79.308594 49.957031 C 80.183594 50.046875 81.0625 50.089844 81.941406 50.085938 C 86.945312 50.085938 91.894531 48.820312 96.902344 48.546875 C 100.011719 48.449219 103.097656 48.488281 106.191406 48.523438 C 110.773438 48.578125 115.355469 48.628906 119.925781 48.261719 C 121.679688 48.152344 123.449219 48.136719 125.195312 47.953125 C 125.492188 47.90625 125.753906 47.785156 125.980469 47.59375 C 126.207031 47.398438 126.367188 47.160156 126.460938 46.875 C 126.941406 47.914062 127.453125 48.929688 128.019531 49.910156 C 128.28125 50.234375 128.621094 50.390625 129.039062 50.386719 C 129.527344 50.382812 129.921875 50.191406 130.230469 49.8125 C 132.78125 46.59375 124.074219 36.238281 122.121094 32.957031 C 115.722656 25.425781 106.367188 19.789062 96.238281 19.984375 C 95.671875 19.925781 95.109375 19.875 94.542969 19.832031 C 94.546875 19.800781 94.546875 19.765625 94.542969 19.734375 C 94.429688 19.761719 94.308594 19.777344 94.191406 19.796875 L 93.890625 19.835938 C 93.375 19.894531 92.859375 19.921875 92.335938 19.929688 C 91.449219 19.929688 90.523438 19.902344 89.617188 19.855469 C 89.648438 19.605469 89.683594 19.355469 89.714844 19.097656 C 92.890625 18.8125 97.472656 14.277344 97.269531 11.792969 C 98.875 0.429688 87.15625 1.605469 80.042969 5.191406 C 75.601562 6.71875 72.933594 13.027344 75.933594 16.914062 C 76.984375 17.800781 78.496094 18.210938 80.132812 18.355469 C 80.132812 18.546875 80.097656 18.738281 80.074219 18.929688 C 80.050781 19.191406 80.007812 19.503906 79.980469 19.816406 L 77.921875 20.007812 C 77.933594 20.019531 77.945312 20.027344 77.949219 20.039062 C 78.121094 20.234375 78.324219 20.394531 78.554688 20.515625 C 74.753906 21.234375 71.125 22.464844 67.667969 24.203125 C 59.328125 27.628906 54.433594 31.289062 49.730469 39.027344 C 44.957031 43.988281 50.023438 45.121094 49.871094 42.386719 Z M 86.648438 19.707031 L 86.203125 19.683594 C 84.820312 19.738281 83.441406 19.847656 82.074219 20.015625 C 81.945312 19.949219 81.828125 19.867188 81.722656 19.773438 L 81.410156 19.773438 C 81.527344 19.382812 81.660156 19 81.820312 18.625 C 81.851562 18.566406 81.878906 18.507812 81.902344 18.449219 C 83.691406 18.398438 85.441406 18.101562 87.148438 17.566406 L 87.214844 17.710938 C 87.3125 17.925781 87.433594 18.128906 87.582031 18.3125 C 87.613281 18.707031 87.640625 19.101562 87.671875 19.496094 L 87.699219 19.757812 Z M 77.933594 14.046875 C 77.042969 9.148438 83.421875 6.617188 88.152344 6.617188 C 92.5625 6.617188 95.558594 8.808594 89.976562 13.332031 C 87.859375 13.570312 85.902344 14.660156 83.757812 14.660156 C 81.816406 14.609375 79.792969 14.648438 77.933594 14.046875 Z M 77.933594 14.046875 "/><path style=" stroke:none;fill-rule:nonzero;fill:#000000;fill-opacity:1;" d="M 54.6875 56.851562 C 59.550781 57.851562 64.390625 59.15625 69.402344 59.039062 C 75.621094 58.734375 81.78125 58.371094 87.917969 59.640625 C 88.863281 59.730469 89.804688 59.769531 90.746094 59.769531 C 95.96875 59.769531 101.171875 58.621094 106.402344 58.59375 C 114.769531 58.859375 123.230469 59.925781 131.523438 58.210938 C 135.394531 57.574219 139.300781 54.898438 138.785156 50.542969 C 138.488281 48.484375 139.171875 45.9375 137.898438 44.179688 C 136.773438 43.511719 135.375 44.621094 134.148438 44.6875 C 133.878906 44.792969 133.675781 44.96875 133.535156 45.21875 C 133.390625 45.46875 133.34375 45.734375 133.386719 46.015625 C 133.507812 47.152344 134.464844 46.933594 135.355469 46.710938 C 135.679688 46.617188 136.011719 46.558594 136.351562 46.535156 C 136.351562 48.378906 136.6875 50.636719 135.710938 52.25 C 132.699219 54.367188 128.601562 54.121094 125.078125 54.707031 C 115.457031 56.652344 105.691406 56.71875 95.992188 55.367188 C 86.972656 54.996094 77.953125 55.511719 68.949219 54.75 C 64.035156 54.75 59.082031 55.28125 54.238281 54.15625 C 50.355469 53.097656 45.796875 53.066406 42.355469 50.976562 C 42.03125 49.019531 43.054688 47.0625 42.988281 45.109375 C 42.664062 43.425781 41.371094 44.550781 41.113281 45.613281 C 35.605469 57.234375 47.148438 55.4375 54.6875 56.851562 Z M 54.6875 56.851562 "/><g clip-rule="nonzero" clip-path="url(#3016953cf7)"><path style=" stroke:none;fill-rule:nonzero;fill:#000000;fill-opacity:1;" d="M 142.714844 64.464844 C 141.015625 64.167969 139.285156 64.636719 137.667969 65.136719 C 136.871094 65.425781 135.945312 65.632812 135.351562 66.265625 C 134.90625 66.796875 135.058594 67.691406 135.84375 67.773438 C 136.632812 67.851562 137.527344 67.503906 138.371094 67.40625 C 139.625 67.285156 140.949219 67.050781 142.183594 67.40625 C 140.976562 68.433594 139.566406 69.175781 138.304688 70.128906 C 136.570312 71.339844 135.105469 72.816406 133.90625 74.558594 C 133.09375 75.691406 132.398438 76.894531 131.824219 78.167969 C 131.535156 78.753906 131.25 79.339844 131.003906 79.9375 C 130.660156 80.765625 130.84375 82.128906 131.816406 82.460938 C 131.933594 82.484375 132.054688 82.496094 132.175781 82.496094 C 133.660156 82.496094 133.789062 80.28125 134.222656 79.183594 C 134.765625 77.359375 135.554688 75.589844 136.9375 74.242188 C 137.871094 73.328125 138.910156 72.550781 140.046875 71.90625 C 141.976562 70.863281 144.582031 69.917969 145.136719 67.554688 C 145.4375 66.027344 144.140625 64.738281 142.714844 64.464844 Z M 142.714844 64.464844 "/></g><path style=" stroke:none;fill-rule:nonzero;fill:#000000;fill-opacity:1;" d="M 44.4375 76 C 44.742188 76.269531 45.097656 76.417969 45.503906 76.445312 C 47.050781 76.445312 47.585938 73.042969 47.46875 69.644531 C 47.371094 66.921875 46.851562 64.199219 46.085938 63.222656 C 45.722656 61.523438 45.011719 59.839844 44.460938 59.367188 C 44.472656 59.085938 44.351562 58.882812 44.09375 58.765625 C 43.960938 58.734375 43.824219 58.734375 43.691406 58.765625 C 43.550781 58.695312 43.402344 58.671875 43.246094 58.683594 C 42.800781 58.714844 42.546875 59.207031 42.53125 59.613281 C 42.5 60.289062 43.027344 60.789062 43.339844 61.335938 C 43.527344 61.699219 43.675781 62.078125 43.785156 62.472656 C 43.953125 63.164062 44.042969 63.863281 44.0625 64.574219 C 43.167969 66.851562 43.394531 74.484375 44.4375 76 Z M 44.4375 76 "/><path style=" stroke:none;fill-rule:nonzero;fill:#000000;fill-opacity:1;" d="M 74.558594 79.59375 C 72.210938 79.632812 69.867188 79.867188 67.523438 80.003906 C 65.46875 80.078125 63.417969 79.988281 61.378906 79.738281 C 59.789062 79.65625 51.902344 77.753906 51.460938 79.539062 C 51.363281 79.738281 51.355469 79.941406 51.4375 80.148438 C 51.519531 80.355469 51.664062 80.496094 51.871094 80.578125 C 51.957031 80.65625 52.054688 80.71875 52.164062 80.761719 C 52.351562 80.824219 52.5 80.773438 52.609375 80.613281 C 56.667969 81.390625 60.824219 81.5 64.886719 82.246094 C 67.769531 83 70.695312 83.441406 73.671875 83.574219 C 76.183594 83.753906 78.691406 83.710938 81.222656 83.675781 C 83.117188 83.644531 85.015625 83.621094 86.90625 83.675781 C 91.246094 84.09375 95.609375 84.265625 99.96875 84.375 L 100.09375 84.375 C 103.554688 84.375 107.007812 84.089844 110.460938 83.964844 C 113.105469 83.746094 115.738281 83.347656 118.390625 83.175781 C 119.980469 83.109375 121.566406 82.96875 123.15625 82.894531 C 124.5 82.839844 125.847656 82.796875 127.199219 82.761719 C 128.132812 82.734375 128.652344 81.632812 128.667969 80.828125 C 128.6875 80.027344 128.195312 79.003906 127.289062 79.058594 C 126.71875 79.113281 126.15625 79.175781 125.59375 79.273438 C 124.355469 79.496094 123.132812 79.792969 121.902344 80.050781 C 118.90625 80.636719 115.878906 80.910156 112.820312 80.867188 C 110.394531 80.628906 107.96875 80.316406 105.539062 80.066406 C 103.109375 79.820312 100.652344 79.308594 98.179688 79.292969 C 95.703125 79.273438 93.175781 79.601562 90.683594 79.839844 C 91.027344 78.996094 90.953125 77.753906 91.128906 76.988281 C 91.128906 76.621094 91.289062 76.101562 91.363281 75.566406 C 94.859375 76.019531 98.371094 76.269531 101.898438 76.316406 C 102.625 76.378906 103.34375 76.40625 104.070312 76.40625 C 106.738281 76.367188 109.375 76.058594 111.976562 75.472656 C 113.5625 75.089844 115.34375 75.074219 116.757812 74.1875 C 117.191406 73.828125 117.503906 73.382812 117.695312 72.855469 C 118.121094 71.910156 118.496094 70.941406 118.816406 69.953125 C 119.792969 67.121094 120.320312 64.070312 119.8125 61.09375 C 119.671875 60.269531 118.882812 59.542969 118.035156 59.914062 C 117.183594 60.289062 116.824219 61.441406 116.988281 62.324219 C 117.53125 65.425781 117.171875 68.621094 116.429688 71.648438 C 116.328125 71.957031 116.183594 72.304688 115.835938 72.386719 C 115.160156 72.578125 114.476562 72.714844 113.78125 72.800781 C 112.640625 72.960938 111.496094 73.035156 110.34375 73.011719 C 106.460938 72.988281 102.398438 71.597656 98.445312 71.722656 C 96.097656 71.75 93.757812 71.992188 91.40625 71.945312 C 88.527344 71.769531 85.675781 71.386719 82.855469 70.792969 C 80.03125 70.152344 77.175781 69.847656 74.28125 69.871094 C 71.449219 69.976562 68.65625 70.507812 65.839844 70.632812 C 63.023438 70.757812 60.34375 71.019531 57.558594 70.738281 C 57.804688 68.78125 57.960938 66.808594 58.171875 64.84375 C 58.292969 63.546875 58.421875 62.253906 58.5 60.957031 C 58.539062 60.167969 58.621094 59.320312 58.300781 58.578125 C 58.265625 58.476562 58.210938 58.382812 58.132812 58.304688 C 58.058594 58.226562 57.96875 58.167969 57.867188 58.128906 C 57.765625 58.089844 57.660156 58.078125 57.550781 58.085938 C 57.441406 58.09375 57.339844 58.125 57.246094 58.179688 C 56.621094 58.644531 56.699219 59.542969 56.554688 60.238281 C 56.460938 60.824219 56.371094 61.40625 56.273438 62.011719 C 55.945312 64.03125 55.574219 66.039062 55.261719 68.058594 C 54.953125 70.238281 53.722656 74.324219 57.378906 73.859375 C 60.234375 73.523438 63.09375 73.375 65.96875 73.414062 C 69.242188 73.746094 72.519531 74.011719 75.804688 74.300781 C 76.644531 74.40625 77.488281 74.492188 78.332031 74.5625 C 78.296875 74.839844 78.269531 75.121094 78.230469 75.390625 C 78.132812 76.378906 78.058594 77.375 78.042969 78.367188 C 78.019531 78.808594 78.148438 79.199219 78.429688 79.539062 C 78.492188 79.605469 78.5625 79.667969 78.640625 79.71875 C 77.265625 79.621094 75.914062 79.558594 74.558594 79.59375 Z M 87.132812 78.941406 C 87.605469 78.835938 88.066406 78.6875 88.515625 78.5 C 88.359375 79.011719 88.359375 79.519531 88.515625 80.03125 C 87.902344 80.070312 87.285156 80.105469 86.671875 80.125 C 86.953125 79.78125 87.105469 79.386719 87.132812 78.941406 Z M 80.421875 74.703125 L 80.195312 74.773438 L 80.195312 74.691406 Z M 80.148438 79.277344 C 80.304688 79.503906 80.519531 79.609375 80.792969 79.597656 C 80.769531 79.6875 80.753906 79.777344 80.75 79.867188 L 79.597656 79.78125 C 79.824219 79.65625 80.007812 79.492188 80.148438 79.277344 Z M 80.148438 79.277344 "/><path style=" stroke:none;fill-rule:nonzero;fill:#000000;fill-opacity:1;" d="M 50.359375 78.207031 C 50.394531 75.992188 47.855469 76.988281 46.578125 77.421875 C 44.921875 77.707031 42.703125 79.898438 44.738281 81.183594 C 44.898438 81.304688 45.078125 81.363281 45.277344 81.371094 C 45.425781 81.351562 45.5625 81.308594 45.695312 81.234375 C 45.824219 81.164062 45.933594 81.066406 46.023438 80.949219 C 46.113281 80.832031 46.175781 80.699219 46.214844 80.554688 C 46.25 80.414062 46.257812 80.265625 46.234375 80.121094 C 47.640625 79.46875 50.324219 80.464844 50.359375 78.207031 Z M 50.359375 78.207031 "/><path style=" stroke:none;fill-rule:nonzero;fill:#000000;fill-opacity:1;" d="M 117.355469 125.054688 L 117.324219 124.746094 C 117.324219 124.675781 117.324219 124.601562 117.300781 124.527344 Z M 117.355469 125.054688 "/><g clip-rule="nonzero" clip-path="url(#4523cd1fa3)"><path style=" stroke:none;fill-rule:nonzero;fill:#000000;fill-opacity:1;" d="M 132.722656 204.277344 C 131.492188 202.789062 130.101562 201.464844 128.554688 200.3125 C 129.28125 199.4375 129.898438 198.492188 130.402344 197.472656 C 130.757812 196.710938 131.976562 194.496094 132.394531 192.734375 C 132.664062 192.652344 132.886719 192.5 133.058594 192.277344 C 133.234375 192.054688 133.328125 191.800781 133.339844 191.519531 C 133.625 186.976562 133.816406 182.414062 134.195312 177.867188 C 134.492188 175.683594 134.667969 173.492188 134.730469 171.292969 L 135.574219 170.976562 C 136.144531 170.824219 136.695312 170.609375 137.21875 170.332031 C 138.953125 169.296875 138.359375 167 138.105469 165.359375 C 137.796875 163.40625 137 159.15625 134.402344 159.882812 C 134.25 157.796875 134.078125 155.710938 133.902344 153.625 C 133.761719 150.15625 134.496094 146.746094 134.941406 143.328125 C 135.425781 137.925781 134.765625 132.476562 134.898438 127.058594 C 134.699219 118.710938 136.1875 110.296875 134.515625 102.023438 C 134.1875 98.203125 130.734375 97.421875 131.722656 101.757812 C 133.082031 109.078125 132.769531 116.679688 132.511719 124.097656 C 132.070312 129.179688 130.800781 134.167969 130.890625 139.296875 C 130.503906 146.851562 130.488281 154.414062 130.285156 161.96875 C 129.789062 162.183594 129.269531 162.351562 128.753906 162.515625 L 128.730469 162.515625 C 129.105469 161.976562 128.988281 161.1875 129.105469 160.535156 C 129.105469 159.6875 129.316406 158.671875 129.023438 157.855469 C 129.074219 157.355469 129.074219 156.855469 129.023438 156.355469 C 128.921875 154.796875 128.914062 153.238281 129 151.679688 C 129.082031 148.992188 129.496094 146.171875 129.40625 143.457031 C 129.464844 140.796875 129.40625 138.167969 129.40625 135.523438 C 129.492188 133.582031 129.605469 131.640625 129.796875 129.703125 C 130.113281 126.492188 130.632812 123.277344 130.398438 120.042969 C 130.328125 117.851562 130.425781 115.65625 130.230469 113.46875 C 130.21875 113.039062 130.136719 112.625 129.984375 112.222656 C 129.765625 111.640625 129.097656 111.472656 128.746094 112.019531 C 128.511719 112.128906 128.390625 112.3125 128.371094 112.566406 C 128.359375 112.726562 128.394531 112.871094 128.46875 113.011719 C 128.304688 114.835938 128.382812 116.671875 128.296875 118.507812 C 128.296875 118.738281 128.269531 118.976562 128.257812 119.210938 C 128.042969 118.984375 127.808594 118.78125 127.554688 118.597656 C 127.5625 118.257812 127.539062 117.921875 127.480469 117.585938 C 127.519531 117.507812 127.554688 117.417969 127.601562 117.339844 C 127.832031 117.035156 127.855469 116.714844 127.671875 116.382812 C 127.914062 116.199219 128.085938 115.964844 128.195312 115.679688 C 128.257812 115.417969 128.246094 115.15625 128.167969 114.894531 C 128.089844 114.636719 127.949219 114.414062 127.75 114.230469 C 127.839844 114.1875 127.921875 114.132812 127.996094 114.066406 C 128.175781 113.796875 128.171875 113.53125 127.980469 113.269531 C 127.785156 113.003906 127.535156 112.921875 127.222656 113.015625 L 127.195312 113.015625 C 127.316406 112.621094 127.28125 112.238281 127.09375 111.871094 C 126.648438 110.988281 124.644531 111.222656 123.75 111.128906 C 123.472656 111.128906 123.1875 111.128906 122.902344 111.128906 C 122.34375 111.082031 121.785156 111.105469 121.230469 111.195312 C 121.109375 111.253906 121.007812 111.335938 120.917969 111.441406 C 120.832031 111.542969 120.773438 111.660156 120.738281 111.792969 C 120.703125 111.921875 120.699219 112.054688 120.722656 112.1875 C 120.746094 112.320312 120.796875 112.445312 120.871094 112.554688 C 121.289062 113.078125 122.058594 113.0625 122.648438 113.230469 C 123.386719 113.382812 124.136719 113.484375 124.871094 113.636719 C 123.984375 113.84375 123.09375 114.050781 122.207031 114.34375 C 121.996094 114.453125 121.871094 114.625 121.828125 114.859375 C 121.382812 114.371094 120.421875 114.136719 120.082031 114.832031 C 119.796875 114.445312 119.417969 114.210938 118.945312 114.128906 C 118.945312 113.339844 118.964844 112.554688 118.984375 111.765625 C 119.027344 110.097656 119.125 108.425781 119.050781 106.757812 C 119.011719 105.949219 118.984375 105.140625 118.929688 104.335938 C 118.875 103.785156 118.894531 103.167969 118.519531 102.726562 C 119.3125 101.777344 119.140625 99.710938 117.75 99.390625 C 117.03125 99.324219 116.363281 99.109375 115.742188 98.75 C 114.851562 98.304688 113.964844 97.890625 113.160156 98.246094 C 112.804688 97.734375 112.203125 97.53125 111.539062 98.15625 C 110.566406 99.445312 109.761719 100.84375 108.761719 102.121094 C 108.367188 102.800781 106.984375 103.828125 107.78125 104.613281 C 107.863281 104.667969 107.957031 104.699219 108.058594 104.699219 C 108.679688 104.699219 109.507812 103.722656 109.90625 103.398438 C 110.875 102.421875 111.894531 101.503906 112.96875 100.644531 L 113.011719 100.605469 C 113.902344 101.773438 116 102.558594 117.109375 103.132812 C 117.199219 103.160156 117.289062 103.175781 117.378906 103.1875 C 117.101562 104.074219 117.265625 105.0625 117.164062 105.972656 C 117.109375 107.070312 117.109375 108.1875 117.128906 109.273438 C 117.332031 109.679688 117.441406 110.109375 117.460938 110.566406 C 117.484375 111.328125 117.5 112.09375 117.460938 112.855469 C 117.460938 113.515625 117.398438 114.183594 117.34375 114.832031 C 117.308594 115.296875 117.261719 115.761719 117.214844 116.226562 C 117.214844 116.316406 117.214844 116.40625 117.214844 116.5 C 117.152344 117.316406 117.078125 118.128906 116.988281 118.945312 C 116.964844 120.925781 117.070312 122.898438 117.304688 124.867188 C 117.300781 124.835938 117.300781 124.800781 117.304688 124.769531 C 117.417969 125.632812 117.472656 126.496094 117.476562 127.367188 C 117.476562 128.101562 117.425781 128.835938 117.421875 129.578125 C 117.414062 130.324219 117.523438 131.117188 117.542969 131.882812 C 117.566406 132.648438 117.574219 133.414062 117.601562 134.183594 C 117.601562 134.234375 117.601562 134.285156 117.601562 134.332031 C 117.601562 134.34375 117.601562 134.359375 117.601562 134.371094 C 117.632812 134.867188 117.671875 135.363281 117.710938 135.863281 L 117.683594 135.488281 C 117.773438 136.863281 117.789062 138.242188 117.730469 139.621094 C 117.695312 140.714844 117.667969 141.808594 117.683594 142.90625 C 117.683594 142.808594 117.683594 142.707031 117.683594 142.609375 C 117.710938 143.960938 117.703125 145.3125 117.683594 146.664062 C 117.683594 147.941406 117.652344 149.214844 117.683594 150.492188 C 117.722656 151.453125 117.765625 152.417969 117.757812 153.378906 C 117.757812 154.421875 117.726562 155.472656 117.757812 156.515625 C 117.800781 157.269531 117.867188 158.019531 117.941406 158.773438 C 118.011719 159.523438 118.042969 160.378906 118.058594 161.179688 C 118.101562 162.652344 118.058594 164.121094 118.058594 165.609375 L 118.101562 165.90625 L 118.058594 165.941406 L 118.058594 166.195312 C 118.058594 166.636719 118.058594 167.082031 118.058594 167.523438 C 118.132812 167.566406 118.210938 167.605469 118.292969 167.628906 C 118.863281 172.886719 118.953125 178.1875 119.382812 183.460938 C 119.496094 185.484375 119.382812 187.519531 119.625 189.539062 C 119.792969 190.871094 120.066406 192.167969 120.339844 193.46875 C 120.433594 194.113281 120.628906 194.726562 120.921875 195.308594 C 120.828125 196.746094 121.867188 197.964844 122.660156 199.070312 L 122.839844 199.328125 L 122.441406 199.476562 L 122.691406 199.828125 C 123.429688 200.683594 124.125 201.578125 124.8125 202.488281 L 125.375 203.199219 C 125.507812 203.105469 125.636719 203.003906 125.769531 202.90625 C 126.65625 203.722656 127.59375 204.429688 128.460938 205.25 C 129.328125 206.070312 129.953125 207.078125 130.796875 207.90625 C 130.355469 208.402344 130.144531 209.105469 129.652344 209.554688 C 128.355469 210.25 127.1875 211.222656 125.769531 211.671875 C 123.484375 212.21875 121.042969 211.957031 118.792969 211.347656 L 118.023438 211.09375 C 121.011719 210.925781 121.796875 208.578125 120.320312 205.886719 L 120.46875 205.832031 C 120.195312 205.316406 119.917969 204.8125 119.628906 204.3125 L 119.40625 204.035156 C 118.851562 203.355469 118.316406 202.644531 117.796875 201.933594 C 117.585938 201.644531 117.355469 201.351562 117.164062 201.046875 L 116.605469 201.203125 C 115.609375 199.921875 114.765625 198.550781 114.074219 197.082031 L 114.027344 197.035156 C 113.886719 196.886719 113.792969 196.714844 113.746094 196.515625 L 113.71875 196.386719 C 113.71875 196.347656 113.71875 196.304688 113.71875 196.265625 C 113.714844 196.203125 113.714844 196.144531 113.71875 196.082031 C 113.683594 195.816406 113.636719 195.550781 113.589844 195.285156 L 113.550781 195.011719 C 113.515625 194.785156 113.484375 194.566406 113.453125 194.332031 C 113.453125 194.195312 113.421875 194.0625 113.402344 193.925781 C 113.351562 193.480469 113.304688 193.039062 113.28125 192.625 C 113.203125 191.417969 113.132812 190.214844 113.078125 189.003906 C 113.027344 187.796875 112.96875 186.457031 112.914062 185.1875 C 112.863281 184.042969 112.785156 182.902344 112.722656 181.761719 C 112.671875 180.773438 112.621094 179.789062 112.558594 178.796875 C 112.519531 178.234375 112.464844 177.667969 112.429688 177.105469 C 112.417969 176.859375 112.484375 176.640625 112.640625 176.449219 L 112.640625 176.414062 C 112.640625 176.363281 112.640625 176.316406 112.640625 176.265625 C 112.554688 174.972656 112.503906 173.679688 112.425781 172.386719 C 112.351562 171.09375 112.367188 169.773438 112.347656 168.46875 C 112.347656 167.3125 112.269531 166.160156 112.171875 165.007812 C 112.007812 163.589844 111.730469 162.1875 111.519531 160.777344 C 111.289062 159.261719 111.15625 157.734375 111.113281 156.199219 C 111.058594 154.910156 111.035156 153.621094 111.039062 152.335938 C 111.039062 151.054688 111.128906 149.777344 111.183594 148.496094 L 111.183594 148.449219 C 111.210938 147.695312 111.183594 146.941406 111.160156 146.1875 C 111.082031 145.058594 110.972656 143.9375 110.886719 142.8125 C 110.796875 141.6875 110.699219 140.457031 110.578125 139.269531 C 110.433594 138.046875 110.351562 136.816406 110.335938 135.585938 C 110.335938 134.175781 110.417969 132.773438 110.453125 131.363281 C 110.488281 129.957031 110.492188 128.628906 110.546875 127.257812 C 110.585938 126.175781 110.644531 125.089844 110.695312 124.007812 C 110.695312 123.804688 110.695312 123.605469 110.695312 123.402344 C 110.695312 123.390625 110.695312 123.378906 110.695312 123.367188 C 110.726562 122.582031 110.773438 121.792969 110.828125 121.003906 C 110.714844 119.09375 110.757812 117.167969 110.6875 115.246094 C 110.648438 113.476562 110.386719 111.703125 110.246094 109.933594 C 110.144531 108.839844 110.285156 107.71875 110.101562 106.636719 C 110.054688 106.34375 109.886719 106.152344 109.601562 106.066406 C 109.355469 106.03125 109.167969 106.121094 109.042969 106.335938 C 108.597656 107.101562 108.675781 108.042969 108.597656 108.894531 C 108.570312 110.046875 108.625 111.199219 108.6875 112.351562 C 108.707031 112.683594 108.730469 113.011719 108.757812 113.339844 C 108.535156 112.945312 108.214844 112.667969 107.789062 112.515625 C 107.742188 112.582031 107.691406 112.648438 107.632812 112.707031 C 107.628906 112.753906 107.613281 112.800781 107.59375 112.847656 C 107.578125 112.886719 107.5625 112.921875 107.539062 112.957031 L 107.539062 113.023438 C 107.65625 113.148438 107.757812 113.285156 107.835938 113.4375 L 107.871094 113.515625 C 107.765625 113.417969 107.652344 113.328125 107.53125 113.25 C 107.34375 113.140625 107.203125 113.34375 107.351562 113.488281 C 107.46875 113.59375 107.59375 113.683594 107.730469 113.765625 C 106.65625 114.460938 105.496094 114.941406 104.242188 115.203125 C 103.015625 115.507812 101.820312 115.96875 100.550781 116.050781 C 98.914062 116.121094 97.34375 115.605469 95.734375 115.398438 C 94.519531 115.285156 93.3125 115.109375 92.113281 114.871094 C 91.128906 114.636719 90.136719 114.457031 89.132812 114.332031 L 89.132812 114.273438 C 88.714844 110.347656 88.542969 106.398438 88.507812 102.453125 C 88.542969 100.875 88.488281 99.300781 88.335938 97.730469 C 88.308594 97.453125 88.257812 97.179688 88.1875 96.910156 C 91.742188 96.777344 95.296875 96.46875 98.847656 96.367188 C 101.207031 96.296875 103.554688 96.542969 105.910156 96.671875 C 108.402344 96.800781 110.902344 96.824219 113.382812 97.148438 C 113.847656 97.191406 114.316406 97.207031 114.78125 97.207031 C 116.113281 97.207031 117.488281 97.070312 118.84375 97.023438 C 120.191406 96.980469 121.523438 96.8125 122.839844 96.527344 C 125.054688 96.253906 127.246094 95.867188 129.421875 95.371094 C 131.539062 94.792969 132.53125 92.585938 132.65625 90.550781 C 132.761719 89.398438 132.800781 88.242188 132.773438 87.082031 C 132.800781 86.453125 132.613281 85.890625 132.21875 85.398438 C 131.527344 84.550781 130.234375 84.867188 129.71875 85.738281 C 129.402344 86.234375 129.242188 86.777344 129.230469 87.367188 C 129.167969 88.414062 129.011719 89.449219 128.753906 90.46875 C 127.167969 91.316406 125.292969 91.453125 123.574219 91.917969 C 122.707031 92.148438 121.867188 92.457031 120.996094 92.660156 C 117.957031 93.320312 114.84375 93.546875 111.753906 93.851562 C 109.484375 94.03125 107.222656 94.332031 104.945312 94.324219 C 100.238281 93.984375 95.613281 92.957031 90.941406 92.390625 C 88.304688 92.195312 85.675781 92.230469 83.046875 92.492188 C 80.519531 92.738281 77.988281 92.78125 75.453125 92.625 C 71.664062 92.179688 67.972656 91.058594 64.132812 91.023438 C 62.328125 90.957031 60.523438 91.023438 58.722656 91.050781 C 56.726562 91.101562 54.722656 91.152344 52.738281 91.050781 C 50.621094 90.960938 48.53125 90.695312 46.460938 90.261719 C 45.539062 90.125 44.105469 89.546875 43.246094 90.027344 C 43.476562 89.484375 43.492188 88.933594 43.285156 88.375 C 43.015625 87.757812 42.804688 87.117188 42.65625 86.457031 C 42.484375 84.121094 42.644531 81.804688 43.136719 79.507812 C 43.855469 79.652344 44.054688 78.269531 43.328125 78.179688 C 42.4375 77.445312 41.910156 78.074219 41.550781 79.066406 C 41.605469 78.714844 41.578125 78.367188 41.472656 78.027344 C 41.03125 76.695312 39.335938 76.730469 38.160156 76.730469 C 34.828125 76.515625 30.800781 77.535156 28.335938 79.921875 C 28.476562 79.3125 28.441406 78.710938 28.226562 78.121094 C 28.015625 77.535156 27.660156 77.046875 27.164062 76.664062 C 25.632812 75.582031 23.671875 75.207031 21.832031 75.246094 C 19.996094 75.394531 18.425781 76.460938 16.753906 77.140625 C 13.011719 78.738281 9.5 81.359375 7.898438 85.195312 C 6.964844 87.699219 6.511719 90.339844 5.710938 92.875 C 5.132812 94.746094 4.507812 96.597656 4.101562 98.503906 C 3.128906 102.621094 2.003906 106.703125 1.292969 110.871094 C 0.605469 114.902344 0.742188 118.996094 0.484375 123.058594 C 0.265625 125.765625 0.277344 128.472656 0.519531 131.175781 C 0.964844 138.925781 0.0742188 147.003906 2.964844 154.386719 C 4.226562 157.8125 6.035156 160.917969 8.386719 163.710938 C 10.023438 166.113281 12.070312 168.101562 14.519531 169.671875 C 16.292969 170.632812 18.140625 171.417969 20.058594 172.035156 C 22.617188 172.664062 25.257812 172.988281 27.855469 173.417969 C 28.535156 173.5 29.21875 173.542969 29.90625 173.546875 C 30.828125 173.554688 31.742188 173.457031 32.644531 173.265625 C 32.875 173.214844 33.089844 173.132812 33.289062 173.011719 C 33.542969 172.800781 33.640625 172.53125 33.582031 172.210938 C 34.316406 172.921875 35.160156 173.460938 36.117188 173.820312 C 36.164062 173.828125 36.214844 173.828125 36.261719 173.820312 C 36.640625 173.804688 36.902344 173.621094 37.042969 173.273438 C 37.121094 173.160156 37.21875 173.074219 37.339844 173.011719 C 37.453125 172.96875 37.339844 172.710938 37.203125 172.777344 C 36.421875 173.082031 35.59375 172.179688 34.984375 171.769531 C 34.332031 171.171875 33.789062 170.488281 33.355469 169.71875 C 32.714844 168.675781 32.285156 167.507812 32.824219 166.335938 C 33.507812 164.453125 35.382812 163.316406 37.265625 162.921875 C 37.65625 162.863281 38.046875 162.820312 38.433594 162.753906 C 38.25 163.890625 38.878906 166.457031 39.363281 170.910156 C 39.613281 173.570312 41.109375 174.980469 43.074219 175.929688 C 43.199219 180.207031 43.34375 184.476562 43.835938 188.660156 C 44.136719 189.90625 44.761719 190.542969 45.425781 190.707031 C 45.292969 190.894531 45.203125 191.105469 45.152344 191.328125 C 44.851562 192.859375 45.5 194.394531 46.25 195.703125 C 46.484375 196.089844 46.746094 196.453125 47.046875 196.796875 C 46.601562 197.765625 46.105469 198.726562 45.652344 199.707031 C 44.316406 202.839844 41.761719 207.195312 45.207031 209.890625 C 47.214844 211.289062 49.4375 212.132812 51.871094 212.421875 C 52.691406 212.488281 53.511719 212.527344 54.332031 212.539062 C 54.90625 213.160156 55.613281 213.503906 56.457031 213.566406 C 56.648438 213.601562 56.84375 213.617188 57.042969 213.617188 C 59.382812 213.617188 63.136719 211.765625 64.792969 210.515625 C 66.453125 209.265625 65.457031 205.050781 62.992188 206.246094 C 61.953125 206.867188 60.90625 207.492188 59.882812 208.105469 C 59.277344 207.792969 58.460938 207.859375 57.78125 207.769531 L 56.472656 207.601562 C 56.664062 207.105469 56.875 206.625 57.0625 206.132812 C 57.425781 205.246094 57.839844 204.394531 58.277344 203.5625 C 61.867188 205.003906 65.65625 205.851562 69.347656 206.972656 C 73.125 208.101562 76.832031 209.480469 80.695312 210.296875 C 83.738281 210.863281 86.808594 211.183594 89.902344 211.25 C 97.203125 211.246094 104.390625 210.34375 111.46875 208.535156 C 111.292969 208.703125 111.160156 208.898438 111.066406 209.121094 C 110.929688 209.402344 110.835938 209.695312 110.789062 210.003906 C 110.742188 210.3125 110.746094 210.621094 110.792969 210.925781 C 110.84375 211.234375 110.941406 211.527344 111.082031 211.804688 C 111.226562 212.082031 111.40625 212.332031 111.625 212.554688 C 113.847656 214.699219 117.089844 215.101562 120.066406 215.265625 C 120.921875 215.292969 121.789062 215.328125 122.652344 215.328125 C 124.898438 215.328125 127.136719 215.097656 129.097656 213.910156 C 129.863281 213.539062 130.726562 213.308594 131.398438 212.753906 C 131.890625 212.300781 132.316406 211.792969 132.679688 211.234375 C 132.839844 211.035156 133.019531 210.855469 133.214844 210.695312 C 133.6875 210.347656 134.050781 209.910156 134.304688 209.382812 C 134.554688 208.855469 134.667969 208.300781 134.640625 207.71875 C 134.703125 206.253906 133.789062 205.140625 132.722656 204.277344 Z M 119.371094 127.632812 C 119.371094 127.550781 119.371094 127.476562 119.371094 127.402344 C 119.371094 127.480469 119.394531 127.558594 119.402344 127.640625 Z M 126.652344 133.789062 C 126.878906 133.738281 127.054688 133.613281 127.175781 133.414062 C 127.351562 133.066406 127.4375 132.695312 127.445312 132.304688 C 127.582031 131.804688 127.710938 131.296875 127.835938 130.792969 C 127.488281 134.390625 126.835938 137.957031 126.550781 141.558594 C 126.511719 142.371094 126.492188 143.179688 126.476562 143.996094 C 126.402344 142.8125 126.355469 141.632812 126.347656 140.453125 C 126.355469 138.203125 126.488281 135.984375 126.652344 133.765625 Z M 127.921875 162.753906 L 127.449219 162.878906 C 127.449219 162.726562 127.472656 162.578125 127.492188 162.433594 C 127.613281 162.566406 127.757812 162.664062 127.921875 162.730469 Z M 126.917969 163.023438 L 126.613281 163.113281 C 126.671875 162.851562 126.699219 162.589844 126.703125 162.324219 L 126.785156 162.347656 C 126.824219 162.550781 126.871094 162.78125 126.917969 163 Z M 124.699219 163.503906 C 124.738281 163.550781 124.78125 163.59375 124.828125 163.636719 L 124.617188 163.695312 Z M 123.730469 124.035156 C 123.769531 124.554688 123.824219 125.070312 123.859375 125.589844 C 123.859375 125.683594 123.859375 125.769531 123.859375 125.863281 L 123.808594 125.886719 L 123.746094 125.886719 C 123.695312 125.804688 123.660156 125.714844 123.648438 125.621094 C 123.605469 125.082031 123.632812 124.546875 123.726562 124.011719 Z M 123.839844 127.0625 C 123.839844 127.6875 123.839844 128.3125 123.839844 128.933594 C 123.679688 128.292969 123.550781 127.640625 123.441406 126.988281 C 123.566406 127.039062 123.699219 127.058594 123.835938 127.042969 Z M 123.347656 121.535156 C 123.246094 121.703125 123.175781 121.886719 123.132812 122.078125 C 123.09375 122.238281 123.050781 122.402344 123.003906 122.5625 C 122.984375 122.097656 122.964844 121.628906 122.953125 121.160156 C 123.066406 121.292969 123.199219 121.410156 123.34375 121.515625 Z M 120.757812 161.367188 C 121.027344 161.367188 121.230469 161.25 121.359375 161.011719 C 121.804688 160.128906 121.765625 159.117188 121.90625 158.160156 C 121.9375 158.796875 122.242188 159.417969 122.03125 160.042969 C 121.914062 160.160156 121.816406 160.292969 121.738281 160.4375 C 121.546875 160.742188 121.449219 161.078125 121.445312 161.4375 C 121.246094 161.707031 120.957031 161.941406 120.722656 162.203125 C 120.730469 161.902344 120.742188 161.625 120.753906 161.34375 Z M 120.628906 164.152344 C 120.757812 164.355469 120.914062 164.539062 121.097656 164.699219 L 120.597656 164.84375 C 120.605469 164.589844 120.613281 164.359375 120.625 164.132812 Z M 120.527344 144.222656 C 120.527344 144.292969 120.527344 144.363281 120.546875 144.429688 C 120.570312 144.496094 120.546875 144.566406 120.527344 144.632812 Z M 120.730469 173.535156 C 120.660156 172.886719 120.601562 172.234375 120.566406 171.582031 C 120.496094 170.25 120.484375 168.886719 120.511719 167.542969 L 121.035156 167.453125 C 124.039062 166.914062 127.074219 166.460938 129.988281 165.511719 L 130.1875 165.4375 C 130.191406 165.457031 130.191406 165.480469 130.1875 165.5 L 130.847656 165.230469 C 130.867188 165.179688 130.894531 165.132812 130.925781 165.085938 L 130.960938 165.035156 C 131 164.980469 131.046875 164.929688 131.09375 164.882812 C 131.449219 164.597656 131.835938 164.367188 132.25 164.183594 C 132.589844 164.011719 132.929688 163.84375 133.269531 163.664062 C 133.503906 163.542969 133.75 163.507812 134.011719 163.554688 C 134.269531 163.605469 134.488281 163.726562 134.664062 163.925781 C 134.664062 163.6875 134.632812 163.449219 134.617188 163.210938 C 134.871094 163.761719 135.058594 164.332031 135.183594 164.921875 C 135.226562 165.039062 135.25 165.160156 135.257812 165.28125 C 135.4375 166.195312 135.546875 167.128906 135.75 168.019531 L 134.789062 168.460938 L 134.789062 168.429688 C 134.703125 168.492188 134.609375 168.546875 134.519531 168.601562 C 134.140625 168.824219 133.742188 169.042969 133.355469 169.238281 C 132.96875 169.433594 132.625 169.679688 132.253906 169.875 C 131.757812 170.207031 131.222656 170.449219 130.640625 170.59375 C 130.59375 170.597656 130.542969 170.597656 130.492188 170.59375 L 130.4375 170.59375 C 130.40625 170.597656 130.375 170.597656 130.34375 170.59375 C 130.320312 170.59375 130.296875 170.59375 130.273438 170.59375 L 130.195312 170.570312 C 130.121094 170.550781 130.054688 170.523438 129.988281 170.492188 L 129.683594 170.605469 C 128.820312 170.9375 127.957031 171.273438 127.082031 171.578125 C 126.976562 171.617188 126.863281 171.632812 126.75 171.632812 C 125.980469 171.929688 125.203125 172.214844 124.410156 172.453125 C 123.210938 172.90625 121.980469 173.261719 120.726562 173.515625 Z M 124.730469 187.378906 C 124.917969 187.40625 125.074219 187.351562 125.199219 187.210938 C 125.058594 187.867188 124.816406 188.488281 124.472656 189.066406 C 124.316406 189.316406 124.132812 189.542969 123.929688 189.753906 C 124.257812 188.976562 124.527344 188.179688 124.734375 187.363281 Z M 124.34375 176.265625 C 124.605469 176.121094 124.871094 175.980469 125.140625 175.847656 L 125.933594 175.402344 C 125.800781 176.109375 125.710938 176.820312 125.667969 177.539062 C 125.667969 177.726562 125.667969 177.917969 125.667969 178.109375 C 125.550781 177.882812 125.375 177.71875 125.144531 177.609375 C 125.089844 177.03125 124.824219 176.578125 124.347656 176.25 Z M 125.066406 185.917969 C 125.175781 185.03125 125.691406 183.042969 125.898438 181.214844 C 126.03125 182.242188 126.070312 183.277344 126.011719 184.3125 C 125.863281 185.09375 125.652344 185.851562 125.378906 186.59375 C 125.351562 186.328125 125.25 186.097656 125.070312 185.898438 Z M 121.820312 180.449219 L 121.671875 179.582031 C 121.785156 179.855469 121.832031 180.136719 121.824219 180.429688 Z M 121.375 177.789062 C 121.601562 177.6875 121.820312 177.574219 122.027344 177.476562 C 122.359375 177.335938 122.679688 177.175781 123 177.011719 C 122.761719 177.535156 122.667969 178.164062 122.453125 178.667969 C 122.222656 178.214844 121.859375 177.921875 121.367188 177.789062 Z M 122.824219 187.21875 C 122.761719 187.375 122.695312 187.53125 122.628906 187.664062 C 122.628906 187.582031 122.628906 187.503906 122.628906 187.421875 C 122.546875 186.777344 122.484375 186.121094 122.433594 185.46875 C 122.5625 185.648438 122.722656 185.785156 122.917969 185.886719 C 122.863281 186.082031 122.820312 186.28125 122.78125 186.480469 C 122.710938 186.730469 122.722656 186.976562 122.8125 187.21875 Z M 126.273438 197.53125 C 126.132812 197.640625 125.992188 197.746094 125.832031 197.847656 L 125.28125 197.277344 C 124.714844 196.703125 124.101562 196.171875 123.546875 195.585938 C 123.597656 195.523438 123.640625 195.457031 123.679688 195.386719 C 123.550781 195.132812 123.441406 194.871094 123.355469 194.597656 C 123.128906 193.863281 122.96875 193.113281 122.886719 192.347656 C 123.050781 192.242188 123.210938 192.132812 123.363281 192.035156 C 124.664062 191.046875 125.984375 189.90625 126.53125 188.332031 C 126.863281 187.339844 127.363281 186.414062 127.679688 185.417969 C 128.308594 183.449219 128.3125 181.363281 128.292969 179.324219 C 128.105469 177.847656 129.289062 175.335938 127.941406 174.316406 C 128.699219 173.921875 129.464844 173.546875 130.242188 173.1875 C 130.519531 178.945312 131.132812 184.675781 131.203125 190.429688 C 130.3125 190.707031 130.179688 192.082031 129.78125 192.847656 C 128.945312 194.660156 127.773438 196.21875 126.265625 197.53125 Z M 112.359375 197.53125 C 112.242188 197.316406 112.0625 197.1875 111.824219 197.140625 C 111.945312 197.027344 112.042969 196.898438 112.121094 196.75 C 112.1875 197.039062 112.269531 197.300781 112.351562 197.546875 Z M 111.914062 195.78125 C 111.816406 195.710938 111.707031 195.664062 111.585938 195.636719 C 111.6875 195.578125 111.785156 195.511719 111.878906 195.441406 C 111.867188 195.570312 111.875 195.683594 111.894531 195.796875 Z M 111.398438 189.683594 C 111.503906 190.566406 111.597656 191.484375 111.664062 192.386719 C 111.664062 192.546875 111.664062 192.707031 111.683594 192.871094 C 111.535156 192.734375 111.363281 192.640625 111.167969 192.582031 L 111.167969 192.296875 C 111.183594 191.507812 111.132812 190.71875 111.019531 189.9375 C 111.144531 189.867188 111.261719 189.789062 111.378906 189.699219 Z M 111.558594 194.554688 C 111.605469 194.929688 111.167969 195.117188 110.890625 195.300781 C 110.824219 195.226562 110.746094 195.167969 110.660156 195.121094 L 110.632812 195.121094 C 110.855469 195.023438 111.070312 194.910156 111.277344 194.785156 C 111.371094 194.71875 111.457031 194.644531 111.539062 194.5625 Z M 110.972656 185.582031 C 110.835938 185.550781 110.695312 185.535156 110.554688 185.527344 L 110.589844 185.460938 C 110.707031 185.238281 110.753906 185.003906 110.734375 184.757812 L 110.898438 184.625 C 110.898438 184.953125 110.925781 185.269531 110.953125 185.589844 Z M 109.695312 163.578125 C 109.855469 164.929688 110.058594 166.285156 110.230469 167.609375 C 110.132812 167.597656 110.03125 167.597656 109.929688 167.609375 C 109.953125 167.535156 109.96875 167.457031 109.980469 167.382812 C 109.980469 167.277344 109.792969 167.15625 109.722656 167.277344 C 109.691406 167.402344 109.667969 167.53125 109.660156 167.660156 L 108.914062 167.816406 C 108.863281 167.71875 108.816406 167.625 108.769531 167.527344 C 108.785156 167.507812 108.800781 167.488281 108.808594 167.464844 C 108.863281 166.292969 109.078125 164.996094 109.253906 163.671875 C 109.398438 163.667969 109.539062 163.640625 109.671875 163.585938 Z M 109.003906 115.707031 C 109.089844 116.847656 109.164062 117.984375 109.210938 119.121094 C 108.980469 118.304688 108.703125 117.503906 108.375 116.71875 C 108.671875 116.433594 108.882812 116.097656 109.003906 115.707031 Z M 107.039062 135.957031 L 107.191406 135.808594 C 107.257812 136.402344 107.328125 136.988281 107.402344 137.578125 C 107.4375 138.042969 107.464844 138.507812 107.492188 138.96875 C 107.351562 138.675781 107.207031 138.386719 107.046875 138.082031 L 107.019531 138.039062 C 107.058594 137.347656 107.0625 136.652344 107.03125 135.957031 Z M 107.238281 146.832031 L 107.238281 146.878906 L 107.238281 146.828125 C 107.238281 146.851562 107.238281 146.875 107.238281 146.902344 L 107.199219 147.292969 C 107.160156 147.382812 107.097656 147.460938 107.015625 147.519531 C 107.015625 147.378906 106.992188 147.246094 106.980469 147.109375 L 106.898438 146.289062 C 107.09375 146.421875 107.203125 146.601562 107.226562 146.832031 Z M 106.664062 117.101562 L 106.664062 117.25 C 106.519531 117.210938 106.371094 117.195312 106.21875 117.199219 C 106.21875 117.132812 106.21875 117.078125 106.21875 117.015625 Z M 105.152344 152.640625 C 105.375 152.640625 105.597656 152.640625 105.828125 152.640625 L 105.894531 152.640625 C 107.140625 152.640625 106.242188 153.582031 105.574219 153.824219 C 105.429688 153.609375 105.269531 153.40625 105.101562 153.207031 C 104.949219 153.035156 104.789062 152.871094 104.621094 152.71875 C 104.792969 152.675781 104.972656 152.65625 105.148438 152.640625 Z M 102.660156 165.824219 C 103.425781 166.628906 103.3125 167.863281 103.886719 168.726562 L 102.347656 168.941406 L 101.792969 169.023438 C 102.476562 168.0625 102.765625 166.996094 102.65625 165.824219 Z M 103.449219 148.6875 C 103.445312 148.664062 103.445312 148.640625 103.449219 148.617188 L 103.527344 148.722656 L 103.402344 148.746094 C 103.402344 148.746094 103.433594 148.703125 103.441406 148.6875 Z M 103.308594 123.144531 C 103.25 123.539062 103.125 123.910156 102.9375 124.261719 C 102.683594 124.234375 102.433594 124.214844 102.175781 124.207031 Z M 101.089844 140.058594 L 101.167969 139.917969 C 101.210938 140.207031 101.257812 140.488281 101.304688 140.773438 C 101.355469 141.054688 101.390625 141.285156 101.429688 141.546875 L 101.054688 141.578125 C 101.078125 141.074219 101.09375 140.5625 101.101562 140.058594 Z M 100.851562 145.570312 C 101.386719 145.472656 101.917969 145.363281 102.453125 145.246094 C 102.453125 145.253906 102.453125 145.261719 102.453125 145.269531 C 101.902344 145.351562 101.425781 145.589844 101.027344 145.976562 L 100.832031 145.773438 Z M 105.273438 173.984375 C 106.988281 173.773438 108.679688 173.425781 110.339844 172.945312 C 110.457031 172.898438 110.570312 172.84375 110.675781 172.777344 C 110.675781 173.082031 110.714844 173.390625 110.734375 173.699219 C 110.804688 174.972656 110.804688 176.253906 110.796875 177.527344 C 110.472656 177.332031 110.125 177.277344 109.757812 177.359375 C 108.113281 177.777344 106.449219 178.070312 104.761719 178.246094 C 101.921875 178.640625 99.09375 179.132812 96.21875 179.03125 C 93.46875 178.9375 90.734375 178.671875 88.015625 178.222656 C 85.730469 177.828125 83.421875 177.425781 81.09375 177.535156 C 77.984375 177.746094 74.949219 178.535156 71.832031 178.417969 C 69.167969 178.304688 66.53125 178.042969 63.894531 178.417969 C 63.855469 176.070312 63.78125 173.722656 63.648438 171.382812 C 63.925781 171.382812 64.199219 171.382812 64.480469 171.382812 C 65.320312 171.382812 66.164062 171.382812 67.003906 171.445312 C 71.761719 171.648438 75.9375 174.359375 80.625 174.902344 C 81.363281 174.984375 82.101562 175.023438 82.847656 175.019531 C 86.449219 175.019531 90.027344 174.203125 93.628906 174.132812 C 94.960938 174.132812 96.292969 174.132812 97.597656 174.179688 C 100.164062 174.261719 102.726562 174.195312 105.285156 173.984375 Z M 96.273438 184.035156 L 97.089844 184.167969 C 97.535156 184.234375 97.929688 184.332031 98.347656 184.429688 L 97.902344 184.464844 C 97.378906 184.324219 96.832031 184.160156 96.285156 184.035156 Z M 96.496094 186.890625 C 95.828125 187.203125 95.253906 187.632812 94.769531 188.183594 L 94.59375 188.183594 C 94.425781 188.0625 94.25 187.960938 94.058594 187.882812 C 93.753906 187.761719 93.425781 187.652344 93.105469 187.550781 C 92.628906 187.40625 92.140625 187.273438 91.652344 187.167969 C 93.28125 187.121094 94.898438 187.082031 96.507812 186.890625 Z M 97.339844 192.671875 C 98.640625 192.71875 99.945312 192.765625 101.25 192.816406 C 101.480469 192.890625 101.691406 192.957031 101.9375 193.035156 C 101.886719 193.113281 101.84375 193.191406 101.804688 193.273438 C 101.554688 193.378906 101.300781 193.46875 101.039062 193.539062 C 100.253906 193.386719 99.457031 193.304688 98.65625 193.222656 C 98.160156 193.175781 97.660156 193.132812 97.152344 193.101562 C 97.253906 192.972656 97.320312 192.832031 97.351562 192.671875 Z M 106.800781 187.617188 C 106.40625 188 106.027344 188.394531 105.671875 188.804688 C 103.816406 188.832031 101.964844 188.789062 100.117188 188.675781 L 100.171875 188.628906 C 102.414062 188.457031 104.625 188.121094 106.816406 187.617188 Z M 102.398438 183.105469 L 103.289062 183.132812 L 103.375 183.132812 L 102.933594 183.316406 C 102.785156 183.242188 102.59375 183.171875 102.414062 183.105469 Z M 103.730469 193.453125 C 103.863281 193.304688 103.964844 193.140625 104.039062 192.960938 C 104.722656 193.007812 105.410156 193.035156 106.09375 193.121094 C 105.78125 193.175781 105.46875 193.238281 105.15625 193.304688 C 104.613281 193.410156 104.070312 193.53125 103.527344 193.644531 C 103.613281 193.589844 103.691406 193.523438 103.761719 193.453125 Z M 103.191406 190.964844 C 102.828125 190.925781 102.46875 190.875 102.109375 190.871094 L 101.964844 190.871094 C 102.757812 190.871094 103.550781 190.871094 104.339844 190.820312 C 104.320312 190.871094 104.304688 190.921875 104.292969 190.976562 L 104.128906 191.074219 Z M 103.097656 196.332031 C 103.320312 196.453125 103.546875 196.5625 103.785156 196.652344 L 104.042969 196.753906 C 103.773438 196.832031 103.496094 196.902344 103.210938 196.953125 C 102.664062 197.089844 102.105469 197.199219 101.546875 197.277344 C 102.101562 197.015625 102.617188 196.695312 103.097656 196.316406 Z M 103.714844 194.765625 C 105.25 194.464844 106.800781 194.246094 108.363281 194.105469 C 108.367188 194.203125 108.382812 194.300781 108.410156 194.394531 C 107.59375 194.636719 106.761719 194.835938 105.929688 195.058594 L 104.460938 195.320312 C 104.191406 195.160156 103.941406 194.96875 103.714844 194.753906 Z M 68.265625 194.605469 C 68.539062 194.414062 68.84375 194.253906 69.152344 194.085938 C 70.386719 194.035156 71.570312 193.640625 72.78125 193.527344 C 71.472656 194.394531 69.785156 194.453125 68.265625 194.59375 Z M 71.152344 198.308594 C 70.46875 198.191406 69.78125 198.085938 69.089844 197.96875 C 69.480469 197.894531 69.835938 197.8125 70.125 197.753906 C 70.433594 198 70.773438 198.183594 71.152344 198.296875 Z M 69.179688 191.949219 L 68.894531 191.980469 C 68.917969 191.917969 68.933594 191.855469 68.957031 191.792969 C 69.039062 191.847656 69.125 191.886719 69.21875 191.914062 L 69.277344 191.914062 L 69.117188 191.9375 Z M 69.691406 189.507812 C 69.71875 189.417969 69.75 189.324219 69.78125 189.230469 L 70.273438 189.230469 C 70.074219 189.304688 69.882812 189.398438 69.703125 189.515625 Z M 73.246094 198.707031 C 74.105469 198.855469 74.972656 198.917969 75.84375 199 C 76.714844 199.085938 77.582031 199.117188 78.453125 199.128906 C 76.296875 199.21875 74.175781 199.007812 72.082031 198.496094 C 72.472656 198.582031 72.867188 198.628906 73.246094 198.695312 Z M 75.148438 196.191406 C 76.433594 195.671875 77.878906 195.75 79.242188 195.523438 L 81.828125 195.308594 C 83.089844 195.488281 84.371094 195.570312 85.644531 195.640625 C 86.570312 195.914062 87.519531 196.058594 88.484375 196.082031 C 86.4375 196.269531 84.386719 196.351562 82.332031 196.332031 C 79.9375 196.304688 77.535156 196.339844 75.148438 196.179688 Z M 74.351562 194.03125 C 74.386719 193.984375 74.421875 193.9375 74.453125 193.890625 C 74.527344 193.785156 74.582031 193.671875 74.621094 193.550781 C 74.96875 193.550781 75.320312 193.550781 75.671875 193.550781 Z M 80.886719 180.917969 C 82.398438 181.253906 83.914062 181.578125 85.4375 181.839844 C 84.21875 181.976562 83.007812 182.144531 81.804688 182.316406 C 81.703125 182.121094 81.558594 181.976562 81.363281 181.875 L 81.121094 181.765625 C 81.175781 181.445312 81.09375 181.164062 80.878906 180.917969 Z M 83.996094 189.101562 L 85.007812 189.101562 C 82.765625 189.285156 80.519531 189.390625 78.269531 189.480469 C 80.164062 189.238281 82.066406 189.109375 83.972656 189.101562 Z M 86.753906 192.75 C 86.578125 192.808594 86.40625 192.878906 86.234375 192.957031 C 85.671875 192.957031 85.109375 192.972656 84.542969 193.007812 Z M 66.191406 185.105469 L 66.082031 185.167969 C 66.082031 185.148438 66.082031 185.128906 66.082031 185.105469 Z M 64.792969 180.074219 C 64.488281 180.21875 64.195312 180.378906 63.90625 180.554688 C 63.90625 180.386719 63.90625 180.222656 63.90625 180.054688 C 64.167969 180.070312 64.488281 180.0625 64.773438 180.074219 Z M 64.507812 156.242188 C 64.507812 156.382812 64.507812 156.527344 64.46875 156.664062 C 64.332031 155.097656 64.332031 153.527344 64.46875 151.960938 L 64.496094 152.199219 C 64.4375 153.546875 64.425781 154.894531 64.484375 156.242188 Z M 64.507812 168.292969 C 64.59375 168.324219 64.683594 168.339844 64.777344 168.339844 L 64.824219 168.339844 C 64.898438 168.855469 65.152344 169.257812 65.589844 169.542969 C 64.894531 169.515625 64.203125 169.535156 63.511719 169.597656 C 63.457031 168.839844 63.398438 168.082031 63.328125 167.324219 C 63.328125 167.234375 63.328125 167.152344 63.296875 167.0625 C 63.519531 167.644531 63.914062 168.054688 64.488281 168.292969 Z M 63.589844 196.34375 C 63.597656 196.414062 63.605469 196.484375 63.621094 196.550781 L 63.390625 196.453125 C 63.441406 196.417969 63.511719 196.382812 63.574219 196.34375 Z M 66.933594 136.714844 C 67.015625 136.351562 67.089844 135.988281 67.160156 135.625 L 67.1875 135.601562 C 67.1875 135.695312 67.226562 135.792969 67.246094 135.886719 C 67.121094 136.160156 67.019531 136.4375 66.914062 136.714844 Z M 68.234375 162.503906 C 68.792969 162.59375 69.253906 162.417969 69.617188 161.984375 L 69.386719 162.359375 C 69.167969 162.699219 68.945312 163.027344 68.679688 163.347656 C 68.375 163.394531 68.070312 163.4375 67.761719 163.476562 L 67.582031 163.496094 C 67.738281 163.132812 67.949219 162.800781 68.214844 162.503906 Z M 67.8125 142.730469 C 67.863281 142.550781 67.917969 142.375 67.976562 142.199219 L 67.863281 142.796875 C 67.867188 142.828125 67.867188 142.859375 67.863281 142.890625 C 67.820312 142.835938 67.808594 142.78125 67.792969 142.730469 Z M 69.308594 118.183594 C 69.117188 118.226562 68.925781 118.277344 68.738281 118.332031 C 68.695312 118.277344 68.652344 118.226562 68.601562 118.179688 C 68.796875 118.179688 68.988281 118.152344 69.183594 118.148438 C 69.265625 118.144531 69.351562 118.144531 69.433594 118.148438 Z M 69.542969 148.402344 C 69.613281 148.425781 69.683594 148.4375 69.757812 148.441406 C 69.886719 148.457031 70.011719 148.449219 70.140625 148.421875 C 70.042969 148.914062 69.953125 149.40625 69.886719 149.902344 C 69.832031 150.277344 69.789062 150.652344 69.75 151.035156 L 69.304688 151.316406 C 69.304688 151.203125 69.304688 151.085938 69.335938 150.972656 C 69.375 150.117188 69.464844 149.257812 69.527344 148.402344 Z M 69.242188 158.5 L 69.019531 158.945312 L 68.691406 159.179688 L 69.183594 158.550781 Z M 70.796875 139.269531 C 70.796875 139.238281 70.796875 139.214844 70.796875 139.1875 C 71.480469 138.757812 71.96875 138.167969 72.253906 137.414062 C 72.371094 137.496094 72.492188 137.566406 72.617188 137.632812 L 72.761719 137.707031 C 71.949219 138.933594 71.207031 140.203125 70.539062 141.511719 C 70.539062 141.457031 70.539062 141.402344 70.574219 141.347656 C 70.75 140.667969 70.824219 139.972656 70.796875 139.269531 Z M 74.292969 133.035156 C 74.113281 132.855469 73.949219 132.660156 73.800781 132.453125 C 73.984375 131.613281 74.113281 130.761719 74.183594 129.902344 C 74.226562 129.972656 74.261719 130.046875 74.300781 130.117188 C 74.277344 130.316406 74.300781 130.511719 74.363281 130.703125 C 74.570312 131.316406 74.859375 131.890625 75.226562 132.421875 C 75.363281 133 75.449219 133.582031 75.476562 134.171875 C 75.230469 134.457031 74.988281 134.746094 74.753906 135.058594 L 74.574219 135.289062 C 74.09375 135.15625 73.667969 134.925781 73.292969 134.59375 C 73.292969 134.582031 73.292969 134.574219 73.292969 134.5625 C 73.414062 134.636719 73.535156 134.707031 73.660156 134.769531 C 74.582031 135.203125 75.238281 133.390625 74.308594 133.035156 Z M 73.941406 124.8125 C 74.128906 124.546875 74.335938 124.296875 74.566406 124.066406 C 74.765625 124.308594 74.96875 124.554688 75.175781 124.792969 C 74.898438 125.085938 74.617188 125.375 74.351562 125.679688 L 74.171875 125.621094 L 74.113281 125.59375 C 74.113281 125.5625 74.113281 125.53125 74.113281 125.5 C 74.085938 125.265625 74.035156 125.039062 73.957031 124.8125 Z M 76.90625 152.875 C 77.042969 153.472656 77.230469 154.054688 77.476562 154.617188 C 76.675781 154.976562 75.816406 155.363281 74.9375 155.769531 C 75.625 154.804688 76.253906 153.820312 76.90625 152.875 Z M 73.90625 144.335938 C 73.757812 145.179688 73.601562 146.023438 73.441406 146.867188 C 73.277344 147.5 73.117188 148.132812 72.953125 148.769531 C 72.664062 148.996094 72.371094 149.214844 72.0625 149.433594 C 72.378906 148.269531 72.707031 147.113281 72.996094 145.945312 C 73.054688 145.289062 73.53125 144.851562 73.90625 144.335938 Z M 72.28125 169.199219 C 72.652344 169.304688 73.027344 169.339844 73.410156 169.304688 C 73.46875 169.539062 73.554688 169.761719 73.664062 169.976562 C 72.839844 169.914062 72.015625 169.859375 71.195312 169.804688 C 71.574219 169.636719 71.929688 169.433594 72.269531 169.199219 Z M 71.242188 153.382812 C 71.242188 153.347656 71.242188 153.3125 71.242188 153.269531 L 71.269531 153.0625 L 71.503906 152.882812 L 71.613281 152.800781 C 71.542969 152.996094 71.472656 153.1875 71.398438 153.378906 L 71.242188 153.378906 Z M 72.355469 162.558594 L 71.574219 162.761719 C 72 161.910156 72.359375 161.03125 72.652344 160.128906 C 72.75 159.816406 72.84375 159.511719 72.929688 159.207031 L 73.839844 158.726562 C 73.792969 158.886719 73.746094 159.050781 73.707031 159.195312 C 73.070312 160.242188 72.625 161.363281 72.367188 162.558594 Z M 84.980469 146.84375 L 84.601562 147.570312 C 82.777344 147.871094 80.972656 148.261719 79.191406 148.75 C 79.191406 148.589844 79.191406 148.425781 79.191406 148.265625 C 79.375 147.890625 79.539062 147.511719 79.683594 147.117188 C 81.433594 147 83.210938 146.914062 84.988281 146.84375 Z M 84.035156 130.921875 C 83.65625 130.582031 83.273438 130.222656 82.890625 129.839844 L 82.957031 129.769531 C 83.484375 129.6875 84.015625 129.597656 84.539062 129.5 L 84.792969 129.761719 C 84.570312 130.15625 84.316406 130.546875 84.046875 130.921875 Z M 91.035156 163.089844 C 90.5625 163.21875 90.09375 163.363281 89.628906 163.53125 C 86.675781 163.34375 83.605469 164.738281 81.066406 166.164062 C 80.613281 166.101562 80.175781 165.984375 79.753906 165.808594 C 83.316406 164.070312 87.078125 163.160156 91.042969 163.089844 Z M 85.257812 150.015625 C 85.273438 149.992188 85.285156 149.96875 85.304688 149.945312 L 85.449219 149.921875 C 85.394531 149.953125 85.335938 149.980469 85.273438 150.015625 Z M 86.589844 156.019531 C 87.148438 155.578125 87.683594 155.136719 88.203125 154.640625 L 89.015625 154.558594 C 88.960938 155.070312 88.832031 155.5625 88.621094 156.03125 L 87.453125 156.03125 Z M 96.140625 159.566406 C 96.386719 159.707031 96.652344 159.765625 96.933594 159.734375 L 97.261719 160.007812 C 97.261719 160.128906 97.238281 160.246094 97.226562 160.371094 L 96.785156 160.414062 C 95.871094 159.941406 94.925781 159.539062 93.949219 159.214844 C 93.558594 159.085938 93.167969 158.964844 92.769531 158.855469 C 93.6875 158.707031 94.601562 158.550781 95.5 158.320312 C 95.554688 158.402344 95.609375 158.480469 95.671875 158.554688 L 95.71875 158.617188 C 95.683594 158.804688 95.707031 158.980469 95.789062 159.152344 C 95.871094 159.324219 95.996094 159.457031 96.160156 159.546875 Z M 97.011719 146.375 L 97.214844 146.113281 L 97.550781 146.074219 C 97.488281 146.253906 97.445312 146.433594 97.421875 146.621094 C 97.296875 146.535156 97.160156 146.453125 97.011719 146.375 Z M 95.273438 169.023438 C 92.921875 169.457031 90.550781 169.710938 88.164062 169.792969 L 87.222656 169.761719 C 88.496094 169.289062 89.8125 169.082031 91.167969 169.144531 L 92.113281 169.144531 C 93.171875 169.191406 94.230469 169.152344 95.28125 169.023438 Z M 91.152344 156 C 91.339844 155.511719 91.46875 155.011719 91.546875 154.496094 C 92.273438 154.496094 92.996094 154.574219 93.71875 154.660156 C 93.917969 155.058594 94.132812 155.453125 94.359375 155.835938 C 93.300781 155.917969 92.230469 155.976562 91.164062 156 Z M 91.152344 165.460938 C 92.042969 165.316406 92.929688 165.238281 93.820312 165.179688 C 92.367188 165.972656 90.710938 166.296875 89.109375 166.601562 C 89.480469 166.335938 89.808594 166.027344 90.097656 165.671875 C 90.460938 165.597656 90.820312 165.527344 91.175781 165.460938 Z M 79.683594 153.5625 C 79.613281 153.3125 79.550781 153.054688 79.496094 152.796875 C 79.9375 152.847656 80.382812 152.867188 80.828125 152.859375 L 80.347656 153.234375 C 80.128906 153.34375 79.929688 153.453125 79.683594 153.5625 Z M 82.6875 150.800781 C 82.117188 150.800781 81.546875 150.765625 80.984375 150.738281 L 82.953125 150.371094 C 82.882812 150.511719 82.792969 150.664062 82.703125 150.800781 Z M 83.335938 155.726562 L 83.136719 155.871094 L 82.9375 155.871094 Z M 99.417969 117.710938 L 99.601562 117.710938 C 99.652344 117.785156 99.699219 117.863281 99.738281 117.945312 C 99.625 117.871094 99.507812 117.808594 99.386719 117.75 Z M 100.5625 166.847656 C 100.066406 167.957031 98.703125 168.230469 97.5625 168.535156 C 97.929688 168.417969 98.292969 168.285156 98.648438 168.136719 C 99.375 167.832031 100.011719 167.402344 100.5625 166.847656 Z M 98.46875 165.476562 C 97.894531 166.019531 97.03125 166.066406 96.304688 166.265625 C 96.832031 165.902344 97.234375 165.429688 97.507812 164.847656 C 97.574219 164.691406 97.621094 164.527344 97.640625 164.355469 C 97.953125 164.664062 98.476562 164.972656 98.445312 165.476562 Z M 96.25 130.730469 L 96.25 130.753906 L 96.195312 130.753906 Z M 97.765625 132.945312 C 97.539062 133.523438 97.320312 134.105469 97.152344 134.71875 C 96.652344 135.347656 96.117188 135.949219 95.546875 136.515625 C 94.96875 135.859375 94.378906 135.214844 93.769531 134.582031 L 93.898438 134.34375 C 95.140625 133.753906 96.429688 133.285156 97.765625 132.945312 Z M 93.898438 119.003906 C 93.851562 119.203125 93.800781 119.402344 93.761719 119.597656 L 93.273438 119.710938 C 93.058594 119.679688 92.839844 119.65625 92.621094 119.648438 C 92.558594 119.605469 92.492188 119.570312 92.429688 119.53125 C 92.929688 119.386719 93.421875 119.210938 93.898438 119.003906 Z M 93.285156 141.285156 L 94.3125 141.082031 C 94.703125 141.417969 95.125 141.714844 95.574219 141.96875 L 91.882812 142.226562 C 92.363281 141.941406 92.828125 141.617188 93.285156 141.285156 Z M 87.859375 128.683594 C 88.582031 128.449219 89.382812 128.179688 90.164062 127.847656 L 91.496094 127.605469 L 91.617188 127.644531 C 90.820312 128.453125 90.019531 129.265625 89.234375 130.082031 C 88.789062 129.636719 88.316406 129.160156 87.863281 128.691406 Z M 86.746094 132.78125 L 86.683594 132.804688 C 86.425781 132.671875 86.167969 132.519531 85.90625 132.363281 C 86.101562 132.101562 86.292969 131.835938 86.472656 131.558594 L 87.15625 132.332031 Z M 86.746094 124.207031 C 86.410156 124.082031 86.070312 123.953125 85.734375 123.816406 C 86.136719 123.652344 86.542969 123.480469 86.941406 123.304688 C 86.695312 123.566406 86.632812 123.867188 86.753906 124.207031 Z M 83.105469 114.828125 C 84.761719 115.203125 86.523438 113.355469 85.886719 111.726562 C 86.328125 110.925781 86.273438 109.636719 85.335938 109.21875 C 85.839844 108.175781 86.246094 106.460938 85.089844 105.699219 C 85.421875 104.585938 86.328125 103.195312 85.652344 101.992188 C 86.316406 99.75 85.425781 98.5625 83.710938 100.730469 C 83.710938 99.453125 84.054688 98.039062 83.382812 96.871094 C 84.367188 96.925781 85.351562 96.949219 86.339844 96.9375 C 86.339844 97.03125 86.339844 97.128906 86.339844 97.222656 C 86.382812 97.964844 86.28125 98.808594 86.605469 99.492188 C 87.011719 104.367188 86.457031 109.238281 86.28125 114.109375 C 86.28125 114.214844 86.28125 114.316406 86.28125 114.417969 C 86.136719 114.488281 86.015625 114.582031 85.917969 114.707031 C 85.710938 115.011719 85.652344 115.34375 85.738281 115.703125 L 83.699219 115.488281 L 82.402344 115.308594 C 82.648438 115.164062 82.886719 115 83.113281 114.828125 Z M 83 131.820312 L 82.503906 131.65625 C 82.457031 131.53125 82.394531 131.414062 82.308594 131.308594 Z M 82.265625 136.785156 C 82.3125 136.460938 82.351562 136.140625 82.40625 135.816406 C 82.75 135.550781 83.085938 135.269531 83.417969 134.984375 C 83.261719 135.554688 83.367188 136.074219 83.734375 136.542969 L 83.867188 136.601562 C 83.804688 136.703125 83.738281 136.792969 83.675781 136.898438 C 83.492188 137.214844 83.265625 137.546875 83.046875 137.894531 C 82.734375 137.960938 82.410156 138.03125 82.078125 138.113281 L 82.046875 138.070312 C 82.128906 137.644531 82.207031 137.214844 82.273438 136.785156 Z M 81.902344 131 Z M 81.730469 96.777344 C 81.464844 97.023438 81.285156 97.316406 81.191406 97.664062 C 80.980469 97.648438 80.773438 97.671875 80.570312 97.738281 C 80.503906 97.425781 80.355469 97.152344 80.128906 96.925781 C 80.113281 96.828125 80.097656 96.730469 80.070312 96.636719 C 80.628906 96.683594 81.179688 96.734375 81.734375 96.777344 Z M 78.75 113.417969 C 78.796875 113.421875 78.839844 113.421875 78.886719 113.417969 C 78.945312 113.457031 78.992188 113.496094 79.050781 113.535156 L 79.09375 113.617188 C 79.183594 113.835938 79.332031 114.003906 79.535156 114.121094 C 79.527344 114.460938 79.605469 114.777344 79.773438 115.074219 L 79.535156 115.074219 C 79.398438 114.878906 79.214844 114.761719 78.976562 114.730469 L 78.871094 114.730469 C 78.984375 114.382812 78.933594 114.0625 78.722656 113.765625 Z M 78.625 130.191406 L 79.246094 130.15625 L 78.980469 130.429688 L 78.390625 130.195312 Z M 78.308594 119.964844 Z M 79.199219 167.929688 C 79.140625 168.03125 79.089844 168.136719 79.050781 168.246094 C 78.6875 168.328125 78.320312 168.414062 77.945312 168.480469 C 77.574219 168.546875 77.320312 168.578125 77.003906 168.613281 C 76.476562 168.722656 76.25 168.359375 76.445312 167.882812 C 76.738281 167.644531 77.027344 167.394531 77.292969 167.128906 C 77.527344 167.355469 77.796875 167.523438 78.105469 167.625 C 78.457031 167.753906 78.816406 167.855469 79.183594 167.9375 Z M 77.175781 142.636719 C 76.945312 143.886719 77.101562 145.410156 75.949219 146.230469 C 76.546875 143.929688 77.15625 141.605469 77.191406 139.21875 C 77.144531 138.816406 77.433594 138.46875 77.542969 138.089844 L 78.085938 137.96875 C 77.714844 139.515625 77.417969 141.074219 77.164062 142.636719 Z M 77.175781 122.261719 L 77.621094 122.605469 L 77.144531 122.984375 L 76.75 122.472656 C 76.878906 122.414062 77.015625 122.347656 77.167969 122.28125 Z M 45.839844 173.640625 L 45.816406 173.640625 C 45.277344 173.578125 44.789062 173.390625 44.347656 173.078125 L 43.941406 172.828125 C 43.59375 172.652344 43.355469 172.378906 43.234375 172.011719 C 43.222656 171.964844 43.210938 171.917969 43.207031 171.871094 C 43.113281 171.757812 43.03125 171.632812 42.957031 171.503906 L 42.984375 172.421875 L 42.621094 172.140625 C 42 169.699219 41.503906 167.054688 40.875 164.507812 C 41.480469 164.785156 42.074219 165.097656 42.652344 165.417969 C 42.652344 165.714844 42.691406 166.011719 42.710938 166.304688 L 42.761719 166.273438 L 42.800781 166.273438 C 43 166.164062 43.210938 166.117188 43.433594 166.132812 C 43.660156 166.144531 43.863281 166.21875 44.042969 166.355469 C 44.195312 166.476562 44.328125 166.613281 44.441406 166.769531 C 44.621094 166.917969 44.789062 167.078125 44.949219 167.246094 C 44.925781 167.070312 44.914062 166.894531 44.894531 166.71875 C 46.921875 167.898438 48.960938 169.074219 51.171875 169.683594 C 51.011719 171.753906 50.847656 173.816406 50.730469 175.886719 C 49.234375 175 47.496094 174.558594 45.839844 173.910156 C 45.855469 173.832031 45.847656 173.746094 45.832031 173.65625 Z M 48.582031 165.722656 L 47.78125 165.496094 C 47.988281 165.398438 48.148438 165.25 48.261719 165.050781 C 48.316406 165.066406 48.367188 165.074219 48.421875 165.078125 C 48.464844 165.296875 48.515625 165.511719 48.582031 165.722656 Z M 48.421875 115.863281 Z M 50.449219 166.222656 C 50.625 165.9375 50.746094 165.632812 50.8125 165.304688 C 51.042969 165.34375 51.265625 165.320312 51.484375 165.242188 C 51.457031 165.644531 51.433594 166.046875 51.410156 166.457031 Z M 49.371094 178.832031 L 49.371094 178.871094 C 49.3125 178.847656 49.25 178.835938 49.1875 178.835938 C 49.101562 178.488281 48.976562 178.15625 48.816406 177.835938 C 49.351562 178 49.875 178.175781 50.375 178.371094 C 50.375 178.4375 50.375 178.507812 50.375 178.578125 C 50.035156 178.289062 49.417969 178.316406 49.375 178.828125 Z M 50.074219 181.324219 C 50.011719 181.347656 49.957031 181.382812 49.90625 181.425781 C 49.875 181.1875 49.851562 180.953125 49.835938 180.714844 C 49.902344 180.898438 49.980469 181.082031 50.058594 181.265625 C 50.066406 181.28125 50.074219 181.296875 50.078125 181.320312 Z M 47.019531 190.183594 C 47.480469 189.683594 47.71875 189.089844 47.730469 188.410156 C 47.691406 188.347656 47.648438 188.277344 47.613281 188.210938 C 47.523438 188.015625 47.457031 187.8125 47.417969 187.601562 C 47.382812 187.566406 47.351562 187.53125 47.320312 187.496094 C 47.328125 187.507812 47.339844 187.519531 47.351562 187.53125 L 47.316406 187.488281 C 47.214844 187.363281 47.113281 187.234375 47.015625 187.09375 C 46.679688 186.582031 46.460938 186.023438 46.351562 185.421875 C 46.261719 184.933594 46.207031 184.445312 46.191406 183.949219 C 46.191406 183.664062 46.191406 183.375 46.191406 183.066406 C 46.160156 181.839844 46.308594 180.636719 46.636719 179.457031 C 46.636719 179.425781 46.636719 179.394531 46.667969 179.363281 C 46.566406 178.597656 46.453125 177.832031 46.34375 177.066406 L 48.03125 177.546875 C 47.964844 177.539062 47.894531 177.539062 47.828125 177.546875 C 47.535156 177.75 47.398438 178.027344 47.417969 178.382812 C 47.527344 178.25 47.660156 178.144531 47.8125 178.066406 C 47.789062 178.453125 47.789062 178.84375 47.8125 179.234375 C 47.859375 181.023438 48.027344 182.804688 48.320312 184.570312 C 48.476562 185.292969 48.636719 187.964844 49.800781 187.484375 C 49.890625 187.613281 50.003906 187.71875 50.140625 187.796875 L 50.203125 187.820312 L 50.203125 187.84375 L 50.257812 188.019531 C 50.039062 188.359375 49.949219 188.726562 49.992188 189.128906 C 49.964844 189.207031 49.941406 189.292969 49.914062 189.371094 C 49.570312 190.507812 49.183594 191.621094 48.765625 192.726562 C 48.644531 192.558594 48.53125 192.386719 48.425781 192.210938 C 47.972656 191.585938 47.746094 190.640625 47.023438 190.199219 Z M 59.902344 195.414062 C 59.578125 196.25 59.246094 197.082031 58.890625 197.90625 C 58.738281 198.238281 58.582031 198.566406 58.421875 198.898438 L 58.152344 198.730469 C 58.132812 198.777344 58.109375 198.820312 58.082031 198.863281 L 58.015625 199.058594 C 57.847656 199.511719 57.652344 199.957031 57.433594 200.386719 L 57.167969 200.90625 C 57.089844 201.074219 57.011719 201.242188 56.929688 201.410156 C 56.789062 201.710938 56.652344 202.011719 56.488281 202.296875 C 56.449219 202.371094 56.410156 202.441406 56.367188 202.523438 C 56.371094 202.566406 56.371094 202.609375 56.367188 202.65625 L 56.464844 202.699219 C 56.046875 203.511719 55.632812 204.328125 55.246094 205.160156 C 54.957031 205.835938 54.621094 206.53125 54.328125 207.238281 C 51.726562 206.882812 49.195312 206.25 46.734375 205.335938 C 46.777344 203.804688 47.441406 202.359375 47.855469 200.90625 C 47.902344 200.765625 47.949219 200.617188 47.996094 200.460938 C 47.894531 200.253906 47.859375 200.035156 47.890625 199.808594 C 47.988281 199.371094 48.164062 198.972656 48.417969 198.605469 L 48.703125 198.164062 L 48.773438 198.054688 L 48.96875 197.742188 C 48.945312 197.554688 48.945312 197.367188 48.96875 197.179688 C 49.019531 196.949219 49.085938 196.71875 49.171875 196.5 C 49.269531 196.222656 49.386719 195.957031 49.496094 195.6875 C 49.652344 195.3125 49.832031 194.945312 50.003906 194.570312 C 49.988281 194.433594 49.988281 194.292969 50.003906 194.15625 C 50.078125 193.753906 50.21875 193.378906 50.421875 193.027344 C 50.601562 192.726562 50.800781 192.441406 51.015625 192.167969 C 51.203125 191.683594 51.421875 191.128906 51.617188 190.5625 L 51.765625 190.5625 C 51.878906 190.566406 51.996094 190.554688 52.109375 190.527344 C 52.1875 190.394531 52.261719 190.261719 52.332031 190.125 C 52.511719 189.769531 52.675781 189.414062 52.832031 189.050781 L 52.855469 188.800781 C 52.902344 188.414062 52.941406 188.03125 52.984375 187.640625 L 53.027344 187.265625 C 53.027344 187.191406 53.027344 187.121094 53.027344 187.050781 L 53.066406 186.679688 C 53.066406 186.617188 53.066406 186.554688 53.066406 186.488281 C 53.109375 186.046875 53.15625 185.625 53.195312 185.195312 C 53.195312 185.070312 53.222656 184.949219 53.230469 184.824219 C 53.238281 184.699219 53.230469 184.667969 53.230469 184.589844 C 53.230469 184.398438 53.230469 184.207031 53.207031 184.011719 C 53.15625 182.753906 53.101562 181.492188 53.066406 180.234375 C 53.03125 178.976562 53.011719 177.578125 52.996094 176.25 C 52.996094 175.175781 52.953125 174.105469 52.957031 173.039062 C 52.957031 171.878906 52.972656 170.71875 52.996094 169.558594 L 52.996094 168.90625 C 52.996094 168.660156 52.996094 168.421875 52.996094 168.179688 C 52.996094 168.046875 52.996094 167.914062 52.996094 167.78125 L 53.035156 166.851562 C 53.035156 166.519531 53.066406 166.191406 53.078125 165.859375 C 53.09375 165.527344 53.03125 165.234375 53.007812 164.925781 C 52.984375 164.613281 53.007812 164.4375 52.980469 164.199219 C 52.976562 163.984375 52.984375 163.773438 53.003906 163.558594 C 53.023438 163.3125 53.082031 163.074219 53.171875 162.84375 C 53.234375 162.6875 53.328125 162.554688 53.457031 162.445312 C 53.5 162 53.550781 161.558594 53.609375 161.078125 C 53.609375 160.359375 53.632812 159.636719 53.667969 158.914062 C 53.714844 158.027344 53.777344 157.109375 53.847656 156.207031 C 53.875 155.859375 53.914062 155.507812 53.953125 155.164062 C 53.984375 154.914062 54.007812 154.660156 54.035156 154.414062 C 54.035156 153.054688 53.980469 151.699219 53.914062 150.34375 C 53.949219 145.632812 53.390625 140.949219 53.027344 136.257812 C 52.84375 132.78125 53.167969 129.300781 52.980469 125.824219 C 52.734375 122.601562 52.289062 119.40625 51.648438 116.238281 C 51.164062 112.839844 51.015625 109.425781 51.203125 106 C 51.203125 105.113281 51.160156 104.257812 51.089844 103.386719 C 51.054688 103.015625 51.03125 102.4375 50.644531 102.222656 C 49.542969 101.804688 49.648438 103.382812 49.574219 104.152344 C 49.414062 107.421875 49.703125 110.691406 49.671875 113.953125 C 49.507812 113.871094 49.332031 113.8125 49.148438 113.785156 L 49.125 113.785156 C 49.074219 113.558594 48.96875 113.363281 48.796875 113.203125 C 48.628906 113.039062 48.429688 112.941406 48.199219 112.898438 C 47.601562 112.863281 47.007812 112.917969 46.421875 113.054688 C 46.421875 113.113281 46.421875 113.171875 46.421875 113.226562 C 46.449219 113.671875 46.484375 114.113281 46.515625 114.554688 C 46.414062 114.640625 46.335938 114.738281 46.273438 114.851562 C 45.890625 115.425781 46.015625 116.003906 46.300781 116.625 C 46.527344 117.300781 46.617188 117.992188 46.566406 118.703125 C 46.5625 118.730469 46.5625 118.753906 46.566406 118.78125 C 46.488281 120.328125 46.25 121.855469 46.203125 123.402344 C 46.085938 125.445312 46.179688 127.480469 46.480469 129.503906 C 46.433594 130.171875 46.390625 130.832031 46.375 131.519531 C 46.394531 132.546875 46.480469 133.570312 46.636719 134.585938 C 46.636719 134.335938 46.636719 134.097656 46.636719 133.859375 C 46.671875 133.269531 46.722656 132.679688 46.785156 132.085938 C 46.785156 132.214844 46.808594 132.34375 46.820312 132.472656 C 46.914062 133.800781 46.949219 135.128906 47.019531 136.457031 L 46.980469 137.410156 L 46.949219 137.480469 C 46.949219 137.683594 46.949219 137.890625 46.972656 138.09375 C 47.027344 139.164062 47.148438 140.230469 47.164062 141.308594 C 47.164062 141.851562 47.164062 142.398438 47.164062 142.9375 C 47.164062 143.476562 47.195312 144.019531 47.214844 144.558594 C 47.230469 145.097656 47.246094 145.703125 47.242188 146.273438 C 47.238281 146.84375 47.214844 147.40625 47.183594 147.972656 C 47.113281 149.199219 47.117188 150.433594 47.085938 151.664062 C 47.058594 152.800781 46.960938 153.941406 46.894531 155.074219 C 46.894531 155.152344 46.894531 155.234375 46.894531 155.3125 C 46.875 156.0625 46.894531 156.8125 46.953125 157.558594 C 46.996094 158.300781 47.023438 159.054688 47.042969 159.804688 C 47.042969 160.644531 47.082031 161.488281 47.097656 162.324219 C 47.097656 162.582031 47.097656 162.835938 47.121094 163.09375 C 47.144531 163.351562 47.121094 163.484375 47.121094 163.679688 C 47.121094 163.875 47.121094 164.089844 47.09375 164.296875 L 47.09375 164.535156 C 47.046875 164.828125 46.898438 165.058594 46.648438 165.21875 C 46.449219 165.363281 46.222656 165.4375 45.976562 165.441406 L 45.917969 165.441406 C 45.644531 165.421875 45.410156 165.320312 45.214844 165.132812 C 45.015625 164.949219 44.898438 164.722656 44.859375 164.453125 L 44.59375 164.324219 C 44.359375 160.429688 44.488281 156.515625 44.632812 152.617188 C 44.730469 147.898438 44.597656 143.179688 44.75 138.441406 L 44.75 138.378906 C 44.699219 137.496094 44.667969 136.609375 44.539062 135.722656 C 44.402344 134.785156 44.277344 133.839844 44.191406 132.898438 C 44.117188 131.796875 44.128906 130.695312 44.230469 129.59375 C 44.300781 128.5625 44.394531 127.539062 44.496094 126.492188 C 44.585938 125.535156 44.683594 124.582031 44.71875 123.628906 C 44.742188 122.386719 44.683594 121.140625 44.601562 119.90625 C 44.523438 118.601562 44.480469 117.289062 44.398438 115.984375 C 44.335938 115.171875 44.265625 114.367188 44.210938 113.550781 C 43.683594 109.640625 43.015625 105.742188 42.582031 101.820312 C 42.339844 99.582031 42.484375 97.324219 42.261719 95.082031 C 42.429688 95.054688 42.375 94.773438 42.207031 94.796875 C 41.988281 94.097656 41.320312 93.914062 40.839844 94.460938 C 40.433594 95.078125 40.246094 95.757812 40.277344 96.496094 C 40.140625 101.039062 41.28125 105.5 41.199219 110.042969 C 41.164062 113.226562 41.054688 115.921875 41.164062 119.214844 C 41.304688 124.371094 42.257812 129.53125 41.714844 134.6875 C 41.207031 138.765625 40.324219 142.835938 40.53125 146.972656 C 40.675781 151.359375 41.523438 155.679688 42.015625 160.035156 C 42.160156 161.085938 42.273438 162.140625 42.367188 163.207031 C 41.785156 162.929688 41.277344 162.699219 40.839844 162.515625 C 40.863281 162.449219 40.882812 162.378906 40.898438 162.3125 C 41.097656 161.425781 41.207031 160.539062 41.480469 159.679688 C 41.75 158.820312 40.707031 157.878906 39.90625 158.289062 C 39.722656 158.410156 39.617188 158.578125 39.589844 158.796875 C 39.5625 158.945312 39.542969 159.09375 39.53125 159.242188 C 38.386719 157.195312 35.535156 157.691406 33.402344 158.859375 C 32.757812 158.167969 31.71875 158.210938 30.839844 158.160156 C 28.460938 158.019531 26.046875 157.894531 23.773438 157.136719 C 22.441406 156.769531 21.476562 155.78125 20.71875 154.675781 C 19.828125 153.390625 18.992188 152.0625 18.207031 150.6875 C 16.269531 147.171875 15.484375 143.160156 14.964844 139.21875 C 14.636719 136.0625 14.488281 132.894531 14.402344 129.726562 C 14.433594 126.429688 14.675781 123.144531 14.894531 119.859375 C 15.390625 114.742188 14.84375 108.980469 16.980469 104.09375 C 18.085938 101.878906 19.125 99.640625 20.4375 97.550781 C 21.382812 96.460938 22.53125 95.652344 23.871094 95.117188 C 24.371094 94.902344 24.890625 94.753906 25.429688 94.675781 C 26.390625 94.847656 27.574219 95.457031 28.363281 94.546875 C 29.429688 93.269531 28.683594 91.210938 27.359375 90.417969 C 24.25 88.273438 19.976562 89.753906 17.421875 92.140625 C 15.644531 93.828125 14.9375 96.28125 14.097656 98.511719 C 12.496094 102.496094 12.121094 106.808594 11.492188 111.027344 C 10.472656 117.550781 9.1875 124.226562 10.605469 130.792969 C 11.449219 134.464844 12.101562 138.175781 12.703125 141.902344 C 13.492188 147.191406 14.480469 151.996094 17.753906 156.378906 C 19.894531 159.605469 22.28125 161.347656 26.195312 161.835938 C 26.785156 161.9375 27.375 161.980469 27.972656 161.964844 C 28.828125 161.964844 29.683594 161.902344 30.53125 161.777344 C 29.980469 162.855469 29.710938 163.996094 29.71875 165.203125 C 29.730469 166.414062 30.019531 167.550781 30.585938 168.617188 C 31.042969 169.308594 31.539062 169.976562 32.074219 170.613281 C 31.953125 170.578125 31.832031 170.554688 31.707031 170.535156 C 30.605469 170.402344 29.488281 170.414062 28.386719 170.226562 C 25.980469 169.710938 23.664062 168.855469 21.277344 168.269531 C 19.636719 167.847656 18.019531 167.34375 16.429688 166.757812 C 15.441406 166.421875 14.515625 165.96875 13.648438 165.390625 C 11.460938 163.957031 10.027344 161.699219 8.605469 159.566406 C 5.941406 154.375 5.839844 148.359375 5.164062 142.679688 C 4.757812 139.539062 4.308594 136.40625 4.140625 133.238281 C 4 131.164062 4.074219 129.097656 4.367188 127.039062 C 4.875 125.195312 5.25 123.328125 5.488281 121.429688 C 5.78125 115.410156 5.699219 109.378906 6.101562 103.359375 C 6.226562 101.625 6.449219 99.90625 6.761719 98.195312 C 7.25 95.980469 8.175781 93.914062 8.984375 91.804688 C 9.503906 90.546875 10.03125 89.285156 10.632812 88.0625 C 11.695312 86.417969 12.964844 84.816406 14.628906 83.761719 C 16.320312 82.800781 18.097656 82.042969 19.960938 81.492188 C 20.84375 81.117188 21.742188 80.789062 22.660156 80.507812 C 23.804688 80.453125 24.90625 80.648438 25.960938 81.09375 C 26.394531 81.265625 26.839844 81.289062 27.292969 81.171875 C 26.65625 82.109375 26.269531 83.144531 26.128906 84.269531 C 25.78125 87.921875 28.207031 91.753906 32.089844 91.984375 C 32.929688 92.066406 33.800781 92.128906 34.671875 92.128906 C 36 92.164062 37.289062 91.957031 38.542969 91.507812 C 39.429688 91.636719 39.585938 89.984375 38.710938 89.921875 C 38.222656 89.722656 37.714844 89.597656 37.191406 89.542969 L 37.28125 89.464844 C 37.929688 88.820312 38.582031 87.25 37.890625 86.484375 C 38.339844 86.25 38.570312 85.878906 38.585938 85.375 C 38.617188 85 38.59375 84.632812 38.507812 84.265625 C 38.421875 83.902344 38.28125 83.558594 38.089844 83.238281 C 37.894531 82.917969 37.65625 82.636719 37.371094 82.390625 C 37.089844 82.144531 36.773438 81.949219 36.425781 81.804688 C 34.84375 81.25 33.238281 82.535156 32.597656 83.917969 C 31.867188 85.289062 32.476562 88.34375 34.25 88.550781 L 34.320312 88.550781 C 34.539062 88.546875 34.738281 88.488281 34.917969 88.363281 C 34.839844 88.71875 34.863281 89.066406 34.988281 89.410156 C 33.816406 89.441406 32.695312 89.226562 31.621094 88.761719 C 27.519531 86.742188 28.550781 81.714844 32.792969 80.582031 C 35.175781 79.753906 37.792969 80.289062 40.140625 80.878906 C 40.695312 80.789062 41.09375 80.492188 41.339844 79.992188 C 41.082031 81.050781 40.949219 82.207031 40.84375 82.648438 C 40.589844 84.523438 40.011719 86.402344 40.175781 88.296875 C 40.347656 89.265625 40.308594 90.511719 41.238281 91.105469 C 41.429688 91.199219 41.632812 91.25 41.847656 91.253906 C 42.191406 91.25 42.488281 91.128906 42.734375 90.890625 C 42.710938 91.152344 42.777344 91.382812 42.945312 91.582031 C 43.261719 91.847656 43.621094 92.007812 44.027344 92.066406 C 45.160156 92.355469 46.324219 92.507812 47.476562 92.667969 C 50.140625 93 52.738281 93.554688 55.347656 94.109375 C 53.847656 96.097656 52.304688 98.59375 50.859375 100.730469 C 50.765625 100.933594 50.726562 101.144531 50.746094 101.367188 C 50.882812 101.9375 51.121094 102.152344 51.390625 102.152344 C 51.835938 102.152344 52.402344 101.5625 52.785156 101.125 C 54.28125 99.621094 55.476562 97.839844 57.046875 96.410156 C 57.46875 97.226562 57.878906 98.050781 58.3125 98.859375 C 58.3125 98.992188 58.347656 99.125 58.371094 99.253906 C 58.480469 100.019531 58.644531 100.773438 58.816406 101.527344 C 58.898438 101.964844 59.125 102.308594 59.5 102.558594 C 59.675781 102.65625 59.863281 102.707031 60.0625 102.714844 C 61.039062 102.714844 61.570312 101.230469 61.191406 100.339844 C 61.046875 99.949219 60.925781 99.546875 60.796875 99.148438 C 60.917969 98.625 60.84375 98.128906 60.566406 97.667969 C 60.0625 96.785156 59.609375 95.878906 59.210938 94.945312 L 59.171875 94.859375 C 60.359375 95.074219 61.554688 95.253906 62.761719 95.382812 C 65.671875 95.589844 68.585938 95.640625 71.496094 95.824219 C 72.609375 95.886719 73.722656 95.976562 74.839844 96.085938 C 74.933594 96.042969 75.027344 96.015625 75.128906 96 C 75.320312 95.96875 75.503906 95.988281 75.683594 96.054688 C 75.726562 96.070312 75.765625 96.085938 75.804688 96.105469 L 75.917969 96.167969 C 76.027344 96.238281 76.128906 96.320312 76.21875 96.414062 C 75.808594 99.257812 76.515625 101.976562 76.566406 104.929688 C 76.738281 107.445312 76.757812 109.964844 76.636719 112.484375 C 76.605469 113.074219 76.550781 113.667969 76.507812 114.253906 C 75.730469 114.007812 74.9375 113.875 74.125 113.855469 C 73.714844 113.808594 73.316406 113.851562 72.929688 113.984375 C 72.457031 113.988281 71.988281 114.03125 71.519531 114.113281 C 70.226562 113.648438 68.894531 113.484375 67.523438 113.613281 C 66.675781 113.742188 65.269531 113.820312 64.359375 114.332031 C 64.171875 114.234375 63.972656 114.203125 63.765625 114.230469 C 63.558594 114.257812 63.375 114.34375 63.222656 114.484375 C 62.890625 114.515625 62.566406 114.589844 62.257812 114.710938 L 62.183594 114.746094 C 61.757812 114.386719 61.265625 114.238281 60.710938 114.304688 C 60.644531 113.9375 60.578125 113.570312 60.515625 113.207031 C 60.070312 110.671875 60.109375 108.109375 59.964844 105.542969 C 59.898438 104.855469 59.863281 104.164062 59.753906 103.484375 C 59.734375 103.191406 59.613281 102.953125 59.386719 102.765625 C 57.964844 101.984375 59.019531 110.191406 59.011719 111.320312 C 59.207031 116.765625 59.054688 122.226562 59.417969 127.675781 C 59.570312 131.128906 59.269531 134.582031 59.378906 138.039062 C 59.535156 144.773438 60.710938 151.445312 60.710938 158.1875 C 60.632812 160.976562 60.710938 163.761719 60.636719 166.554688 C 60.441406 168.613281 60.394531 170.675781 60.308594 172.753906 C 60.191406 174.941406 60.132812 177.128906 60.113281 179.316406 C 60.160156 179.761719 60.207031 180.203125 60.242188 180.648438 C 60.449219 182.953125 60.605469 185.265625 60.832031 187.574219 C 60.917969 188.257812 60.996094 188.941406 61.117188 189.625 C 61.171875 189.953125 61.242188 190.285156 61.292969 190.613281 C 61.328125 190.792969 61.339844 190.972656 61.328125 191.152344 C 61.414062 191.1875 61.5 191.21875 61.589844 191.242188 C 61.449219 191.480469 61.324219 191.730469 61.226562 191.988281 C 61.027344 192.492188 60.832031 192.992188 60.636719 193.496094 C 60.238281 193.683594 59.925781 193.96875 59.703125 194.351562 C 59.601562 194.53125 59.566406 194.722656 59.601562 194.925781 C 59.640625 195.128906 59.734375 195.296875 59.894531 195.429688 Z M 35.253906 86.730469 C 35.160156 86.816406 35.164062 86.964844 35.066406 87.042969 C 34.796875 86.882812 34.601562 86.652344 34.484375 86.363281 C 34.363281 86.070312 34.347656 85.769531 34.429688 85.464844 C 34.839844 85.023438 35.582031 84.488281 36.160156 84.949219 C 36.382812 85.171875 36.53125 85.441406 36.605469 85.75 C 36.667969 86.054688 36.824219 86.296875 37.082031 86.476562 C 36.859375 86.699219 36.617188 86.898438 36.355469 87.074219 C 36.128906 87.121094 35.910156 87.191406 35.699219 87.292969 C 35.746094 87.199219 35.769531 87.097656 35.769531 86.996094 C 35.796875 86.703125 35.472656 86.464844 35.253906 86.730469 Z M 62.1875 131.355469 C 62.1875 132.242188 62.1875 133.160156 62.140625 134.0625 C 62.09375 133.730469 62.050781 133.402344 62 133.070312 C 61.933594 132.535156 61.878906 131.992188 61.84375 131.453125 C 61.964844 131.445312 62.082031 131.410156 62.191406 131.355469 Z M 111.226562 203.003906 C 107.34375 204.683594 103.230469 206.230469 98.890625 206.234375 C 94.75 206.132812 90.617188 205.632812 86.480469 205.410156 C 82.765625 205.210938 79.023438 205.242188 75.328125 204.796875 C 72.238281 204.308594 69.210938 203.554688 66.253906 202.539062 C 64.1875 201.796875 62.179688 200.921875 60.226562 199.914062 L 60.488281 199.390625 C 60.8125 198.660156 61.085938 197.910156 61.339844 197.175781 C 61.714844 197.566406 62.136719 197.898438 62.605469 198.171875 C 64.714844 199.320312 66.949219 200.121094 69.308594 200.578125 C 71.316406 200.808594 73.308594 201.144531 75.328125 201.335938 C 77.351562 201.527344 79.257812 201.476562 81.210938 201.714844 C 83.097656 201.992188 84.992188 202.140625 86.898438 202.160156 C 87.390625 202.160156 87.882812 202.160156 88.382812 202.160156 C 93.429688 202.160156 98.472656 201.574219 103.488281 201.007812 C 104.566406 200.855469 105.65625 200.738281 106.726562 200.519531 C 107.796875 200.304688 109.304688 200.214844 110.015625 199.25 C 110.488281 199.101562 110.949219 198.925781 111.398438 198.722656 C 111.769531 198.554688 112.320312 198.34375 112.410156 197.894531 C 112.425781 197.820312 112.425781 197.746094 112.410156 197.671875 C 112.410156 197.726562 112.441406 197.78125 112.457031 197.832031 C 112.988281 199.242188 113.632812 200.597656 114.386719 201.902344 C 113.300781 202.230469 112.25 202.589844 111.226562 203.003906 Z M 118.246094 206.675781 C 118.554688 207.078125 118.816406 207.503906 119.027344 207.960938 C 118.050781 208.140625 117.117188 207.714844 116.238281 207.296875 C 116.890625 207.105469 117.5625 206.910156 118.230469 206.675781 Z M 118.246094 206.675781 "/></g><path style=" stroke:none;fill-rule:nonzero;fill:#000000;fill-opacity:1;" d="M 44.09375 196.851562 C 43.828125 196.566406 43.5 196.441406 43.109375 196.484375 C 42.113281 196.675781 41.167969 197.070312 40.175781 197.269531 C 41.582031 195.839844 42.699219 194.195312 44.382812 193.011719 C 44.398438 193.109375 44.386719 193.207031 44.347656 193.296875 C 44.269531 193.433594 44.433594 193.617188 44.523438 193.441406 C 44.65625 193.167969 44.964844 192.96875 45.015625 192.660156 C 45.15625 191.28125 43.683594 192.148438 43.042969 192.472656 C 41.21875 193.386719 39.511719 194.480469 37.921875 195.757812 C 37.074219 196.316406 36.46875 197.070312 36.105469 198.011719 C 35.722656 199.203125 36.25 200.707031 37.484375 201.148438 C 37.941406 201.292969 38.414062 201.359375 38.894531 201.355469 C 40.429688 201.355469 42.003906 200.707031 43.4375 200.261719 C 44.753906 199.773438 45.027344 197.8125 44.09375 196.851562 Z M 44.09375 196.851562 "/><path style=" stroke:none;fill-rule:nonzero;fill:#000000;fill-opacity:1;" d="M 134.285156 192.296875 C 134.164062 192.242188 134.042969 192.234375 133.917969 192.273438 C 133.792969 192.308594 133.691406 192.382812 133.617188 192.492188 C 132.847656 193.660156 134.113281 194.746094 134.839844 195.554688 C 135.367188 196.117188 135.855469 196.707031 136.316406 197.328125 C 136.398438 197.472656 136.519531 197.636719 136.472656 197.8125 C 135.972656 198.847656 134.582031 199.222656 133.511719 199.085938 C 131.804688 199.039062 131.558594 202.183594 133.246094 202.429688 C 133.382812 202.429688 133.519531 202.429688 133.65625 202.429688 C 136.320312 202.429688 138.871094 200.269531 138.671875 197.46875 C 138.515625 195.019531 136.105469 193.625 134.285156 192.296875 Z M 134.285156 192.296875 "/><path style=" stroke:none;fill-rule:nonzero;fill:#000000;fill-opacity:1;" d="M 44.910156 162.148438 C 44.90625 162.355469 44.933594 162.558594 44.984375 162.761719 C 44.984375 162.238281 44.984375 161.710938 44.957031 161.179688 C 44.925781 161.519531 44.910156 161.84375 44.910156 162.148438 Z M 44.910156 162.148438 "/><path style=" stroke:none;fill-rule:nonzero;fill:#000000;fill-opacity:1;" d="M 64.101562 110.867188 C 64.152344 110.875 64.203125 110.875 64.253906 110.867188 C 65.6875 110.566406 67.136719 110.335938 68.585938 110.097656 C 69.027344 110.097656 69.472656 110.097656 69.894531 110.097656 C 70.535156 110.132812 71.175781 110.132812 71.816406 110.097656 C 72.671875 109.996094 73.035156 108.980469 72.761719 108.246094 C 72.496094 107.433594 71.808594 107.464844 71.105469 107.582031 C 70.152344 107.6875 69.207031 107.789062 68.265625 107.957031 C 66.824219 108.058594 65.398438 108.277344 63.996094 108.613281 C 63.730469 108.710938 63.53125 108.882812 63.390625 109.125 C 63.253906 109.371094 63.210938 109.628906 63.261719 109.90625 C 63.304688 110.324219 63.636719 110.867188 64.101562 110.867188 Z M 64.101562 110.867188 "/><path style=" stroke:none;fill-rule:nonzero;fill:#000000;fill-opacity:1;" d="M 97.667969 107.257812 C 96.109375 107.210938 94.582031 107.398438 93.082031 107.820312 C 92.605469 107.996094 91.914062 108.261719 91.785156 108.816406 C 91.722656 109.074219 91.820312 109.535156 92.148438 109.570312 C 92.476562 109.605469 92.84375 109.703125 93.1875 109.761719 C 95.769531 110.152344 98.402344 109.941406 100.996094 110.203125 L 101.4375 110.25 C 101.964844 110.25 102.492188 110.273438 103.015625 110.296875 C 103.257812 110.296875 103.496094 110.296875 103.738281 110.339844 L 104.722656 110.25 C 105.542969 109.496094 105.335938 107.503906 104.015625 107.402344 C 101.898438 107.285156 99.78125 107.28125 97.667969 107.257812 Z M 97.667969 107.257812 "/></g></svg>