<svg xmlns="http://www.w3.org/2000/svg" xmlns:xlink="http://www.w3.org/1999/xlink" width="205" zoomAndPan="magnify" viewBox="0 0 153.75 201.749994" height="269" preserveAspectRatio="xMidYMid meet" version="1.0"><defs><clipPath id="050608c9cb"><path d="M 24 0.0390625 L 133 0.0390625 L 133 19 L 24 19 Z M 24 0.0390625 " clip-rule="nonzero"/></clipPath><clipPath id="0c9efb80fd"><path d="M 7 50 L 153 50 L 153 201.460938 L 7 201.460938 Z M 7 50 " clip-rule="nonzero"/></clipPath></defs><path fill="#000000" d="M 24.539062 27.359375 C 24.816406 27.453125 25.082031 27.425781 25.339844 27.28125 C 25.988281 26.914062 26.023438 25.652344 25.308594 25.320312 C 28.550781 24.707031 31.808594 25.042969 35.070312 25.375 C 37.117188 25.617188 39.167969 25.75 41.226562 25.765625 C 42.171875 25.765625 43.117188 25.765625 44.0625 25.765625 C 48.351562 25.765625 52.640625 25.765625 56.890625 26.488281 C 60.417969 27.125 63.921875 27.910156 67.484375 28.324219 C 74.464844 29.191406 81.476562 28.1875 88.363281 26.929688 C 99.574219 24.832031 110.925781 26.3125 122.1875 26.984375 C 124.738281 27.203125 127.351562 27.03125 129.878906 27.46875 C 130.453125 29.339844 130.582031 31.332031 131.289062 33.164062 C 131.847656 34.609375 132.5625 35.972656 133.425781 37.257812 C 133.613281 37.554688 133.859375 37.785156 134.164062 37.953125 C 134.472656 38.121094 134.800781 38.203125 135.148438 38.195312 C 135.605469 38.183594 136.035156 38.0625 136.433594 37.835938 C 136.832031 37.609375 137.148438 37.296875 137.390625 36.910156 C 137.90625 36.164062 138.203125 35.335938 138.273438 34.429688 C 138.34375 33.527344 138.183594 32.664062 137.789062 31.847656 C 136.085938 29.199219 136.328125 25.863281 135.144531 23.039062 C 134.425781 21.394531 133.128906 20.0625 131.398438 19.804688 C 125.621094 19.652344 119.835938 20.097656 114.058594 20.324219 C 105.617188 20.542969 97.347656 22.839844 88.90625 22.957031 C 82.019531 23.070312 75.179688 22.117188 68.332031 21.773438 C 62.871094 21.492188 57.414062 21.753906 51.957031 21.398438 C 47.636719 21.070312 43.273438 20.46875 38.9375 20.863281 C 35.046875 21.050781 31.28125 22.125 27.398438 22.441406 C 25.523438 22.683594 23.164062 22.125 21.738281 23.742188 C 21.480469 24.082031 21.335938 24.464844 21.304688 24.890625 C 21.273438 25.316406 21.367188 25.714844 21.578125 26.085938 C 22.339844 26.929688 23.53125 27.066406 24.539062 27.359375 Z M 24.539062 27.359375 " fill-opacity="1" fill-rule="nonzero"/><g clip-path="url(#050608c9cb)"><path fill="#000000" d="M 26.050781 16.714844 C 26.238281 16.785156 26.425781 16.816406 26.625 16.816406 C 27.421875 16.816406 27.996094 16.179688 27.703125 15.140625 C 36.140625 10.234375 41.589844 11.101562 50.5625 9.828125 C 54.199219 9.289062 57.808594 8.617188 61.449219 8.152344 C 68.792969 7.574219 76.144531 7.472656 83.511719 7.246094 C 89.667969 7.011719 95.78125 5.886719 101.945312 6.097656 C 106.097656 6.265625 110.152344 7.375 114.167969 8.433594 C 116.8125 9.15625 119.5 9.691406 122.144531 10.382812 C 122.667969 12.019531 124.371094 13.011719 125.375 14.324219 C 126.246094 15.582031 126.511719 17.207031 127.550781 18.34375 C 127.917969 18.734375 128.367188 18.933594 128.90625 18.945312 C 130.363281 18.945312 131.792969 17.191406 131.960938 15.628906 C 132.210938 14.480469 131.757812 13.363281 131.207031 12.398438 C 130.496094 11.035156 129.691406 9.652344 128.449219 8.78125 C 127.71875 8.320312 126.984375 7.832031 126.230469 7.421875 C 126.136719 6.472656 125.671875 5.628906 124.75 5.382812 C 122.597656 5.039062 120.453125 4.664062 118.3125 4.285156 C 110.210938 3.300781 102.128906 2.1875 94.027344 1.175781 C 90.132812 0.789062 86.234375 0.175781 82.316406 0.113281 C 78.144531 0.0273438 74.03125 0.953125 69.953125 1.792969 C 67.113281 2.410156 64.273438 2.992188 61.40625 3.417969 C 56.285156 3.996094 51.09375 4.007812 46.042969 5.152344 C 41.035156 6.410156 36.347656 8.800781 31.472656 10.515625 C 29.457031 11.324219 24.777344 12.671875 24.621094 15.382812 C 24.59375 15.804688 24.734375 16.160156 25.039062 16.453125 C 25.347656 16.65625 25.683594 16.746094 26.050781 16.714844 Z M 26.050781 16.714844 " fill-opacity="1" fill-rule="nonzero"/></g><path fill="#000000" d="M 9 53.023438 C 9.054688 52.953125 9.097656 52.878906 9.140625 52.796875 C 11.191406 53.796875 14.925781 53.347656 18.453125 52.898438 C 21.007812 52.566406 23.453125 52.238281 25.066406 52.480469 C 43.335938 53.367188 61.597656 53.367188 79.878906 53.980469 C 80.296875 53.980469 80.71875 53.980469 81.136719 53.980469 C 94.964844 53.980469 108.246094 49.117188 121.816406 46.851562 C 124.796875 45.757812 133.308594 46.960938 133.273438 42.46875 C 133.238281 41.464844 132.578125 40.226562 131.484375 40.46875 C 126.464844 41.542969 121.4375 42.597656 116.34375 43.113281 C 109.160156 43.574219 101.964844 43.40625 94.777344 43.632812 C 85.214844 43.816406 75.808594 46.210938 66.222656 46.183594 C 62.125 46.25 58.050781 45.738281 53.980469 45.226562 C 48.804688 44.578125 43.640625 43.925781 38.441406 44.460938 C 29.78125 44.84375 21.371094 48.339844 12.683594 47.839844 C 13.574219 44.214844 13.667969 40.421875 14.496094 36.769531 C 16.675781 36.511719 16.175781 30.695312 13.941406 31.0625 C 10.351562 33.890625 10.933594 41.253906 9.039062 45.523438 C 7.804688 47.878906 7.402344 49.558594 7.589844 50.746094 C 5.777344 51.34375 4.167969 52.515625 2.484375 53.429688 C 1.941406 53.726562 1.429688 54.066406 0.941406 54.445312 C 0.160156 55.058594 0.0585938 56.714844 1.015625 57.199219 C 1.117188 57.246094 1.226562 57.265625 1.339844 57.265625 C 1.507812 57.265625 1.664062 57.21875 1.804688 57.125 C 2.550781 56.605469 3.269531 56.035156 4.007812 55.5 C 4.820312 54.949219 5.660156 54.449219 6.527344 53.988281 C 6.5625 54.558594 7.121094 54.621094 7.472656 54.292969 C 8.035156 53.933594 8.546875 53.511719 9 53.023438 Z M 9 53.023438 " fill-opacity="1" fill-rule="nonzero"/><path fill="#000000" d="M 134.316406 40.765625 C 133.476562 41.304688 133.351562 42.886719 134.246094 43.421875 C 134.640625 44.160156 135.40625 44.199219 135.800781 43.421875 C 139.8125 44.472656 143.730469 45.800781 147.558594 47.402344 C 147.691406 47.449219 147.832031 47.472656 147.976562 47.472656 C 149.5 47.472656 150.140625 44.449219 148.644531 43.757812 C 146.214844 42.984375 143.742188 42.328125 141.3125 41.546875 C 140.023438 41.128906 138.707031 40.820312 137.367188 40.621094 C 136.363281 40.511719 135.234375 40.195312 134.316406 40.765625 Z M 134.316406 40.765625 " fill-opacity="1" fill-rule="nonzero"/><g clip-path="url(#0c9efb80fd)"><path fill="#000000" d="M 151.210938 50.714844 C 148.050781 51.65625 144.816406 52.214844 141.632812 53.042969 C 138.609375 53.796875 135.550781 54.332031 132.453125 54.65625 C 128.867188 54.875 125.277344 54.765625 121.6875 54.65625 C 117.804688 54.46875 113.921875 54.492188 110.039062 54.71875 C 102.480469 55.0625 95.035156 56.359375 87.550781 57.351562 C 84.121094 57.746094 80.683594 57.820312 77.242188 57.574219 C 72.734375 57.15625 68.277344 56.09375 63.746094 56.097656 C 59.214844 56.101562 54.707031 57.011719 50.214844 57.664062 C 47.800781 57.871094 45.382812 57.941406 42.960938 57.878906 C 41.570312 57.878906 40.1875 57.855469 38.800781 57.878906 C 33.867188 57.878906 28.984375 58.824219 24.054688 58.914062 C 22.1875 58.929688 20.328125 58.808594 18.476562 58.558594 C 18.191406 58.238281 17.835938 58.042969 17.414062 57.976562 C 16.988281 57.910156 16.59375 57.984375 16.222656 58.199219 L 16.117188 58.300781 C 14.597656 58.117188 13.074219 57.953125 11.539062 57.914062 C 11.074219 57.871094 10.617188 57.898438 10.160156 58 C 9.695312 58.101562 9.226562 58.128906 8.753906 58.074219 C 8.230469 57.949219 7.839844 58.5625 7.757812 59.027344 C 7.671875 59.492188 7.820312 60.21875 8.351562 60.285156 C 8.734375 60.347656 9.113281 60.453125 9.507812 60.492188 C 11.277344 60.625 13.035156 60.851562 14.789062 61.066406 L 14.976562 61.066406 C 14.992188 61.394531 15.042969 61.722656 15.121094 62.042969 C 15.28125 64.304688 16.230469 66.429688 17.066406 68.527344 C 16.101562 69.515625 17.40625 73.242188 17.554688 74.503906 C 18.8125 79.988281 20.804688 85.246094 21.859375 90.789062 C 22.445312 94.261719 22.792969 97.773438 23.203125 101.273438 C 21.75 100.789062 20.277344 100.386719 18.78125 100.0625 C 19.46875 99.597656 20.140625 99.109375 20.796875 98.59375 C 22.433594 97.363281 21.1875 93.757812 19.335938 95.800781 C 18.496094 96.984375 17.300781 97.964844 16.6875 99.3125 C 16.546875 99.761719 16.65625 100.5 17.082031 100.699219 C 15.402344 102.492188 15.960938 107.078125 15.679688 109.253906 C 14.710938 118.378906 16.667969 125.4375 19.539062 133.933594 C 20.148438 135.636719 20.507812 137.707031 21.476562 139.835938 C 22.6875 142.230469 23.910156 144.796875 25.964844 146.488281 C 26.90625 147.273438 28.0625 147.582031 29.199219 147.921875 C 30.007812 148.1875 30.8125 148.453125 31.625 148.699219 C 32.957031 158.003906 34.027344 167.355469 35.660156 176.613281 C 36.273438 180.464844 37.132812 184.257812 38.03125 188.042969 C 38.578125 190.101562 38.707031 193.125 41.058594 193.714844 C 41.199219 193.734375 41.339844 193.742188 41.480469 193.742188 C 41.964844 193.746094 42.417969 193.625 42.839844 193.382812 C 42.84375 193.640625 42.882812 193.898438 42.953125 194.144531 C 43.601562 196.722656 47.683594 198.125 49.804688 199.113281 C 52.875 200.347656 56.0625 201.070312 59.367188 201.285156 C 60.496094 201.402344 61.628906 201.460938 62.761719 201.457031 C 64.878906 201.433594 66.992188 201.308594 69.09375 201.070312 C 75.8125 200.359375 82.53125 199.8125 89.25 200.046875 C 97.164062 200.3125 105.207031 200.671875 113.007812 198.871094 C 117.464844 198.164062 120.933594 196.546875 123.945312 192.871094 C 125.386719 191.414062 125.726562 188.363281 124.589844 186.628906 C 125.5 185.957031 126.269531 184.78125 126.554688 183.082031 C 126.953125 180.460938 127.164062 177.828125 127.183594 175.179688 C 127.0625 173.730469 126.890625 172.292969 126.902344 170.835938 C 126.984375 166.640625 127.132812 162.484375 127.226562 158.308594 C 127.386719 155.3125 127.585938 152.320312 127.816406 149.328125 C 128.042969 149.070312 128.242188 148.789062 128.40625 148.488281 C 128.601562 148.546875 128.804688 148.574219 129.011719 148.582031 C 130.460938 148.582031 131.800781 147.253906 132.371094 145.820312 C 133.132812 143.78125 133.425781 141.59375 133.941406 139.480469 C 135.121094 135 136.082031 130.320312 137.015625 125.664062 C 138.125 120.007812 139.285156 114.339844 140.273438 108.667969 C 140.589844 106.65625 140.871094 104.644531 141.113281 102.617188 C 141.398438 100.296875 141.753906 97.679688 140.734375 95.507812 C 140.554688 95.066406 140.285156 94.695312 139.917969 94.390625 C 139.554688 94.085938 139.136719 93.890625 138.671875 93.796875 C 137.207031 93.75 135.734375 94.601562 134.3125 95.054688 C 133.515625 95.421875 132.769531 95.878906 132.082031 96.429688 C 132.273438 94.53125 132.46875 92.65625 132.660156 90.734375 C 133.347656 91.15625 133.976562 91.652344 134.546875 92.222656 C 134.808594 92.453125 135.113281 92.574219 135.464844 92.585938 C 137.003906 92.585938 137.941406 89.445312 136.449219 88.417969 C 135.71875 87.878906 134.960938 87.382812 134.171875 86.929688 C 133.820312 86.726562 133.445312 86.585938 133.046875 86.507812 C 133.175781 84.902344 133.285156 83.296875 133.347656 81.683594 C 133.46875 78.570312 133.628906 75.457031 133.859375 72.351562 C 133.859375 72.292969 133.859375 72.234375 133.859375 72.171875 C 134.113281 71.578125 134.066406 70.914062 134.136719 70.261719 C 134.34375 68.042969 134.277344 65.773438 134.910156 63.613281 C 135.328125 61.824219 136.527344 60.316406 136.828125 58.503906 C 136.898438 58.09375 136.878906 57.691406 136.769531 57.289062 C 137.875 57.125 138.976562 56.964844 140.085938 56.808594 C 143.976562 56.328125 148.191406 57.050781 151.820312 55.222656 C 153.503906 54.335938 153.421875 50.472656 151.210938 50.714844 Z M 42.863281 174.070312 C 42.441406 174.109375 42.019531 174.175781 41.605469 174.265625 C 41.511719 174.175781 41.402344 174.082031 41.296875 173.992188 C 41.253906 173.8125 41.210938 173.628906 41.167969 173.449219 C 41.859375 173.539062 42.621094 173.550781 43.414062 173.574219 L 44.050781 173.574219 C 44.007812 173.691406 43.976562 173.804688 43.949219 173.925781 Z M 117.894531 188.542969 C 115.222656 189.636719 112.285156 189.777344 109.496094 190.363281 C 106.886719 190.808594 104.253906 191.089844 101.640625 191.515625 C 98.703125 191.9375 95.820312 192.816406 92.890625 193.332031 C 84.226562 194.589844 75.441406 195.511719 66.65625 194.980469 C 55.738281 194.140625 55.859375 195.453125 45.285156 190.417969 C 45.152344 190.402344 45.015625 190.402344 44.882812 190.417969 C 45.132812 189.457031 45.132812 188.496094 44.882812 187.535156 C 44.398438 185.4375 43.832031 183.382812 43.25 181.324219 C 45.164062 181.953125 47.300781 181.90625 49.355469 181.859375 C 49.9375 181.859375 50.503906 181.839844 51.058594 181.839844 C 51.132812 181.929688 51.214844 182.011719 51.300781 182.085938 C 51.675781 182.363281 52.09375 182.503906 52.558594 182.507812 C 53.207031 182.472656 53.78125 182.25 54.285156 181.847656 C 57.03125 182.023438 59.746094 182.535156 62.507812 182.753906 C 62.832031 182.769531 63.15625 182.777344 63.476562 182.777344 C 65.648438 182.777344 67.800781 182.441406 69.957031 182.222656 C 73.964844 181.839844 78.011719 181.945312 82.007812 181.402344 C 84.074219 181.109375 86.128906 180.71875 88.175781 180.28125 C 91.480469 179.492188 94.714844 178.375 98.113281 178.132812 C 103.90625 177.414062 109.945312 178.390625 115.546875 176.371094 C 116.546875 175.902344 117.226562 174.609375 117.226562 173.402344 C 117.953125 173.207031 118.675781 173.003906 119.382812 172.761719 C 119.746094 172.640625 120.09375 172.480469 120.417969 172.277344 C 120.132812 175.632812 119.90625 179.015625 119.457031 182.367188 C 119.371094 184.15625 119.8125 185.449219 120.523438 186.265625 C 119.679688 187.035156 118.941406 188.078125 117.894531 188.542969 Z M 46.054688 168.851562 C 46.191406 168.851562 46.324219 168.851562 46.476562 168.851562 C 47.519531 168.847656 48.539062 169.003906 49.53125 169.320312 C 48.035156 169.722656 46.6875 170.421875 45.496094 171.414062 C 46.019531 170.632812 46.207031 169.78125 46.054688 168.851562 Z M 46.015625 166.160156 L 46.050781 166.089844 L 46.226562 166.140625 C 46.15625 166.148438 46.085938 166.148438 46.015625 166.160156 Z M 50.519531 179.164062 C 50.484375 179.339844 50.464844 179.519531 50.457031 179.699219 C 48.933594 179.515625 47.417969 179.28125 45.902344 179.03125 L 46.140625 179.03125 C 47.605469 178.867188 49.066406 178.914062 50.519531 179.167969 Z M 88.925781 172.980469 L 90.1875 172.824219 C 89.140625 175.40625 91.238281 176.132812 93.242188 175.875 C 94.300781 175.828125 95.367188 175.769531 96.425781 175.648438 C 91.480469 176.378906 86.5 176.714844 81.515625 176.957031 C 84.242188 176.289062 86.839844 175.15625 88.792969 172.992188 Z M 88.851562 166.425781 C 89.082031 166.445312 89.3125 166.464844 89.546875 166.496094 L 91.300781 166.710938 C 90.75 166.839844 90.195312 166.96875 89.648438 167.128906 C 89.441406 166.828125 89.175781 166.59375 88.851562 166.425781 Z M 74.996094 172.582031 C 74.957031 172.484375 74.910156 172.390625 74.863281 172.289062 C 74.761719 172.097656 74.640625 171.921875 74.492188 171.765625 C 77.460938 169.464844 81.105469 168.679688 84.765625 168.679688 L 84.792969 168.679688 C 81.5 169.875 78.28125 171.324219 75.003906 172.582031 Z M 71.015625 171.035156 L 70.59375 171.035156 C 69.503906 171.035156 68.410156 171.054688 67.320312 171.097656 C 66.648438 167.613281 63.121094 168.582031 60.898438 169.632812 C 60.320312 168.445312 58.96875 168.070312 57.796875 168.058594 C 56.144531 167.164062 54.230469 167.757812 52.609375 168.453125 C 52.128906 167.898438 51.570312 167.433594 50.929688 167.066406 C 53.300781 167.335938 55.6875 167.425781 58.070312 167.703125 C 61.007812 168.101562 64.042969 168.710938 67.058594 168.703125 C 67.296875 168.703125 67.542969 168.703125 67.78125 168.703125 C 71.652344 168.703125 75.457031 167.832031 79.234375 166.992188 C 75.519531 168.085938 72.058594 169.738281 71.023438 171.035156 Z M 71.984375 176.699219 C 71.992188 176.738281 72.003906 176.773438 72.019531 176.808594 C 71.910156 176.976562 71.761719 177.074219 71.566406 177.097656 C 70.726562 177.003906 70.902344 175.714844 71.269531 175.164062 L 71.914062 175.09375 C 71.800781 175.636719 71.828125 176.171875 71.992188 176.699219 Z M 56.609375 179.59375 C 60.015625 179.554688 63.746094 178.675781 65.972656 175.6875 C 67 175.601562 68.03125 175.511719 69.066406 175.414062 L 69.101562 175.414062 C 69.058594 175.949219 69.152344 176.457031 69.386719 176.9375 C 69.625 177.417969 69.964844 177.808594 70.414062 178.101562 C 69.542969 178.339844 68.679688 178.609375 67.816406 178.890625 C 63.972656 179.722656 60.089844 180.125 56.160156 180.09375 Z M 55.9375 172.125 C 55.246094 172.292969 54.542969 172.417969 53.835938 172.496094 C 54.453125 172.1875 55.101562 171.996094 55.789062 171.925781 C 56.035156 171.925781 56.269531 171.976562 56.492188 172.082031 C 56.410156 172.152344 56.332031 172.210938 56.25 172.273438 C 56.175781 172.167969 56.074219 172.121094 55.945312 172.125 Z M 104.878906 173.898438 C 102.4375 174.609375 99.960938 175.144531 97.445312 175.503906 C 97.664062 175.46875 97.867188 175.4375 98.101562 175.390625 C 100.574219 174.945312 103.085938 173.460938 104.078125 170.890625 C 104.359375 170.832031 104.644531 170.777344 104.917969 170.734375 C 105.128906 170.710938 105.335938 170.683594 105.550781 170.648438 C 105.796875 170.980469 106.125 171.160156 106.539062 171.195312 C 106.0625 171.492188 105.605469 171.832031 105.144531 172.136719 C 104.882812 172.355469 104.726562 172.632812 104.679688 172.96875 C 104.628906 173.304688 104.699219 173.617188 104.886719 173.898438 Z M 108.40625 171.136719 C 108.925781 171.089844 109.402344 171.039062 109.855469 171.03125 C 109.375 171.148438 108.902344 171.273438 108.425781 171.421875 C 108.4375 171.324219 108.433594 171.230469 108.414062 171.136719 Z M 120.671875 169.964844 C 120.347656 169.820312 120.054688 169.863281 119.785156 170.089844 C 119.128906 168.621094 117.351562 169.496094 116.203125 169.632812 L 115.285156 169.851562 L 115.082031 169.597656 C 116.382812 169.398438 117.695312 169.222656 119.007812 169.109375 C 119.601562 169.097656 120.191406 169.035156 120.773438 168.914062 Z M 122.199219 154.203125 C 121.878906 157.671875 121.535156 161.136719 121.191406 164.605469 C 120.351562 164.414062 119.472656 164.75 118.628906 164.828125 C 113.75 165.398438 108.925781 166.378906 104.113281 167.402344 C 104.058594 167.257812 103.988281 167.117188 103.910156 166.980469 C 108.828125 166.3125 113.660156 164.9375 118.640625 164.8125 C 121.113281 164.566406 122.320312 159.5625 119.40625 159.082031 C 118.902344 159.058594 118.402344 159.058594 117.902344 159.082031 C 117.859375 159.082031 117.820312 159.082031 117.773438 159.082031 L 117.558594 159.105469 C 112.582031 159.363281 107.847656 161.589844 102.96875 162.570312 C 97.609375 163.878906 92.195312 164.136719 86.734375 163.351562 C 78.140625 162.027344 69.519531 163.976562 60.898438 164.296875 C 57.699219 164.441406 54.550781 163.800781 51.390625 163.390625 C 49.574219 163.164062 47.757812 163.078125 45.929688 163.132812 L 44.25 163.132812 C 43.789062 163.074219 43.328125 163.058594 42.863281 163.09375 C 42.574219 163.09375 42.285156 163.070312 42 163.046875 C 41.988281 162.996094 41.957031 162.964844 41.90625 162.949219 C 41.859375 162.933594 41.8125 162.941406 41.773438 162.972656 C 41.574219 163.03125 41.351562 162.878906 41.167969 162.785156 C 40.75 162.472656 40.253906 163.082031 40.261719 163.582031 L 39.945312 163.671875 C 39.601562 163.792969 39.289062 163.964844 39 164.1875 C 38.972656 164.082031 38.953125 163.980469 38.921875 163.875 C 37.542969 158.816406 36.117188 153.753906 35.144531 148.589844 C 35.578125 148.203125 35.90625 147.742188 36.128906 147.203125 C 36.132812 147.578125 36.253906 147.910156 36.488281 148.199219 C 36.722656 148.492188 37.023438 148.675781 37.390625 148.757812 C 37.730469 149.316406 38.398438 149.640625 38.894531 149.09375 C 48.058594 151.671875 57.457031 151.316406 66.832031 151.710938 C 75.265625 153.1875 83.542969 155.484375 92.144531 155.484375 C 92.761719 155.484375 93.382812 155.484375 94.003906 155.445312 C 103.46875 154.867188 113.164062 153.683594 122.417969 151.308594 C 122.324219 152.28125 122.269531 153.242188 122.1875 154.203125 Z M 135.613281 99.671875 C 134.296875 107.246094 133.933594 114.996094 132.304688 122.511719 C 131.59375 125.3125 130.691406 128.050781 129.753906 130.777344 C 129.78125 130.550781 129.808594 130.324219 129.839844 130.097656 C 129.792969 130.339844 129.742188 130.578125 129.6875 130.820312 C 129.550781 131.453125 129.40625 132.078125 129.265625 132.71875 L 129.242188 132.835938 C 129.085938 133.488281 128.929688 134.144531 128.769531 134.796875 C 128.609375 135.453125 128.453125 136.113281 128.289062 136.777344 C 128.125 137.441406 127.992188 138.117188 127.777344 138.757812 C 127.726562 138.902344 127.667969 139.042969 127.59375 139.175781 C 127.523438 139.628906 127.449219 140.082031 127.351562 140.53125 C 127.273438 141.011719 127.050781 141.40625 126.679688 141.71875 L 126.660156 141.71875 C 126.578125 141.777344 126.492188 141.832031 126.402344 141.878906 L 126.34375 141.902344 C 126.039062 142.046875 125.71875 142.09375 125.382812 142.042969 L 125.261719 142.011719 C 125.125 142.207031 124.960938 142.371094 124.769531 142.507812 L 124.6875 142.558594 C 124.625 142.59375 124.558594 142.628906 124.492188 142.65625 L 124.386719 142.699219 C 124.308594 142.730469 124.230469 142.75 124.152344 142.765625 L 124.09375 142.765625 C 123.816406 142.949219 123.515625 143.039062 123.1875 143.042969 L 122.921875 143.042969 C 122.75 143.011719 122.585938 142.957031 122.429688 142.875 L 122.429688 143.296875 C 121.644531 143.640625 120.828125 143.855469 119.972656 143.945312 C 110.582031 147.648438 100.53125 146.796875 90.714844 146.554688 C 79.378906 146.9375 68.042969 147.332031 56.746094 146.59375 C 50.273438 146.234375 43.398438 143.738281 37.058594 144.941406 C 36.851562 145.085938 36.679688 145.265625 36.546875 145.480469 C 36.574219 145.058594 36.550781 144.640625 36.472656 144.222656 C 36.320312 144.167969 36.171875 144.101562 36.03125 144.011719 L 35.9375 143.964844 C 35.75 143.914062 35.574219 143.835938 35.40625 143.734375 C 33.761719 143.113281 32.289062 142.210938 30.980469 141.035156 C 30.78125 140.84375 30.621094 140.625 30.5 140.378906 L 30.421875 140.304688 L 30.382812 140.253906 C 30.359375 140.230469 30.335938 140.210938 30.308594 140.191406 C 30.308594 140.289062 30.347656 140.382812 30.363281 140.480469 C 30.296875 140.453125 30.230469 140.425781 30.167969 140.394531 C 28.554688 139.304688 27.847656 137.179688 27.101562 135.398438 C 25.621094 129.46875 23.96875 123.601562 21.996094 117.863281 C 20.480469 113.230469 20.203125 108.320312 19.378906 103.527344 C 20.214844 103.480469 21.042969 103.535156 21.867188 103.683594 L 22.152344 103.722656 C 22.304688 103.621094 22.46875 103.535156 22.636719 103.46875 C 22.945312 103.351562 23.257812 103.269531 23.582031 103.222656 L 23.738281 103.195312 L 23.960938 103.167969 C 24.425781 103.113281 24.894531 103.085938 25.363281 103.066406 C 25.882812 103.042969 26.410156 103.027344 26.929688 102.988281 C 27.449219 102.953125 28.082031 102.828125 28.65625 102.699219 L 28.910156 102.640625 C 28.390625 100.894531 27.878906 99.148438 27.414062 97.386719 C 26.574219 94.101562 26.222656 90.707031 25.675781 87.359375 C 25.785156 87.429688 25.90625 87.480469 26.03125 87.519531 C 30.621094 88.457031 35.269531 88.566406 39.925781 88.308594 C 42.140625 88.335938 44.328125 88.582031 46.492188 89.046875 C 50.183594 89.546875 53.898438 89.886719 57.617188 90.050781 C 59.367188 90.144531 61.113281 90.3125 62.859375 90.3125 C 63.804688 90.320312 64.75 90.257812 65.6875 90.128906 C 68.738281 89.679688 71.738281 88.691406 74.84375 88.871094 C 79.042969 89.242188 83.210938 90.285156 87.441406 90.128906 C 90.800781 90.105469 94.015625 89.117188 97.269531 88.398438 C 100.65625 87.722656 104.074219 87.257812 107.519531 87.003906 C 109.105469 86.78125 110.660156 86.429688 112.183594 85.953125 C 112.332031 86.203125 112.519531 86.421875 112.746094 86.601562 C 114.398438 87.597656 116.351562 86.375 118.046875 86.046875 C 119.726562 85.554688 121.40625 85.1875 123.117188 84.789062 C 124.429688 84.449219 125.890625 84.039062 126.695312 82.785156 C 127.429688 81.734375 127.734375 79.734375 126.433594 79.046875 C 126.894531 78.777344 127.273438 78.414062 127.570312 77.964844 C 127.867188 77.515625 128.046875 77.027344 128.113281 76.492188 C 128.976562 76.464844 129.695312 75.777344 130.074219 74.90625 C 129.976562 76.519531 129.90625 77.988281 129.769531 78.964844 C 129.050781 85.769531 128.929688 92.632812 128.40625 99.460938 C 128.789062 99.335938 129.171875 99.328125 129.558594 99.433594 C 130.046875 99.554688 130.46875 99.796875 130.820312 100.15625 C 130.90625 100.246094 130.988281 100.34375 131.0625 100.441406 C 131.152344 100.375 131.242188 100.3125 131.335938 100.257812 C 131.457031 100.1875 131.582031 100.136719 131.714844 100.097656 C 131.738281 99.777344 131.769531 99.457031 131.796875 99.140625 C 133.050781 99.519531 134.351562 99.550781 135.601562 99.6875 Z M 23.996094 76.476562 L 24.230469 76.648438 C 24.175781 76.707031 24.128906 76.773438 24.082031 76.835938 Z M 24.941406 80.25 C 25.121094 80.324219 25.308594 80.359375 25.503906 80.363281 C 25.578125 80.527344 25.664062 80.683594 25.761719 80.835938 C 25.511719 80.761719 25.304688 80.832031 25.144531 81.039062 C 25.074219 80.765625 25.011719 80.507812 24.933594 80.242188 Z M 27.621094 82.5 C 27.367188 82.46875 27.109375 82.441406 26.851562 82.425781 C 26.675781 82.40625 26.507812 82.429688 26.347656 82.492188 C 26.382812 82.148438 26.355469 81.8125 26.265625 81.480469 C 26.664062 81.890625 27.113281 82.230469 27.621094 82.492188 Z M 27.414062 80.277344 C 27.957031 80.195312 28.503906 80.101562 29.042969 79.96875 C 28.933594 80.058594 28.839844 80.160156 28.765625 80.277344 C 28.640625 80.464844 28.546875 80.667969 28.476562 80.886719 C 28.085938 80.738281 27.730469 80.535156 27.414062 80.269531 Z M 32.914062 80.191406 C 34.230469 80.640625 35.507812 81.234375 36.859375 81.554688 C 36.378906 81.597656 35.898438 81.636719 35.414062 81.660156 C 33.761719 81.375 32.113281 81.070312 30.476562 80.6875 C 31.277344 80.464844 32.089844 80.296875 32.914062 80.183594 Z M 32.328125 78.386719 L 32.449219 78.277344 L 32.617188 78.296875 C 32.53125 78.332031 32.441406 78.359375 32.359375 78.398438 Z M 33.492188 75.539062 L 33.664062 75.539062 C 35.503906 75.800781 37.316406 76.21875 39.125 76.660156 L 38.980469 76.660156 C 37.152344 76.527344 35.332031 76.347656 33.523438 76.125 C 33.53125 75.992188 33.53125 75.863281 33.523438 75.734375 C 33.515625 75.667969 33.507812 75.597656 33.492188 75.53125 Z M 60.324219 75.960938 C 58.324219 75.867188 56.3125 75.902344 54.820312 75.929688 L 54.289062 75.929688 C 53.625 75.820312 52.964844 75.722656 52.300781 75.621094 C 54.589844 75.410156 56.882812 75.328125 59.183594 75.363281 C 59.941406 75.394531 60.695312 75.472656 61.449219 75.570312 Z M 62.21875 82.074219 C 62.863281 82.121094 63.503906 82.074219 64.136719 81.925781 C 63.894531 82.121094 63.695312 82.355469 63.539062 82.625 C 62.28125 82.625 61.019531 82.601562 59.761719 82.515625 Z M 57.660156 83.933594 C 59.15625 84.039062 60.636719 84.238281 62.105469 84.53125 L 61.886719 84.53125 C 60.84375 84.53125 59.808594 84.53125 58.765625 84.53125 C 56.226562 84.597656 53.695312 84.511719 51.167969 84.269531 L 50.296875 84.144531 C 50.296875 84.144531 50.296875 84.121094 50.296875 84.113281 L 50 84.113281 L 48.914062 83.941406 L 48.816406 83.914062 C 48.265625 83.621094 47.679688 83.480469 47.054688 83.492188 C 46.8125 83.378906 46.554688 83.304688 46.285156 83.28125 C 46.082031 83.277344 45.878906 83.292969 45.679688 83.320312 C 45.339844 83.402344 45 83.402344 44.660156 83.320312 L 45.5 83.011719 C 46.089844 83.132812 46.675781 83.261719 47.265625 83.40625 C 50.675781 84.019531 54.207031 83.550781 57.660156 83.9375 Z M 65.757812 76.722656 C 65.777344 76.667969 65.808594 76.613281 65.828125 76.554688 C 66.160156 76.441406 66.484375 76.3125 66.804688 76.160156 C 67.164062 76.160156 67.519531 76.160156 67.882812 76.160156 C 68.804688 76.160156 69.730469 76.136719 70.648438 76.101562 C 70.125 77.132812 69.425781 78.027344 68.550781 78.785156 C 68.390625 78.671875 68.21875 78.597656 68.027344 78.566406 C 67.914062 77.722656 67.039062 77.128906 65.757812 76.726562 Z M 71.496094 78.746094 C 71.949219 77.886719 72.273438 76.980469 72.480469 76.03125 C 74.578125 75.914062 76.652344 75.75 78.742188 75.613281 L 78.589844 75.664062 C 76.109375 76.378906 73.925781 77.90625 71.496094 78.75 Z M 84.980469 83.664062 L 85.199219 83.597656 C 85.410156 83.628906 85.617188 83.660156 85.820312 83.703125 C 85.550781 83.695312 85.273438 83.679688 84.980469 83.664062 Z M 114.957031 74.417969 L 113.535156 74.605469 C 113.539062 74.488281 113.515625 74.378906 113.46875 74.269531 C 113.421875 74.164062 113.355469 74.070312 113.273438 73.992188 C 113.1875 73.914062 113.089844 73.851562 112.980469 73.8125 C 112.871094 73.773438 112.757812 73.757812 112.644531 73.765625 C 109.824219 74.390625 106.699219 74.605469 104.222656 76.257812 C 103.886719 76.34375 103.546875 76.425781 103.214844 76.523438 C 102.65625 76.589844 102.09375 76.652344 101.535156 76.703125 C 100.554688 75.789062 99.085938 75.785156 97.835938 75.863281 C 95.46875 75.976562 93.117188 76.285156 90.769531 76.632812 C 90.539062 75.675781 89.992188 74.957031 89.136719 74.472656 C 93.335938 74.496094 97.535156 74.660156 101.734375 74.546875 C 106.511719 74.308594 111.253906 73.78125 115.96875 72.964844 C 118.023438 72.671875 120.058594 72.277344 122.074219 71.777344 C 121.800781 71.898438 121.519531 71.996094 121.234375 72.070312 C 119.164062 72.875 117.066406 73.652344 114.96875 74.417969 Z M 120.5 77.207031 L 119.933594 77.339844 C 119.980469 77.226562 120.023438 77.109375 120.054688 76.988281 L 120.230469 76.929688 C 120.3125 77.035156 120.40625 77.125 120.511719 77.207031 Z M 102.367188 80.816406 C 102.257812 81.1875 102.207031 81.566406 102.222656 81.953125 L 101.800781 82.015625 C 102.011719 81.644531 102.179688 81.253906 102.304688 80.84375 Z M 95.648438 80.007812 C 94.921875 80.527344 94.292969 81.152344 93.769531 81.878906 C 92.238281 81.777344 90.71875 81.542969 89.199219 81.316406 C 89.382812 81.128906 89.550781 80.933594 89.707031 80.726562 C 91.699219 80.53125 93.675781 80.273438 95.652344 80.007812 Z M 132.53125 59.089844 C 131.957031 61.605469 131.460938 64.125 131.484375 66.640625 C 130.761719 68.03125 130.433594 70.414062 130.222656 72.773438 C 130.140625 72.535156 130.015625 72.320312 129.855469 72.125 C 128.773438 71.140625 127.417969 71.972656 126.5625 73.054688 C 126.589844 72.460938 126.421875 71.933594 126.058594 71.464844 C 125.859375 71.246094 125.617188 71.09375 125.335938 71.003906 C 126.535156 70.75 127.726562 70.460938 128.910156 70.164062 C 129.652344 69.980469 130.117188 69 130.09375 68.246094 C 130.074219 67.613281 129.648438 66.941406 128.980469 67.058594 C 128.085938 67.214844 127.179688 67.269531 126.28125 67.417969 C 123.710938 67.835938 121.113281 67.976562 118.515625 68.1875 C 112.550781 68.480469 106.632812 69.203125 100.773438 70.355469 C 98.042969 70.816406 95.265625 70.820312 92.535156 71.253906 C 88.636719 71.894531 84.746094 72.675781 80.777344 72.289062 C 76.222656 72.269531 71.714844 71.421875 67.167969 71.367188 C 62.128906 71.503906 57.128906 72.316406 52.078125 72.121094 C 49.34375 72.035156 46.613281 72.128906 43.894531 72.40625 C 42.417969 72.613281 40.953125 72.828125 39.464844 73.007812 C 37.683594 72.683594 35.894531 72.617188 34.09375 72.816406 C 33.386719 72.910156 32.6875 73.039062 31.992188 73.203125 L 31.925781 73.203125 C 29.65625 71.945312 26.695312 71.628906 24.164062 71.761719 C 24.085938 71.738281 24.007812 71.714844 23.933594 71.6875 C 23.539062 71.464844 23.121094 71.351562 22.671875 71.339844 C 22.015625 68.964844 21.714844 66.472656 20.710938 64.207031 C 20.320312 63.253906 20.015625 62.277344 19.800781 61.269531 C 21.5 61.316406 23.203125 61.378906 24.898438 61.574219 C 28.550781 61.992188 32.199219 62.589844 35.882812 62.597656 L 36.402344 62.597656 C 40.117188 62.597656 43.808594 62.117188 47.515625 61.871094 C 49.964844 61.8125 52.410156 61.871094 54.851562 61.9375 C 58.191406 62.03125 61.527344 62.113281 64.867188 61.886719 C 69.929688 61.691406 74.96875 61.023438 80.03125 60.777344 C 84.59375 60.636719 89.152344 60.707031 93.71875 60.777344 C 97.917969 60.847656 102.082031 60.914062 106.265625 60.816406 C 115.152344 60.585938 123.9375 59.222656 132.71875 57.882812 C 132.640625 58.300781 132.609375 58.722656 132.539062 59.089844 Z M 132.53125 59.089844 " fill-opacity="1" fill-rule="nonzero"/></g><path fill="#000000" d="M 24.632812 110.660156 C 24.683594 110.601562 24.738281 110.546875 24.796875 110.492188 C 24.707031 110.40625 24.621094 110.3125 24.550781 110.207031 C 24.578125 110.359375 24.605469 110.511719 24.632812 110.660156 Z M 24.632812 110.660156 " fill-opacity="1" fill-rule="nonzero"/><path fill="#000000" d="M 124.898438 95.460938 C 119.722656 96.148438 114.585938 97.339844 109.363281 97.503906 C 104.585938 97.417969 99.8125 97.664062 95.039062 97.738281 C 87.203125 97.738281 79.386719 98.4375 71.738281 100.304688 C 65.1875 101.863281 58.492188 100.953125 51.925781 100.015625 C 49.925781 99.761719 47.933594 99.597656 45.925781 99.464844 C 44.152344 99.386719 42.378906 99.417969 40.605469 99.558594 C 38.753906 99.710938 36.902344 99.734375 35.050781 99.632812 C 35.050781 99.632812 35.050781 99.632812 35.050781 99.65625 C 34.257812 99.65625 33.914062 101.121094 34.589844 101.550781 C 37.910156 102.980469 41.320312 104.152344 44.816406 105.066406 C 54.546875 107.460938 64.625 106.746094 74.53125 107.164062 C 75.597656 107.1875 76.660156 107.195312 77.71875 107.195312 C 85.03125 107.195312 92.347656 106.65625 99.457031 104.710938 C 102.570312 103.925781 105.757812 103.703125 108.902344 103.082031 C 114.257812 101.996094 119.597656 100.636719 125.054688 100.363281 C 127.257812 99.941406 127.476562 95.28125 124.898438 95.460938 Z M 124.898438 95.460938 " fill-opacity="1" fill-rule="nonzero"/><path fill="#000000" d="M 112.273438 10.765625 C 110.914062 7.867188 95.058594 9.3125 92.585938 11.054688 C 90.878906 11.855469 89.546875 15.019531 91.554688 16.203125 C 93.535156 16.71875 95.628906 16.558594 97.652344 16.699219 C 98.996094 16.914062 100.347656 17.019531 101.707031 17.015625 C 105.191406 17.015625 108.691406 16.414062 112.125 15.960938 C 114.222656 15.257812 114.765625 11.324219 112.273438 10.765625 Z M 112.273438 10.765625 " fill-opacity="1" fill-rule="nonzero"/><path fill="#000000" d="M 85.015625 11.804688 C 82.730469 10.851562 80.792969 14.320312 82.074219 16.292969 C 82.367188 16.753906 82.789062 16.984375 83.335938 16.984375 C 83.839844 16.976562 84.277344 16.796875 84.648438 16.453125 C 85.683594 16.546875 86.578125 15.445312 86.328125 14.355469 C 86.164062 13.394531 85.9375 12.226562 85.015625 11.804688 Z M 85.015625 11.804688 " fill-opacity="1" fill-rule="nonzero"/><path fill="#000000" d="M 90.019531 120.25 C 91.316406 119.289062 91.207031 116.828125 90.074219 116.359375 C 90.097656 116.273438 90.125 116.195312 90.144531 116.097656 C 90.355469 115.027344 90.011719 113.582031 88.84375 113.40625 C 86.683594 113.039062 84.515625 113.445312 82.367188 113.777344 C 79.007812 113.074219 75.941406 115.128906 73.007812 116.636719 C 71.363281 117.441406 70 118.585938 68.914062 120.0625 C 67.777344 120.414062 66.960938 121.191406 67.070312 122.625 C 67.113281 122.808594 67.179688 122.980469 67.269531 123.144531 C 66.578125 125.203125 66.585938 127.421875 67.75 129.40625 C 67.929688 129.664062 68.171875 129.792969 68.484375 129.792969 C 69.003906 129.746094 69.40625 129.503906 69.691406 129.066406 C 69.917969 130.324219 70.375 131.40625 71.273438 131.925781 L 71.378906 131.957031 C 71.089844 132.214844 70.824219 132.769531 71.164062 133.109375 C 71.265625 133.21875 71.386719 133.277344 71.535156 133.277344 C 71.953125 133.277344 72.40625 132.78125 72.746094 132.566406 C 75.515625 130.410156 78.699219 128.949219 81.445312 126.753906 C 84.265625 124.574219 87.109375 122.367188 90.019531 120.25 Z M 69.496094 123.039062 C 69.613281 122.777344 69.75 122.53125 69.914062 122.292969 C 69.824219 122.613281 69.75 122.933594 69.691406 123.269531 C 69.585938 123.195312 69.53125 123.117188 69.472656 123.039062 Z M 81.726562 119.265625 C 82.074219 119.171875 82.417969 119.089844 82.765625 119.003906 C 82.347656 119.207031 81.957031 119.390625 81.6875 119.523438 C 81.6875 119.449219 81.691406 119.371094 81.703125 119.28125 Z M 68.980469 124.996094 C 69.148438 125.164062 69.3125 125.335938 69.476562 125.507812 C 69.476562 125.984375 69.476562 126.5 69.476562 127.027344 C 69.109375 126.398438 68.945312 125.722656 68.980469 124.996094 Z M 73.296875 130.414062 C 73.832031 128.636719 73.003906 126.714844 73.371094 124.882812 C 73.375 124.488281 73.457031 124.113281 73.617188 123.757812 C 73.742188 123.699219 73.859375 123.632812 73.96875 123.550781 C 74.007812 123.53125 74.042969 123.5 74.078125 123.476562 C 74.398438 123.730469 74.761719 123.886719 75.167969 123.945312 C 74.664062 124.738281 74.328125 126.015625 75.089844 126.757812 C 75.332031 126.984375 75.621094 127.097656 75.953125 127.101562 C 76.214844 127.09375 76.457031 127.027344 76.6875 126.902344 C 75.570312 128.097656 74.484375 129.316406 73.296875 130.421875 Z M 77.753906 125.800781 C 77.855469 125.609375 77.921875 125.40625 77.960938 125.191406 C 78.578125 124.652344 79.246094 124.183594 79.964844 123.785156 C 79.613281 124.085938 79.269531 124.386719 78.925781 124.691406 C 78.582031 125 78.136719 125.414062 77.753906 125.832031 Z M 77.753906 125.800781 " fill-opacity="1" fill-rule="nonzero"/><path fill="#000000" d="M 97.132812 123.546875 C 96.480469 123.089844 95.453125 122.289062 94.585938 122.265625 C 94.6875 121.488281 94.472656 120.765625 93.660156 120.8125 C 93.238281 120.605469 92.792969 121.097656 92.714844 121.535156 C 90.304688 123.632812 87.789062 125.605469 85.230469 127.496094 C 83.128906 128.875 81.207031 130.476562 79.46875 132.289062 C 78.558594 133.1875 77.203125 134.429688 77.367188 135.808594 C 76.074219 136.472656 75.347656 138.535156 75.820312 139.960938 C 76.292969 141.492188 78.035156 141.722656 79.304688 142.113281 C 80.109375 142.132812 80.933594 142.152344 81.753906 142.152344 C 84.355469 142.152344 86.996094 141.949219 89.371094 140.828125 C 94.160156 137.75 104.941406 129.144531 97.132812 123.546875 Z M 93.453125 124.421875 C 93.738281 125.160156 94.117188 125.847656 94.601562 126.480469 C 93.632812 126.640625 91.097656 127.671875 88.671875 128.996094 C 90.398438 127.609375 91.992188 126.082031 93.453125 124.421875 Z M 84.6875 136.441406 C 84.773438 136.628906 84.898438 136.78125 85.058594 136.90625 C 84.640625 136.875 84.21875 136.828125 83.800781 136.769531 C 84.085938 136.660156 84.382812 136.546875 84.6875 136.441406 Z M 81.355469 134.953125 C 82.058594 134.300781 82.800781 133.695312 83.550781 133.128906 C 83.453125 133.273438 83.386719 133.433594 83.347656 133.609375 C 83.308594 133.78125 83.304688 133.953125 83.335938 134.128906 C 83.363281 134.304688 83.421875 134.46875 83.515625 134.617188 C 83.605469 134.769531 83.722656 134.898438 83.863281 135.007812 C 83.042969 135.320312 82.316406 135.789062 81.6875 136.402344 C 81.214844 136.308594 80.734375 136.195312 80.265625 136.078125 C 80.605469 135.679688 80.96875 135.304688 81.355469 134.953125 Z M 89.019531 136.503906 C 89.054688 136.253906 89.011719 136.023438 88.886719 135.804688 C 88.820312 135.710938 88.75 135.625 88.671875 135.542969 C 88.851562 135.398438 89.011719 135.230469 89.148438 135.039062 C 89.316406 134.832031 89.414062 134.597656 89.433594 134.332031 C 89.457031 134.066406 89.402344 133.816406 89.269531 133.585938 C 91.519531 132.699219 93.820312 131.796875 95.199219 129.691406 C 95.464844 129.242188 95.660156 128.761719 95.777344 128.25 C 95.914062 128.492188 96.027344 128.746094 96.117188 129.011719 C 95.789062 131.097656 91.660156 135.121094 89.019531 136.503906 Z M 89.019531 136.503906 " fill-opacity="1" fill-rule="nonzero"/></svg>