<svg xmlns="http://www.w3.org/2000/svg" xmlns:xlink="http://www.w3.org/1999/xlink" width="177" zoomAndPan="magnify" viewBox="0 0 132.75 197.249993" height="263" preserveAspectRatio="xMidYMid meet" version="1.2"><defs><clipPath id="923c30ec9c"><path d="M 2 0 L 131.625 0 L 131.625 196.503906 L 2 196.503906 Z M 2 0 "/></clipPath></defs><g id="d9f4301628"><path style=" stroke:none;fill-rule:nonzero;fill:#0d0c0d;fill-opacity:1;" d="M 45.023438 120.695312 C 45.292969 120.890625 45.585938 121.050781 45.894531 121.175781 C 49.308594 122.523438 52.984375 123.277344 56.664062 122.976562 C 58.414062 122.832031 60.585938 122.414062 61.851562 121.074219 C 63.949219 118.859375 57.746094 119.996094 56.976562 120.054688 C 54.054688 120.289062 51.121094 120.46875 48.234375 119.867188 C 47.320312 119.621094 46.394531 119.46875 45.453125 119.414062 C 43.957031 119.421875 44.253906 120.132812 45.023438 120.695312 Z M 61.679688 119.695312 L 61.664062 119.695312 C 61.695312 119.695312 61.71875 119.699219 61.679688 119.695312 Z M 61.679688 119.695312 "/><path style=" stroke:none;fill-rule:nonzero;fill:#0d0c0d;fill-opacity:1;" d="M 43.683594 126.042969 C 44.550781 126.628906 46.933594 127.125 47.230469 127.175781 C 51.023438 127.875 54.910156 127.425781 58.710938 127.054688 C 61.007812 126.832031 59.359375 125.183594 58.015625 124.957031 C 56.214844 124.65625 54.3125 125.082031 52.507812 125.101562 C 49.894531 125.101562 47.246094 125.140625 44.644531 125.105469 C 44.273438 125.0625 43.921875 125.132812 43.589844 125.3125 C 43.230469 125.558594 43.335938 125.808594 43.683594 126.042969 Z M 43.683594 126.042969 "/><path style=" stroke:none;fill-rule:nonzero;fill:#0d0c0d;fill-opacity:1;" d="M 44 134.632812 C 44.128906 134.816406 44.300781 134.949219 44.511719 135.027344 C 47.015625 136.21875 49.8125 136.65625 52.558594 136.816406 C 54.054688 136.902344 59.074219 137.636719 60.113281 136.328125 C 60.882812 135.363281 59.902344 134.628906 58.96875 134.464844 C 58.925781 134.457031 58.882812 134.449219 58.84375 134.441406 C 55.832031 133.984375 52.429688 134.328125 49.277344 134.066406 C 48.808594 134.027344 43.476562 133.699219 44 134.632812 Z M 44 134.632812 "/><path style=" stroke:none;fill-rule:nonzero;fill:#0d0c0d;fill-opacity:1;" d="M 16.894531 140.554688 C 18.699219 141.597656 20.640625 142.148438 22.722656 142.203125 C 23.003906 142.210938 23.453125 142.230469 23.945312 142.214844 C 25.070312 142.179688 26.414062 141.960938 26.453125 141.003906 C 26.488281 140.03125 24.5625 139.449219 23.84375 139.34375 C 21.410156 138.976562 18.519531 137.757812 16.054688 138.019531 C 13.550781 138.285156 16.046875 140.042969 16.894531 140.554688 Z M 16.894531 140.554688 "/><path style=" stroke:none;fill-rule:nonzero;fill:#0d0c0d;fill-opacity:1;" d="M 85.425781 144.46875 C 88.820312 145.441406 92.957031 143.960938 96.308594 143.386719 C 101.449219 142.5 106.601562 141.570312 111.554688 139.898438 C 113.402344 139.269531 114.894531 137.128906 112.132812 137.101562 C 110.144531 137.082031 108.117188 137.859375 106.179688 138.257812 C 103.753906 138.757812 101.308594 139.203125 98.894531 139.773438 C 97.660156 140.0625 96.425781 140.355469 95.183594 140.628906 C 93.289062 141.042969 91.394531 141.492188 89.464844 141.738281 C 88.082031 141.917969 86.648438 141.59375 85.253906 141.765625 C 83.824219 141.941406 83.382812 142.707031 83.792969 143.410156 C 84.203125 143.972656 84.746094 144.328125 85.425781 144.46875 Z M 84.835938 141.894531 L 84.832031 141.894531 Z M 84.835938 141.894531 "/><path style=" stroke:none;fill-rule:nonzero;fill:#0d0c0d;fill-opacity:1;" d="M 36.488281 145.335938 C 39.546875 146.589844 43.34375 145.976562 46.527344 146.160156 C 49.429688 146.324219 52.34375 146.394531 55.25 146.304688 C 57.769531 146.226562 61.125 146.40625 63.519531 145.566406 C 64.808594 145.113281 65.730469 142.425781 63.917969 141.988281 C 62.988281 141.765625 61.777344 142.046875 60.84375 142.1875 C 56.332031 142.828125 51.804688 143 47.257812 142.695312 C 44.898438 142.550781 42.542969 142.3125 40.203125 142 C 38.617188 141.789062 35.507812 141.105469 34.082031 142.011719 C 33.121094 142.625 33.507812 143.234375 34.292969 143.957031 C 34.941406 144.550781 35.671875 145.007812 36.488281 145.335938 Z M 36.488281 145.335938 "/><g clip-rule="nonzero" clip-path="url(#923c30ec9c)"><path style=" stroke:none;fill-rule:nonzero;fill:#0d0c0d;fill-opacity:1;" d="M 128.015625 145.535156 C 125.390625 138.273438 121.777344 131.339844 118.234375 124.449219 C 115.648438 119.429688 112.480469 114.710938 109.589844 109.851562 C 108.179688 107.480469 113.335938 104.832031 114.371094 103.246094 C 117.996094 97.683594 113.542969 92.183594 108.921875 89.074219 C 106.535156 87.472656 103.957031 86.289062 101.1875 85.527344 C 99.953125 85.1875 89.6875 82.625 89.257812 83.398438 C 91.222656 79.867188 92.921875 76.792969 94.636719 73.726562 C 101.175781 62.007812 108.21875 50.074219 115.039062 38.320312 C 118.984375 31.515625 131.597656 15.238281 119.613281 9.390625 C 117.851562 8.515625 116.054688 7.734375 114.214844 7.046875 C 112.476562 6.414062 110.671875 5.964844 108.882812 5.492188 C 108.066406 5.277344 106.976562 5.484375 106.414062 5.015625 C 102.761719 1.953125 98.847656 1.644531 94.511719 3.308594 C 93.476562 3.609375 92.496094 3.488281 91.566406 2.941406 C 88.5625 0.980469 85.199219 0.804688 81.992188 1.417969 C 80.308594 1.738281 78.835938 2.359375 77.144531 1.667969 C 73.046875 -0.00390625 69.042969 0.460938 65.070312 2.183594 C 64.464844 2.445312 63.847656 2.480469 63.214844 2.28125 C 59.316406 0.675781 55.496094 0.660156 51.648438 2.460938 C 51.007812 2.6875 50.375 2.671875 49.746094 2.410156 C 46.871094 1.25 44.214844 1.589844 41.507812 3.050781 C 40.582031 3.550781 39.296875 3.589844 38.195312 3.515625 C 35.925781 3.367188 33.242188 2.242188 31.578125 4.015625 C 29.644531 6.074219 27.554688 6.132812 25.242188 5.992188 C 23.058594 5.855469 21.742188 7 20.34375 8.464844 C 19.414062 9.421875 18.285156 9.957031 16.953125 10.066406 C 14.070312 10.101562 11.632812 11.671875 10.847656 14.386719 C 9.539062 18.914062 11.207031 22.894531 13.300781 26.644531 C 19.550781 37.84375 26.03125 48.910156 32.308594 60.097656 C 34.863281 64.652344 37.128906 69.371094 39.5 74.03125 C 41.046875 77.066406 42.542969 80.125 44.195312 83.4375 C 40.15625 84.183594 36.90625 84.640625 33.730469 85.410156 C 26.992188 87.039062 19.671875 87.8125 17.527344 96.40625 C 16.480469 100.597656 15.761719 102.585938 19.84375 105.480469 C 20.6875 106.078125 21.566406 106.625 22.375 107.269531 C 23.734375 108.351562 24.121094 109.351562 23.023438 111.15625 C 19.175781 117.480469 15.28125 123.8125 12.015625 130.441406 C 8.804688 137.019531 6.003906 143.765625 3.613281 150.683594 C 0.132812 160.621094 3.742188 172.515625 9.921875 180.632812 C 10.339844 181.175781 10.765625 181.710938 11.203125 182.238281 C 15.945312 187.972656 22.699219 190.035156 29.496094 191.636719 C 35.71875 193.050781 42.003906 194.125 48.34375 194.863281 C 54.71875 195.691406 61.125 196.195312 67.554688 196.375 C 72.414062 196.484375 77.285156 195.652344 82.164062 195.441406 C 89.875 195.109375 97.5 194.285156 104.972656 192.242188 C 110.226562 190.808594 115.671875 188.746094 119.667969 184.90625 C 125.726562 179.089844 131.277344 170.984375 131.113281 162.265625 C 130.988281 156.519531 129.953125 150.945312 128.015625 145.535156 Z M 68.679688 91.96875 C 68.90625 89.667969 69.15625 87.375 69.421875 85.082031 C 70.3125 77.300781 71.332031 69.527344 71.894531 61.710938 C 72.371094 54.925781 72.796875 48.125 73.796875 41.386719 C 74.273438 38.160156 77.074219 39.449219 78.929688 39.421875 C 80.890625 39.390625 80.371094 40.859375 80.128906 42.199219 C 78.664062 50.429688 77.304688 58.683594 75.882812 66.921875 C 75.042969 71.792969 74.199219 76.664062 73.347656 81.535156 C 72.921875 83.96875 72.492188 86.402344 72.058594 88.835938 C 71.875 89.871094 71.4375 96.878906 69.359375 96.226562 C 68.300781 95.894531 68.601562 92.796875 68.679688 91.96875 Z M 69.8125 40.867188 C 70.605469 40.800781 70.8125 43.253906 70.769531 46.371094 C 70.710938 50.554688 70.480469 54.734375 70.125 58.902344 C 70.027344 60.035156 69.800781 61.273438 69.566406 62.542969 C 69.273438 53.949219 67.410156 41.058594 69.8125 40.863281 Z M 73.332031 90.527344 C 75.132812 82.125 77.179688 73.769531 78.949219 65.363281 C 80.523438 57.859375 81.863281 50.308594 83.253906 42.769531 C 83.800781 39.808594 85.613281 38.253906 88.394531 38.957031 C 88.980469 39.105469 89.632812 40.789062 89.5 41.644531 C 87.917969 51.746094 83.445312 61.132812 80.285156 70.785156 C 78.941406 74.875 77.664062 78.984375 76.511719 83.132812 C 76.238281 84.128906 75.949219 85.117188 75.628906 86.097656 C 75.332031 87.003906 74.980469 87.894531 74.714844 88.8125 C 74.328125 90.148438 74.050781 91.515625 73.699219 92.859375 C 73.453125 92.054688 73.175781 91.246094 73.328125 90.527344 Z M 76.054688 90.808594 C 77.753906 85.316406 79.605469 79.863281 81.339844 74.382812 C 83.699219 67.984375 86.066406 61.589844 88.28125 55.144531 C 89.945312 50.292969 91.21875 45.304688 92.773438 40.414062 C 93.054688 39.523438 93.660156 38.460938 94.421875 38.054688 C 96.816406 36.785156 97.230469 39.140625 96.53125 40.894531 C 94.839844 45.136719 93.628906 49.65625 92.113281 53.980469 C 90.425781 58.792969 88.777344 63.613281 86.964844 68.378906 C 84.183594 75.6875 80.746094 82.496094 77.046875 89.363281 C 76.625 90.148438 76.199219 90.925781 75.78125 91.707031 C 75.871094 91.40625 75.960938 91.105469 76.054688 90.804688 Z M 78.242188 91.945312 C 78.683594 91.054688 79.082031 90.144531 79.476562 89.417969 C 80.515625 87.515625 81.519531 85.589844 82.484375 83.648438 C 84.414062 79.761719 86.191406 75.804688 87.816406 71.773438 C 91.058594 63.734375 93.789062 55.5625 97 47.507812 C 98.199219 44.492188 99.136719 39.527344 101.984375 37.648438 C 104.320312 36.109375 103.097656 39.902344 102.835938 40.753906 C 102.339844 42.359375 101.769531 43.945312 101.1875 45.519531 C 99.644531 49.691406 97.941406 53.804688 96.179688 57.886719 C 92.292969 66.898438 88.140625 75.839844 83.402344 84.4375 C 81.390625 88.085938 79.570312 91.566406 76.5625 94.535156 C 77.261719 93.761719 77.820312 92.898438 78.242188 91.945312 Z M 106.96875 42.191406 C 105.878906 44.574219 104.785156 46.953125 103.6875 49.328125 C 101.558594 53.933594 99.410156 58.53125 97.242188 63.121094 C 96.789062 64.082031 95.953125 64.859375 95.292969 65.722656 L 94.484375 65.316406 C 95.667969 62.222656 96.722656 59.078125 98.058594 56.054688 C 99.492188 52.808594 100.957031 49.574219 102.457031 46.355469 C 103.203125 44.75 105.007812 38.464844 106.96875 38.175781 C 109.589844 37.789062 107.34375 41.367188 106.96875 42.191406 Z M 116.925781 12.546875 C 118.15625 12.605469 120.121094 13.492188 120 14.972656 C 119.804688 17.390625 115.832031 21.882812 113.386719 22.066406 C 111.320312 22.21875 113.226562 18.007812 113.574219 17.109375 C 114.046875 15.882812 115.167969 12.464844 116.921875 12.546875 Z M 111.886719 9.421875 C 113.234375 10.519531 112.726562 12.972656 112.136719 14.265625 C 110.832031 17.113281 109.960938 21.027344 108.277344 23.605469 C 107.078125 25.449219 104.707031 26.054688 102.558594 26.519531 C 102.09375 26.617188 101.566406 26.707031 101.179688 26.429688 C 100.601562 26.019531 100.738281 25.140625 100.9375 24.460938 C 101.960938 20.964844 104.957031 3.785156 111.886719 9.421875 Z M 92.914062 9.976562 C 93.878906 6.628906 95.679688 5.457031 99.179688 5.480469 C 102.289062 5.5 103.535156 7.210938 102.648438 10.507812 C 101.40625 15.148438 99.972656 19.738281 98.601562 24.34375 C 97.5625 27.828125 94.609375 27.777344 91.410156 28.101562 C 91.050781 28.136719 90.144531 26.734375 90.191406 26.046875 C 90.394531 23.28125 90.738281 20.53125 91.222656 17.800781 C 91.640625 15.160156 92.207031 12.554688 92.914062 9.976562 Z M 78.515625 27.628906 C 79 20.882812 79.460938 14.136719 80.140625 7.410156 C 80.347656 5.332031 84.570312 3.789062 87.445312 4.449219 C 89.582031 4.941406 90.472656 6.503906 90.292969 8.953125 C 90.25 9.078125 90.207031 9.207031 90.171875 9.332031 C 88.429688 15.246094 88.320312 21.523438 86.863281 27.511719 C 86.734375 28.027344 85.835938 28.597656 85.21875 28.699219 C 83.675781 28.957031 82.058594 28.804688 80.535156 29.113281 C 79.117188 29.398438 78.417969 28.992188 78.515625 27.628906 Z M 68.519531 4.410156 C 70.898438 3.410156 73.402344 2.945312 75.539062 4.628906 C 76.375 5.285156 76.898438 6.914062 76.832031 8.054688 C 76.457031 14.351562 75.851562 20.636719 75.332031 26.925781 C 75.289062 27.441406 75.28125 27.957031 75.253906 28.5 C 73.601562 28.773438 72.242188 29.222656 70.898438 29.183594 C 67.40625 29.074219 66.972656 28.796875 66.433594 24.511719 C 65.816406 19.601562 65.640625 14.636719 65.285156 9.699219 C 65.097656 7.164062 66.1875 5.394531 68.519531 4.410156 Z M 58.011719 3.945312 C 61.34375 4.390625 62.886719 6.054688 63.167969 9.5 C 63.4375 12.789062 63.742188 16.078125 63.988281 19.371094 C 64.210938 22.269531 65.546875 27.648438 61.4375 28.390625 C 57.109375 29.171875 56.453125 24.066406 56 21.074219 C 55.386719 17.039062 54.121094 13.125 53.554688 9.074219 C 53.121094 5.984375 55.058594 3.546875 58.011719 3.945312 Z M 45.019531 5.050781 C 48.097656 4.144531 50.453125 5.316406 51.046875 8.394531 C 52.3125 14.957031 53.628906 21.582031 54.496094 28.207031 C 54.519531 28.402344 50.976562 27.453125 50.617188 27.277344 C 49.164062 26.5625 48.003906 25.527344 47.136719 24.164062 C 45.777344 22.148438 44.839844 19.71875 44.058594 17.433594 C 43.0625 14.523438 40.421875 6.402344 45.019531 5.050781 Z M 34.152344 6.367188 C 35.820312 4.824219 38.507812 5.996094 39.121094 7.996094 C 40.078125 11.105469 41.035156 14.21875 41.992188 17.328125 C 42.710938 19.675781 45.023438 23.898438 44.320312 26.367188 C 43.519531 29.171875 38.804688 26.347656 38.1875 24.742188 C 36.4375 20.199219 34.4375 15.75 32.542969 11.265625 C 31.660156 9.171875 32.84375 7.574219 34.152344 6.367188 Z M 24.144531 10.605469 C 25.273438 9.6875 26.554688 9.105469 27.988281 8.863281 C 28.871094 8.757812 29.269531 9.757812 29.550781 11.066406 C 30.203125 14.113281 31.894531 16.921875 33.046875 19.871094 C 33.789062 21.765625 34.320312 23.738281 34.980469 25.777344 C 29.847656 26.855469 28.640625 23.53125 27.28125 20.398438 C 26.222656 17.96875 25.101562 15.566406 24.164062 13.089844 C 23.875 12.332031 23.738281 10.921875 24.144531 10.605469 Z M 15.640625 15.074219 C 15.554688 12.882812 16.835938 12.074219 18.5625 13.46875 C 20.195312 14.789062 21.328125 16.753906 22.582031 18.503906 C 23.804688 20.1875 24.925781 21.933594 25.945312 23.746094 C 26.179688 24.171875 25.699219 24.992188 25.609375 25.359375 C 23.792969 24.125 22.253906 23.335938 21.042969 22.195312 C 18.851562 20.140625 15.777344 18.644531 15.640625 15.074219 Z M 20.359375 26.746094 L 20.34375 26.726562 C 22.503906 27.378906 24.640625 28.144531 26.84375 28.53125 C 32.949219 29.609375 39.070312 30.773438 45.234375 31.332031 C 52.789062 32.015625 60.394531 32.316406 67.980469 32.414062 C 75.097656 32.507812 82.265625 32.554688 89.324219 31.828125 C 93.375 31.347656 97.378906 30.636719 101.34375 29.691406 C 104.367188 29.011719 110.859375 25.863281 113.695312 27.308594 C 108.992188 33.238281 98.039062 34.171875 91.210938 35.542969 C 88.71875 35.980469 86.207031 36.179688 83.675781 36.140625 C 72.226562 36.214844 60.441406 36.429688 48.898438 35.527344 C 40.21875 34.851562 26.019531 34.75 20.359375 26.746094 Z M 53.691406 57.707031 C 55.210938 63.917969 56.738281 70.128906 58.277344 76.335938 C 59.070312 79.558594 60.039062 82.734375 60.8125 85.957031 C 61.136719 87.296875 63.207031 93.890625 61.777344 94.765625 C 60.1875 95.742188 58.914062 90.453125 58.527344 89.355469 C 57.105469 85.3125 55.601562 81.300781 54.214844 77.246094 C 51.878906 70.414062 49.589844 63.570312 47.351562 56.710938 C 45.636719 51.484375 44.070312 46.210938 42.300781 41.007812 C 41.621094 39.007812 42.574219 38.488281 44.183594 38.296875 C 47.855469 37.863281 49.203125 39.0625 50.394531 43.914062 C 51.519531 48.503906 52.5625 53.117188 53.6875 57.707031 Z M 53.121094 39.238281 C 53.753906 39.207031 54.867188 40.394531 55.046875 41.1875 C 56.109375 45.890625 56.984375 50.636719 57.878906 55.378906 C 58.695312 59.703125 59.492188 64.027344 60.222656 68.367188 C 60.90625 72.453125 61.5 76.550781 62.09375 80.652344 C 62.148438 81.027344 61.898438 81.445312 61.792969 81.847656 L 61.160156 82.128906 C 60.777344 81.339844 60.230469 80.585938 60.042969 79.753906 C 58.324219 72.117188 56.691406 64.464844 54.980469 56.832031 C 53.886719 51.957031 52.65625 47.113281 51.589844 42.234375 C 51.308594 40.941406 51.335938 39.324219 53.121094 39.238281 Z M 62.054688 69.496094 C 61.15625 63.199219 59.621094 56.996094 58.589844 50.71875 C 58.234375 48.644531 58.164062 46.5625 58.378906 44.46875 C 58.761719 41.558594 61.589844 37.894531 64.84375 39.871094 C 67.574219 41.53125 66.835938 45.824219 66.878906 48.492188 C 67.035156 58.097656 67.316406 67.707031 67.367188 77.3125 C 67.394531 82.644531 67.078125 87.980469 66.828125 93.3125 C 66.800781 93.828125 66.140625 94.316406 65.769531 94.820312 C 65.4375 94.28125 64.867188 93.769531 64.800781 93.203125 C 63.867188 85.300781 63.183594 77.363281 62.054688 69.496094 Z M 39.324219 64.042969 C 36.183594 57.664062 33.0625 51.273438 29.964844 44.878906 C 28.753906 42.371094 27.511719 40.03125 27.511719 37.164062 C 27.480469 36.71875 27.570312 36.300781 27.777344 35.90625 C 29.070312 33.878906 31.625 40.640625 32.0625 41.535156 C 33.476562 44.441406 34.855469 47.363281 36.222656 50.292969 C 40.007812 58.398438 43.734375 66.523438 47.503906 74.636719 C 47.601562 74.847656 47.890625 74.96875 48.089844 75.132812 L 48.492188 74.875 C 47.320312 72.039062 46.144531 69.203125 44.972656 66.367188 C 41.238281 57.324219 37.488281 48.285156 33.816406 39.214844 C 33.601562 38.6875 33.847656 37.503906 34.230469 37.300781 C 35.027344 36.878906 36.351562 36.476562 36.933594 36.859375 C 38.035156 37.613281 38.828125 38.609375 39.3125 39.851562 C 43.96875 52.699219 48.5625 65.566406 53.09375 78.457031 C 54.601562 82.726562 56.003906 87.035156 57.394531 91.347656 C 57.65625 92.285156 57.851562 93.238281 57.980469 94.207031 C 58.332031 96.1875 55.929688 94.128906 55.5625 93.578125 C 54.773438 92.410156 54.359375 91.027344 53.71875 89.785156 C 52.964844 88.324219 52.324219 86.773438 51.492188 85.355469 C 50.457031 83.589844 48.546875 82.320312 47.589844 80.53125 C 44.683594 75.113281 42.039062 69.558594 39.324219 64.042969 Z M 26.949219 92.867188 C 27.179688 92.507812 27.453125 92.1875 27.769531 91.898438 C 30.992188 88.914062 36.484375 89.097656 40.554688 88.546875 C 43.613281 88.132812 46.882812 86.960938 48.222656 90.449219 C 48.234375 90.480469 48.25 90.515625 48.261719 90.550781 C 48.40625 90.929688 48.546875 91.3125 48.6875 91.695312 C 49.253906 93.238281 49.84375 94.851562 50.953125 96.097656 C 52.148438 97.4375 53.875 98.21875 55.5625 98.722656 C 57.28125 99.183594 59.03125 99.480469 60.804688 99.613281 C 66.0625 100.167969 71.699219 100.789062 76.933594 99.710938 C 82.417969 98.578125 85.269531 95.234375 86.988281 90.15625 C 87.09375 89.835938 87.203125 89.519531 87.3125 89.199219 C 88.117188 86.957031 107.140625 91.078125 106.65625 95.171875 C 106.285156 98.277344 99.359375 99.003906 97.003906 99.59375 C 85.308594 102.523438 73.296875 104.597656 61.210938 104.632812 C 55.167969 104.679688 49.179688 104.121094 43.25 102.957031 C 39.492188 102.195312 35.671875 101.640625 32.082031 100.222656 C 29.175781 99.074219 25.007812 95.953125 26.949219 92.867188 Z M 22.539062 101.085938 C 22.476562 98.289062 26.199219 100.835938 27.128906 101.28125 C 33.996094 104.558594 41.332031 105.851562 48.816406 106.535156 L 49 106.554688 C 51.691406 106.925781 54.390625 107.214844 57.101562 107.421875 C 65.644531 108.328125 74.179688 108.285156 82.714844 107.296875 C 90.5 106.382812 99.832031 105.171875 106.785156 101.34375 C 107.632812 100.878906 109.847656 98.746094 111.125 98.925781 C 111.332031 98.953125 111.507812 99.042969 111.648438 99.199219 C 113.699219 101.414062 106.355469 104.832031 105.207031 105.269531 C 94.769531 109.257812 83.621094 111.261719 72.464844 111.554688 C 61.605469 111.839844 50.160156 111.269531 39.523438 108.988281 C 34.3125 107.875 28.046875 106.679688 23.855469 103.183594 C 23.199219 102.636719 22.558594 101.9375 22.539062 101.085938 Z M 125.039062 170.242188 C 121.574219 180.601562 113.46875 185.398438 103.476562 188.058594 C 96.414062 189.949219 89.230469 191.003906 81.925781 191.226562 C 77.148438 191.371094 72.371094 192.265625 67.609375 192.152344 C 61.015625 191.996094 54.417969 191.386719 47.859375 190.644531 C 42.191406 190.0625 36.578125 189.160156 31.011719 187.9375 C 24.8125 186.511719 18.855469 184.214844 14.273438 179.480469 C 7.539062 172.53125 5.058594 162.179688 7.113281 152.820312 C 8.070312 148.457031 9.84375 144.328125 11.789062 140.328125 C 15.816406 132.039062 20.246094 123.945312 24.554688 115.789062 C 25.046875 114.859375 25.851562 112.738281 26.726562 112.144531 C 27.882812 111.367188 30.132812 112.457031 31.285156 112.746094 C 33.394531 113.277344 35.519531 113.761719 37.652344 114.199219 C 43.730469 115.496094 49.878906 116.246094 56.097656 116.441406 C 58.894531 116.507812 61.691406 116.523438 64.488281 116.585938 C 67.300781 116.648438 70.117188 116.699219 72.929688 116.617188 C 79.058594 116.445312 85.132812 115.5 91.117188 114.203125 C 94.164062 113.542969 97.1875 112.789062 100.203125 112.007812 C 101.464844 111.679688 103.480469 110.691406 104.753906 110.773438 C 105.816406 110.84375 106.101562 111.917969 106.867188 112.824219 C 108.804688 115.128906 110.253906 117.886719 111.691406 120.570312 C 114.328125 125.492188 116.824219 130.496094 119.363281 135.472656 C 122.425781 141.46875 124.464844 147.800781 126.296875 154.292969 C 127.90625 159.988281 126.765625 165.09375 125.039062 170.242188 Z M 125.039062 170.242188 "/></g><path style=" stroke:none;fill-rule:nonzero;fill:#0d0c0d;fill-opacity:1;" d="M 116.347656 155.703125 C 104.144531 150.382812 91.269531 149.738281 78.523438 149.105469 C 57.539062 148.128906 35.882812 148.84375 16.117188 158.339844 C 12.238281 160.0625 10.777344 166.242188 12.457031 170.695312 C 16.375 181.371094 28.542969 184.539062 37.117188 186.34375 C 57.695312 190.679688 78.324219 191.023438 98.867188 186.324219 C 106.496094 184.578125 113.710938 181.839844 120 176.277344 C 124.542969 172.253906 126.234375 164.355469 122.933594 160.53125 C 121.09375 158.433594 118.898438 156.824219 116.347656 155.703125 Z M 119.800781 166.945312 C 119.046875 167.3125 118.332031 167.785156 117.554688 168.09375 C 114.3125 169.308594 111.011719 170.320312 107.644531 171.132812 C 104.296875 171.996094 100.921875 172.726562 97.523438 173.332031 C 90.675781 174.554688 83.78125 175.363281 76.839844 175.761719 C 69.964844 176.148438 63.089844 176.117188 56.21875 175.667969 C 49.289062 175.214844 42.410156 174.355469 35.582031 173.082031 C 32.191406 172.449219 28.824219 171.660156 25.484375 170.792969 C 22.160156 169.933594 18.742188 169.085938 15.574219 167.753906 C 15.421875 167.703125 15.308594 167.609375 15.230469 167.46875 C 15.15625 167.328125 15.136719 167.179688 15.179688 167.027344 C 15.222656 166.871094 15.3125 166.753906 15.449219 166.671875 C 15.585938 166.589844 15.734375 166.566406 15.890625 166.601562 C 16.730469 166.78125 17.554688 166.996094 18.382812 167.21875 C 25.007812 168.996094 31.675781 170.492188 38.445312 171.601562 C 45.152344 172.703125 51.898438 173.394531 58.6875 173.683594 C 65.535156 173.976562 72.375 173.871094 79.210938 173.371094 C 86.011719 172.878906 92.753906 171.976562 99.445312 170.671875 C 102.804688 170.011719 106.15625 169.3125 109.484375 168.5 C 111.148438 168.09375 112.8125 167.695312 114.472656 167.273438 C 115.300781 167.0625 116.125 166.839844 116.960938 166.644531 C 117.792969 166.449219 118.667969 166.421875 119.519531 166.269531 C 119.902344 166.207031 120.199219 166.753906 119.804688 166.945312 Z M 119.800781 166.945312 "/></g></svg>