<svg xmlns="http://www.w3.org/2000/svg" xmlns:xlink="http://www.w3.org/1999/xlink" width="313" zoomAndPan="magnify" viewBox="0 0 234.75 143.999998" height="192" preserveAspectRatio="xMidYMid meet" version="1.0"><defs><clipPath id="9fe466807f"><path d="M 224 93 L 233.75 93 L 233.75 99 L 224 99 Z M 224 93 " clip-rule="nonzero"/></clipPath><clipPath id="a893842d28"><path d="M 220 117 L 233.75 117 L 233.75 123 L 220 123 Z M 220 117 " clip-rule="nonzero"/></clipPath></defs><path fill="#000000" d="M 63.730469 33.285156 C 63.996094 37.328125 57.824219 38.75 56.777344 35.023438 C 56.59375 31.792969 62.074219 31.21875 63.730469 33.285156 " fill-opacity="1" fill-rule="evenodd"/><path fill="#000000" d="M 35.339844 39.074219 C 33.011719 42.351562 28.148438 43.085938 23.753906 44.289062 C 17.039062 38.601562 32.769531 33.558594 35.339844 39.074219 " fill-opacity="1" fill-rule="evenodd"/><path fill="#000000" d="M 46.925781 40.238281 C 48.269531 44.402344 41.6875 45.339844 38.8125 47.1875 C 37.375 46.308594 36.761719 44.609375 37.074219 41.976562 C 38.941406 40.347656 43.882812 38.753906 46.925781 40.238281 " fill-opacity="1" fill-rule="evenodd"/><path fill="#000000" d="M 19.117188 51.242188 C 16.761719 55.695312 11.671875 60.347656 5.210938 58.777344 C 5.210938 57.617188 5.210938 56.457031 5.210938 55.300781 C 9.527344 53.851562 14.25 50.273438 19.117188 51.242188 " fill-opacity="1" fill-rule="evenodd"/><path fill="#000000" d="M 57.355469 53.566406 C 53.707031 65.96875 46.347656 44.988281 57.355469 53.566406 " fill-opacity="1" fill-rule="evenodd"/><path fill="#000000" d="M 47.507812 57.042969 C 47.984375 59.066406 49.042969 60.523438 49.242188 62.832031 C 43.167969 71.152344 35.605469 52.691406 47.507812 57.042969 " fill-opacity="1" fill-rule="evenodd"/><path fill="#000000" d="M 205.101562 57.617188 C 205.441406 59.5 204.707031 60.316406 204.523438 61.667969 C 201.277344 62.871094 198.339844 61.644531 198.730469 57.617188 C 200.363281 56.054688 202.914062 56.800781 205.101562 57.617188 " fill-opacity="1" fill-rule="evenodd"/><path fill="#000000" d="M 37.074219 63.992188 C 34.910156 67.476562 30.617188 73.714844 24.328125 74.996094 C 24.003906 74.164062 23.429688 73.589844 22.589844 73.257812 C 21.117188 70.527344 24.226562 69.878906 23.171875 68.046875 C 22.753906 65.570312 17.507812 67.917969 16.21875 66.308594 C 14.941406 56.65625 30.570312 64.078125 37.074219 63.992188 " fill-opacity="1" fill-rule="evenodd"/><path fill="#000000" d="M 121.089844 68.046875 C 121.488281 73.074219 118.492188 74.722656 117.03125 77.898438 C 116.617188 75.148438 116.722656 67.941406 121.089844 68.046875 " fill-opacity="1" fill-rule="evenodd"/><path fill="#000000" d="M 213.210938 70.945312 C 212.628906 73.644531 209.652344 73.945312 206.261719 73.835938 C 205.742188 72.617188 204.5 72.128906 204.523438 70.359375 C 206.125 67.660156 212.429688 67.105469 213.210938 70.945312 " fill-opacity="1" fill-rule="evenodd"/><path fill="#000000" d="M 56.199219 76.734375 C 56.089844 80.875 53.96875 83.007812 49.824219 83.109375 C 46.199219 79.355469 51.851562 74.347656 56.199219 76.734375 " fill-opacity="1" fill-rule="evenodd"/><path fill="#000000" d="M 16.796875 80.210938 C 14.148438 85.007812 6.085938 87.125 0.574219 87.164062 C 0.667969 86.492188 0.445312 86.136719 -0.00390625 86.011719 C 1.101562 80.125 12.183594 78.808594 16.796875 80.210938 " fill-opacity="1" fill-rule="evenodd"/><path fill="#000000" d="M 35.917969 80.210938 C 33.6875 84.550781 27.058594 84.488281 23.753906 87.746094 C 23.925781 89.703125 26.320312 89.421875 26.648438 91.222656 C 24.976562 94.585938 19.746094 96.773438 16.21875 96.4375 C 13.699219 91.464844 19.625 90.277344 22.589844 88.902344 C 22.117188 87.058594 18.765625 88.09375 19.117188 85.425781 C 20.578125 80.082031 30.070312 77.398438 35.917969 80.210938 " fill-opacity="1" fill-rule="evenodd"/><path fill="#000000" d="M 218.425781 88.902344 C 216.058594 92.875 201.304688 95.664062 201.046875 88.324219 C 204.660156 85.351562 215.6875 84.886719 218.425781 88.902344 " fill-opacity="1" fill-rule="evenodd"/><path fill="#000000" d="M 67.207031 88.324219 C 68.019531 89.4375 68.738281 90.65625 68.945312 92.378906 C 67.421875 94.4375 62.992188 93.628906 62.570312 91.222656 C 62.230469 88.375 64.476562 88.109375 67.207031 88.324219 " fill-opacity="1" fill-rule="evenodd"/><g clip-path="url(#9fe466807f)"><path fill="#000000" d="M 233.492188 98.175781 C 231.855469 99.097656 227.023438 99.097656 225.378906 98.175781 C 225.472656 97.503906 225.253906 97.140625 224.800781 97.015625 C 225.074219 92.144531 233.894531 93.011719 233.492188 98.175781 " fill-opacity="1" fill-rule="evenodd"/></g><path fill="#000000" d="M 44.609375 98.75 C 44.066406 99.175781 43.730469 99.808594 43.449219 100.492188 C 39.863281 100.792969 38.125 99.25 37.65625 96.4375 C 39.183594 92.738281 44.992188 94.226562 44.609375 98.75 " fill-opacity="1" fill-rule="evenodd"/><path fill="#000000" d="M 65.46875 98.175781 C 65.101562 103.023438 58.703125 101.835938 56.199219 104.550781 C 56.730469 107.480469 56.675781 108.582031 55.035156 110.34375 C 49.335938 110.445312 49.363281 104.816406 45.191406 103.390625 C 46.953125 95.75 59.632812 99.785156 65.46875 98.175781 " fill-opacity="1" fill-rule="evenodd"/><path fill="#000000" d="M 218.425781 103.96875 C 218.335938 104.640625 218.554688 104.996094 219.007812 105.128906 C 216.398438 111.800781 210.53125 104.902344 205.679688 105.128906 C 203.320312 106.625 203.628906 110.796875 199.308594 110.339844 C 198.398438 106.34375 197.117188 103.132812 196.988281 99.914062 C 203.132812 100.449219 212.714844 99.289062 218.425781 103.96875 " fill-opacity="1" fill-rule="evenodd"/><path fill="#000000" d="M 88.644531 101.652344 C 88.453125 106.179688 83.058594 108.308594 78.792969 106.867188 C 78.101562 101.148438 83.460938 101.492188 88.644531 101.652344 " fill-opacity="1" fill-rule="evenodd"/><path fill="#000000" d="M 31.285156 106.289062 C 29.019531 109.09375 16.707031 112.761719 17.375 105.128906 C 20.042969 104.03125 28.96875 103.535156 31.285156 106.289062 " fill-opacity="1" fill-rule="evenodd"/><path fill="#000000" d="M 73.003906 108.605469 C 68.882812 113.890625 56.738281 121.082031 50.402344 116.71875 C 53.382812 110.230469 65.109375 112.488281 70.101562 108.027344 C 71.449219 107.835938 72.328125 108.117188 73.003906 108.605469 " fill-opacity="1" fill-rule="evenodd"/><path fill="#000000" d="M 38.8125 114.394531 C 38.800781 119.3125 28.953125 117.511719 27.808594 114.980469 C 27.808594 114.011719 27.808594 113.046875 27.808594 112.078125 C 31.589844 109.5 36.203125 112.394531 38.8125 114.394531 " fill-opacity="1" fill-rule="evenodd"/><path fill="#000000" d="M 181.925781 112.078125 C 182.824219 112.921875 182.4375 115.042969 182.503906 116.71875 C 187.914062 116.324219 195.199219 116.042969 195.253906 121.347656 C 193.703125 125.191406 188.414062 121.410156 186.5625 120.191406 C 183.183594 121.640625 181.550781 123.054688 181.925781 127.144531 C 178.390625 130.554688 171.78125 129.363281 170.917969 124.246094 C 170.96875 121.59375 174.25 122.171875 176.132812 121.347656 C 176.132812 120 176.132812 118.648438 176.132812 117.292969 C 163.84375 120.082031 158.324219 132.6875 143.6875 131.199219 C 141.492188 123.636719 154.082031 126.253906 158.75 123.667969 C 161.085938 114.746094 172.335938 111.832031 181.925781 112.078125 " fill-opacity="1" fill-rule="evenodd"/><path fill="#000000" d="M 206.84375 116.71875 C 206.855469 118.078125 205.84375 118.421875 206.261719 120.191406 C 208.648438 121.945312 212.25 119.417969 214.375 120.769531 C 214.808594 125.253906 210.230469 124.734375 207.421875 125.984375 C 207.960938 129.691406 215.976562 125.929688 215.53125 130.621094 C 211.957031 132.429688 204.34375 134.761719 202.207031 130.046875 C 204.625 125.636719 200.605469 120.898438 199.308594 116.71875 C 200.445312 113.113281 204.949219 114.984375 206.84375 116.71875 " fill-opacity="1" fill-rule="evenodd"/><path fill="#000000" d="M 108.34375 117.871094 C 108.023438 120.449219 105.628906 120.953125 102.546875 120.769531 C 102.050781 120.308594 102.203125 119.183594 101.390625 119.03125 C 100.574219 114.492188 107.789062 114.691406 108.34375 117.871094 " fill-opacity="1" fill-rule="evenodd"/><path fill="#000000" d="M 76.472656 117.871094 C 75.9375 121.539062 69.855469 123.308594 68.363281 119.609375 C 68.125 115.089844 74.503906 115.636719 76.472656 117.871094 " fill-opacity="1" fill-rule="evenodd"/><g clip-path="url(#a893842d28)"><path fill="#000000" d="M 233.492188 119.03125 C 231.769531 122.019531 222.988281 124.300781 220.167969 120.769531 C 220.472656 116.300781 231.726562 116.636719 233.492188 119.03125 " fill-opacity="1" fill-rule="evenodd"/></g><path fill="#000000" d="M 106.023438 123.671875 C 104.429688 128.132812 94.601562 128.441406 93.855469 123.085938 C 95.183594 118.429688 103.769531 122.042969 106.023438 123.671875 " fill-opacity="1" fill-rule="evenodd"/><path fill="#000000" d="M 97.332031 132.359375 C 94.132812 135.722656 89.632812 137.789062 83.429688 138.152344 C 83.179688 137.050781 82.179688 136.703125 82.273438 135.257812 C 82.207031 132.6875 85.488281 133.457031 86.324219 131.785156 C 84.976562 128.949219 81.265625 130.101562 81.691406 126.5625 C 82.386719 120.78125 94.546875 130.613281 97.332031 132.359375 " fill-opacity="1" fill-rule="evenodd"/><path fill="#000000" d="M 80.527344 128.300781 C 77.257812 133.03125 66.277344 135.300781 60.25 133.519531 C 60.058594 125.175781 74.121094 128.117188 80.527344 128.300781 " fill-opacity="1" fill-rule="evenodd"/><path fill="#000000" d="M 130.359375 133.519531 C 129.410156 138.992188 118.878906 137.804688 113.558594 136.996094 C 109.746094 128.132812 125.324219 131.933594 130.359375 133.519531 " fill-opacity="1" fill-rule="evenodd"/><path fill="#000000" d="M 167.441406 134.675781 C 165.027344 139 155.277344 143.445312 151.796875 138.152344 C 153.117188 132.800781 164.125 134.707031 167.441406 134.675781 " fill-opacity="1" fill-rule="evenodd"/><path fill="#000000" d="M 147.160156 112.082031 C 148.359375 111.734375 150.96875 112.792969 151.214844 111.503906 C 149.953125 111.191406 147.472656 110.101562 147.160156 112.082031 Z M 115.875 105.128906 C 118.507812 104.28125 118.292969 100.597656 118.195312 97.015625 C 116.648438 97.015625 115.101562 97.015625 113.554688 97.015625 C 113.339844 98.953125 112.496094 105.007812 115.875 105.128906 Z M 155.851562 106.867188 C 159.292969 105.664062 160.316406 98.976562 159.910156 95.855469 C 158.53125 99.203125 154.570312 102.757812 155.851562 106.867188 Z M 104.867188 92.964844 C 105.589844 94.75 105.34375 97.503906 107.761719 97.59375 C 108.734375 96.628906 108.222656 94.195312 108.34375 92.378906 C 106.910156 92.304688 105.550781 92.300781 104.867188 92.964844 Z M 180.1875 94.113281 C 186.808594 93.800781 180.378906 87.226562 180.1875 94.113281 Z M 177.289062 93.539062 C 177.660156 92.289062 179.460938 89.933594 177.289062 89.484375 C 177.292969 90.519531 175.734375 92.859375 177.289062 93.539062 Z M 65.46875 48.929688 C 64.941406 50.570312 64.648438 54.519531 66.625 55.300781 C 67.300781 53.832031 70.429688 49.351562 67.78125 48.34375 C 67.675781 49.207031 66.386719 48.882812 65.46875 48.929688 Z M 191.773438 58.78125 C 190.566406 52.644531 191.050781 44.820312 185.980469 42.550781 C 186.78125 49.09375 188.550781 54.664062 191.773438 58.78125 Z M 136.734375 43.128906 C 136.726562 39.660156 134.40625 38.507812 132.097656 37.339844 C 130.175781 39.742188 126.449219 37.808594 123.984375 37.339844 C 126.148438 41.03125 132.351562 43.570312 136.734375 43.128906 Z M 88.0625 72.683594 C 91.289062 66.636719 89.996094 56.070312 93.855469 50.664062 C 95.308594 50.570312 95.667969 51.554688 96.175781 52.402344 C 95.183594 57.785156 92.539062 61.511719 91.539062 66.886719 C 93.519531 69.253906 95.257812 69.617188 96.753906 68.625 C 94.199219 75.328125 94.738281 86.011719 98.492188 91.222656 C 98.269531 87.003906 96.746094 84.085938 97.332031 79.0625 C 102.609375 73.902344 99.039062 59.898438 106.023438 56.457031 C 104.640625 62.320312 103.078125 72.746094 101.390625 80.210938 C 103.632812 82.171875 104.3125 75.246094 106.601562 77.320312 C 105.59375 81.519531 103.214844 84.355469 103.707031 90.066406 C 108.066406 82.828125 109.777344 72.964844 111.816406 63.410156 C 113.234375 63.089844 113.050781 61.167969 115.292969 61.671875 C 114.757812 67.683594 105.386719 80.550781 113.554688 86.589844 C 114.65625 84.984375 113.808594 81.429688 115.875 80.796875 C 115.410156 85.480469 114.808594 86.554688 115.292969 91.800781 C 118.136719 90.976562 118.773438 87.941406 122.246094 87.746094 C 122.824219 84.074219 122.289062 79.292969 126.882812 79.636719 C 125.382812 87.148438 116.90625 100.058594 123.984375 106.867188 C 125.890625 104.328125 126.421875 100.421875 126.300781 95.855469 C 130.417969 93.601562 129.84375 86.652344 132.097656 82.535156 C 133.535156 82.445312 134.910156 82.421875 134.992188 83.6875 C 132.265625 91.035156 126.59375 100.957031 132.097656 108.605469 C 134.46875 100.152344 136.976562 91.851562 140.210938 84.273438 C 144.195312 89.003906 136.34375 95.453125 136.734375 102.230469 C 138.171875 102.980469 139.136719 100.53125 139.628906 102.230469 C 140.066406 105.851562 135.84375 106.265625 137.890625 109.765625 C 143.230469 109.476562 143.476562 102.734375 144.84375 98.75 C 146.496094 93.929688 148.207031 89.410156 150.640625 86.011719 C 151.789062 93.882812 144.335938 100.933594 148.320312 106.867188 C 154.175781 102.101562 153.359375 90.664062 158.746094 85.425781 C 161.363281 88.582031 156.4375 92.257812 156.429688 96.4375 C 159.648438 95.597656 159.238281 91.128906 161.648438 89.484375 C 170.855469 89.609375 159.945312 99.371094 164.542969 103.390625 C 173.269531 100.691406 169.820312 92.410156 172.074219 84.273438 C 169.34375 82.160156 168.890625 76.816406 165.703125 74.421875 C 164.015625 73.148438 161.207031 73.421875 159.328125 72.097656 C 153.722656 68.183594 153.65625 59.148438 149.476562 54.144531 C 147.9375 52.300781 140.796875 48.253906 136.734375 46.613281 C 118.828125 39.367188 97.222656 24.949219 77.632812 39.078125 C 77.179688 43.832031 74.980469 46.855469 74.160156 51.242188 C 79.710938 54 77.074219 64.9375 79.371094 70.945312 C 82.785156 69.722656 80.394531 62.695312 81.109375 58.78125 C 85.136719 57.394531 82.917969 49.769531 86.324219 47.765625 C 88.703125 53.269531 84.003906 59.910156 85.746094 66.308594 C 88.34375 66.585938 86.410156 62.335938 89.222656 62.832031 C 91.304688 65.921875 84.898438 70.371094 88.0625 72.683594 Z M 123.40625 37.339844 C 123.40625 36.175781 123.40625 35.023438 123.40625 33.863281 C 121.582031 32.964844 117.671875 31.125 115.292969 32.699219 C 118.53125 33.71875 119.714844 36.789062 123.40625 37.339844 Z M 81.691406 31.546875 C 84.890625 31.660156 86.273438 29.945312 89.800781 30.386719 C 90.003906 28.617188 93.9375 25.1875 91.539062 24.59375 C 88.925781 27.585938 84.148438 28.402344 81.691406 31.546875 Z M 97.914062 22.273438 C 101.46875 23.867188 106.636719 19.632812 104.285156 15.320312 C 100.164062 15.640625 99.976562 19.894531 97.914062 22.273438 Z M 117.03125 21.113281 C 120.375 18.546875 127.085938 19.191406 132.097656 21.113281 C 132.519531 23.929688 130.507812 26.488281 131.515625 28.070312 C 134.78125 28.242188 133.113281 23.480469 136.734375 24.011719 C 139.332031 23.921875 139.148438 26.613281 139.046875 29.226562 C 140.226562 29.660156 143.527344 24.761719 145.425781 28.648438 C 145.507812 32.789062 142.324219 33.660156 143.105469 38.496094 C 145.097656 38.242188 146.355469 38.726562 147.742188 39.078125 C 148.679688 37.121094 148.230469 33.765625 150.640625 33.285156 C 150.703125 34.375 152.554688 33.6875 152.378906 35.023438 C 151.15625 38.597656 147.265625 42.777344 150.640625 46.027344 C 154.660156 45.421875 153.4375 39.558594 155.851562 37.339844 C 157.292969 37.25 158.664062 37.234375 158.746094 38.496094 C 158.523438 42.136719 156.425781 43.898438 156.429688 47.765625 C 159.871094 46.574219 159.128906 41.191406 162.804688 40.238281 C 164.222656 44.972656 158.109375 50.664062 161.066406 55.300781 C 164.96875 54.375 163.589844 48.167969 168.019531 47.765625 C 169.84375 51.402344 163.128906 57.273438 168.019531 60.515625 C 169.839844 59.242188 169.128906 55.4375 172.074219 55.300781 C 173.804688 55.695312 174.019531 57.609375 173.816406 59.933594 C 175.601562 60.027344 177.089844 58.5625 178.449219 59.933594 C 179.789062 61.222656 178.25 62.191406 178.449219 63.992188 C 179.558594 65.003906 182.015625 64.671875 181.925781 66.886719 C 180.648438 72.429688 178.230469 78.289062 181.34375 83.6875 C 182.90625 81.195312 181.722656 75.953125 184.242188 74.421875 C 188.695312 77.242188 182.816406 81.382812 183.085938 85.425781 C 183.714844 87.308594 185.917969 87.613281 187.140625 88.902344 C 193.386719 86.777344 194.878906 76.992188 193.511719 70.359375 C 192.671875 66.269531 187.851562 61.957031 185.980469 57.621094 C 181.921875 48.183594 181.527344 42.625 175.550781 36.761719 C 171.050781 32.339844 162.730469 24.21875 158.171875 22.273438 C 151.761719 19.542969 144.441406 20.222656 140.789062 14.160156 C 132.152344 14.496094 124.574219 13.765625 116.453125 13.582031 C 116.113281 16.625 117.472656 17.972656 117.03125 21.113281 Z M 114.136719 8.945312 C 118.453125 8.609375 122.722656 11.019531 126.300781 9.53125 C 124.875 6.246094 116.394531 6.671875 114.136719 8.945312 Z M 182.503906 31.546875 C 186.996094 37.675781 191.378906 43.914062 195.832031 50.089844 C 191.148438 64.226562 206.871094 79.339844 197.570312 90.066406 C 193.492188 94.765625 186.230469 95.070312 183.664062 102.230469 C 186.578125 105 190.488281 101.402344 193.511719 102.804688 C 191.617188 108.269531 183.445312 109.839844 176.710938 108.605469 C 166.371094 111.976562 158.203125 117.519531 147.160156 120.195312 C 146.359375 120.9375 146.585938 122.707031 146.582031 124.246094 C 140.445312 125.792969 121.933594 129.203125 121.089844 120.195312 C 126.183594 117.0625 134.597656 121.597656 141.367188 120.195312 C 134.925781 114.277344 122.730469 114.109375 113.554688 110.917969 C 103.097656 104.769531 90.777344 100.484375 83.429688 91.222656 C 68.554688 89.679688 68.246094 73.574219 59.09375 66.308594 C 58.8125 64.484375 60.136719 64.265625 59.671875 62.257812 C 55.214844 47.917969 64.585938 38.492188 71.839844 32.125 C 71.585938 29.480469 67.566406 30.605469 68.363281 26.910156 C 70.378906 25.835938 72.636719 25.003906 75.898438 25.171875 C 78.863281 22.480469 82.195312 20.664062 86.324219 20.535156 C 94.964844 10.15625 116.140625 0.0976562 133.257812 8.945312 C 135.265625 9.410156 135.480469 8.085938 137.3125 8.367188 C 145.730469 12.5 157.277344 13.511719 162.222656 21.113281 C 170.992188 22.199219 173.796875 29.242188 180.1875 32.699219 C 182.0625 33.421875 180.628906 30.828125 182.503906 31.546875 " fill-opacity="1" fill-rule="evenodd"/></svg>