<svg xmlns="http://www.w3.org/2000/svg" xmlns:xlink="http://www.w3.org/1999/xlink" width="200" zoomAndPan="magnify" viewBox="0 0 150 47.25" height="63" preserveAspectRatio="xMidYMid meet" version="1.0"><defs><clipPath id="43edd54573"><path d="M 1.171875 9.117188 L 30 9.117188 L 30 37 L 1.171875 37 Z M 1.171875 9.117188 " clip-rule="nonzero"/></clipPath><clipPath id="4cdf347540"><path d="M 31 9.117188 L 60 9.117188 L 60 37 L 31 37 Z M 31 9.117188 " clip-rule="nonzero"/></clipPath><clipPath id="1a91fcc9be"><path d="M 61 9.117188 L 89 9.117188 L 89 37 L 61 37 Z M 61 9.117188 " clip-rule="nonzero"/></clipPath><clipPath id="0fd18a5aef"><path d="M 90 9.117188 L 119 9.117188 L 119 37 L 90 37 Z M 90 9.117188 " clip-rule="nonzero"/></clipPath><clipPath id="488e9308ed"><path d="M 120 9.117188 L 148.828125 9.117188 L 148.828125 37 L 120 37 Z M 120 9.117188 " clip-rule="nonzero"/></clipPath><clipPath id="10d99d6ed2"><path d="M 120 9.117188 L 135 9.117188 L 135 37 L 120 37 Z M 120 9.117188 " clip-rule="nonzero"/></clipPath><clipPath id="bf11fb9412"><path d="M 1.171875 9.117188 L 29 9.117188 L 29 35 L 1.171875 35 Z M 1.171875 9.117188 " clip-rule="nonzero"/></clipPath><clipPath id="d5a3350c4b"><path d="M 31 9.117188 L 59 9.117188 L 59 35 L 31 35 Z M 31 9.117188 " clip-rule="nonzero"/></clipPath><clipPath id="3307212df3"><path d="M 61 9.117188 L 88 9.117188 L 88 35 L 61 35 Z M 61 9.117188 " clip-rule="nonzero"/></clipPath><clipPath id="7baa6a6ff4"><path d="M 90 9.117188 L 118 9.117188 L 118 35 L 90 35 Z M 90 9.117188 " clip-rule="nonzero"/></clipPath><clipPath id="e130af5a72"><path d="M 120 9.117188 L 135 9.117188 L 135 35 L 120 35 Z M 120 9.117188 " clip-rule="nonzero"/></clipPath></defs><g clip-path="url(#43edd54573)"><path fill="#ffce00" d="M 24.542969 25.976562 C 24.074219 26.433594 23.859375 27.089844 23.96875 27.738281 L 25.023438 33.894531 C 25.304688 35.519531 23.59375 36.757812 22.136719 35.988281 L 16.609375 33.082031 C 16.027344 32.777344 15.332031 32.777344 14.753906 33.082031 L 9.226562 35.988281 C 7.910156 36.683594 6.394531 35.75 6.3125 34.367188 C 6.300781 34.214844 6.308594 34.054688 6.335938 33.894531 L 7.394531 27.738281 C 7.5 27.089844 7.285156 26.433594 6.820312 25.976562 L 2.347656 21.613281 C 1.164062 20.460938 1.816406 18.457031 3.453125 18.21875 L 9.632812 17.320312 C 10.277344 17.226562 10.839844 16.820312 11.128906 16.230469 L 13.894531 10.628906 C 14.625 9.148438 16.734375 9.148438 17.464844 10.628906 L 20.230469 16.230469 C 20.519531 16.816406 21.078125 17.226562 21.726562 17.320312 L 27.910156 18.21875 C 28.066406 18.242188 28.214844 18.28125 28.351562 18.332031 C 29.652344 18.832031 30.082031 20.570312 29.011719 21.613281 Z M 24.542969 25.976562 " fill-opacity="1" fill-rule="nonzero"/></g><g clip-path="url(#4cdf347540)"><path fill="#ffce00" d="M 54.230469 25.976562 C 53.757812 26.433594 53.542969 27.089844 53.65625 27.738281 L 54.710938 33.894531 C 54.992188 35.519531 53.28125 36.757812 51.820312 35.988281 L 46.292969 33.082031 C 45.714844 32.777344 45.019531 32.777344 44.4375 33.082031 L 38.910156 35.988281 C 37.597656 36.683594 36.082031 35.75 36 34.367188 C 35.984375 34.214844 35.996094 34.054688 36.023438 33.894531 L 37.078125 27.738281 C 37.1875 27.089844 36.972656 26.433594 36.503906 25.976562 L 32.035156 21.613281 C 30.847656 20.460938 31.503906 18.457031 33.136719 18.21875 L 39.316406 17.320312 C 39.964844 17.226562 40.523438 16.820312 40.8125 16.230469 L 43.582031 10.628906 C 44.3125 9.148438 46.417969 9.148438 47.152344 10.628906 L 49.914062 16.230469 C 50.207031 16.816406 50.765625 17.226562 51.414062 17.320312 L 57.59375 18.21875 C 57.75 18.242188 57.898438 18.28125 58.035156 18.332031 C 59.339844 18.832031 59.769531 20.570312 58.699219 21.613281 Z M 54.230469 25.976562 " fill-opacity="1" fill-rule="nonzero"/></g><g clip-path="url(#1a91fcc9be)"><path fill="#ffce00" d="M 83.914062 25.976562 C 83.441406 26.433594 83.226562 27.089844 83.339844 27.738281 L 84.394531 33.894531 C 84.675781 35.519531 82.964844 36.757812 81.503906 35.988281 L 75.980469 33.082031 C 75.398438 32.777344 74.703125 32.777344 74.121094 33.082031 L 68.597656 35.988281 C 67.28125 36.683594 65.765625 35.75 65.683594 34.367188 C 65.667969 34.214844 65.679688 34.054688 65.707031 33.894531 L 66.761719 27.738281 C 66.871094 27.089844 66.65625 26.433594 66.1875 25.976562 L 61.71875 21.613281 C 60.53125 20.460938 61.1875 18.457031 62.820312 18.21875 L 69 17.320312 C 69.648438 17.226562 70.207031 16.820312 70.496094 16.230469 L 73.265625 10.628906 C 73.996094 9.148438 76.101562 9.148438 76.835938 10.628906 L 79.601562 16.230469 C 79.890625 16.816406 80.449219 17.226562 81.097656 17.320312 L 87.277344 18.21875 C 87.433594 18.242188 87.582031 18.28125 87.71875 18.332031 C 89.023438 18.832031 89.453125 20.570312 88.382812 21.613281 Z M 83.914062 25.976562 " fill-opacity="1" fill-rule="nonzero"/></g><g clip-path="url(#0fd18a5aef)"><path fill="#ffce00" d="M 113.597656 25.976562 C 113.128906 26.433594 112.914062 27.089844 113.027344 27.738281 L 114.082031 33.894531 C 114.363281 35.519531 112.652344 36.757812 111.191406 35.988281 L 105.664062 33.082031 C 105.082031 32.777344 104.390625 32.777344 103.808594 33.082031 L 98.28125 35.988281 C 96.96875 36.683594 95.449219 35.75 95.367188 34.367188 C 95.355469 34.214844 95.367188 34.054688 95.390625 33.894531 L 96.449219 27.738281 C 96.558594 27.089844 96.34375 26.433594 95.875 25.976562 L 91.402344 21.613281 C 90.21875 20.460938 90.875 18.457031 92.507812 18.21875 L 98.6875 17.320312 C 99.335938 17.226562 99.894531 16.820312 100.183594 16.230469 L 102.949219 10.628906 C 103.679688 9.148438 105.789062 9.148438 106.523438 10.628906 L 109.285156 16.230469 C 109.574219 16.816406 110.132812 17.226562 110.78125 17.320312 L 116.964844 18.21875 C 117.121094 18.242188 117.269531 18.28125 117.40625 18.332031 C 118.710938 18.832031 119.140625 20.570312 118.066406 21.613281 Z M 113.597656 25.976562 " fill-opacity="1" fill-rule="nonzero"/></g><g clip-path="url(#488e9308ed)"><path fill="#ffce00" d="M 134.421875 10.882812 C 134.539062 10.882812 134.828125 10.917969 134.984375 11.234375 L 137.746094 16.835938 C 138.234375 17.824219 139.179688 18.511719 140.273438 18.671875 L 146.445312 19.566406 C 146.515625 19.578125 146.5625 19.59375 146.585938 19.601562 C 146.59375 19.601562 146.597656 19.605469 146.605469 19.609375 C 146.796875 19.679688 146.9375 19.851562 146.980469 20.066406 C 147.011719 20.21875 147.007812 20.4375 146.800781 20.636719 L 142.332031 24.996094 C 141.539062 25.769531 141.175781 26.882812 141.367188 27.96875 L 142.421875 34.125 C 142.453125 34.316406 142.410156 34.484375 142.289062 34.625 C 142.167969 34.773438 141.984375 34.859375 141.804688 34.859375 C 141.707031 34.859375 141.609375 34.835938 141.511719 34.785156 L 135.980469 31.875 C 135.503906 31.625 134.964844 31.492188 134.421875 31.492188 C 133.878906 31.492188 133.339844 31.625 132.859375 31.878906 L 127.328125 34.785156 C 127.234375 34.835938 127.136719 34.863281 127.039062 34.863281 C 126.753906 34.863281 126.4375 34.632812 126.414062 34.289062 C 126.414062 34.273438 126.414062 34.261719 126.410156 34.246094 C 126.410156 34.234375 126.410156 34.195312 126.421875 34.125 L 127.480469 27.964844 C 127.660156 26.878906 127.300781 25.769531 126.511719 25 L 122.039062 20.636719 C 121.796875 20.402344 121.835938 20.136719 121.878906 19.996094 C 121.914062 19.886719 122.039062 19.617188 122.386719 19.566406 L 128.566406 18.671875 C 129.65625 18.507812 130.601562 17.824219 131.089844 16.835938 L 133.855469 11.234375 C 134.007812 10.929688 134.277344 10.882812 134.421875 10.882812 M 134.421875 9.519531 C 133.710938 9.519531 133.003906 9.890625 132.636719 10.628906 L 129.871094 16.230469 C 129.578125 16.816406 129.019531 17.226562 128.371094 17.320312 L 122.195312 18.21875 C 120.558594 18.457031 119.902344 20.460938 121.089844 21.613281 L 125.5625 25.976562 C 126.027344 26.433594 126.242188 27.089844 126.132812 27.738281 L 125.078125 33.894531 C 125.050781 34.054688 125.039062 34.214844 125.054688 34.367188 C 125.117188 35.425781 126.027344 36.222656 127.039062 36.222656 C 127.347656 36.222656 127.664062 36.152344 127.96875 35.988281 L 133.496094 33.082031 C 133.785156 32.933594 134.105469 32.855469 134.421875 32.855469 C 134.742188 32.855469 135.0625 32.933594 135.351562 33.082031 L 140.878906 35.988281 C 141.183594 36.148438 141.5 36.222656 141.804688 36.222656 C 142.964844 36.222656 143.988281 35.179688 143.765625 33.890625 L 142.710938 27.738281 C 142.601562 27.089844 142.816406 26.429688 143.285156 25.972656 L 147.753906 21.613281 C 148.824219 20.570312 148.394531 18.832031 147.089844 18.332031 C 146.953125 18.277344 146.808594 18.238281 146.652344 18.214844 L 140.46875 17.320312 C 139.820312 17.222656 139.261719 16.816406 138.972656 16.230469 L 136.207031 10.628906 C 135.839844 9.890625 135.128906 9.519531 134.421875 9.519531 Z M 134.421875 9.519531 " fill-opacity="1" fill-rule="nonzero"/></g><g clip-path="url(#10d99d6ed2)"><path fill="#ffce00" d="M 134.421875 9.515625 L 134.421875 32.855469 C 134.101562 32.855469 133.785156 32.933594 133.496094 33.085938 L 127.96875 35.992188 C 126.652344 36.683594 125.136719 35.75 125.054688 34.367188 C 125.039062 34.214844 125.050781 34.058594 125.078125 33.894531 L 126.132812 27.742188 C 126.242188 27.09375 126.027344 26.433594 125.5625 25.976562 L 121.089844 21.617188 C 119.902344 20.464844 120.558594 18.457031 122.195312 18.21875 L 128.371094 17.324219 C 129.019531 17.226562 129.578125 16.820312 129.871094 16.234375 L 132.636719 10.632812 C 133.003906 9.886719 133.710938 9.515625 134.421875 9.515625 Z M 134.421875 9.515625 " fill-opacity="1" fill-rule="nonzero"/></g><g clip-path="url(#bf11fb9412)"><path fill="#ffce00" d="M 28.351562 18.332031 C 23.457031 26.234375 15.59375 32.101562 6.3125 34.367188 C 6.300781 34.214844 6.308594 34.054688 6.335938 33.894531 L 7.394531 27.738281 C 7.5 27.089844 7.285156 26.433594 6.820312 25.976562 L 2.347656 21.613281 C 1.164062 20.460938 1.816406 18.457031 3.453125 18.21875 L 9.632812 17.320312 C 10.277344 17.226562 10.839844 16.820312 11.128906 16.230469 L 13.894531 10.628906 C 14.625 9.148438 16.734375 9.148438 17.464844 10.628906 L 20.230469 16.230469 C 20.519531 16.816406 21.078125 17.226562 21.726562 17.320312 L 27.910156 18.21875 C 28.070312 18.242188 28.214844 18.28125 28.351562 18.332031 Z M 28.351562 18.332031 " fill-opacity="1" fill-rule="nonzero"/></g><g clip-path="url(#d5a3350c4b)"><path fill="#ffce00" d="M 58.039062 18.332031 C 53.144531 26.234375 45.277344 32.101562 36 34.367188 C 35.984375 34.214844 35.996094 34.054688 36.023438 33.894531 L 37.078125 27.738281 C 37.1875 27.089844 36.972656 26.433594 36.503906 25.976562 L 32.035156 21.613281 C 30.847656 20.460938 31.503906 18.457031 33.136719 18.21875 L 39.316406 17.320312 C 39.964844 17.226562 40.523438 16.820312 40.8125 16.230469 L 43.582031 10.628906 C 44.3125 9.148438 46.417969 9.148438 47.152344 10.628906 L 49.914062 16.230469 C 50.207031 16.816406 50.765625 17.226562 51.414062 17.320312 L 57.59375 18.21875 C 57.753906 18.242188 57.902344 18.28125 58.039062 18.332031 Z M 58.039062 18.332031 " fill-opacity="1" fill-rule="nonzero"/></g><g clip-path="url(#3307212df3)"><path fill="#ffce00" d="M 87.722656 18.332031 C 82.828125 26.234375 74.960938 32.101562 65.683594 34.367188 C 65.667969 34.214844 65.679688 34.054688 65.707031 33.894531 L 66.761719 27.738281 C 66.871094 27.089844 66.65625 26.433594 66.1875 25.976562 L 61.71875 21.613281 C 60.53125 20.460938 61.1875 18.457031 62.820312 18.21875 L 69 17.320312 C 69.648438 17.226562 70.207031 16.820312 70.496094 16.230469 L 73.265625 10.628906 C 73.996094 9.148438 76.101562 9.148438 76.835938 10.628906 L 79.601562 16.230469 C 79.890625 16.816406 80.449219 17.226562 81.097656 17.320312 L 87.277344 18.21875 C 87.4375 18.242188 87.585938 18.28125 87.722656 18.332031 Z M 87.722656 18.332031 " fill-opacity="1" fill-rule="nonzero"/></g><g clip-path="url(#7baa6a6ff4)"><path fill="#ffce00" d="M 117.40625 18.332031 C 112.511719 26.234375 104.648438 32.101562 95.367188 34.367188 C 95.351562 34.214844 95.363281 34.054688 95.390625 33.894531 L 96.445312 27.738281 C 96.554688 27.089844 96.339844 26.433594 95.875 25.976562 L 91.402344 21.613281 C 90.214844 20.460938 90.871094 18.457031 92.507812 18.21875 L 98.683594 17.320312 C 99.332031 17.226562 99.890625 16.820312 100.183594 16.230469 L 102.949219 10.628906 C 103.679688 9.148438 105.785156 9.148438 106.519531 10.628906 L 109.285156 16.230469 C 109.574219 16.816406 110.132812 17.226562 110.78125 17.320312 L 116.964844 18.21875 C 117.125 18.242188 117.269531 18.28125 117.40625 18.332031 Z M 117.40625 18.332031 " fill-opacity="1" fill-rule="nonzero"/></g><g clip-path="url(#e130af5a72)"><path fill="#ffce00" d="M 134.421875 9.515625 L 134.421875 30.605469 C 131.527344 32.277344 128.382812 33.554688 125.054688 34.367188 C 125.039062 34.214844 125.050781 34.054688 125.074219 33.894531 L 126.132812 27.738281 C 126.242188 27.089844 126.027344 26.433594 125.558594 25.976562 L 121.085938 21.613281 C 119.902344 20.460938 120.558594 18.457031 122.191406 18.21875 L 128.371094 17.320312 C 129.019531 17.226562 129.578125 16.820312 129.867188 16.230469 L 132.632812 10.628906 C 133.003906 9.886719 133.710938 9.515625 134.421875 9.515625 Z M 134.421875 9.515625 " fill-opacity="1" fill-rule="nonzero"/></g></svg>