<svg xmlns="http://www.w3.org/2000/svg" xmlns:xlink="http://www.w3.org/1999/xlink" width="164" zoomAndPan="magnify" viewBox="0 0 123 218.249992" height="291" preserveAspectRatio="xMidYMid meet" version="1.2"><defs><clipPath id="c49132f8f6"><path d="M 1 0 L 122.789062 0 L 122.789062 217.503906 L 1 217.503906 Z M 1 0 "/></clipPath></defs><g id="47ea5ac858"><g clip-rule="nonzero" clip-path="url(#c49132f8f6)"><path style=" stroke:none;fill-rule:nonzero;fill:#000000;fill-opacity:1;" d="M 22.238281 12.734375 C 22.457031 12.707031 22.664062 12.648438 22.867188 12.566406 C 23.046875 12.5 23.226562 12.472656 23.40625 12.417969 C 23.554688 12.375 23.613281 12.570312 23.503906 12.648438 C 23.316406 12.800781 23.117188 12.925781 22.898438 13.027344 C 22.683594 13.105469 22.464844 13.140625 22.238281 13.128906 C 22.113281 13.121094 22.050781 13.054688 22.050781 12.929688 C 22.050781 12.804688 22.113281 12.738281 22.238281 12.734375 Z M 26.027344 11.558594 C 35.253906 9.855469 44.53125 8.410156 53.9375 8.421875 C 58.695312 8.453125 63.433594 8.753906 68.160156 9.316406 C 70.53125 9.546875 72.878906 9.941406 75.199219 10.496094 C 77.375 11.054688 79.308594 11.558594 81.5625 11.402344 C 81.78125 11.390625 81.867188 11.03125 81.621094 10.992188 C 77.355469 10.359375 73.285156 8.980469 68.984375 8.449219 C 63.988281 7.824219 58.976562 7.511719 53.941406 7.511719 C 44.460938 7.550781 35.152344 9.101562 25.957031 11.300781 C 25.785156 11.339844 25.859375 11.589844 26.027344 11.558594 Z M 67.285156 19.105469 C 69.832031 19.613281 72.476562 19.648438 75.042969 20.113281 C 77.71875 20.597656 80.164062 21.722656 82.773438 22.417969 C 82.964844 22.46875 83.097656 22.402344 83.175781 22.222656 C 83.253906 22.042969 83.210938 21.898438 83.042969 21.792969 C 80.839844 20.140625 77.964844 19.632812 75.304688 19.183594 C 72.753906 18.753906 69.847656 18.445312 67.289062 18.894531 C 67.238281 18.910156 67.210938 18.945312 67.210938 19 C 67.210938 19.054688 67.234375 19.089844 67.285156 19.105469 Z M 83.664062 46.042969 C 83.71875 45.816406 83.761719 45.585938 83.789062 45.351562 C 83.796875 45.082031 83.773438 44.816406 83.71875 44.554688 C 83.691406 44.457031 83.625 44.40625 83.523438 44.40625 C 83.421875 44.40625 83.355469 44.453125 83.324219 44.550781 C 83.28125 44.785156 83.253906 45.023438 83.242188 45.257812 C 83.25 45.527344 83.289062 45.785156 83.359375 46.042969 C 83.382812 46.117188 83.433594 46.15625 83.511719 46.15625 C 83.589844 46.15625 83.640625 46.121094 83.664062 46.042969 Z M 80.6875 155.214844 C 81.789062 155.417969 84.21875 155.398438 84.277344 153.796875 C 84.273438 153.625 84.1875 153.535156 84.011719 153.53125 C 83.546875 153.554688 83.117188 153.699219 82.734375 153.964844 C 82.128906 154.273438 81.488281 154.390625 80.8125 154.316406 C 80.300781 154.265625 80.183594 155.117188 80.6875 155.214844 Z M 24.890625 45.460938 C 24.882812 45.457031 24.875 45.457031 24.863281 45.457031 C 24.835938 45.453125 24.808594 45.449219 24.78125 45.457031 C 24.761719 45.457031 24.75 45.460938 24.734375 45.46875 C 24.722656 45.46875 24.714844 45.472656 24.703125 45.476562 C 24.699219 45.480469 24.699219 45.484375 24.695312 45.488281 C 24.664062 45.503906 24.640625 45.527344 24.625 45.558594 L 24.621094 45.570312 C 24.613281 45.585938 24.597656 45.59375 24.59375 45.613281 C 24.492188 46.019531 24.445312 46.429688 24.449219 46.847656 C 24.457031 46.917969 24.480469 46.984375 24.515625 47.046875 C 24.535156 47.148438 24.570312 47.238281 24.628906 47.324219 C 24.667969 47.394531 24.730469 47.425781 24.8125 47.429688 C 24.890625 47.429688 24.953125 47.394531 24.996094 47.328125 C 25.050781 47.242188 25.089844 47.152344 25.109375 47.050781 C 25.148438 46.992188 25.171875 46.925781 25.179688 46.851562 C 25.1875 46.433594 25.144531 46.023438 25.050781 45.617188 C 25.03125 45.527344 24.980469 45.476562 24.890625 45.460938 Z M 62.175781 195.933594 C 56.796875 195.738281 51.734375 196.671875 46.453125 195.046875 C 46.367188 195.023438 46.304688 195.054688 46.269531 195.136719 C 46.234375 195.21875 46.253906 195.28125 46.332031 195.332031 C 50.828125 198.066406 57.300781 197.609375 62.269531 196.640625 C 62.683594 196.5625 62.570312 195.949219 62.175781 195.933594 Z M 87.640625 13.753906 C 87.882812 13.777344 87.976562 13.492188 87.898438 13.3125 C 87.777344 13.085938 87.621094 12.886719 87.429688 12.71875 C 87.234375 12.546875 87.019531 12.417969 86.777344 12.328125 C 86.539062 12.238281 86.289062 12.191406 86.03125 12.191406 C 85.777344 12.191406 85.527344 12.238281 85.289062 12.328125 C 85.214844 12.371094 85.171875 12.4375 85.160156 12.519531 C 85.148438 12.605469 85.171875 12.675781 85.230469 12.738281 C 85.910156 13.363281 86.714844 13.703125 87.640625 13.753906 Z M 13.539062 152.984375 C 18.453125 155.734375 24.769531 155.808594 30.253906 156.351562 C 30.441406 156.371094 30.460938 156.089844 30.296875 156.035156 C 24.917969 154.191406 19.082031 154.484375 13.6875 152.636719 C 13.582031 152.609375 13.507812 152.648438 13.464844 152.746094 C 13.421875 152.847656 13.445312 152.925781 13.539062 152.984375 Z M 55.785156 159.277344 C 59.3125 159.210938 62.820312 158.902344 66.304688 158.363281 C 69.851562 157.8125 73.847656 157.484375 77.105469 155.90625 C 77.277344 155.820312 77.1875 155.5625 77.011719 155.558594 C 73.789062 155.5 70.382812 156.308594 67.226562 156.886719 C 63.683594 157.503906 60.113281 157.867188 56.515625 157.976562 C 49.574219 158.203125 42.710938 157.59375 35.917969 156.15625 C 35.785156 156.128906 35.679688 156.324219 35.820312 156.386719 C 41.953125 159.050781 49.183594 159.398438 55.785156 159.277344 Z M 88.160156 113.003906 C 89.007812 108.703125 88.726562 103.675781 87.949219 99.375 C 87.910156 99.148438 87.558594 99.207031 87.554688 99.425781 C 87.433594 103.953125 87.574219 108.46875 87.972656 112.976562 C 87.984375 113.078125 88.136719 113.117188 88.160156 113.003906 Z M 19.5 113.929688 C 19.769531 111.703125 19.460938 109.421875 19.410156 107.179688 C 19.351562 104.648438 19.460938 102.113281 19.300781 99.585938 C 19.296875 99.445312 19.222656 99.375 19.085938 99.371094 C 18.945312 99.371094 18.871094 99.441406 18.863281 99.582031 C 18.660156 102.105469 18.632812 104.644531 18.617188 107.175781 C 18.601562 109.445312 18.519531 111.796875 19.28125 113.957031 C 19.296875 114.019531 19.339844 114.046875 19.402344 114.039062 C 19.464844 114.03125 19.5 113.996094 19.5 113.929688 Z M 43.402344 18.121094 C 40.707031 17.507812 37.605469 18.203125 34.921875 18.667969 C 31.859375 19.1875 28.917969 20.09375 26.097656 21.386719 C 25.929688 21.460938 26.050781 21.75 26.21875 21.679688 C 28.835938 20.632812 31.539062 19.890625 34.328125 19.445312 C 37.289062 18.945312 40.527344 19.238281 43.398438 18.375 C 43.460938 18.355469 43.492188 18.3125 43.492188 18.25 C 43.496094 18.183594 43.464844 18.140625 43.402344 18.121094 Z M 75.441406 141.820312 C 77.003906 142.160156 78.929688 142.015625 80.238281 141.058594 C 80.429688 140.921875 80.40625 140.511719 80.105469 140.546875 C 78.5625 140.742188 76.964844 141.015625 75.441406 141.359375 C 75.328125 141.390625 75.269531 141.46875 75.269531 141.585938 C 75.269531 141.707031 75.328125 141.785156 75.441406 141.820312 Z M 49.976562 169.039062 C 49.925781 169.042969 49.898438 169.066406 49.898438 169.117188 C 49.898438 169.167969 49.921875 169.195312 49.972656 169.195312 C 55.222656 169.773438 60.6875 169.125 65.910156 168.550781 C 70.832031 168.007812 76.027344 167.5 80.773438 166.066406 C 80.921875 166.019531 80.902344 165.785156 80.738281 165.789062 C 75.785156 165.992188 70.835938 167.15625 65.917969 167.75 C 60.613281 168.390625 55.28125 168.484375 49.976562 169.039062 Z M 40.9375 177.609375 C 45.0625 177.285156 49.1875 177.027344 53.320312 176.730469 C 53.460938 176.726562 53.53125 176.652344 53.53125 176.511719 C 53.53125 176.375 53.460938 176.300781 53.320312 176.292969 C 49.273438 175.972656 44.769531 175.875 40.890625 177.253906 C 40.707031 177.316406 40.71875 177.628906 40.9375 177.609375 Z M 29.511719 140.050781 C 35.441406 142.617188 42.113281 142.957031 48.5 143.105469 C 55.84375 143.347656 63.179688 143.214844 70.507812 142.71875 C 70.613281 142.714844 70.667969 142.660156 70.667969 142.554688 C 70.667969 142.449219 70.617188 142.390625 70.511719 142.386719 C 56.847656 141.152344 43.117188 142.984375 29.652344 139.726562 C 29.460938 139.679688 29.316406 139.96875 29.511719 140.050781 Z M 87.984375 122.492188 C 87.9375 122.140625 87.917969 121.789062 87.925781 121.433594 C 87.894531 121.082031 87.914062 120.738281 87.976562 120.394531 C 88 120.304688 87.96875 120.242188 87.882812 120.207031 C 87.800781 120.167969 87.730469 120.191406 87.683594 120.265625 C 87.492188 120.636719 87.394531 121.03125 87.390625 121.445312 C 87.382812 121.859375 87.46875 122.257812 87.648438 122.632812 C 87.734375 122.835938 88.015625 122.683594 87.984375 122.492188 Z M 37.042969 183.21875 C 48.761719 186.789062 62.007812 185.886719 73.894531 183.625 C 74.007812 183.589844 74.058594 183.511719 74.042969 183.390625 C 74.027344 183.273438 73.960938 183.210938 73.839844 183.207031 C 61.6875 184.210938 49.25 184.777344 37.175781 182.75 C 37.019531 182.710938 36.921875 182.769531 36.878906 182.917969 C 36.839844 183.070312 36.890625 183.167969 37.042969 183.21875 Z M 116.417969 181.703125 C 116.421875 181.789062 116.464844 181.839844 116.550781 181.851562 C 116.636719 181.863281 116.691406 181.828125 116.714844 181.746094 C 117.984375 178.320312 117.738281 174.363281 117.339844 170.804688 C 117.101562 168.644531 116.535156 164.007812 113.933594 163.222656 C 113.871094 163.207031 113.824219 163.222656 113.785156 163.269531 C 113.746094 163.320312 113.742188 163.371094 113.773438 163.425781 C 117.191406 168.738281 116.488281 175.625 116.417969 181.703125 Z M 18.953125 120.648438 C 18.789062 121.414062 18.796875 122.175781 18.976562 122.9375 C 19 123.011719 19.050781 123.050781 19.128906 123.054688 C 19.210938 123.054688 19.261719 123.015625 19.285156 122.9375 C 19.476562 122.179688 19.492188 121.417969 19.339844 120.652344 C 19.3125 120.554688 19.246094 120.507812 19.148438 120.507812 C 19.046875 120.503906 18.980469 120.550781 18.953125 120.648438 Z M 21.179688 93.136719 C 21.222656 94.5 20.929688 96.738281 21.613281 98 C 22.109375 98.914062 24.511719 98.683594 25.324219 98.726562 C 28.371094 98.890625 31.429688 98.941406 34.480469 99 C 42.914062 99.15625 51.347656 99.203125 59.785156 99.246094 C 65.3125 99.277344 70.855469 99.378906 76.386719 99.289062 C 79.832031 99.234375 85.546875 99.511719 86.429688 95.148438 C 86.761719 93.488281 86.652344 91.683594 86.675781 90.003906 C 86.71875 87.082031 86.730469 84.164062 86.738281 81.246094 C 86.75 77.273438 86.75 73.304688 86.734375 69.335938 C 86.730469 68.332031 85.171875 68.320312 85.175781 69.324219 C 85.195312 75.371094 85.195312 81.417969 85.144531 87.46875 C 85.125 89.96875 85.492188 93 84.75 95.429688 C 83.867188 98.304688 77.898438 97.707031 75.738281 97.742188 C 60.109375 97.996094 44.394531 97.777344 28.773438 97.304688 C 27.304688 97.261719 25.835938 97.207031 24.367188 97.113281 C 23.894531 97.085938 23.421875 97.046875 22.953125 96.992188 C 22.949219 96.992188 22.945312 96.992188 22.941406 96.992188 C 22.414062 94.179688 22.675781 91.019531 22.621094 88.1875 C 22.5 81.433594 22.464844 74.679688 22.464844 67.925781 C 22.460938 66.921875 20.902344 66.910156 20.902344 67.914062 C 20.90625 72.910156 20.933594 77.910156 20.988281 82.910156 C 21.023438 86.316406 21.074219 89.726562 21.179688 93.136719 Z M 122.070312 178.953125 C 122.042969 179.699219 122.019531 180.421875 122 181.109375 L 121.988281 181.613281 C 121.84375 187.699219 121.621094 196.898438 115.015625 200.023438 C 112.875 201.039062 110.328125 201.511719 107.007812 201.511719 C 105.082031 201.511719 103.152344 201.347656 101.601562 201.21875 C 99.5 201.078125 97.421875 200.792969 95.363281 200.367188 C 94.316406 203.132812 92.726562 205.535156 90.589844 207.574219 C 86.394531 211.539062 80.605469 214.015625 72.371094 215.363281 C 66.226562 216.367188 59.875 217.40625 53.578125 217.464844 C 52.851562 217.492188 52.082031 217.503906 51.308594 217.503906 C 44.921875 217.425781 38.59375 216.773438 32.324219 215.550781 C 26.496094 214.46875 19.164062 212.582031 14.195312 207.511719 C 8.648438 201.851562 7.6875 194.558594 7.074219 186.308594 C 6.921875 184.285156 6.8125 182.1875 6.75 180.078125 L 6.742188 179.890625 C 6.453125 172.039062 7.019531 164.25 8.441406 156.519531 C 6.75 155.316406 5.261719 153.902344 3.976562 152.273438 C 3.964844 152.253906 3.910156 152.179688 3.910156 152.179688 C 0.320312 147.996094 1.242188 141.625 4.015625 137.480469 C 4.285156 137.070312 4.65625 136.796875 5.132812 136.65625 C 5.605469 136.023438 6.1875 135.515625 6.882812 135.132812 C 7.574219 134.753906 8.316406 134.53125 9.109375 134.46875 C 9.507812 133.503906 10.117188 132.695312 10.933594 132.042969 C 11.75 131.386719 12.671875 130.972656 13.703125 130.792969 L 14.132812 64.441406 C 14.128906 64.113281 14.203125 63.804688 14.359375 63.515625 C 14.515625 63.226562 14.730469 62.992188 15.007812 62.816406 C 15.78125 62.195312 16.90625 61.992188 17.660156 61.859375 L 17.816406 61.828125 C 18.359375 61.730469 18.921875 61.636719 19.5 61.550781 L 19.738281 24.808594 C 16.46875 24.246094 13.117188 23.613281 10.125 22.132812 C 9.28125 21.714844 6.714844 20.445312 6.867188 18.027344 C 7.066406 14.917969 10.9375 12.589844 13.253906 11.199219 L 13.660156 10.953125 C 25.234375 3.917969 39.625 0.0429688 54.179688 0.0429688 C 62.46875 0.015625 70.5625 1.253906 78.464844 3.765625 C 85.910156 6.164062 94.21875 9.375 99.414062 15.027344 C 101.546875 17.34375 101.910156 19.347656 100.488281 20.980469 C 99.308594 22.328125 97.535156 23.019531 95.792969 23.566406 C 95.183594 23.757812 94.5625 23.933594 93.894531 24.105469 C 93.707031 24.195312 93.511719 24.246094 93.304688 24.253906 C 91.964844 24.582031 90.527344 24.878906 88.828125 25.167969 L 88.589844 61.929688 C 89.03125 62.003906 89.449219 62.082031 89.847656 62.160156 L 90.054688 62.203125 C 91.132812 62.417969 93.144531 62.8125 93.421875 64.507812 C 93.4375 64.605469 93.449219 64.699219 93.449219 64.796875 C 93.464844 64.898438 93.472656 65 93.472656 65.101562 L 93.042969 131.527344 C 93.972656 132.277344 94.78125 133.140625 95.464844 134.125 C 97.238281 134.472656 100.085938 135.648438 101.429688 137.671875 C 101.796875 137.855469 102.085938 138.125 102.285156 138.484375 C 103.957031 141.402344 104.722656 146.496094 102.902344 150.292969 C 102.84375 150.667969 102.6875 151.003906 102.4375 151.292969 C 102.195312 151.582031 101.949219 151.867188 101.691406 152.144531 C 101.679688 152.15625 101.667969 152.167969 101.65625 152.183594 C 101.597656 152.25 101.539062 152.308594 101.480469 152.371094 L 101.429688 152.421875 C 100.765625 153.125 100.066406 153.789062 99.328125 154.414062 C 101.121094 154.261719 103.0625 154.121094 104.980469 154.121094 C 110.378906 154.121094 114.167969 155.238281 116.902344 157.636719 C 122.648438 162.683594 122.328125 171.707031 122.070312 178.953125 Z M 94.140625 192.953125 C 94.144531 192.917969 94.152344 192.875 94.160156 192.839844 C 94.609375 190.160156 94.820312 187.402344 95.023438 184.703125 C 95.058594 184.28125 95.085938 183.859375 95.113281 183.441406 C 93.085938 185.824219 89.105469 187.082031 86.640625 187.84375 C 78.292969 190.402344 69.386719 191.289062 60.714844 191.632812 C 50.46875 192.035156 40.121094 191.683594 29.980469 190.054688 C 23.816406 189.0625 16.402344 187.941406 11.25 183.992188 C 10.777344 183.628906 10.347656 183.21875 9.960938 182.757812 C 10.011719 183.648438 10.066406 184.539062 10.132812 185.429688 C 10.664062 192.582031 11.128906 200.472656 16.773438 205.671875 C 21.511719 210.035156 28.054688 211.726562 34.269531 212.738281 C 39.050781 213.554688 43.863281 214.082031 48.707031 214.324219 C 48.882812 214.238281 49.070312 214.203125 49.269531 214.222656 C 50.703125 214.328125 52.160156 214.367188 53.628906 214.347656 C 54.261719 214.328125 54.882812 214.300781 55.507812 214.261719 C 55.621094 214.253906 55.730469 214.261719 55.84375 214.285156 C 60.957031 214.046875 66.148438 213.238281 71.058594 212.4375 C 76.996094 211.460938 83.546875 209.945312 88.058594 205.683594 C 91.75 202.199219 93.328125 197.699219 94.140625 192.953125 Z M 6.59375 150.492188 C 6.703125 150.601562 6.789062 150.730469 6.847656 150.871094 C 8.132812 152.34375 9.601562 153.605469 11.25 154.660156 C 11.289062 154.6875 11.328125 154.710938 11.371094 154.734375 C 15.355469 157.289062 20.15625 158.734375 24.6875 159.757812 C 32.5625 161.503906 40.535156 162.460938 48.605469 162.625 C 58.375 162.867188 68.046875 162.015625 77.625 160.070312 C 81.949219 159.175781 86.339844 158.082031 90.351562 156.292969 C 90.398438 156.269531 90.445312 156.253906 90.492188 156.230469 C 93.324219 154.996094 95.882812 153.339844 98.167969 151.261719 L 98.171875 151.257812 C 98.261719 151.042969 98.410156 150.871094 98.609375 150.75 C 98.738281 150.667969 98.859375 150.578125 98.976562 150.480469 C 98.980469 150.476562 98.984375 150.472656 98.988281 150.46875 C 99.214844 150.242188 99.433594 150.007812 99.648438 149.761719 L 99.652344 149.761719 C 100.265625 148.863281 100.628906 147.871094 100.742188 146.789062 C 99.585938 147.761719 98.378906 148.664062 97.125 149.503906 C 95.882812 150.304688 94.238281 151.417969 92.691406 151.296875 C 92.667969 151.296875 92.65625 151.285156 92.648438 151.265625 C 92.644531 151.246094 92.648438 151.226562 92.667969 151.21875 C 94.371094 150.203125 96.054688 149.472656 97.621094 148.195312 C 98.730469 147.289062 99.796875 146.328125 100.835938 145.34375 C 100.832031 144.320312 100.707031 143.3125 100.464844 142.320312 C 99.042969 144.5625 96.3125 146.042969 94.050781 147.171875 C 91.382812 148.570312 88.582031 149.621094 85.652344 150.324219 C 75.253906 152.617188 64.308594 153.25 53.6875 153.296875 C 47.121094 153.328125 40.578125 152.933594 34.027344 152.449219 C 27.609375 151.972656 21.402344 151.050781 15.257812 149.09375 C 11.933594 148.035156 6.957031 146.640625 5.378906 143.125 C 5.28125 142.910156 5.199219 142.691406 5.125 142.46875 C 4.316406 145.265625 4.503906 148.398438 6.59375 150.492188 Z M 14.65625 20.449219 C 14.582031 19.59375 14.816406 18.835938 15.363281 18.179688 C 16.757812 16.460938 18.429688 15.070312 20.375 14.011719 C 20.433594 13.980469 20.484375 13.992188 20.527344 14.046875 C 20.566406 14.097656 20.5625 14.148438 20.515625 14.199219 C 19.351562 15.386719 18.015625 16.441406 17.035156 17.800781 C 16.613281 18.386719 16.078125 19.042969 15.925781 19.765625 C 15.816406 20.308594 16.171875 20.5625 16.464844 20.90625 C 18.101562 21.296875 19.675781 21.613281 20.652344 21.800781 L 20.667969 19.402344 C 20.664062 19.277344 20.683594 19.15625 20.722656 19.039062 L 20.722656 19.035156 C 20.679688 18.585938 20.847656 18.242188 21.230469 18 C 24.433594 15.84375 29.121094 15.320312 32.832031 14.757812 C 39.820312 13.699219 46.847656 13.207031 53.914062 13.277344 C 61.167969 13.316406 68.375 13.9375 75.53125 15.144531 C 79.394531 15.816406 84.320312 16.363281 87.648438 18.652344 C 87.769531 18.734375 87.875 18.839844 87.957031 18.964844 C 88.039062 19.085938 88.09375 19.222656 88.125 19.367188 C 88.15625 19.511719 88.15625 19.660156 88.128906 19.804688 C 88.101562 19.949219 88.046875 20.085938 87.96875 20.210938 L 87.957031 22.167969 C 89.558594 21.90625 91.167969 21.609375 92.742188 21.207031 C 92.785156 20.710938 92.757812 20.222656 92.660156 19.734375 C 92.414062 18.652344 91.90625 17.710938 91.140625 16.90625 C 91.011719 16.765625 91.140625 16.496094 91.34375 16.566406 C 91.992188 16.792969 92.554688 17.152344 93.035156 17.640625 C 93.511719 18.132812 93.855469 18.707031 94.066406 19.359375 C 94.214844 19.8125 94.316406 20.273438 94.367188 20.75 C 94.378906 20.746094 94.394531 20.742188 94.40625 20.738281 C 94.976562 20.558594 98.273438 19.714844 98.230469 18.792969 C 98.160156 17.230469 94.988281 15.199219 93.785156 14.375 C 90.191406 11.949219 86.367188 9.964844 82.308594 8.425781 C 76.632812 6.207031 70.777344 4.6875 64.738281 3.871094 C 58.699219 3.050781 52.652344 2.957031 46.589844 3.585938 C 36.039062 4.734375 25.167969 7.730469 15.996094 13.183594 C 14.058594 14.332031 10.957031 15.90625 10 18.113281 C 9.671875 18.867188 11.996094 19.730469 14.65625 20.449219 Z M 53.902344 61.066406 C 61.984375 61.125 70.085938 61.269531 78.15625 61.816406 L 83.09375 61.847656 C 82.785156 58.109375 82.578125 54.171875 83.21875 50.511719 C 83.273438 50.183594 83.734375 50.300781 83.757812 50.585938 C 84.070312 54.347656 84.332031 58.101562 84.679688 61.859375 L 85.46875 61.863281 L 85.742188 20.085938 C 82.621094 18.320312 78.285156 17.847656 74.921875 17.285156 C 67.964844 16.121094 60.957031 15.527344 53.898438 15.503906 C 47.03125 15.421875 40.203125 15.890625 33.414062 16.90625 C 30.101562 17.429688 25.914062 17.832031 22.894531 19.582031 L 22.621094 61.457031 L 24.4375 61.46875 C 24.230469 61.195312 24.128906 60.886719 24.136719 60.546875 C 24.445312 57.304688 24.589844 54.058594 24.566406 50.800781 C 24.570312 50.675781 24.636719 50.605469 24.761719 50.589844 C 24.886719 50.574219 24.96875 50.625 25.003906 50.746094 C 25.449219 52.832031 25.335938 54.910156 25.476562 57.027344 C 25.554688 58.210938 25.789062 59.371094 25.851562 60.558594 C 25.875 61.058594 25.980469 61.441406 25.695312 61.195312 C 25.777344 61.277344 25.792969 61.371094 25.738281 61.476562 L 30.695312 61.507812 C 38.421875 61.097656 46.167969 61.007812 53.902344 61.066406 Z M 17.808594 65.011719 C 17.613281 65.058594 17.425781 65.125 17.25 65.210938 L 16.816406 132.335938 C 17.050781 132.414062 17.28125 132.488281 17.523438 132.542969 C 17.785156 132.605469 18.050781 132.660156 18.316406 132.714844 C 18.527344 130.359375 18.5625 127.953125 18.902344 125.625 C 18.9375 125.519531 19.007812 125.46875 19.113281 125.46875 C 19.222656 125.46875 19.292969 125.523438 19.324219 125.625 C 19.644531 128.050781 19.632812 130.550781 19.835938 132.992188 C 19.867188 132.996094 19.894531 133.003906 19.925781 133.007812 C 22.75 133.429688 25.601562 133.675781 28.445312 133.875 C 36.777344 134.476562 45.144531 134.71875 53.496094 134.761719 C 62.015625 134.8125 70.542969 134.761719 79.046875 134.292969 C 81.621094 134.148438 84.214844 134.003906 86.773438 133.667969 C 86.949219 130.882812 87.632812 128.128906 87.488281 125.328125 C 87.484375 125.207031 87.648438 125.203125 87.6875 125.304688 C 88.636719 127.851562 88.402344 130.734375 88.339844 133.445312 C 88.730469 133.378906 89.117188 133.304688 89.496094 133.207031 C 89.636719 133.171875 89.777344 133.125 89.910156 133.066406 L 90.347656 65.488281 C 90.089844 65.410156 89.835938 65.339844 89.574219 65.285156 C 88.742188 65.101562 87.902344 64.960938 87.054688 64.847656 C 84.410156 64.507812 81.746094 64.289062 79.085938 64.113281 C 78.679688 64.085938 78.277344 64.058594 77.875 64.039062 L 30.714844 63.734375 C 30.011719 63.769531 29.308594 63.808594 28.613281 63.851562 C 25.789062 64.023438 22.945312 64.195312 20.140625 64.59375 C 19.355469 64.695312 18.578125 64.832031 17.808594 65.011719 Z M 14.964844 133.835938 C 12.035156 133.699219 10.179688 137.792969 12.980469 139.425781 C 13.226562 139.5625 13.390625 139.761719 13.46875 140.035156 C 18.367188 142.574219 24.179688 143.289062 29.59375 143.730469 C 35.929688 144.242188 42.328125 144.621094 48.679688 144.855469 C 56.910156 145.160156 65.136719 144.996094 73.347656 144.371094 C 79.882812 143.882812 87.207031 143.667969 92.941406 140.105469 C 92.996094 139.921875 93.089844 139.761719 93.222656 139.628906 C 94.042969 138.785156 93.933594 137.707031 93.445312 136.6875 C 93.4375 136.675781 93.433594 136.664062 93.425781 136.652344 C 93.011719 135.871094 92.480469 135.175781 91.835938 134.570312 C 91.183594 135.242188 89.828125 135.433594 89.078125 135.5625 C 86.496094 135.976562 83.902344 136.246094 81.289062 136.378906 C 72.039062 136.972656 62.75 137.054688 53.480469 136.988281 C 43.996094 136.917969 34.46875 136.710938 25.019531 135.820312 C 22.464844 135.640625 19.933594 135.300781 17.421875 134.800781 C 16.738281 134.644531 15.574219 134.433594 14.964844 133.835938 Z M 9.445312 137.582031 C 6.667969 137.90625 6.226562 141.386719 8.226562 143.253906 C 9.714844 144.644531 11.628906 145.503906 13.53125 146.171875 C 18.570312 147.988281 23.746094 149.195312 29.070312 149.785156 C 40.769531 151.066406 52.492188 151.378906 64.242188 150.722656 C 69.40625 150.414062 74.574219 149.960938 79.691406 149.167969 C 82.703125 148.699219 85.886719 148.257812 88.738281 147.128906 C 91.488281 146.035156 94.324219 144.78125 96.699219 142.996094 C 97.539062 142.359375 99.105469 141.207031 98.996094 139.980469 C 98.992188 139.925781 98.980469 139.871094 98.96875 139.816406 C 98.742188 138.65625 97.277344 137.890625 95.960938 137.464844 C 96.082031 138.078125 96.0625 138.683594 95.902344 139.285156 C 95.746094 139.890625 95.464844 140.429688 95.0625 140.902344 C 95.023438 141.253906 94.855469 141.523438 94.558594 141.710938 C 88.878906 145.503906 81.625 145.945312 75.023438 146.46875 C 66.25 147.199219 57.464844 147.40625 48.664062 147.082031 C 41.886719 146.796875 35.023438 146.5 28.277344 145.835938 C 22.25 145.242188 15.894531 144.320312 10.695312 141.003906 C 10.492188 140.886719 10.347656 140.71875 10.257812 140.5 C 10.167969 140.285156 10.152344 140.0625 10.214844 139.835938 C 9.761719 139.152344 9.503906 138.402344 9.445312 137.582031 Z M 89.964844 158.894531 C 86.402344 160.277344 82.742188 161.328125 78.988281 162.054688 C 68.964844 164.164062 58.832031 165.09375 48.589844 164.847656 C 40.21875 164.617188 31.640625 163.730469 23.484375 161.761719 C 20.859375 161.148438 18.289062 160.363281 15.769531 159.40625 C 15.816406 161.566406 15.863281 163.730469 15.90625 165.886719 C 15.925781 165.894531 15.945312 165.902344 15.964844 165.910156 C 19.898438 167.457031 23.941406 168.640625 28.09375 169.460938 C 30.113281 169.871094 32.140625 170.214844 34.164062 170.511719 C 46.59375 172.277344 59.015625 172.234375 71.433594 170.378906 C 72.554688 170.214844 73.699219 170.039062 74.863281 169.851562 C 74.941406 169.835938 75.015625 169.824219 75.09375 169.8125 C 75.167969 169.800781 75.238281 169.785156 75.316406 169.773438 C 80.054688 168.960938 84.980469 167.765625 88.917969 165.191406 C 89.277344 164.980469 89.617188 164.738281 89.929688 164.460938 Z M 10.890625 179.726562 C 10.898438 180.164062 11.027344 180.558594 11.28125 180.914062 C 12.957031 183.457031 16.796875 184.597656 19.484375 185.429688 C 24.613281 186.953125 29.839844 187.988281 35.164062 188.535156 C 48.136719 190.007812 61.53125 190.097656 74.472656 188.183594 C 79.140625 187.496094 83.902344 186.636719 88.332031 184.910156 C 90.105469 184.226562 94.105469 182.8125 94.21875 180.359375 C 94.125 177.542969 89.070312 175.929688 87.074219 175.242188 C 82.9375 173.855469 78.703125 172.855469 74.382812 172.25 L 74.375 172.25 C 69.378906 173.042969 64.355469 173.546875 59.300781 173.753906 C 49.554688 174.265625 39.691406 173.867188 30.082031 172.089844 L 30.078125 172.089844 C 28.980469 172.253906 27.886719 172.445312 26.796875 172.644531 C 24.960938 172.988281 10.917969 175.652344 10.890625 179.722656 Z M 9.785156 177.15625 C 10.929688 175.648438 12.730469 174.644531 14.394531 173.90625 C 17.523438 172.550781 20.75 171.515625 24.082031 170.796875 C 20.695312 170.046875 17.417969 168.972656 14.242188 167.578125 C 13.871094 167.363281 13.6875 167.042969 13.695312 166.613281 C 13.636719 163.941406 13.578125 161.273438 13.523438 158.605469 C 13.523438 158.550781 13.527344 158.496094 13.53125 158.441406 C 12.824219 158.113281 12.128906 157.761719 11.449219 157.382812 C 10.242188 163.917969 9.6875 170.511719 9.785156 177.15625 Z M 95.382812 177.675781 C 95.601562 170.742188 95.113281 163.855469 93.921875 157.023438 C 93.359375 157.335938 92.78125 157.628906 92.203125 157.910156 L 92.179688 161.445312 C 92.171875 162.585938 92.429688 164.078125 92.113281 165.191406 C 91.554688 167.167969 87.535156 168.507812 85.972656 169.121094 C 84.042969 169.875 82.074219 170.511719 80.066406 171.03125 C 80.523438 171.132812 80.976562 171.234375 81.429688 171.339844 C 85.191406 172.207031 89.171875 173.234375 92.523438 175.277344 C 93.625 175.898438 94.578125 176.695312 95.382812 177.675781 Z M 98 186.457031 C 97.847656 188.089844 97.695312 189.695312 97.492188 191.292969 C 98.78125 191.480469 100.097656 191.601562 101.414062 191.660156 L 101.894531 191.683594 C 102.628906 191.71875 103.464844 191.757812 104.304688 191.757812 C 105.898438 191.757812 108.175781 191.636719 109.574219 190.582031 C 110.734375 189.703125 111.097656 187.1875 111.316406 185.683594 L 111.351562 185.457031 C 112.03125 179.980469 111.863281 174.53125 110.847656 169.105469 L 110.800781 168.910156 C 110.375 166.980469 110.019531 165.773438 108.695312 165.34375 C 107.183594 164.878906 105.640625 164.660156 104.0625 164.6875 C 102.074219 164.714844 100.105469 164.925781 98.15625 165.324219 C 98.734375 172.375 98.683594 179.417969 98 186.457031 Z M 95.472656 197.191406 C 97.515625 197.6875 99.589844 197.992188 101.6875 198.109375 C 105.277344 198.367188 110.1875 199.046875 113.519531 197.289062 C 119.242188 194.28125 118.855469 185.222656 118.902344 179.773438 C 118.957031 173.769531 120.167969 163.320312 114.125 159.425781 C 109.125 156.195312 101.921875 157.335938 96.316406 157.792969 C 96.570312 159.316406 96.785156 160.847656 96.964844 162.386719 C 101.191406 161.527344 107.171875 160.601562 110.871094 162.933594 C 112.789062 164.148438 113.425781 166.210938 113.867188 168.335938 C 114.488281 171.433594 114.824219 174.5625 114.863281 177.722656 C 114.996094 180.992188 114.757812 184.234375 114.15625 187.453125 C 113.734375 189.429688 113.082031 192.054688 111.226562 193.21875 C 107.132812 195.777344 100.90625 195.097656 96.136719 194.234375 C 95.953125 195.234375 95.734375 196.21875 95.472656 197.191406 Z M 95.472656 197.191406 "/></g></g></svg>