<svg xmlns="http://www.w3.org/2000/svg" xmlns:xlink="http://www.w3.org/1999/xlink" width="196" zoomAndPan="magnify" viewBox="0 0 147 216.749995" height="289" preserveAspectRatio="xMidYMid meet" version="1.2"><defs><clipPath id="c24b64e277"><path d="M 0.0859375 0 L 146 0 L 146 215.75 L 0.0859375 215.75 Z M 0.0859375 0 "/></clipPath></defs><g id="4f88ddc013"><path style=" stroke:none;fill-rule:nonzero;fill:#000000;fill-opacity:1;" d="M 32.492188 193.035156 C 32.585938 193.128906 32.679688 193.226562 32.492188 193.035156 Z M 32.492188 193.035156 "/><path style=" stroke:none;fill-rule:nonzero;fill:#000000;fill-opacity:1;" d="M 131.367188 157.394531 C 131.316406 157.296875 131.316406 157.25 131.269531 157.15625 C 131.269531 157.15625 131.269531 157.109375 131.269531 157.109375 C 131.367188 157.347656 131.367188 157.441406 131.367188 157.394531 Z M 131.367188 157.394531 "/><path style=" stroke:none;fill-rule:nonzero;fill:#000000;fill-opacity:1;" d="M 28.730469 186.621094 C 28.78125 186.714844 28.875 186.808594 28.921875 186.90625 C 28.875 186.90625 28.828125 186.808594 28.730469 186.621094 C 28.683594 186.621094 28.683594 186.621094 28.730469 186.621094 Z M 28.730469 186.621094 "/><path style=" stroke:none;fill-rule:nonzero;fill:#000000;fill-opacity:1;" d="M 40.628906 90.433594 C 40.53125 90.292969 40.292969 89.722656 40.628906 90.433594 Z M 40.628906 90.433594 "/><path style=" stroke:none;fill-rule:nonzero;fill:#000000;fill-opacity:1;" d="M 42.148438 113.816406 C 42.148438 113.816406 42.148438 113.863281 42.101562 113.863281 C 42.101562 113.910156 42.054688 113.957031 42.054688 114.007812 C 42.054688 113.957031 42.101562 113.863281 42.148438 113.722656 C 42.199219 113.722656 42.148438 113.769531 42.148438 113.816406 Z M 42.148438 113.816406 "/><path style=" stroke:none;fill-rule:nonzero;fill:#000000;fill-opacity:1;" d="M 42.910156 120.613281 C 42.957031 120.660156 42.957031 120.707031 43.007812 120.707031 C 42.957031 120.707031 42.910156 120.660156 42.910156 120.613281 Z M 42.910156 120.613281 "/><path style=" stroke:none;fill-rule:nonzero;fill:#000000;fill-opacity:1;" d="M 104.910156 125.078125 C 104.910156 125.03125 104.910156 125.03125 104.910156 125.078125 C 104.957031 125.078125 104.957031 125.078125 104.957031 125.03125 C 104.910156 125.03125 104.863281 125.078125 104.816406 125.078125 C 104.863281 125.078125 104.863281 125.078125 104.910156 125.078125 Z M 104.910156 125.078125 "/><path style=" stroke:none;fill-rule:nonzero;fill:#000000;fill-opacity:1;" d="M 108.8125 75.558594 C 109.050781 76.273438 108.953125 75.894531 108.8125 75.558594 Z M 108.8125 75.558594 "/><path style=" stroke:none;fill-rule:nonzero;fill:#000000;fill-opacity:1;" d="M 47.71875 75.417969 C 47.480469 75.371094 47.003906 75.417969 47.71875 75.417969 Z M 47.71875 75.417969 "/><path style=" stroke:none;fill-rule:nonzero;fill:#000000;fill-opacity:1;" d="M 45.433594 75.324219 C 45.289062 75.324219 45.242188 75.371094 45.148438 75.371094 C 45.101562 75.371094 45.050781 75.417969 45.003906 75.417969 C 45.050781 75.417969 45.148438 75.417969 45.433594 75.324219 Z M 45.433594 75.324219 "/><path style=" stroke:none;fill-rule:nonzero;fill:#000000;fill-opacity:1;" d="M 43.480469 82.308594 C 43.53125 82.402344 43.53125 82.449219 43.578125 82.546875 C 43.53125 82.449219 43.480469 82.355469 43.480469 82.308594 Z M 43.480469 82.308594 "/><path style=" stroke:none;fill-rule:nonzero;fill:#000000;fill-opacity:1;" d="M 44.289062 75.65625 C 44.289062 75.65625 44.242188 75.65625 44.242188 75.703125 C 44.195312 75.703125 44.148438 75.75 44.148438 75.75 C 44.195312 75.703125 44.289062 75.703125 44.433594 75.609375 C 44.339844 75.609375 44.339844 75.609375 44.289062 75.65625 Z M 44.289062 75.65625 "/><path style=" stroke:none;fill-rule:nonzero;fill:#000000;fill-opacity:1;" d="M 79.121094 115.8125 C 79.167969 115.8125 79.214844 115.859375 79.261719 115.90625 C 79.261719 115.90625 79.261719 115.90625 79.3125 115.90625 C 79.3125 115.90625 79.359375 115.90625 79.359375 115.90625 C 79.167969 115.8125 79.121094 115.8125 79.121094 115.8125 Z M 79.121094 115.8125 "/><g clip-rule="nonzero" clip-path="url(#c24b64e277)"><path style=" stroke:none;fill-rule:nonzero;fill:#000000;fill-opacity:1;" d="M 144.355469 0.664062 C 143.117188 0 141.832031 0.238281 140.738281 1.140625 C 138.453125 2.992188 136.171875 4.847656 133.839844 6.652344 C 133.316406 7.082031 132.792969 7.460938 132.269531 7.890625 C 132.222656 7.9375 132.175781 7.9375 132.125 7.984375 C 132.03125 8.03125 131.984375 8.078125 131.890625 8.175781 C 131.554688 8.410156 131.269531 8.648438 130.9375 8.886719 C 129.890625 9.695312 128.796875 10.503906 127.703125 11.308594 C 123.703125 14.304688 119.613281 17.203125 115.472656 19.910156 C 111 22.859375 106.433594 25.660156 101.722656 28.179688 C 96.011719 28.464844 90.300781 28.226562 84.59375 27.753906 C 81.167969 27.46875 77.742188 27.085938 74.316406 26.660156 C 74.125 26.613281 73.933594 26.613281 73.742188 26.566406 C 73.695312 26.566406 73.648438 26.566406 73.601562 26.566406 C 73.125 26.515625 72.695312 26.421875 72.222656 26.375 C 71.316406 26.230469 70.460938 26.136719 69.558594 25.996094 C 67.75 25.710938 65.894531 25.425781 64.085938 25.089844 C 56.710938 23.761719 49.382812 22.144531 42.199219 20.101562 C 38.675781 19.105469 35.15625 18.011719 31.683594 16.824219 C 30.015625 16.253906 28.351562 15.636719 26.6875 14.96875 C 25.875 14.683594 25.117188 14.351562 24.308594 14.019531 C 23.972656 13.875 23.59375 13.734375 23.261719 13.589844 C 23.261719 13.589844 23.210938 13.589844 23.210938 13.542969 C 22.972656 13.449219 22.738281 13.355469 22.5 13.257812 C 16.929688 10.882812 11.414062 8.03125 6.464844 4.371094 C 6.367188 4.277344 6.273438 4.230469 6.179688 4.132812 C 5.941406 3.945312 5.65625 3.707031 5.417969 3.515625 C 5.320312 3.46875 5.273438 3.375 5.179688 3.328125 C 4.464844 2.707031 3.464844 2.421875 2.515625 2.757812 C 2.324219 2.804688 2.179688 2.898438 1.992188 2.945312 C 1.992188 2.945312 1.945312 2.945312 1.945312 2.945312 C 1.800781 3.042969 1.65625 3.136719 1.46875 3.230469 C 1.324219 3.328125 1.183594 3.46875 1.039062 3.613281 C 0.660156 4.039062 0.375 4.609375 0.277344 5.226562 C 0.183594 5.75 0.230469 6.273438 0.46875 6.75 C 3.609375 17.441406 7.9375 27.800781 13.03125 37.683594 C 17.742188 46.808594 23.210938 55.554688 29.304688 63.824219 C 31.917969 67.386719 34.679688 70.855469 37.582031 74.230469 C 37.390625 74.609375 37.203125 74.988281 37.058594 75.417969 C 35.34375 80.503906 38.34375 85.398438 40.292969 89.914062 C 40.339844 90.054688 40.4375 90.246094 40.484375 90.386719 C 40.484375 90.386719 40.484375 90.339844 40.484375 90.339844 C 40.628906 90.671875 40.769531 91.003906 40.914062 91.335938 C 41.199219 92.097656 41.484375 92.859375 41.722656 93.617188 C 41.816406 93.855469 41.863281 94.140625 41.960938 94.378906 C 40.054688 95.664062 38.535156 97.375 37.726562 99.558594 C 36.914062 101.746094 37.390625 104.359375 38.675781 106.308594 C 38.867188 106.546875 39.007812 106.828125 39.199219 107.066406 C 38.914062 107.496094 38.582031 107.875 38.296875 108.304688 C 36.867188 110.347656 35.917969 112.582031 35.632812 115.097656 C 35.203125 118.757812 36.441406 122.417969 38.867188 125.125 C 39.007812 125.269531 39.152344 125.410156 39.246094 125.554688 C 34.535156 134.011719 29.589844 142.375 25.734375 151.261719 C 22.023438 159.816406 19.214844 169.179688 20.40625 178.589844 C 21.023438 183.4375 22.402344 188.140625 24.832031 192.417969 C 27.019531 196.316406 30.015625 199.785156 33.441406 202.585938 C 39.484375 207.578125 46.671875 210.953125 54.28125 212.757812 C 61.5625 214.515625 69.128906 215.371094 76.644531 215.5625 C 85.542969 215.75 94.632812 214.941406 103.195312 212.425781 C 107.574219 211.140625 111.808594 209.335938 115.855469 207.246094 C 119.898438 205.152344 123.800781 202.683594 127.320312 199.734375 C 130.746094 196.886719 133.792969 193.511719 135.980469 189.660156 C 138.265625 185.621094 139.550781 181.105469 140.121094 176.546875 C 141.214844 168.179688 138.976562 160.007812 135.503906 152.453125 C 131.507812 143.753906 125.941406 135.867188 120.5625 127.976562 C 119.421875 126.3125 118.28125 124.601562 117.136719 122.941406 C 118.328125 121.183594 119.042969 119.1875 119.230469 117 C 119.660156 111.960938 116.328125 108.113281 113.523438 104.3125 C 114.949219 102.363281 115.710938 100.035156 115.1875 97.515625 C 114.710938 95.378906 113.09375 93.667969 111.238281 92.527344 C 111.429688 91.859375 111.667969 91.195312 111.90625 90.53125 C 112.761719 88.105469 113.902344 85.730469 114.570312 83.210938 C 115.519531 79.457031 115.519531 74.65625 113.1875 71.378906 C 119.328125 64.296875 124.65625 56.550781 129.082031 48.28125 C 133.746094 39.492188 137.457031 30.175781 140.597656 20.71875 C 142.453125 15.160156 144.070312 9.597656 145.59375 3.945312 C 146.066406 2.804688 145.496094 1.28125 144.355469 0.664062 Z M 37.820312 25.042969 C 45.050781 27.183594 52.378906 28.941406 59.800781 30.367188 C 67.175781 31.746094 74.601562 32.835938 82.023438 33.550781 C 84.449219 33.789062 86.875 33.976562 89.304688 34.074219 C 87.875 34.644531 86.402344 35.167969 84.972656 35.640625 C 81.976562 36.640625 78.929688 37.449219 75.886719 38.066406 C 74.457031 38.351562 72.984375 38.589844 71.507812 38.824219 C 71.363281 38.824219 71.222656 38.875 71.078125 38.875 C 70.699219 38.921875 70.316406 38.96875 69.9375 39.015625 C 69.222656 39.109375 68.511719 39.160156 67.796875 39.207031 C 64.941406 39.394531 62.039062 39.445312 59.183594 39.300781 C 57.757812 39.253906 56.28125 39.109375 54.855469 38.96875 C 54.140625 38.921875 53.425781 38.824219 52.714844 38.730469 C 52.570312 38.730469 52.425781 38.683594 52.332031 38.683594 C 52 38.636719 51.617188 38.589844 51.285156 38.539062 C 48.335938 38.113281 45.433594 37.542969 42.578125 36.878906 C 41.863281 36.6875 41.101562 36.542969 40.390625 36.355469 C 40.246094 36.257812 40.054688 36.210938 40.105469 36.257812 C 40.105469 36.257812 40.105469 36.257812 40.152344 36.257812 C 40.199219 36.257812 40.199219 36.257812 40.246094 36.308594 C 40.292969 36.308594 40.339844 36.355469 40.339844 36.355469 C 40.292969 36.355469 40.292969 36.308594 40.246094 36.308594 C 40.199219 36.308594 40.199219 36.308594 40.152344 36.257812 C 40.152344 36.257812 40.152344 36.257812 40.105469 36.257812 C 39.816406 36.117188 39.582031 36.023438 39.292969 35.878906 C 38.722656 35.59375 38.152344 35.308594 37.582031 35.023438 C 36.441406 34.40625 35.296875 33.742188 34.203125 33.027344 C 33.015625 32.269531 31.824219 31.414062 30.683594 30.605469 C 30.445312 30.414062 30.207031 30.222656 29.96875 30.035156 C 29.921875 30.035156 29.921875 29.988281 29.875 29.988281 C 29.730469 29.84375 29.539062 29.75 29.398438 29.605469 C 28.78125 29.132812 28.160156 28.609375 27.589844 28.085938 C 23.546875 24.664062 19.785156 20.910156 16.265625 16.964844 C 16.597656 17.109375 16.980469 17.296875 17.3125 17.441406 C 23.878906 20.480469 30.777344 22.953125 37.820312 25.042969 Z M 18.40625 34.976562 C 17.550781 33.359375 16.742188 31.699219 15.933594 30.035156 C 16.027344 29.796875 16.121094 29.558594 16.21875 29.320312 C 16.265625 29.226562 16.3125 29.132812 16.359375 29.035156 C 16.359375 28.988281 16.40625 28.941406 16.40625 28.847656 C 16.40625 28.847656 16.40625 28.847656 16.40625 28.796875 C 16.597656 28.324219 16.835938 27.847656 17.027344 27.421875 C 17.121094 27.183594 17.265625 26.992188 17.359375 26.800781 C 18.5 27.941406 19.644531 29.035156 20.832031 30.128906 C 19.929688 31.699219 19.121094 33.3125 18.40625 34.976562 Z M 12.316406 22.144531 C 12.316406 22.097656 12.316406 22.097656 12.316406 22.144531 Z M 13.078125 23.855469 C 12.933594 23.570312 12.839844 23.285156 12.695312 23 C 12.648438 22.859375 12.554688 22.667969 12.507812 22.527344 C 12.507812 22.476562 12.457031 22.382812 12.410156 22.335938 C 12.222656 21.90625 12.078125 21.480469 11.886719 21.050781 C 12.980469 22.289062 14.078125 23.476562 15.21875 24.664062 C 15.363281 24.804688 15.457031 24.902344 15.597656 25.042969 C 15.21875 25.757812 14.886719 26.46875 14.550781 27.183594 C 14.316406 26.707031 14.078125 26.183594 13.886719 25.710938 C 13.601562 25.089844 13.316406 24.472656 13.078125 23.855469 Z M 36.820312 63.917969 C 36.773438 63.871094 36.773438 63.871094 36.726562 63.824219 C 36.679688 63.773438 36.679688 63.773438 36.628906 63.726562 C 36.628906 63.726562 36.582031 63.679688 36.582031 63.679688 C 36.203125 63.203125 35.820312 62.683594 35.441406 62.207031 C 32.492188 58.308594 29.683594 54.269531 27.066406 50.136719 C 25.972656 48.425781 24.925781 46.714844 23.925781 45.003906 C 23.972656 44.910156 23.972656 44.8125 24.019531 44.671875 C 24.019531 44.671875 24.019531 44.625 24.019531 44.625 C 24.019531 44.574219 24.070312 44.527344 24.070312 44.527344 C 24.117188 44.433594 24.164062 44.289062 24.210938 44.195312 C 24.308594 43.957031 24.449219 43.769531 24.59375 43.53125 C 24.734375 43.339844 24.832031 43.148438 24.972656 42.960938 C 25.019531 42.914062 25.117188 42.769531 25.117188 42.769531 C 25.210938 42.675781 25.257812 42.578125 25.355469 42.484375 C 25.78125 42.007812 25.828125 41.25 25.355469 40.820312 C 24.878906 40.394531 24.117188 40.347656 23.6875 40.820312 C 23.210938 41.34375 22.785156 41.960938 22.402344 42.578125 C 21.5 41.011719 20.644531 39.445312 19.785156 37.875 C 20.59375 35.785156 21.5 33.789062 22.59375 31.839844 C 25.019531 33.929688 27.542969 35.925781 30.207031 37.683594 C 32.394531 39.160156 34.632812 40.394531 37.011719 41.488281 C 39.914062 49.566406 42.863281 57.644531 45.765625 65.769531 C 46.242188 67.054688 46.671875 68.335938 47.144531 69.574219 C 45.625 69.429688 44.101562 69.523438 42.578125 70.046875 C 42.339844 70.144531 42.101562 70.238281 41.863281 70.332031 C 40.960938 69.289062 40.105469 68.242188 39.246094 67.195312 C 38.535156 66.292969 37.820312 65.390625 37.105469 64.488281 C 36.964844 64.296875 36.820312 64.109375 36.679688 63.917969 C 36.773438 63.871094 36.820312 63.871094 36.820312 63.917969 Z M 62.847656 78.078125 C 69.792969 78.980469 76.882812 79.316406 83.878906 78.554688 C 87.542969 78.175781 91.160156 77.507812 94.679688 76.558594 C 97.867188 75.65625 100.914062 74.230469 104.148438 73.613281 C 104.292969 73.613281 104.386719 73.566406 104.527344 73.566406 C 104.816406 73.566406 105.101562 73.515625 105.433594 73.515625 C 105.625 73.515625 105.765625 73.515625 105.957031 73.515625 C 106.097656 73.566406 106.289062 73.566406 106.335938 73.566406 C 106.574219 73.613281 106.8125 73.660156 107.050781 73.753906 C 107.097656 73.753906 107.144531 73.800781 107.195312 73.800781 C 107.335938 73.898438 107.527344 73.945312 107.667969 74.039062 C 107.71875 74.039062 107.765625 74.085938 107.765625 74.085938 C 107.957031 74.277344 108.191406 74.515625 108.382812 74.703125 C 108.429688 74.753906 108.429688 74.753906 108.429688 74.800781 C 108.527344 74.988281 108.621094 75.132812 108.714844 75.324219 C 108.714844 75.371094 108.765625 75.417969 108.765625 75.464844 C 108.765625 75.417969 108.714844 75.371094 108.714844 75.273438 C 108.765625 75.464844 108.859375 75.65625 108.90625 75.84375 C 109.050781 76.273438 109.144531 76.652344 109.191406 77.082031 C 109.191406 77.128906 109.191406 77.128906 109.191406 77.175781 C 109.191406 77.367188 109.238281 77.507812 109.238281 77.699219 C 109.289062 78.269531 109.289062 78.839844 109.238281 79.410156 C 109.238281 79.695312 109.050781 80.789062 109.238281 79.742188 C 109.191406 80.074219 109.144531 80.359375 109.097656 80.691406 C 108.953125 81.3125 108.8125 81.929688 108.621094 82.5 C 107.859375 84.96875 106.765625 87.296875 105.957031 89.722656 C 105.003906 92.574219 104.527344 95.566406 104.765625 98.5625 C 104.765625 98.65625 104.816406 98.796875 104.816406 98.894531 C 105.003906 100.460938 105.480469 101.984375 106.097656 103.359375 C 105.8125 103.550781 105.527344 103.742188 105.242188 103.929688 C 104.148438 104.597656 103.054688 105.214844 101.914062 105.691406 C 101.816406 105.738281 101.675781 105.785156 101.578125 105.832031 C 101.246094 105.976562 100.914062 106.070312 100.628906 106.210938 C 99.960938 106.449219 99.296875 106.6875 98.628906 106.878906 C 97.011719 107.351562 95.347656 107.78125 93.679688 108.019531 C 93.492188 108.066406 93.253906 108.066406 93.015625 108.113281 C 92.96875 108.113281 92.917969 108.113281 92.871094 108.113281 C 92.445312 108.160156 91.96875 108.207031 91.539062 108.253906 C 91.300781 108.304688 91.015625 108.304688 90.777344 108.304688 C 90.253906 106.308594 89.207031 104.5 87.589844 103.171875 C 87.496094 103.074219 87.351562 102.980469 87.257812 102.933594 C 85.355469 101.507812 83.164062 100.605469 80.785156 100.746094 C 78.40625 100.890625 76.265625 101.746094 74.457031 103.21875 C 72.554688 104.785156 71.414062 107.019531 71.03125 109.394531 C 66.84375 109.539062 62.609375 109.445312 58.46875 108.921875 C 58.375 108.921875 58.328125 108.921875 58.230469 108.875 C 58.042969 108.824219 57.851562 108.824219 57.613281 108.777344 C 57.089844 108.683594 56.566406 108.636719 56.089844 108.539062 C 55.1875 108.398438 54.28125 108.207031 53.378906 107.96875 C 51.808594 107.589844 50.238281 107.113281 48.761719 106.496094 C 48.667969 106.449219 48.574219 106.402344 48.429688 106.355469 C 48.097656 106.210938 47.765625 106.070312 47.480469 105.878906 C 47.382812 105.832031 47.289062 105.785156 47.195312 105.691406 C 48.382812 103.3125 48.953125 100.746094 48.761719 98.085938 C 48.574219 94.902344 47.667969 91.859375 46.480469 88.914062 C 45.910156 87.441406 45.242188 86.015625 44.578125 84.542969 C 44.339844 83.972656 44.054688 83.449219 43.816406 82.878906 C 43.71875 82.6875 43.625 82.449219 43.53125 82.261719 C 43.578125 82.308594 43.578125 82.402344 43.625 82.449219 C 43.578125 82.355469 43.578125 82.308594 43.53125 82.214844 C 43.480469 82.070312 43.339844 81.738281 43.433594 81.976562 C 43.246094 81.5 43.101562 81.027344 42.957031 80.550781 C 42.910156 80.3125 42.863281 80.121094 42.816406 79.886719 C 42.769531 79.695312 42.722656 79.171875 42.722656 79.125 C 42.671875 78.792969 42.671875 78.460938 42.671875 78.125 C 42.671875 78.03125 42.671875 77.9375 42.671875 77.839844 C 45.8125 80.21875 49.429688 81.929688 53.332031 82.785156 C 54.804688 83.117188 55.472656 80.835938 53.949219 80.503906 C 50.191406 79.648438 46.71875 77.984375 43.71875 75.65625 C 43.769531 75.609375 43.769531 75.609375 43.816406 75.558594 C 43.769531 75.558594 43.769531 75.609375 43.71875 75.609375 C 43.71875 75.609375 43.71875 75.609375 43.671875 75.65625 C 43.671875 75.65625 43.671875 75.65625 43.71875 75.65625 C 43.816406 75.609375 43.863281 75.511719 43.957031 75.464844 C 43.910156 75.511719 43.863281 75.558594 43.816406 75.609375 C 43.910156 75.558594 44.003906 75.511719 44.101562 75.417969 C 43.957031 75.511719 44.101562 75.371094 44.289062 75.324219 C 44.386719 75.273438 44.480469 75.226562 44.527344 75.179688 C 44.480469 75.226562 44.433594 75.226562 44.339844 75.273438 C 44.339844 75.273438 44.386719 75.273438 44.386719 75.273438 C 44.578125 75.226562 44.8125 75.179688 45.003906 75.085938 C 45.003906 75.085938 45.195312 75.039062 45.335938 74.988281 C 45.335938 74.988281 45.386719 74.988281 45.386719 74.988281 C 45.433594 74.988281 45.480469 74.988281 45.574219 74.941406 C 45.527344 74.941406 45.480469 74.941406 45.433594 74.988281 C 46.050781 74.941406 46.621094 74.941406 47.242188 74.988281 C 47.429688 74.988281 47.574219 75.039062 47.765625 75.039062 C 47.765625 75.039062 47.71875 75.039062 47.71875 75.039062 C 48.097656 75.085938 48.527344 75.179688 48.90625 75.273438 C 49.808594 75.464844 50.667969 75.65625 51.570312 75.84375 C 55.328125 76.9375 59.089844 77.605469 62.847656 78.078125 Z M 107.765625 74.183594 C 107.8125 74.230469 107.859375 74.230469 107.859375 74.277344 C 108.097656 74.417969 108.242188 74.65625 107.765625 74.183594 Z M 108.382812 74.847656 C 107.90625 74.324219 108.191406 74.5625 108.382812 74.847656 Z M 113.1875 114.386719 C 113.285156 114.671875 113.378906 115.003906 113.425781 115.289062 C 113.425781 115.382812 113.472656 115.480469 113.472656 115.574219 C 113.472656 115.765625 113.523438 116 113.523438 116.191406 C 113.523438 116.476562 113.523438 116.761719 113.472656 117.046875 C 113.472656 117.046875 113.472656 117.09375 113.472656 117.09375 C 113.425781 117.332031 113.378906 117.570312 113.332031 117.808594 C 113.285156 118.046875 113.1875 118.234375 113.140625 118.472656 C 113.140625 118.519531 113.09375 118.566406 113.09375 118.617188 C 112.855469 119.089844 112.617188 119.519531 112.332031 119.945312 C 112.285156 119.992188 112.238281 120.089844 112.191406 120.136719 C 112.046875 120.328125 111.90625 120.515625 111.714844 120.660156 C 111.332031 121.085938 110.90625 121.46875 110.476562 121.847656 C 110.335938 121.988281 110.144531 122.132812 110 122.226562 C 109.859375 122.324219 109.714844 122.417969 109.621094 122.511719 C 108.527344 123.273438 107.382812 123.890625 106.195312 124.460938 C 105.910156 124.601562 105.625 124.746094 105.339844 124.886719 C 105.195312 124.9375 105.101562 124.984375 104.957031 125.078125 C 105.050781 125.03125 105.148438 125.03125 105.242188 124.984375 C 105.148438 125.03125 105.003906 125.078125 104.910156 125.125 C 104.910156 125.125 104.863281 125.125 104.863281 125.125 C 104.671875 125.222656 104.386719 125.316406 104.816406 125.125 C 104.148438 125.410156 103.484375 125.648438 102.769531 125.886719 C 99.628906 126.980469 96.441406 127.738281 93.15625 128.308594 C 92.730469 128.40625 92.300781 128.453125 91.871094 128.5 C 90.921875 125.171875 89.636719 121.988281 88.066406 118.902344 C 89.066406 117.808594 89.921875 116.523438 90.445312 115.050781 C 90.492188 114.859375 90.585938 114.671875 90.636719 114.480469 C 96.628906 114.101562 102.769531 112.53125 107.957031 109.394531 C 108.429688 109.109375 108.90625 108.777344 109.382812 108.445312 C 110.429688 109.777344 111.429688 111.105469 112.285156 112.53125 C 112.570312 113.007812 112.808594 113.53125 113.046875 114.054688 C 112.664062 113.199219 113.09375 114.101562 113.1875 114.386719 Z M 63.800781 128.691406 C 63.703125 128.691406 63.609375 128.644531 63.5625 128.644531 C 63.371094 128.59375 63.179688 128.59375 63.039062 128.546875 C 62.5625 128.5 62.085938 128.40625 61.609375 128.308594 C 58.421875 127.789062 55.1875 127.074219 52.09375 126.027344 C 51.378906 125.792969 50.714844 125.554688 50.046875 125.269531 C 49.90625 125.222656 49.476562 125.03125 49.285156 124.984375 C 49.097656 124.886719 48.90625 124.839844 48.761719 124.746094 C 47.621094 124.222656 46.480469 123.605469 45.433594 122.894531 C 45.335938 122.84375 45.289062 122.796875 45.195312 122.75 C 45.050781 122.609375 44.910156 122.511719 44.71875 122.417969 C 44.625 122.371094 44.578125 122.273438 44.527344 122.273438 C 44.578125 122.273438 44.578125 122.324219 44.578125 122.324219 C 44.625 122.371094 44.625 122.371094 44.671875 122.417969 C 44.671875 122.417969 44.671875 122.417969 44.625 122.417969 C 44.433594 122.273438 44.289062 122.132812 44.480469 122.273438 C 44.101562 121.941406 43.71875 121.609375 43.386719 121.230469 C 43.246094 121.085938 43.101562 120.898438 42.957031 120.753906 C 43.007812 120.800781 43.054688 120.898438 43.101562 120.992188 C 43.054688 120.898438 43.007812 120.847656 42.910156 120.753906 C 42.910156 120.753906 42.910156 120.753906 42.910156 120.707031 C 42.769531 120.515625 42.53125 120.136719 42.816406 120.5625 C 42.578125 120.183594 42.339844 119.804688 42.148438 119.421875 C 42.007812 119.042969 41.910156 118.664062 41.816406 118.28125 C 41.769531 117.996094 41.675781 117.710938 41.625 117.378906 C 41.625 117.285156 41.625 117.191406 41.578125 117.046875 C 41.53125 116.476562 41.578125 115.953125 41.578125 115.382812 C 41.578125 115.289062 41.625 115.242188 41.625 115.148438 C 41.675781 114.910156 41.722656 114.671875 41.816406 114.433594 C 41.863281 114.292969 41.910156 114.148438 41.960938 114.007812 C 41.910156 114.148438 41.960938 113.957031 42.007812 113.816406 C 42.054688 113.722656 42.101562 113.625 42.101562 113.53125 C 42.054688 113.578125 42.054688 113.671875 42.054688 113.722656 C 42.054688 113.722656 42.054688 113.722656 42.054688 113.671875 C 42.484375 112.816406 43.007812 111.960938 43.578125 111.203125 C 43.625 111.105469 43.71875 111.011719 43.769531 110.917969 C 44.148438 111.105469 44.527344 111.34375 44.910156 111.535156 C 48.242188 113.152344 51.855469 114.101562 55.472656 114.71875 C 60.753906 115.574219 66.082031 115.765625 71.414062 115.574219 C 72.171875 117.617188 73.507812 119.28125 75.21875 120.46875 C 73.792969 123.320312 72.695312 126.3125 71.9375 129.449219 C 71.792969 129.449219 71.699219 129.449219 71.554688 129.449219 C 69.699219 129.355469 67.890625 129.214844 66.035156 129.023438 C 65.417969 128.878906 64.609375 128.785156 63.800781 128.691406 Z M 63.988281 128.738281 C 64.226562 128.738281 64.179688 128.738281 63.988281 128.738281 Z M 76.882812 110.820312 C 76.933594 110.679688 76.933594 110.535156 76.980469 110.394531 C 77.074219 110.109375 77.167969 109.824219 77.265625 109.539062 C 77.265625 109.539062 77.265625 109.492188 77.3125 109.492188 C 77.359375 109.347656 77.457031 109.207031 77.550781 109.109375 C 77.644531 108.96875 77.691406 108.824219 77.789062 108.730469 C 77.789062 108.683594 77.835938 108.683594 77.882812 108.636719 C 78.121094 108.398438 78.359375 108.160156 78.597656 107.921875 C 78.738281 107.828125 78.929688 107.683594 79.074219 107.589844 C 79.214844 107.496094 79.40625 107.398438 79.550781 107.304688 C 79.929688 107.164062 80.308594 107.066406 80.691406 106.972656 C 80.882812 106.972656 81.070312 106.972656 81.261719 106.972656 C 81.40625 106.972656 81.59375 106.972656 81.738281 107.019531 C 81.785156 107.019531 81.832031 107.019531 81.878906 107.066406 C 82.117188 107.113281 82.308594 107.164062 82.546875 107.257812 C 82.59375 107.257812 82.59375 107.257812 82.640625 107.304688 C 82.832031 107.398438 83.070312 107.542969 83.261719 107.636719 C 83.355469 107.683594 83.546875 107.828125 83.640625 107.921875 C 83.832031 108.066406 84.023438 108.253906 84.164062 108.445312 C 84.210938 108.492188 84.257812 108.539062 84.308594 108.636719 C 84.355469 108.683594 84.402344 108.730469 84.402344 108.777344 C 84.546875 109.015625 84.6875 109.253906 84.832031 109.539062 C 84.878906 109.679688 84.925781 109.777344 84.972656 109.917969 C 85.070312 110.15625 85.117188 110.441406 85.164062 110.726562 C 85.164062 110.871094 85.210938 111.011719 85.210938 111.203125 C 85.210938 111.488281 85.210938 111.773438 85.164062 112.105469 C 85.164062 112.199219 85.117188 112.296875 85.117188 112.390625 C 85.070312 112.675781 84.972656 113.007812 84.878906 113.292969 C 84.878906 113.339844 84.832031 113.386719 84.832031 113.4375 C 84.78125 113.484375 84.78125 113.578125 84.734375 113.625 C 84.59375 113.910156 84.449219 114.195312 84.257812 114.433594 C 84.210938 114.527344 84.117188 114.625 84.070312 114.71875 C 84.070312 114.71875 84.070312 114.71875 84.070312 114.765625 C 83.878906 115.003906 83.6875 115.195312 83.449219 115.382812 C 83.402344 115.429688 83.308594 115.527344 83.210938 115.574219 C 83.164062 115.574219 83.164062 115.621094 83.117188 115.621094 C 82.878906 115.8125 82.59375 115.90625 82.355469 116.050781 C 82.261719 116.097656 82.214844 116.097656 82.214844 116.097656 C 82.023438 116.144531 81.785156 116.238281 81.59375 116.285156 C 81.546875 116.285156 81.40625 116.335938 81.308594 116.335938 C 81.214844 116.335938 81.070312 116.335938 81.023438 116.335938 C 80.832031 116.335938 80.644531 116.335938 80.453125 116.335938 C 80.40625 116.335938 80.308594 116.335938 80.261719 116.335938 C 79.929688 116.285156 79.644531 116.191406 79.359375 116.097656 C 79.40625 116.097656 79.453125 116.144531 79.5 116.191406 C 79.453125 116.144531 79.359375 116.097656 79.261719 116.097656 C 79.167969 116.050781 79.121094 116.050781 79.121094 116 C 78.976562 115.90625 78.835938 115.859375 78.691406 115.765625 C 78.644531 115.765625 78.597656 115.714844 78.503906 115.621094 C 78.453125 115.574219 78.40625 115.527344 78.359375 115.480469 C 78.265625 115.382812 78.121094 115.289062 78.027344 115.144531 C 77.980469 115.097656 77.835938 114.910156 77.742188 114.8125 C 77.644531 114.671875 77.550781 114.527344 77.457031 114.386719 C 77.359375 114.242188 77.3125 114.148438 77.265625 114.007812 C 77.265625 114.007812 77.265625 113.957031 77.21875 113.957031 C 77.167969 113.863281 77.121094 113.671875 77.074219 113.625 C 77.027344 113.484375 76.980469 113.339844 76.933594 113.199219 C 76.882812 113.054688 76.835938 112.914062 76.835938 112.769531 C 76.835938 112.675781 76.789062 112.582031 76.789062 112.484375 C 76.695312 112.058594 76.789062 112.769531 76.835938 112.816406 C 76.742188 112.105469 76.835938 111.390625 76.882812 110.820312 Z M 76.835938 111.011719 C 76.835938 110.964844 76.835938 110.917969 76.882812 110.820312 C 76.835938 110.964844 76.835938 111.058594 76.835938 111.011719 Z M 77.882812 108.445312 C 77.882812 108.445312 77.929688 108.398438 77.882812 108.445312 C 77.929688 108.398438 77.882812 108.398438 77.882812 108.445312 Z M 83.972656 114.71875 C 83.972656 114.71875 83.972656 114.765625 83.972656 114.71875 Z M 84.734375 113.53125 C 84.734375 113.578125 84.78125 113.386719 84.832031 113.246094 C 84.832031 113.386719 84.78125 113.484375 84.734375 113.53125 Z M 85.210938 111.914062 C 85.210938 111.960938 85.210938 112.105469 85.210938 112.105469 C 85.164062 112.152344 85.210938 112.011719 85.210938 111.914062 Z M 79.359375 126.171875 C 79.453125 125.980469 79.5 125.792969 79.597656 125.601562 C 79.644531 125.410156 79.929688 124.554688 79.691406 125.363281 C 79.835938 124.9375 80.074219 124.460938 80.308594 124.03125 C 80.597656 123.367188 80.929688 122.75 81.308594 122.132812 C 81.878906 122.132812 82.5 122.039062 83.023438 121.894531 C 83.355469 122.511719 83.640625 123.128906 83.925781 123.746094 C 84.117188 124.128906 84.308594 124.554688 84.449219 124.9375 C 84.496094 125.03125 84.496094 125.078125 84.546875 125.171875 C 84.640625 125.363281 84.6875 125.554688 84.78125 125.742188 C 85.210938 126.882812 85.59375 127.976562 85.972656 129.164062 C 85.019531 129.261719 84.023438 129.308594 83.070312 129.355469 C 81.453125 129.449219 79.882812 129.5 78.265625 129.5 C 78.550781 128.40625 78.929688 127.265625 79.359375 126.171875 Z M 92.96875 108.351562 C 92.917969 108.351562 92.871094 108.351562 92.824219 108.351562 C 92.492188 108.398438 92.777344 108.351562 92.96875 108.351562 Z M 92.96875 108.351562 C 93.015625 108.351562 93.015625 108.351562 93.015625 108.351562 C 93.015625 108.351562 93.015625 108.351562 92.96875 108.351562 Z M 26.449219 178.351562 Z M 122.371094 196.363281 C 122.324219 196.410156 122.277344 196.410156 122.277344 196.457031 C 122.421875 196.363281 122.707031 196.125 122.371094 196.363281 Z M 122.230469 196.503906 C 122.230469 196.457031 122.230469 196.503906 122.230469 196.503906 Z M 127.367188 149.410156 C 128.414062 151.261719 129.414062 153.164062 130.320312 155.113281 C 130.554688 155.589844 130.746094 156.0625 130.984375 156.539062 C 131.078125 156.726562 131.175781 156.917969 131.222656 157.109375 C 131.222656 157.0625 131.175781 157.011719 131.128906 156.917969 C 131.175781 157.011719 131.175781 157.0625 131.222656 157.15625 C 131.269531 157.25 131.316406 157.347656 131.316406 157.394531 C 131.316406 157.394531 131.316406 157.394531 131.316406 157.441406 C 131.699219 158.34375 132.03125 159.246094 132.363281 160.148438 C 132.984375 161.957031 133.554688 163.808594 133.933594 165.710938 C 134.03125 166.183594 134.125 166.660156 134.21875 167.136719 C 134.269531 167.324219 134.269531 167.5625 134.316406 167.753906 C 134.316406 167.800781 134.316406 167.894531 134.363281 167.945312 C 134.457031 168.847656 134.554688 169.703125 134.601562 170.605469 C 134.695312 172.507812 134.601562 174.40625 134.363281 176.261719 C 134.363281 176.308594 134.363281 176.355469 134.363281 176.402344 C 134.316406 176.640625 134.269531 176.878906 134.21875 177.164062 C 134.125 177.6875 134.03125 178.160156 133.933594 178.636719 C 133.695312 179.632812 133.457031 180.585938 133.171875 181.582031 C 132.886719 182.53125 132.507812 183.484375 132.175781 184.433594 C 132.125 184.527344 132.125 184.578125 132.078125 184.671875 C 131.984375 184.910156 131.890625 185.097656 131.792969 185.335938 C 131.554688 185.859375 131.269531 186.335938 130.984375 186.808594 C 130.460938 187.714844 129.890625 188.570312 129.320312 189.421875 C 129.175781 189.613281 129.035156 189.804688 128.890625 189.992188 C 128.84375 190.042969 128.84375 190.042969 128.796875 190.089844 C 128.460938 190.515625 128.082031 190.945312 127.703125 191.371094 C 126.320312 192.941406 124.800781 194.414062 123.132812 195.746094 C 122.941406 195.886719 122.753906 196.03125 122.5625 196.21875 C 122.46875 196.316406 122.324219 196.363281 122.277344 196.457031 C 121.898438 196.742188 121.46875 197.074219 121.085938 197.359375 C 120.230469 197.976562 119.328125 198.59375 118.421875 199.164062 C 116.613281 200.304688 114.710938 201.351562 112.808594 202.351562 C 111.855469 202.824219 110.90625 203.300781 109.953125 203.777344 C 109.476562 204.011719 109 204.203125 108.527344 204.441406 C 108.335938 204.535156 108.144531 204.582031 107.957031 204.679688 C 107.8125 204.726562 107.667969 204.773438 107.527344 204.867188 C 103.53125 206.484375 99.34375 207.625 95.109375 208.433594 C 94.0625 208.621094 92.96875 208.8125 91.921875 208.957031 C 91.683594 209.003906 91.445312 209.003906 91.207031 209.050781 C 92.15625 208.90625 91.207031 209.050781 90.96875 209.097656 C 90.398438 209.144531 89.875 209.242188 89.304688 209.289062 C 87.160156 209.527344 85.070312 209.667969 82.925781 209.714844 C 78.835938 209.859375 74.742188 209.761719 70.699219 209.429688 C 68.84375 209.289062 66.941406 209.097656 65.085938 208.859375 C 65.035156 208.859375 65.035156 208.859375 64.988281 208.859375 C 64.796875 208.8125 64.609375 208.8125 64.417969 208.765625 C 63.988281 208.71875 63.515625 208.621094 63.085938 208.574219 C 62.230469 208.433594 61.421875 208.289062 60.613281 208.148438 C 57.804688 207.625 54.996094 207.007812 52.285156 206.152344 C 51.667969 205.960938 51.09375 205.769531 50.523438 205.582031 C 50.046875 205.390625 49.574219 205.25 49.097656 205.058594 C 48.859375 204.964844 48.574219 204.867188 48.335938 204.773438 C 48.289062 204.773438 48.242188 204.726562 48.191406 204.726562 C 48.144531 204.726562 48.097656 204.679688 48.050781 204.679688 C 46.097656 203.824219 44.242188 202.871094 42.433594 201.78125 C 41.578125 201.257812 40.675781 200.6875 39.867188 200.117188 C 39.4375 199.832031 39.058594 199.546875 38.675781 199.214844 C 38.628906 199.164062 38.535156 199.117188 38.484375 199.070312 C 38.25 198.878906 38.011719 198.691406 37.773438 198.5 C 36.15625 197.171875 34.679688 195.695312 33.300781 194.128906 C 33.015625 193.796875 32.730469 193.367188 32.394531 193.035156 C 32.441406 193.082031 32.539062 193.179688 32.539062 193.179688 C 32.441406 193.082031 32.347656 192.988281 32.300781 192.894531 C 32.109375 192.65625 31.96875 192.417969 31.777344 192.179688 C 31.160156 191.324219 30.585938 190.421875 30.0625 189.472656 C 29.828125 189.042969 29.589844 188.617188 29.398438 188.1875 C 29.207031 187.855469 29.113281 187.429688 28.921875 187.046875 C 28.921875 187.09375 28.875 187 28.78125 186.90625 C 28.78125 186.859375 28.730469 186.808594 28.730469 186.761719 C 28.730469 186.761719 28.730469 186.761719 28.730469 186.714844 C 28.683594 186.621094 28.636719 186.523438 28.589844 186.429688 C 28.492188 186.191406 28.398438 185.953125 28.304688 185.667969 C 28.113281 185.097656 27.875 184.527344 27.683594 183.910156 C 27.351562 182.867188 27.113281 181.820312 26.875 180.773438 C 26.78125 180.253906 26.636719 179.683594 26.589844 179.113281 C 26.542969 178.921875 26.542969 178.730469 26.496094 178.542969 C 26.496094 178.398438 26.449219 178.207031 26.449219 178.066406 C 26.210938 175.925781 26.210938 173.789062 26.351562 171.699219 C 26.398438 171.222656 26.449219 170.746094 26.496094 170.226562 C 26.542969 169.988281 26.542969 169.703125 26.589844 169.464844 C 26.589844 169.371094 26.636719 169.273438 26.636719 169.226562 C 26.78125 168.132812 27.019531 167.039062 27.257812 165.949219 C 27.734375 163.761719 28.351562 161.625 29.113281 159.53125 C 29.492188 158.488281 29.875 157.441406 30.300781 156.394531 C 30.492188 155.96875 30.636719 155.492188 30.824219 155.066406 C 30.824219 155.066406 30.824219 155.019531 30.921875 154.875 C 30.96875 154.734375 31.015625 154.636719 31.0625 154.496094 C 31.207031 154.164062 31.347656 153.878906 31.492188 153.542969 C 32.492188 151.3125 33.539062 149.125 34.632812 146.9375 C 36.964844 142.328125 39.484375 137.863281 42.007812 133.347656 C 42.769531 131.96875 43.53125 130.589844 44.339844 129.164062 C 44.71875 129.402344 45.148438 129.59375 45.527344 129.785156 C 48.476562 131.210938 51.570312 132.207031 54.757812 133.015625 C 59.660156 134.203125 64.703125 134.914062 69.792969 135.25 C 69.222656 135.484375 68.746094 135.914062 68.414062 136.4375 C 68.035156 137.054688 67.890625 138.003906 68.128906 138.71875 C 68.367188 139.429688 68.796875 140.144531 69.507812 140.476562 C 69.984375 140.714844 70.507812 140.855469 71.03125 140.855469 C 71.078125 141.664062 71.128906 142.519531 71.175781 143.328125 C 71.269531 144.136719 71.460938 144.847656 72.03125 145.417969 C 72.554688 145.941406 73.410156 146.320312 74.125 146.273438 C 75.601562 146.226562 77.265625 144.941406 77.121094 143.28125 C 77.027344 142.28125 76.980469 141.285156 76.933594 140.332031 C 77.027344 140.285156 77.121094 140.238281 77.265625 140.191406 C 77.644531 140.046875 77.929688 139.859375 78.214844 139.574219 C 78.738281 139.050781 79.121094 138.195312 79.074219 137.480469 C 79.027344 136.722656 78.789062 135.914062 78.214844 135.390625 C 80.546875 135.390625 82.925781 135.296875 85.257812 135.105469 C 85.164062 135.199219 85.117188 135.296875 85.070312 135.390625 C 84.6875 136.007812 84.546875 136.960938 84.78125 137.671875 C 85.019531 138.386719 85.449219 139.097656 86.164062 139.429688 C 86.402344 139.527344 86.636719 139.621094 86.875 139.714844 C 87.257812 139.808594 87.636719 139.859375 88.019531 139.808594 C 88.019531 140.238281 88.066406 140.617188 88.066406 141.046875 C 88.113281 142.613281 89.398438 144.085938 91.0625 144.039062 C 92.632812 143.992188 94.0625 142.757812 94.0625 141.046875 C 94.0625 140.855469 94.0625 140.664062 94.0625 140.476562 C 94.441406 140.378906 94.773438 140.285156 95.011719 140.144531 C 95.632812 139.761719 96.203125 139.097656 96.394531 138.386719 C 96.582031 137.625 96.535156 136.769531 96.105469 136.105469 C 95.964844 135.914062 95.773438 135.722656 95.632812 135.484375 C 95.25 135.105469 94.824219 134.867188 94.300781 134.726562 C 94.015625 134.628906 93.726562 134.535156 93.441406 134.441406 C 93.441406 134.34375 93.394531 134.296875 93.394531 134.203125 C 95.679688 133.824219 97.964844 133.394531 100.199219 132.824219 C 103.433594 132.015625 106.574219 130.925781 109.574219 129.449219 C 110.859375 128.832031 112.09375 128.121094 113.238281 127.265625 C 117.996094 134.582031 123.085938 141.757812 127.367188 149.410156 Z M 129.9375 32.933594 C 129.84375 33.171875 129.746094 33.40625 129.652344 33.644531 C 129.605469 33.742188 129.558594 33.835938 129.507812 33.929688 C 129.460938 34.027344 129.460938 34.074219 129.414062 34.167969 C 128.9375 35.261719 128.460938 36.355469 127.988281 37.449219 C 127.035156 39.585938 125.988281 41.722656 124.894531 43.816406 C 122.707031 48.046875 120.328125 52.179688 117.710938 56.125 C 116.234375 58.308594 114.710938 60.449219 113.140625 62.539062 C 113.046875 62.683594 112.902344 62.824219 112.808594 62.96875 C 112.617188 63.203125 112.429688 63.441406 112.238281 63.726562 C 111.808594 64.25 111.382812 64.820312 110.90625 65.34375 C 110.097656 66.292969 109.289062 67.242188 108.480469 68.195312 C 107.195312 67.8125 105.8125 67.671875 104.433594 67.8125 C 102.722656 67.957031 101.007812 68.335938 99.390625 68.859375 C 97.628906 69.476562 95.964844 70.144531 94.203125 70.664062 C 92.539062 71.1875 90.824219 71.570312 89.113281 71.949219 C 88.257812 72.140625 87.398438 72.28125 86.542969 72.425781 C 86.113281 72.472656 85.6875 72.566406 85.257812 72.613281 C 85.257812 72.613281 85.210938 72.613281 85.210938 72.613281 C 84.925781 72.660156 84.640625 72.710938 84.355469 72.710938 C 80.832031 73.136719 77.265625 73.230469 73.695312 73.136719 C 70.082031 73.042969 66.464844 72.710938 62.894531 72.234375 C 62.847656 72.234375 62.847656 72.234375 62.800781 72.234375 C 62.5625 72.1875 62.371094 72.1875 62.132812 72.140625 C 61.707031 72.089844 61.230469 71.996094 60.800781 71.949219 C 59.851562 71.804688 58.851562 71.664062 57.898438 71.472656 C 56.613281 71.234375 55.328125 71 54.046875 70.761719 C 51.046875 62.445312 48.050781 54.175781 45.050781 45.859375 C 44.765625 45.050781 44.433594 44.195312 44.148438 43.386719 C 48.382812 44.242188 52.714844 44.910156 57.042969 45.242188 C 63.132812 45.667969 69.175781 45.335938 75.171875 44.339844 C 81.878906 43.199219 88.304688 41.105469 94.539062 38.445312 C 101.960938 35.308594 109.050781 31.316406 115.855469 26.992188 C 123.324219 22.191406 130.507812 16.964844 137.503906 11.5 C 135.503906 18.25 133.269531 24.902344 130.652344 31.414062 C 130.367188 31.792969 130.175781 32.363281 129.9375 32.933594 Z M 129.9375 32.933594 "/></g><path style=" stroke:none;fill-rule:nonzero;fill:#000000;fill-opacity:1;" d="M 36.628906 63.679688 C 36.679688 63.726562 36.679688 63.773438 36.726562 63.824219 C 36.726562 63.824219 36.726562 63.871094 36.773438 63.871094 C 36.441406 63.394531 36.535156 63.539062 36.628906 63.679688 Z M 36.628906 63.679688 "/><path style=" stroke:none;fill-rule:nonzero;fill:#000000;fill-opacity:1;" d="M 89.875 159.34375 C 81.929688 163 74.171875 167.5625 65.558594 168.941406 C 57.519531 170.226562 49.097656 168.464844 42.148438 164.238281 C 39.390625 162.574219 35.820312 164.285156 35.441406 167.46875 C 34.011719 179.730469 39.675781 189.089844 49.050781 195.078125 C 63.324219 204.15625 86.113281 205.34375 105.339844 196.789062 C 122.085938 189.375 128.605469 174.453125 125.179688 162.714844 C 123.703125 157.679688 119.183594 154.164062 113.949219 153.734375 C 104.957031 153.023438 96.105469 156.492188 89.875 159.34375 Z M 50.90625 185.953125 C 50.523438 186.382812 49.808594 186.667969 49.238281 186.667969 C 48.574219 186.667969 48.050781 186.382812 47.574219 185.953125 C 45.8125 184.386719 44.339844 182.4375 43.386719 180.253906 C 43.148438 179.871094 43.054688 179.492188 43.054688 179.0625 C 43.101562 178.875 43.101562 178.636719 43.148438 178.445312 C 43.292969 177.828125 43.71875 177.351562 44.242188 177.019531 C 44.765625 176.6875 45.527344 176.640625 46.097656 176.78125 C 46.621094 176.925781 47.289062 177.351562 47.527344 177.875 C 47.953125 178.875 48.527344 179.824219 49.144531 180.679688 C 49.714844 181.390625 50.285156 182.011719 50.953125 182.582031 C 51.429688 183.007812 51.617188 183.671875 51.667969 184.242188 C 51.667969 184.910156 51.332031 185.480469 50.90625 185.953125 Z M 57.421875 191.5625 C 57.28125 191.703125 57.1875 191.894531 57.042969 192.039062 C 56.804688 192.273438 56.566406 192.417969 56.28125 192.511719 C 55.996094 192.65625 55.710938 192.75 55.378906 192.703125 C 55.042969 192.703125 54.757812 192.65625 54.472656 192.511719 C 54.1875 192.417969 53.902344 192.273438 53.710938 192.039062 C 53.332031 191.703125 52.949219 191.371094 52.570312 191.039062 C 52.285156 190.753906 52.09375 190.375 51.953125 189.992188 C 51.902344 189.804688 51.902344 189.566406 51.855469 189.375 C 51.855469 188.949219 51.953125 188.570312 52.191406 188.1875 C 52.332031 188.046875 52.425781 187.855469 52.570312 187.714844 C 52.808594 187.476562 53.046875 187.332031 53.332031 187.238281 C 53.617188 187.09375 53.902344 187 54.234375 187.046875 C 54.570312 187.046875 54.855469 187.09375 55.140625 187.238281 C 55.425781 187.332031 55.710938 187.476562 55.902344 187.714844 C 56.28125 188.046875 56.664062 188.378906 57.042969 188.710938 C 57.328125 188.996094 57.519531 189.375 57.660156 189.757812 C 57.710938 189.945312 57.710938 190.183594 57.757812 190.375 C 57.757812 190.800781 57.613281 191.230469 57.421875 191.5625 Z M 57.421875 191.5625 "/><path style=" stroke:none;fill-rule:nonzero;fill:#000000;fill-opacity:1;" d="M 116.664062 46.855469 C 116.042969 46.523438 115.425781 46.714844 115.042969 47.285156 C 114.09375 48.710938 113.09375 50.089844 112.140625 51.515625 C 111.808594 52.035156 112.046875 52.84375 112.570312 53.128906 C 113.1875 53.460938 113.808594 53.273438 114.1875 52.703125 C 115.140625 51.277344 116.140625 49.898438 117.089844 48.472656 C 117.425781 47.949219 117.1875 47.140625 116.664062 46.855469 Z M 116.664062 46.855469 "/></g></svg>