<svg xmlns="http://www.w3.org/2000/svg" xmlns:xlink="http://www.w3.org/1999/xlink" width="238" zoomAndPan="magnify" viewBox="0 0 178.5 221.249992" height="295" preserveAspectRatio="xMidYMid meet" version="1.0"><defs><clipPath id="6aa7c4e5c9"><path d="M 0.0507812 0 L 177.203125 0 L 177.203125 220.503906 L 0.0507812 220.503906 Z M 0.0507812 0 " clip-rule="nonzero"/></clipPath></defs><g clip-path="url(#6aa7c4e5c9)"><path fill="#000000" d="M 100.539062 191.546875 L 98.722656 191.546875 C 96.015625 190.75 95.667969 188.945312 95.855469 186.945312 C 94.773438 186.15625 94.625 184.632812 93.480469 184.074219 C 91.910156 183.308594 91.042969 181.941406 90.070312 180.625 C 89.125 179.359375 87.839844 178.425781 86.917969 177.070312 C 86.320312 176.203125 85.386719 175.347656 84.570312 174.527344 C 83.765625 173.730469 83 172.925781 82.410156 171.910156 C 81.992188 171.179688 81.335938 170.535156 80.632812 169.933594 C 79.585938 169.058594 78.492188 168.160156 77.835938 166.796875 C 77.152344 165.363281 75.164062 165.183594 74.417969 163.65625 C 72.765625 164.433594 72.527344 165.949219 72.078125 167.117188 C 71.285156 169.179688 70.238281 171.0625 69.195312 172.984375 C 68.320312 174.589844 67.675781 176.351562 67.207031 178.117188 C 67.046875 178.714844 66.796875 179.382812 66.53125 179.71875 C 65.65625 180.824219 65.398438 182.222656 64.671875 183.296875 C 63.925781 184.394531 63.566406 185.570312 63.019531 186.703125 C 62.582031 187.613281 62.304688 188.617188 61.507812 189.34375 C 60.664062 190.121094 60.40625 191.378906 60.265625 192.324219 C 59.988281 194.15625 58.585938 195.484375 58.433594 197.296875 C 56.636719 199.011719 56.476562 201.5625 55.242188 203.582031 C 54.46875 204.859375 53.324219 206.003906 53.414062 207.730469 C 53.433594 208.148438 52.976562 208.625 52.6875 209.035156 C 51.800781 210.289062 50.945312 211.515625 50.835938 213.167969 C 50.789062 213.945312 50.269531 214.761719 49.785156 215.421875 C 49.15625 216.257812 49.566406 217.5625 48.460938 218.160156 L 46.71875 218.160156 C 46.632812 220.285156 44.582031 219.585938 43.566406 220.484375 C 42.851562 220.125 42.253906 219.835938 41.699219 219.566406 C 39.609375 217.246094 40.984375 214.773438 41.25 212.363281 C 42.761719 211.804688 42.800781 210.539062 42.761719 209.234375 C 42.933594 208.695312 43.777344 209.234375 43.886719 208.375 C 44.125 206.511719 45.707031 205.167969 46.015625 203.292969 C 47.136719 202.597656 46.75 201.171875 47.367188 200.34375 C 48.511719 198.820312 49.15625 197.097656 49.980469 195.441406 C 50.617188 194.175781 51.097656 192.824219 51.734375 191.558594 C 52.449219 190.132812 53.175781 188.746094 53.703125 187.203125 C 54.140625 185.917969 54.984375 184.640625 55.808594 183.476562 C 56.992188 181.800781 57.074219 179.460938 59.050781 178.324219 C 58.894531 178.15625 58.785156 178.027344 58.664062 177.898438 C 58.753906 176.152344 59.917969 174.816406 60.753906 173.503906 C 61.617188 172.148438 61.648438 170.195312 63.296875 169.707031 C 63.4375 168.96875 63.089844 168.78125 62.769531 168.429688 C 64.871094 167.515625 64.410156 164.902344 66.054688 163.628906 L 66.054688 161.496094 C 67.523438 159.960938 68.222656 158.265625 68.140625 156.40625 C 67.285156 156.316406 66.601562 155.738281 66.300781 155.070312 C 65.695312 153.695312 64.472656 152.9375 63.578125 151.859375 C 60.613281 148.292969 57.082031 145.214844 54.585938 141.25 C 54.378906 140.921875 54.058594 140.621094 53.5625 140.472656 C 52.6875 140.203125 51.800781 139.40625 51.664062 138.726562 C 51.425781 137.503906 50.222656 137.460938 49.742188 136.566406 C 49.257812 135.648438 48.300781 134.992188 47.585938 134.195312 C 47.355469 133.945312 47.109375 134.003906 46.789062 133.984375 C 46.273438 132.738281 45.648438 131.542969 44.5625 130.609375 C 43.507812 129.699219 42.773438 128.496094 41.878906 127.4375 C 40.941406 126.34375 39.847656 125.375 38.683594 124.199219 C 37.042969 124.679688 35.523438 123.222656 33.871094 123.703125 C 32.609375 122.695312 32.628906 121.070312 31.464844 120.144531 C 31.097656 119.847656 31.246094 118.949219 31.863281 118.550781 C 31.535156 117.972656 31.207031 117.40625 30.929688 116.925781 C 31.445312 115.910156 31.457031 114.664062 32.578125 114.105469 C 31.941406 112.722656 31.1875 111.554688 30.878906 110.28125 C 30.582031 109.046875 29.902344 107.828125 30.300781 106.625 C 28.414062 104.082031 28.363281 100.886719 26.484375 98.363281 C 26.542969 97.097656 26.5625 95.683594 25.410156 94.628906 C 25.789062 93.261719 24.433594 92.15625 24.882812 90.839844 C 24.515625 90.472656 24.195312 90.152344 23.878906 89.835938 C 24.464844 89.066406 23.519531 88.371094 23.777344 87.613281 C 22.007812 85.511719 22 82.742188 21.152344 80.289062 C 20.816406 79.324219 20.078125 78.484375 20.039062 77.507812 C 19.988281 76.402344 19.3125 75.585938 19.105469 74.628906 C 18.765625 73.136719 18.320312 71.699219 17.8125 70.234375 C 17.980469 70.046875 18.148438 69.847656 18.339844 69.628906 C 16.410156 68.132812 17.253906 65.394531 15.632812 63.589844 C 15.933594 61.996094 15.476562 60.441406 14.558594 59.015625 C 13.84375 57.902344 13.941406 56.574219 13.527344 55.378906 C 13.367188 54.921875 13.097656 54.640625 12.769531 54.214844 L 10.570312 54.214844 C 10.09375 53.734375 9.707031 53.347656 9.257812 52.898438 C 9.109375 51.015625 7.679688 49.351562 8.105469 47.269531 C 6.234375 45.566406 6.1875 43.132812 5.351562 41.042969 C 5.859375 40.246094 5.996094 39.207031 6.953125 38.789062 L 6.953125 37.007812 C 6.355469 36.457031 5.6875 35.839844 4.964844 35.171875 C 4.148438 35.210938 3.570312 34.953125 3.132812 33.90625 C 2.25 31.804688 1.484375 29.691406 1.003906 27.460938 C 0.796875 26.484375 0.429688 25.539062 0.121094 24.5 C 0.785156 23.824219 0.359375 22.808594 0.527344 21.800781 C 1.433594 20.925781 2.40625 19.988281 3.472656 18.953125 C 7.320312 18.023438 10.722656 15.316406 14.9375 14.957031 C 15.257812 14.636719 15.574219 14.316406 15.914062 13.980469 L 18.050781 13.980469 C 18.4375 13.601562 18.824219 13.230469 19.222656 12.863281 L 21.878906 12.863281 C 22.523438 12.214844 23.539062 12.136719 23.957031 11.320312 C 26.421875 11.257812 28.742188 10.652344 30.859375 9.566406 C 31.960938 8.996094 33.246094 9.304688 34.230469 8.527344 C 36.398438 9.027344 38.269531 7.730469 40.257812 7.3125 C 42.59375 6.816406 44.988281 6.257812 47.265625 5.332031 C 48.0625 5.011719 48.859375 4.78125 49.554688 4.226562 C 49.722656 4.375 49.914062 4.542969 50.070312 4.691406 C 51.980469 3.21875 54.476562 3.566406 56.484375 2.5 C 56.726562 2.71875 56.921875 2.890625 57.101562 3.058594 C 57.898438 2.589844 58.625 1.902344 59.628906 2.03125 C 60.523438 2.152344 60.863281 1.453125 61.390625 1.015625 C 62.851562 2.292969 63.707031 0.0117188 65.40625 0.527344 C 65.953125 1.074219 66.796875 1.863281 67.5625 2.71875 C 67.882812 3.078125 68.222656 3.617188 68.210938 4.054688 C 68.171875 5.648438 69.234375 7.09375 68.6875 8.789062 C 69.125 9.128906 69.542969 9.464844 69.832031 9.695312 C 69.992188 10.652344 69.472656 11.566406 70.65625 12.144531 C 69.511719 13.082031 70 14.308594 69.820312 15.394531 C 68.835938 15.742188 68.011719 16.589844 66.957031 16.042969 C 66.28125 16.808594 66.808594 17.515625 66.558594 18.132812 C 68.308594 18.792969 69.722656 17.117188 71.460938 17.964844 C 72.328125 18.523438 71.761719 20.15625 73.023438 20.675781 C 72.128906 21.859375 73.621094 22.488281 73.691406 23.496094 C 73.820312 25.359375 74.375 27.140625 75.191406 28.46875 C 75.5 29.644531 74.167969 30.101562 74.84375 30.957031 C 73.820312 31.914062 73.183594 33.230469 71.332031 33.050781 C 71.878906 35.054688 72.386719 36.898438 72.933594 38.878906 C 72.933594 38.878906 72.765625 39.070312 72.597656 39.257812 L 73.679688 40.34375 C 73.421875 41.210938 73.828125 42.085938 74.21875 42.933594 C 75.25 45.167969 75.519531 47.628906 76.367188 49.917969 C 77 51.652344 77.5 53.4375 78.207031 55.128906 C 78.375 55.550781 78.582031 55.90625 78.535156 56.347656 C 78.453125 57.152344 78.621094 57.902344 79.082031 58.566406 C 79.824219 59.644531 79.597656 61.039062 80.253906 62.15625 C 80.859375 63.191406 81.050781 64.367188 81.335938 65.523438 C 81.527344 66.28125 81.546875 67.21875 82.171875 67.882812 C 82.570312 68.304688 81.644531 68.253906 82.113281 68.902344 C 82.183594 68.96875 82.5 69.289062 82.820312 69.609375 C 83.058594 70.324219 82.511719 71.261719 83.394531 71.808594 C 84.003906 74.789062 84.839844 77.699219 86.082031 80.46875 C 85.773438 82.910156 87.691406 84.761719 87.832031 87.265625 C 89.113281 87.394531 90.605469 87.085938 91.671875 88.242188 C 92.546875 87.691406 93.332031 88.390625 94.078125 88.570312 C 95.03125 88.796875 95.9375 89.375 96.941406 89.464844 C 97.925781 89.554688 98.929688 89.488281 99.84375 89.488281 C 101.632812 90.402344 100.808594 92.585938 102.03125 93.839844 C 103.582031 92.246094 105.761719 91.886719 107.460938 90.660156 C 107.898438 91.359375 108.644531 90.34375 109.261719 91.050781 C 109.570312 91.410156 110.722656 90.910156 111.339844 91.160156 C 113.289062 91.96875 115.328125 92.136719 117.375 92.265625 C 118.023438 94.109375 120.5 95.054688 119.535156 97.777344 C 120.769531 97.128906 121.613281 96.671875 122.457031 96.222656 C 122.488281 94.675781 124.636719 95.992188 124.726562 94.539062 C 126.425781 93.601562 128.214844 93.550781 130.015625 94.078125 C 131.71875 94.578125 133.566406 94.476562 135.15625 95.414062 C 135.933594 94.179688 136.667969 95.695312 137.394531 95.445312 C 138.371094 95.105469 139.136719 95.832031 139.839844 96.113281 C 140.6875 96.449219 141.523438 96.421875 142.386719 96.609375 C 142.425781 97.398438 142.984375 97.847656 143.542969 98.382812 L 143.542969 102.71875 C 142.707031 103.992188 142.25 105.519531 141.878906 107.242188 C 141.460938 107.628906 140.9375 108.117188 140.347656 108.667969 C 140.527344 109.722656 140.039062 110.640625 139.710938 111.605469 C 139.355469 112.664062 138.0625 113.21875 138.179688 114.503906 C 138.289062 115.710938 137.039062 116.390625 137.078125 117.585938 C 137.105469 118.652344 135.84375 118.808594 135.496094 120.035156 C 135.566406 120.523438 135.4375 121.351562 134.929688 122.128906 C 134.273438 123.113281 134.191406 124.507812 133.476562 125.285156 C 132.660156 126.183594 133.019531 127.558594 131.855469 128.214844 C 131.378906 128.484375 131.707031 129.222656 131.6875 129.742188 C 131.667969 130.230469 130.972656 130.339844 131.210938 131.105469 C 131.914062 131.683594 132.492188 132.609375 132.75 133.695312 C 132.941406 134.234375 133.496094 134.015625 133.855469 134.285156 C 134.660156 134.890625 134.871094 135.9375 135.863281 136.476562 C 136.601562 136.875 137.613281 137.492188 137.632812 138.667969 C 139.34375 139.59375 139.871094 141.707031 141.59375 142.644531 C 142.488281 143.132812 142.40625 144.617188 143.332031 144.847656 C 144.496094 145.136719 144.367188 146.320312 145.164062 146.847656 C 145.917969 147.347656 146.664062 148.003906 146.972656 149.050781 C 147.121094 149.570312 147.769531 150.105469 148.304688 150.304688 C 149.21875 150.636719 149.746094 151.203125 150.105469 152.050781 C 150.203125 152.277344 150.363281 152.5 150.53125 152.6875 C 151.089844 153.277344 152.082031 153.164062 152.363281 154.351562 C 152.550781 155.179688 153.605469 155.835938 154.339844 156.492188 C 155.007812 157.09375 155.285156 158.117188 155.914062 158.507812 C 156.828125 159.085938 157.117188 160.21875 157.960938 160.609375 C 158.894531 161.027344 159.066406 162.261719 160.167969 162.371094 C 160.308594 162.382812 160.488281 162.59375 160.546875 162.742188 C 161.152344 164.386719 162.894531 165.121094 163.628906 166.628906 C 163.996094 167.382812 164.953125 167.761719 165.089844 168.449219 C 165.28125 169.367188 165.984375 169.398438 166.484375 169.726562 C 167.4375 170.332031 167.695312 171.507812 168.679688 172.136719 C 169.535156 172.675781 170.453125 173.324219 170.699219 174.46875 C 172.988281 176.121094 174.300781 178.734375 176.578125 180.316406 C 176.824219 181.492188 176.289062 182.730469 177.261719 183.515625 C 177.125 184.5625 176.757812 185.308594 175.949219 186.125 C 174.957031 186.058594 173.851562 186.785156 172.609375 186.246094 C 172.3125 186.117188 171.894531 186.207031 171.695312 185.859375 C 170.679688 184.0625 168.53125 183.335938 167.636719 181.34375 C 167.1875 180.335938 166.085938 179.589844 165.199219 178.832031 C 164.445312 178.183594 163.75 177.398438 163.230469 176.671875 C 162.195312 175.214844 160.179688 174.699219 159.699219 172.773438 C 159.632812 172.496094 159.214844 172.15625 158.925781 172.117188 C 158.039062 171.996094 157.949219 171.351562 157.601562 170.722656 C 157.292969 170.15625 157.195312 169.15625 156.160156 169.1875 C 156.03125 168.3125 155.476562 168.003906 154.6875 167.613281 C 153.84375 167.207031 153.027344 166.386719 152.601562 165.542969 C 151.882812 164.136719 150.742188 163.167969 149.648438 162.171875 C 148.582031 161.207031 148.035156 159.730469 146.644531 159.105469 C 145.410156 156.882812 142.765625 155.835938 141.890625 153.296875 C 141.761719 152.90625 141.332031 152.546875 140.945312 152.339844 C 138.558594 151.023438 137.515625 148.382812 135.417969 146.808594 C 134.542969 146.152344 134.511719 144.847656 133.488281 144.398438 C 132.382812 143.917969 132.253906 142.59375 131.257812 142.046875 C 130.285156 141.507812 130.035156 140.371094 129.371094 139.566406 C 128.84375 138.9375 128.574219 138.089844 127.519531 138.050781 C 127.25 139.984375 126.117188 141.828125 125.042969 143.519531 C 123.878906 145.363281 123.375 147.375 122.527344 149.289062 C 122.160156 150.136719 121.851562 151.003906 121.324219 151.769531 C 120.28125 153.304688 119.960938 155.238281 118.667969 156.644531 C 118.808594 157.769531 118.121094 158.605469 117.574219 159.441406 C 116.453125 161.15625 115.605469 162.992188 115.230469 164.984375 C 114.980469 166.277344 113.675781 167.066406 113.796875 168.46875 C 111.925781 170.433594 111.667969 173.214844 110.257812 175.425781 C 109.601562 176.460938 108.617188 177.410156 108.804688 178.921875 C 108.863281 179.429688 108.058594 180.019531 107.730469 180.617188 C 107.085938 181.792969 106.1875 182.859375 106.179688 184.324219 C 106.179688 185.101562 105.664062 185.738281 105.175781 186.523438 C 105.910156 187.261719 106.625 188.167969 107.523438 188.828125 C 108.386719 189.453125 108.289062 190.730469 109.492188 191.148438 C 110.457031 191.488281 110.476562 193.152344 111.816406 193.261719 C 112.027344 194.425781 113.449219 194.417969 113.875 195.574219 C 114.253906 196.578125 115.585938 197.175781 116.152344 198.164062 C 116.699219 199.109375 117.65625 199.71875 118.0625 200.625 C 118.570312 201.769531 119.933594 201.839844 120.378906 202.875 C 120.847656 203.953125 121.921875 204.359375 122.667969 205.128906 C 123.414062 205.894531 124.097656 206.722656 124.84375 207.488281 C 125.53125 208.195312 126.109375 209.125 126.84375 209.871094 C 127.667969 210.707031 128.503906 211.535156 129.507812 212.550781 C 129.507812 213.558594 129.359375 214.804688 130.164062 215.769531 C 129.71875 216.65625 129.597656 217.542969 128.84375 218.089844 C 128.195312 218.578125 127.210938 217.8125 126.65625 218.667969 C 125.5625 218.21875 124.109375 218.261719 123.851562 216.644531 C 122.390625 216.355469 121.632812 215.113281 120.925781 214.074219 C 120.480469 213.429688 119.960938 212.851562 119.464844 212.273438 C 118.75 211.457031 117.554688 210.847656 117.277344 209.929688 C 116.9375 208.792969 115.25 209.09375 115.429688 207.75 C 113.398438 207.152344 113.070312 204.640625 111.152344 203.902344 C 110.605469 203.691406 110.613281 203.046875 110.375 202.605469 C 110.027344 201.980469 109.511719 201.519531 108.992188 201.023438 C 108.546875 200.59375 108.355469 200.007812 107.601562 199.726562 C 106.984375 199.5 106.46875 198.832031 106.058594 198.253906 C 104.617188 196.199219 102.808594 194.496094 101.078125 192.714844 C 100.859375 192.492188 100.808594 192.105469 100.609375 191.617188 Z M 69.273438 127.996094 C 69.324219 127.738281 69.207031 127.570312 68.957031 127.519531 C 68.917969 127.519531 68.789062 127.636719 68.796875 127.679688 C 68.855469 127.925781 69.015625 128.046875 69.285156 128.007812 C 69.207031 128.984375 70.03125 129.699219 69.871094 130.777344 C 70.160156 130.578125 70.320312 130.386719 70.410156 130.417969 C 71.53125 130.828125 72.90625 130.320312 73.808594 130.808594 C 75.140625 131.523438 76.394531 131.097656 77.667969 131.246094 C 79.03125 131.40625 80.3125 132.152344 81.746094 131.804688 C 81.90625 131.761719 82.054688 131.683594 82.210938 131.625 C 82.492188 130.867188 82.273438 130.257812 81.425781 129.640625 C 80.691406 129.75 79.835938 129.433594 78.949219 129.144531 C 78.285156 128.921875 77.558594 129.453125 76.703125 129.164062 C 75.839844 128.863281 74.785156 129.09375 73.898438 129.09375 C 73.492188 128.683594 73.171875 128.367188 72.855469 128.046875 C 72.597656 128.234375 72.328125 128.425781 72 128.664062 C 71.222656 127.789062 70.230469 128.027344 69.285156 128.007812 Z M 85.265625 132.339844 C 84.191406 133.527344 83.148438 133.675781 82.410156 134.265625 C 81.117188 135.800781 81.03125 137.8125 80.203125 139.566406 C 78.535156 143.101562 76.933594 146.691406 75.0625 150.128906 C 73.988281 152.101562 73.878906 152.03125 75.113281 153.921875 C 75.769531 151.78125 76.097656 150.535156 77.855469 148.960938 C 78.15625 147.726562 78.207031 146.441406 78.761719 145.453125 C 79.824219 143.550781 81.128906 141.808594 81.835938 139.683594 C 81.984375 139.238281 82.242188 138.609375 82.679688 138.140625 C 84.042969 136.6875 84.449219 134.753906 84.988281 132.890625 C 85.246094 132.9375 85.414062 132.820312 85.464844 132.570312 C 85.464844 132.53125 85.34375 132.402344 85.304688 132.410156 C 85.058594 132.472656 84.9375 132.628906 85.257812 132.339844 Z M 133.753906 108.277344 C 131.199219 109.394531 128.8125 110.769531 126.316406 111.90625 C 123.820312 113.042969 121.453125 114.457031 119.027344 115.742188 C 118.976562 115.652344 118.9375 115.570312 118.886719 115.480469 C 118.460938 115.941406 118.023438 116.398438 117.683594 116.757812 C 119.613281 119.917969 122.9375 121.789062 125.042969 125.027344 C 126.644531 123.683594 126.746094 121.53125 128.316406 120.734375 C 128.175781 118.164062 130.832031 116.878906 130.554688 114.554688 C 131.011719 114.367188 131.429688 114.507812 131.628906 114.085938 L 131.628906 112.253906 C 131.914062 112.066406 132.332031 111.777344 132.730469 111.507812 C 132.484375 111.1875 132.34375 111.007812 132.222656 110.859375 C 132.800781 110.011719 133.996094 109.683594 133.785156 108.429688 C 134.042969 108.476562 134.214844 108.359375 134.261719 108.109375 C 134.261719 108.070312 134.144531 107.941406 134.105469 107.949219 C 133.855469 108.007812 133.734375 108.167969 133.753906 108.269531 Z M 39.460938 110.621094 C 40.4375 110.25 41.230469 109.15625 42.046875 109.09375 C 43.957031 108.945312 45.359375 107.871094 46.988281 107.203125 C 49.625 106.117188 51.941406 104.402344 54.6875 103.535156 C 55.570312 103.257812 56.425781 102.789062 57.074219 101.902344 C 59.171875 102.328125 60.710938 101.265625 61.957031 99.738281 C 63.449219 100.039062 64.152344 98.027344 65.664062 98.671875 C 66.75 97.847656 68.191406 97.605469 69.097656 96.5 C 70.609375 97.167969 71.414062 95.574219 72.675781 95.285156 C 73.859375 95.015625 75.28125 94.417969 76.085938 93.210938 L 77.796875 93.210938 C 78.613281 91.679688 80.304688 91.558594 81.664062 90.882812 C 81.824219 89.996094 81.84375 89.199219 81.089844 88.460938 C 80.570312 87.953125 80.253906 87.234375 80.09375 86.4375 C 79.777344 84.785156 79.367188 83.1875 78.671875 81.605469 C 77.988281 80.039062 77.121094 78.367188 77.398438 76.542969 C 76.941406 76.164062 76.605469 75.875 76.386719 75.695312 C 76.214844 72.847656 75.460938 70.355469 74.207031 67.882812 C 73.980469 64.90625 73.183594 61.984375 71.421875 58.9375 C 71.394531 58.25 71.265625 57.164062 70.984375 56.058594 C 70.71875 54.980469 70.4375 53.964844 70.019531 52.917969 C 69.402344 51.363281 68.996094 49.691406 68.777344 48.027344 C 68.628906 46.949219 68.46875 45.984375 67.671875 45.195312 C 67.832031 41.777344 65.464844 39 65.386719 35.941406 C 62.710938 36.429688 60.382812 37.574219 57.929688 38.402344 C 55.800781 39.117188 53.433594 39.347656 51.691406 41.101562 C 50.429688 41.121094 49.246094 41.25 47.992188 41.886719 C 47.117188 42.328125 46.28125 43.214844 45.328125 43.214844 C 44.222656 43.214844 43.410156 44.03125 42.34375 43.921875 C 41.769531 45.285156 40.246094 44.539062 39.382812 45.265625 C 38.355469 46.125 37.113281 46.011719 35.941406 45.992188 C 34.527344 47.746094 32.003906 46.980469 30.628906 48.246094 C 28.941406 49.800781 26.582031 48.984375 24.992188 50.425781 C 24.574219 50.816406 20.378906 52.050781 19.480469 52.160156 C 19.546875 53.023438 19.910156 54.003906 20.566406 55.101562 L 20.566406 57.351562 C 20.945312 57.660156 21.28125 57.941406 21.582031 58.191406 C 21.429688 61.347656 23.667969 63.691406 24.085938 66.578125 C 23.988281 66.707031 23.886719 66.839844 23.839844 66.898438 C 24.605469 68.242188 25.339844 69.578125 25.679688 71.054688 C 26.09375 72.867188 27.011719 74.492188 27.546875 76.253906 C 28.175781 78.335938 28.699219 80.480469 29.585938 82.460938 C 30.113281 83.636719 30.261719 84.761719 30.253906 85.929688 C 31.285156 86.886719 31.503906 88.25 31.785156 89.40625 C 32.050781 90.523438 33.035156 91.328125 32.949219 92.457031 C 32.839844 93.769531 33.503906 94.738281 33.992188 95.832031 C 34.210938 96.332031 34.746094 96.730469 34.636719 97.488281 C 34.417969 98.914062 35.929688 99.867188 35.851562 101.304688 C 37.203125 102.527344 37.273438 104.390625 37.730469 105.9375 C 38.21875 107.5625 38.804688 109.117188 39.480469 110.648438 C 39.222656 110.601562 39.054688 110.71875 39.003906 110.96875 C 39.003906 111.007812 39.121094 111.136719 39.164062 111.128906 C 39.410156 111.066406 39.53125 110.910156 39.492188 110.648438 Z M 77.449219 155.1875 C 77.488281 155.488281 77.230469 156.125 77.589844 156.703125 C 78.316406 156.691406 78.703125 157.179688 79.039062 157.691406 C 80.34375 159.664062 81.625 161.785156 83.574219 163.058594 C 84.796875 163.867188 85.175781 164.914062 85.890625 165.839844 C 86.570312 166.429688 87.285156 166.847656 87.800781 167.773438 C 88.199219 168.480469 89.292969 168.847656 89.910156 169.578125 C 90.457031 170.234375 91.082031 170.851562 91.480469 171.589844 C 91.9375 172.4375 93.160156 172.707031 93.132812 173.882812 C 94.035156 174.238281 95.101562 174.757812 95.21875 175.65625 C 95.378906 176.851562 96.703125 176.582031 97 177.609375 C 97.230469 178.386719 98.183594 178.953125 99.347656 180.160156 C 99.316406 177.707031 100.679688 176.523438 101.257812 174.9375 C 101.65625 173.839844 102.777344 172.996094 102.449219 171.621094 C 102.429688 171.53125 102.679688 171.359375 102.816406 171.242188 C 103.445312 170.722656 103.574219 169.925781 103.972656 169.277344 C 105.304688 167.136719 105.761719 164.585938 107.195312 162.472656 C 107.839844 161.515625 108.335938 160.417969 108.714844 159.3125 C 108.964844 158.578125 109.171875 157.917969 109.660156 157.25 C 110.605469 155.976562 110.902344 154.28125 112.105469 153.125 C 111.96875 151.390625 113.28125 150.503906 114.246094 149.460938 C 114.195312 149.152344 113.765625 149.191406 113.917969 148.640625 C 114.3125 147.21875 115.210938 146.070312 115.933594 144.875 C 116.769531 143.5 117.078125 141.765625 118.539062 140.78125 C 118.628906 140.722656 118.582031 140.441406 118.601562 140.253906 C 118.429688 140.0625 118.253906 139.863281 118.003906 139.59375 C 120.132812 138.699219 119.632812 136.039062 121.246094 134.832031 C 121.523438 133.886719 120.847656 132.800781 121.871094 132.011719 C 120.332031 131.015625 119.613281 129.324219 118.410156 128.027344 C 117.289062 126.820312 115.566406 126.113281 115.230469 124.398438 C 112.972656 123.554688 112.691406 120.804688 110.605469 119.957031 C 109.054688 120.78125 107.523438 121.660156 105.941406 122.4375 C 104.300781 123.253906 102.648438 124.082031 100.929688 124.71875 C 99.277344 125.335938 98.074219 126.929688 96.144531 126.890625 C 95.5 128.097656 94.027344 127.898438 93.09375 128.722656 C 92.175781 129.53125 90.945312 130.03125 89.78125 130.476562 C 88.25 131.066406 87.542969 132.242188 87.15625 133.707031 C 86.757812 135.222656 86.230469 136.644531 85.066406 137.453125 C 84.976562 138.21875 85.066406 138.847656 84.816406 139.246094 C 84.210938 140.171875 83.894531 141.230469 83.175781 142.117188 C 82.453125 143.011719 82.847656 144.476562 81.972656 145.394531 C 81.597656 145.792969 81.804688 146.230469 81.675781 146.917969 C 81.226562 147.277344 80.601562 147.785156 80.253906 148.066406 C 79.886719 150.863281 78.59375 152.855469 77.4375 155.199219 Z M 68.769531 132.132812 C 67.574219 131.144531 67.804688 129.261719 66.75 127.949219 C 64.582031 128.546875 62.351562 129.054688 60.214844 129.800781 C 59.0625 130.199219 58.207031 130.328125 57.042969 129.699219 C 55.820312 129.042969 54.316406 128.703125 52.917969 128.636719 C 52.191406 128.59375 51.664062 127.328125 50.859375 128.285156 C 50.75 128.714844 50.9375 128.992188 51.246094 129.222656 C 53.523438 130.964844 55.441406 133.078125 57.273438 135.269531 C 58.007812 136.148438 58.851562 136.925781 59.589844 137.8125 C 60.265625 138.617188 61.199219 139.304688 62.046875 140.023438 C 63.617188 141.378906 64.363281 143.539062 66.402344 144.425781 C 66.628906 144.527344 66.847656 144.765625 66.96875 144.996094 C 68.140625 147.265625 70.269531 148.613281 71.878906 150.375 C 72.625 149.988281 73.09375 149.667969 73.082031 148.910156 C 73.082031 148.492188 72.863281 148.015625 73.261719 147.636719 C 74.535156 146.429688 75.003906 144.796875 75.492188 143.210938 C 75.859375 143.222656 76.125 143.230469 76.304688 142.941406 L 76.304688 141.359375 C 76.671875 140.96875 77.023438 140.589844 77.378906 140.214844 C 77.230469 140.0625 77.101562 139.933594 76.84375 139.675781 C 78.683594 138.308594 79.230469 136.167969 80.222656 134.203125 C 76.335938 133.507812 72.625 132.839844 68.769531 132.152344 Z M 84.390625 167.871094 C 83.773438 167.027344 82.539062 167.007812 82.113281 166.089844 C 81.316406 164.425781 79.804688 163.417969 78.652344 162.105469 C 78.144531 161.527344 77.507812 161.085938 77.269531 160.230469 C 77.0625 159.453125 75.957031 159.492188 75.539062 158.554688 C 74.984375 157.320312 73.71875 156.453125 72.824219 155.378906 C 72 154.390625 71.304688 152.964844 69.753906 152.589844 C 69.355469 152.488281 68.976562 151.941406 68.71875 151.433594 C 67.863281 149.789062 66.164062 148.8125 65.335938 147.136719 C 63.726562 146.898438 63.753906 145.3125 63.058594 144.308594 C 62.542969 144.425781 62.265625 144.058594 61.945312 143.75 C 59.796875 141.636719 58.007812 139.207031 55.898438 137.042969 C 54.84375 135.96875 53.640625 134.960938 52.765625 133.816406 C 52.019531 132.828125 51.046875 131.941406 50.488281 130.726562 C 49.980469 129.640625 48.550781 129.191406 47.894531 128.046875 C 47.089844 126.660156 45.925781 125.597656 44.492188 124.847656 C 43.964844 125.765625 42.824219 124.847656 42.253906 125.515625 C 44.453125 128.304688 47.554688 130.167969 49.324219 133.257812 C 50.449219 133.507812 50.917969 134.652344 51.8125 135.132812 C 52.777344 135.640625 52.519531 137.214844 53.859375 137.253906 C 53.902344 138.410156 55.332031 138.726562 55.421875 139.875 C 55.441406 140.082031 55.75 140.34375 55.980469 140.441406 C 57.886719 141.21875 59.230469 142.8125 60.246094 144.359375 C 61.457031 146.191406 63.417969 147.199219 64.53125 149.019531 C 65.773438 149.160156 65.734375 150.546875 66.578125 151.132812 C 67.523438 151.800781 68.550781 152.617188 69.035156 153.613281 C 70.199219 155.996094 72.886719 157.023438 73.878906 159.472656 C 76.8125 160.449219 77.300781 164.105469 80.125 165.203125 C 80.144531 166.058594 81.058594 166.167969 81.335938 166.609375 C 81.945312 167.5625 83.238281 168.242188 82.820312 169.636719 C 83.136719 169.726562 83.335938 169.714844 83.457031 169.816406 C 86.109375 172.207031 88.714844 174.648438 90.972656 177.429688 C 91.691406 178.304688 92.335938 179.480469 93.28125 179.890625 C 94.703125 180.496094 94.941406 181.703125 95.648438 182.640625 C 97.824219 184.5625 99.882812 186.613281 101.703125 188.449219 C 101.882812 189.144531 101.632812 189.535156 102.003906 189.832031 C 103.5625 189.785156 103.613281 191.546875 104.738281 192.183594 C 105.582031 192.664062 106.289062 193.71875 106.894531 194.695312 C 107.601562 195.832031 108.894531 196.371094 109.917969 197.175781 L 109.917969 198.261719 C 110.714844 199.210938 111.757812 199.855469 112.605469 200.683594 C 113.566406 201.640625 114.574219 202.585938 115.40625 203.734375 C 116.382812 205.066406 117.566406 206.285156 118.667969 207.53125 C 121.382812 210.589844 124.535156 213.25 126.953125 216.644531 C 127.28125 216.136719 127.800781 215.988281 127.828125 215.511719 C 126.726562 212.988281 124.457031 211.433594 122.648438 209.632812 C 120.738281 207.738281 119.742188 204.949219 117.046875 203.804688 C 117 203.414062 116.960938 202.984375 116.898438 202.515625 C 114.949219 201.210938 112.882812 200.007812 111.945312 197.644531 C 111.886719 197.496094 111.71875 197.304688 111.570312 197.265625 C 109.730469 196.789062 109.519531 194.914062 108.527344 193.71875 C 108.109375 193.621094 107.613281 193.917969 107.261719 193.488281 C 107.234375 193.050781 107.195312 192.625 107.203125 192.703125 C 106.675781 191.417969 105.722656 191.488281 105.15625 190.890625 C 104.71875 190.421875 104.667969 189.753906 104.21875 189.375 C 103.703125 188.9375 103.066406 188.636719 102.550781 188.1875 C 102.242188 187.921875 102.011719 187.5 101.753906 187.191406 C 100.3125 185.429688 99.128906 183.425781 97.339844 181.960938 C 96.839844 181.554688 95.835938 181.542969 95.867188 180.714844 C 95.898438 179.789062 94.285156 180.40625 94.742188 179.3125 C 93.390625 177.917969 91.867188 176.671875 90.914062 174.925781 C 89.890625 174.699219 89.832031 173.414062 89.015625 173.074219 C 87.972656 172.644531 87.472656 171.730469 87.015625 170.921875 C 86.570312 170.125 85.804688 169.84375 85.246094 169.277344 C 85.105469 169.128906 84.707031 169.367188 84.5 169.019531 C 84.460938 168.640625 84.410156 168.210938 84.371094 167.832031 Z M 104.507812 181.652344 C 104.507812 181.335938 104.46875 181.136719 104.507812 180.976562 C 105.640625 177.097656 108 173.730469 109.09375 169.847656 C 110.328125 168.988281 110.304688 167.445312 110.960938 166.269531 C 111.648438 165.042969 112.484375 163.847656 112.761719 162.402344 C 112.851562 161.953125 113.210938 161.507812 113.539062 161.148438 C 114.632812 159.953125 114.683594 159.929688 114.800781 159.222656 C 115.199219 157.011719 115.84375 155.476562 117.109375 153.664062 C 117.785156 152.6875 118.492188 151.632812 118.53125 150.476562 C 118.558594 149.609375 118.988281 148.992188 119.265625 148.3125 C 119.644531 147.398438 120.339844 146.601562 120.867188 145.792969 C 120.589844 145.492188 120.421875 145.292969 120.242188 145.09375 L 122.390625 142.941406 C 122.390625 142.542969 122.199219 141.917969 122.417969 141.675781 C 123.492188 140.5 123.433594 138.796875 124.449219 137.613281 C 124.726562 137.285156 125.214844 137.074219 125.09375 136.527344 C 124.796875 135.191406 126.089844 134.375 126.179688 133.179688 C 128.433594 130.855469 128.605469 127.4375 130.515625 124.929688 C 130.722656 122.925781 131.855469 121.429688 133.039062 120.035156 C 133.90625 119.019531 133.40625 117.613281 134.054688 116.628906 C 135.265625 114.785156 136.390625 112.929688 137.117188 110.828125 C 137.335938 110.203125 137.851562 109.683594 138.242188 109.125 C 138.917969 108.148438 139.402344 107.082031 139.722656 105.9375 C 139.792969 105.699219 139.78125 105.398438 139.382812 105.148438 C 139.175781 106.246094 138.160156 105.390625 137.386719 106.167969 C 137.234375 106.722656 136.261719 107.390625 136.519531 108.398438 C 136.828125 109.632812 135.617188 109.980469 135.316406 110.917969 C 134.460938 113.617188 133.019531 116.109375 131.875 118.710938 C 131.101562 120.464844 129.351562 121.757812 129.410156 123.941406 C 129.410156 124.0625 129.171875 124.199219 129.042969 124.320312 C 128.335938 124.996094 127.640625 125.835938 127.867188 126.792969 C 128.175781 128.066406 126.574219 128.265625 126.726562 129.34375 C 126.753906 129.523438 126.726562 129.699219 126.726562 130.160156 C 126.257812 130.546875 125.640625 131.066406 125.273438 131.375 C 124.617188 134.375 122.609375 136.367188 121.773438 138.96875 C 120.988281 141.417969 119.476562 143.628906 118.382812 145.972656 C 117.246094 148.414062 115.914062 150.734375 114.761719 153.15625 C 113.636719 155.496094 113.101562 158.136719 111.570312 160.242188 C 109.949219 162.453125 109.53125 165.191406 107.890625 167.453125 C 106.417969 169.488281 105.730469 172.136719 104.507812 174.429688 C 103.246094 176.789062 102.160156 179.25 100.757812 181.554688 C 101.316406 182.113281 101.875 182.710938 102.480469 183.246094 C 102.640625 183.386719 102.949219 183.375 103.136719 183.417969 C 103.742188 182.988281 103.144531 182.300781 103.574219 181.902344 C 103.824219 181.832031 104.070312 181.773438 104.507812 181.652344 Z M 44.195312 217.59375 C 44.671875 216.707031 45.6875 216.367188 46.015625 215.300781 C 46.253906 214.523438 47.019531 213.925781 47.40625 213.167969 C 47.824219 212.351562 48.0625 211.457031 48.382812 210.589844 C 49.921875 210.597656 48.757812 208.835938 49.753906 208.496094 C 49.585938 207.539062 50.269531 206.890625 50.660156 206.164062 C 52.289062 203.136719 53.074219 199.726562 55.003906 196.828125 C 55.402344 196.242188 55.332031 195.394531 55.96875 194.777344 C 56.535156 194.207031 56.773438 193.25 57.042969 192.535156 C 57.511719 191.296875 58.085938 190.25 58.953125 189.285156 C 59.261719 188.9375 59.480469 188.476562 59.558594 187.910156 C 59.835938 185.976562 60.554688 184.183594 61.707031 182.570312 C 62.292969 181.753906 63.097656 180.867188 63.179688 179.949219 C 63.347656 177.855469 64.421875 176.273438 65.535156 174.726562 C 65.316406 174.371094 65.15625 174.101562 64.957031 173.773438 C 65.695312 173.085938 66.410156 172.40625 67.117188 171.738281 L 67.117188 170.09375 C 67.453125 169.757812 68.023438 169.457031 68.050781 169.109375 C 68.28125 166.847656 70.320312 165.34375 70.476562 163.011719 C 70.519531 162.472656 70.945312 161.507812 71.730469 161.117188 C 71.960938 161.007812 71.988281 160.867188 71.601562 160.976562 C 71.234375 160.53125 70.855469 160.082031 70.488281 159.644531 C 70.25 159.980469 69.832031 160.160156 69.792969 160.707031 C 69.703125 161.925781 68.988281 162.929688 68.359375 163.898438 C 67.785156 164.773438 67.375 165.609375 67.039062 166.628906 C 66.410156 168.519531 65.625 170.445312 64.480469 172.046875 C 63.894531 172.863281 64.152344 173.921875 63.257812 174.578125 C 62.503906 175.136719 62.203125 176.082031 62.183594 177.109375 C 62.183594 177.558594 61.847656 178.125 61.488281 178.414062 C 60.484375 179.222656 60.425781 180.566406 59.589844 181.445312 C 60.015625 182.839844 57.949219 183.347656 58.425781 184.761719 C 57.113281 186.148438 57.359375 188.339844 55.820312 189.695312 C 55.3125 190.140625 54.804688 191.167969 54.707031 191.886719 C 54.277344 194.855469 51.542969 196.71875 51.164062 199.667969 C 50.023438 200.253906 50.152344 201.621094 49.566406 202.558594 C 48.976562 203.492188 48.253906 204.519531 47.925781 205.644531 C 47.417969 207.390625 46.164062 208.707031 45.496094 210.390625 C 45.597656 210.5 45.765625 210.6875 45.976562 210.925781 C 45.625 211.046875 45.320312 211.15625 45.019531 211.265625 C 44.542969 212.621094 44.5625 214.183594 43.28125 215.171875 C 43.527344 215.878906 42.453125 216.117188 42.691406 216.835938 C 42.773438 217.074219 42.582031 217.382812 42.960938 217.613281 L 44.183594 217.613281 Z M 112.207031 116.96875 C 113.261719 116.300781 114.066406 115.242188 115.449219 114.953125 C 118.699219 114.285156 121.253906 111.984375 124.398438 111.058594 C 124.476562 111.039062 124.515625 110.917969 124.597656 110.867188 C 127.113281 109.175781 129.796875 107.789062 132.671875 106.824219 C 132.941406 106.734375 133.128906 106.683594 133.257812 106.425781 C 133.875 105.089844 135.605469 105.238281 136.371094 104.09375 C 138.308594 104.28125 139.484375 102.410156 141.550781 102.417969 C 141.132812 101.621094 141.78125 100.875 140.90625 100.148438 C 140.039062 101.511719 138.378906 101.183594 137.125 101.890625 C 135.894531 102.589844 134.898438 103.816406 133.339844 103.625 C 133.257812 104.015625 133.207031 104.261719 133.121094 104.679688 C 132.074219 104.332031 131.300781 105 130.5625 105.5 C 129.777344 106.027344 128.894531 106.355469 128.15625 106.863281 C 126.753906 107.820312 124.746094 107.78125 123.800781 109.484375 C 123.78125 109.535156 123.621094 109.542969 123.550781 109.515625 C 122.347656 109.046875 122.101562 110.621094 121.027344 110.667969 C 120.171875 110.710938 119.214844 111.179688 118.519531 111.714844 C 116.09375 113.609375 113.179688 114.546875 110.523438 116 C 109.679688 116.46875 109.042969 117.355469 108.257812 117.585938 C 106.867188 118.003906 105.554688 118.542969 104.371094 119.328125 C 103.800781 119.707031 103.125 120.183594 102.609375 120.304688 C 100.132812 120.882812 98.105469 122.308594 95.984375 123.492188 C 95.808594 123.34375 95.679688 123.234375 95.351562 122.957031 C 94.863281 123.5625 94.355469 124.191406 93.925781 124.730469 C 92.503906 124.820312 92.527344 124.847656 91.628906 125.4375 C 90.578125 126.132812 89.550781 127.109375 88.386719 127.378906 C 86.699219 127.777344 85.453125 128.902344 83.785156 129.332031 C 84.171875 130.097656 84.460938 130.65625 84.628906 130.984375 C 87.246094 130.21875 89.214844 128.316406 91.671875 127.507812 C 94.117188 126.703125 95.945312 124.847656 98.382812 124.070312 C 100.878906 123.273438 102.96875 121.628906 105.273438 120.453125 C 107.582031 119.277344 109.898438 118.121094 112.214844 116.957031 Z M 86.589844 112.242188 C 85.554688 112.691406 85.207031 113.53125 84.300781 113.929688 C 81.226562 115.253906 78.523438 117.324219 75.320312 118.433594 C 74.136719 118.839844 72.984375 119.339844 71.859375 119.875 C 71.324219 120.136719 70.9375 120.78125 70.398438 120.914062 C 68.480469 121.351562 67.195312 123.195312 65.117188 123.214844 C 63.90625 124.988281 61.65625 124.957031 60.074219 126.125 C 59.925781 126.871094 60.820312 127.230469 60.8125 127.96875 C 61.191406 127.789062 61.476562 127.527344 61.914062 127.429688 C 64.042969 126.921875 66.140625 126.144531 67.832031 124.769531 C 69.445312 123.464844 71.203125 122.476562 72.996094 121.492188 C 73.730469 121.082031 74.476562 120.605469 75.203125 120.265625 C 77.410156 119.25 79.230469 117.515625 81.664062 116.898438 C 82.519531 116.679688 83.636719 116.667969 84.101562 115.601562 C 86.527344 115.125 88.058594 112.632812 90.765625 112.671875 C 91.320312 112.671875 92.007812 112.066406 92.425781 111.554688 C 93.25 110.578125 94.433594 110.0625 95.480469 109.761719 C 96.601562 109.445312 97.308594 108.835938 98.074219 108.128906 C 98.195312 108.019531 98.371094 107.980469 98.523438 107.910156 L 99.417969 107.910156 C 105.503906 104.832031 111.449219 101.832031 117.398438 98.824219 C 117.515625 98.941406 117.644531 99.070312 117.804688 99.230469 C 118.042969 98.960938 118.28125 98.703125 118.261719 98.722656 C 117.945312 98.15625 117.625 97.578125 117.367188 97.109375 C 115.308594 98.582031 113.371094 99.75 111.011719 99.910156 L 111.011719 100.664062 C 109.898438 100.976562 108.683594 101.132812 107.851562 102.109375 C 107.679688 102.308594 107.472656 102.410156 107.195312 102.5 C 105.820312 102.925781 104.589844 103.617188 103.363281 104.382812 C 101.882812 105.320312 100.320312 106.265625 98.671875 106.742188 C 97.320312 107.132812 96.183594 107.761719 95.03125 108.449219 C 93.878906 109.136719 92.644531 109.683594 91.460938 110.300781 C 89.917969 111.097656 88.527344 112.421875 86.589844 112.253906 Z M 23.738281 75.578125 C 23.738281 74.871094 23.878906 74.113281 23.699219 73.445312 C 23.539062 72.828125 23.042969 72.296875 22.703125 71.730469 C 23.679688 71.121094 22.335938 70.644531 22.613281 69.976562 C 22.921875 69.257812 21.648438 69.109375 21.691406 68.414062 C 21.867188 68.222656 21.976562 68.09375 22.058594 68.015625 C 20.734375 65.972656 20.257812 63.738281 20.507812 61.488281 C 20.058594 61.039062 19.742188 60.71875 19.414062 60.402344 C 19.640625 57.601562 17.8125 55.507812 17.007812 52.859375 C 16.707031 53.726562 15.933594 53.40625 15.585938 53.90625 C 16.417969 56.15625 16.570312 58.65625 17.761719 60.839844 C 18.933594 62.972656 18.65625 65.703125 20.496094 67.585938 C 20.386719 68.832031 20.578125 69.945312 21.292969 71.054688 C 22.277344 72.578125 23.042969 74.242188 22.605469 76.113281 C 22.792969 76.304688 22.972656 76.414062 23.042969 76.5625 C 24.503906 79.691406 24.941406 83.167969 26.433594 86.289062 C 26.472656 86.359375 26.433594 86.46875 26.433594 86.558594 C 26.324219 88.160156 27.160156 89.496094 27.625 90.949219 C 28.203125 92.703125 29.546875 94.25 29.109375 96.222656 C 29.488281 96.601562 29.816406 96.929688 30.234375 97.347656 C 30.074219 98.691406 30.351562 100.058594 31.238281 101.203125 C 31.019531 101.421875 30.890625 101.550781 30.757812 101.683594 C 31.902344 102.75 31.902344 104.144531 31.941406 105.507812 C 32.179688 106.484375 32.917969 107.121094 33.472656 107.652344 L 33.472656 109.253906 C 33.824219 109.632812 34.179688 110.011719 34.527344 110.378906 C 34.339844 110.601562 34.171875 110.800781 33.941406 111.058594 C 34.230469 111.644531 34.527344 112.242188 34.816406 112.8125 C 35.640625 112.941406 35.941406 111.957031 36.578125 112.023438 C 35.800781 110.609375 35.96875 108.6875 34.566406 107.589844 C 34.507812 106.566406 34.457031 105.679688 34.101562 104.722656 C 33.761719 103.816406 33.078125 102.839844 33.464844 101.722656 C 32.488281 101.035156 32.679688 99.847656 32.261719 98.972656 C 31.136719 96.609375 30.042969 94.277344 29.4375 91.71875 C 29.226562 90.839844 28.851562 89.835938 28.402344 89.199219 C 27.785156 88.3125 28.621094 87.085938 27.546875 86.546875 C 26.382812 85.960938 27.058594 84.785156 26.691406 83.90625 C 26.085938 82.460938 26.265625 80.738281 25.359375 79.292969 C 24.871094 78.515625 24.5625 77.578125 24.800781 76.722656 C 24.355469 76.273438 24.035156 75.957031 23.699219 75.617188 Z M 130.105469 137.683594 C 130.324219 137.722656 130.664062 137.671875 130.8125 137.8125 C 133.257812 140.222656 135.675781 142.664062 138.101562 145.09375 C 137.824219 146.113281 139.136719 145.722656 139.164062 146.222656 C 139.207031 147.117188 139.902344 147.6875 140.390625 147.84375 C 141.898438 148.3125 142.039062 149.660156 142.636719 150.726562 C 143.550781 151.222656 148.304688 155.507812 148.902344 156.503906 C 149.101562 156.832031 148.992188 157.339844 149.011719 157.519531 C 150.105469 158.167969 150.96875 158.675781 151.199219 159.84375 C 152.433594 159.851562 152.699219 161.046875 153.328125 161.726562 C 154.003906 162.460938 154.621094 163.300781 155.355469 163.996094 C 156.050781 164.65625 157.542969 164.664062 157.054688 166.179688 C 157.839844 167.195312 158.964844 167.78125 159.75 168.628906 C 160.675781 169.625 161.710938 170.542969 162.535156 171.679688 C 163.511719 173.023438 164.691406 174.230469 165.796875 175.476562 C 168.523438 178.542969 171.675781 181.214844 173.800781 184.203125 C 174.300781 184.015625 174.738281 183.84375 175.074219 183.714844 C 173.921875 180.964844 171.65625 179.402344 169.816406 177.628906 C 167.875 175.753906 166.902344 172.953125 164.195312 171.757812 C 164.15625 171.398438 164.105469 170.972656 164.058594 170.503906 C 162.136719 169.167969 160.050781 167.972656 159.113281 165.621094 C 159.054688 165.460938 158.886719 165.292969 158.738281 165.242188 C 156.945312 164.714844 156.65625 162.910156 155.773438 161.765625 C 155.285156 161.527344 154.789062 161.894531 154.429688 161.464844 C 154.378906 161.027344 154.339844 160.597656 154.3125 160.308594 C 153.914062 159.59375 153.097656 159.703125 152.761719 159.214844 C 151.765625 157.789062 150.453125 156.703125 149.140625 155.597656 C 149.03125 155.507812 149.050781 155.257812 148.949219 155.140625 C 147.460938 153.414062 146.285156 151.402344 144.515625 149.929688 C 144.019531 149.507812 143.015625 149.507812 143.035156 148.691406 C 143.0625 147.777344 141.472656 148.375 141.910156 147.289062 C 140.585938 145.863281 139.207031 144.515625 138.011719 142.964844 C 137.457031 142.246094 136.90625 141.230469 136.003906 140.859375 C 134.949219 140.433594 134.710938 139.367188 133.964844 138.71875 C 133.746094 138.527344 133.726562 138.109375 133.65625 137.910156 C 132.929688 137.582031 132.324219 137.3125 131.6875 137.023438 C 131.648438 136.617188 131.597656 136.1875 131.558594 135.800781 C 131.0625 135.101562 130.253906 135 129.636719 134.5625 C 129.398438 134.8125 129.160156 135.0625 128.921875 135.3125 C 129.53125 136 129.925781 136.78125 130.105469 137.652344 Z M 72.644531 107.3125 C 73.511719 107.460938 74.089844 106.855469 74.515625 106.882812 C 75.730469 106.972656 76.414062 106.035156 77.339844 105.808594 C 78.492188 105.507812 79.289062 104.8125 80.265625 104.324219 C 81.457031 103.726562 82.332031 102.640625 83.804688 102.390625 C 85.148438 102.152344 86.371094 101.222656 87.652344 100.625 C 88.933594 100.027344 90.335938 99.621094 91.511719 98.851562 C 92.464844 98.226562 93.332031 97.6875 94.503906 97.515625 C 95.667969 97.347656 96.246094 96.003906 97.628906 95.84375 C 98.285156 95.773438 99.785156 95.453125 99.574219 93.632812 C 99.039062 94 98.613281 93.621094 98.042969 93.96875 C 96.96875 94.636719 95.886719 95.644531 94.792969 95.84375 C 92.625 96.230469 91.292969 98.414062 88.976562 98.246094 C 88.796875 98.234375 88.605469 98.625 88.398438 98.792969 C 87.453125 99.53125 86.339844 99.917969 85.226562 100.289062 C 84.5 100.527344 83.824219 100.824219 83.199219 101.273438 C 82.09375 102.0625 80.941406 102.679688 79.597656 103.058594 C 78.164062 103.457031 76.535156 103.855469 75.492188 104.800781 C 73.839844 106.296875 71.523438 106.375 69.972656 107.910156 C 66.667969 108.308594 64.5625 111.347656 61.300781 111.824219 C 59.757812 113.769531 56.921875 113.210938 55.292969 114.972656 C 53.5625 114.84375 52.699219 116.199219 51.710938 117.085938 C 48.828125 117.257812 46.640625 119.269531 43.90625 119.519531 C 43.699219 119.539062 43.519531 119.875 43.328125 120.066406 C 43.984375 121.003906 44.332031 122.078125 44.691406 123.792969 C 45.339844 122.4375 46.195312 122.636719 47.019531 122.476562 C 46.890625 121.140625 47.617188 120.414062 48.71875 119.847656 C 49.921875 119.230469 51.035156 118.460938 52.160156 117.703125 C 52.519531 117.464844 52.746094 117.027344 53.285156 117.144531 C 54.21875 117.355469 54.90625 116.707031 55.671875 116.371094 C 56.515625 116 57.261719 115.382812 58.40625 115.433594 C 59.003906 114.785156 59.660156 114.058594 60.316406 113.339844 C 60.425781 113.449219 60.484375 113.558594 60.554688 113.570312 C 61.804688 113.660156 63.1875 113.28125 63.734375 112.382812 C 64.164062 111.675781 65.019531 111.875 65.21875 111.167969 C 66.621094 111.335938 67.523438 110.203125 68.71875 109.8125 C 69.511719 109.554688 70.148438 108.835938 71.273438 109.027344 C 71.710938 108.488281 72.207031 107.859375 72.636719 107.320312 Z M 84.796875 89.308594 C 84.707031 85.410156 82.679688 81.992188 81.84375 77.859375 C 81.863281 77.878906 81.546875 77.558594 81.160156 77.171875 C 81.507812 76.222656 80.921875 75.386719 80.640625 74.5 C 80.183594 73.046875 80.074219 71.511719 79.667969 70.035156 C 79.269531 68.570312 78.085938 67.328125 78.355469 65.683594 C 76.890625 63.3125 76.921875 60.5 76.066406 57.980469 C 75.796875 57.929688 75.558594 57.871094 75.339844 57.832031 C 74.933594 55.660156 74.65625 53.527344 74.109375 51.464844 C 73.550781 49.363281 72.925781 47.269531 72.007812 45.324219 C 71.832031 44.878906 72.585938 44.957031 72.398438 44.488281 C 71.929688 43.324219 71.265625 42.175781 71.113281 40.972656 C 70.9375 39.566406 69.652344 38.589844 69.832031 37.15625 C 69.960938 36.097656 69.304688 35.402344 68.90625 34.476562 C 68.289062 34.785156 67.683594 35.074219 67.027344 35.402344 C 67.277344 35.800781 67.007812 36.21875 67.257812 36.6875 C 67.832031 37.792969 68.25 38.988281 68.726562 40.144531 C 69.207031 41.320312 69.054688 42.707031 69.832031 43.75 C 70.707031 44.9375 69.960938 46.523438 70.894531 47.65625 C 70.390625 49.152344 71.949219 49.898438 72.207031 51.214844 C 72.40625 52.210938 72.269531 53.457031 73.0625 54.363281 C 74.046875 55.46875 74.316406 56.804688 74.097656 58.429688 C 74.476562 58.699219 74.914062 59.007812 75.339844 59.296875 C 74.8125 61.179688 75.96875 62.582031 76.246094 64.148438 C 76.542969 65.832031 77.25 67.394531 77.578125 69.070312 C 77.867188 70.515625 78.304688 72.21875 79.636719 73.464844 C 79.4375 74.621094 79.496094 75.84375 80.324219 76.851562 C 80.570312 77.160156 80.703125 77.429688 80.660156 77.808594 C 80.511719 79.0625 81.160156 80.128906 81.445312 81.277344 C 82.09375 83.808594 83.367188 86.160156 83.503906 88.839844 C 83.8125 89.046875 84.082031 89.277344 84.390625 89.417969 C 84.5 89.464844 84.707031 89.335938 84.796875 89.308594 Z M 31.039062 28.996094 C 28.652344 29.175781 26.394531 29.8125 24.316406 31.296875 C 23.777344 31.296875 23.050781 31.085938 22.535156 31.328125 C 19.273438 32.839844 15.574219 33.230469 12.5 35.234375 C 12.390625 35.300781 12.402344 35.542969 12.273438 35.949219 C 12.5625 36.097656 12.96875 36.308594 13.148438 36.398438 C 16.6875 35.941406 19.789062 33.816406 23.847656 33.347656 C 23.949219 33.199219 24.246094 32.75 24.433594 32.453125 C 26.691406 32.285156 28.570312 31.375 30.421875 30.660156 C 32.203125 29.972656 34.261719 29.910156 35.792969 28.578125 C 36.734375 28.84375 37.421875 28.148438 38.21875 27.898438 C 40.296875 27.25 42.363281 26.582031 44.414062 25.855469 C 46.144531 25.25 48.152344 25.277344 49.523438 23.632812 C 50.539062 23.785156 51.503906 23.59375 52.527344 23.214844 C 53.453125 22.867188 54.566406 22.757812 55.460938 22.4375 C 56.496094 22.070312 57.441406 21.601562 58.59375 21.460938 C 59.269531 21.382812 59.886719 20.683594 60.503906 20.238281 C 60.601562 20.167969 60.5625 19.90625 60.625 19.589844 C 60.394531 19.359375 60.117188 19.0625 59.789062 18.730469 C 59.320312 19.777344 58.277344 19.128906 57.621094 19.769531 C 57.191406 20.175781 56.109375 19.917969 55.640625 19.9375 C 53.613281 21.523438 51.34375 21.851562 49.316406 22.507812 C 47.179688 23.214844 45.121094 24.351562 42.644531 24.3125 C 42.414062 24.652344 42.175781 25.007812 41.9375 25.367188 L 41.269531 24.699219 C 41.011719 25.140625 40.753906 25.585938 40.464844 26.074219 C 39.09375 25.367188 38.199219 26.542969 37.015625 26.445312 C 35.890625 26.34375 35.175781 27.671875 33.941406 27.511719 C 32.628906 27.339844 32.242188 28.933594 31.027344 28.996094 Z M 113.171875 118.691406 C 115.4375 120.265625 116.363281 122.246094 117.863281 123.722656 C 118.757812 124.597656 119.792969 125.398438 120.488281 126.421875 C 121.175781 127.429688 122.308594 127.867188 122.976562 128.84375 C 123.113281 129.054688 123.234375 129.09375 123.363281 128.945312 C 123.613281 128.605469 124.128906 128.433594 124.039062 127.878906 C 123.015625 127.28125 122.6875 125.996094 121.691406 125.40625 C 120.648438 124.789062 120.609375 123.222656 119.265625 122.945312 C 119.039062 121.550781 117.765625 121.203125 116.828125 120.496094 C 115.84375 119.746094 115.707031 118.300781 114.820312 117.882812 C 114.363281 118.113281 113.957031 118.3125 113.179688 118.699219 Z M 54.855469 124.132812 C 52.996094 124.796875 51.226562 123.09375 49.148438 123.820312 C 50.0625 124.269531 49.574219 125.117188 49.894531 125.683594 C 52.667969 126.414062 55.414062 127.179688 58.304688 127.480469 C 58.476562 126.652344 58.535156 125.972656 58.238281 125.226562 L 55.949219 125.226562 C 55.542969 124.820312 55.222656 124.5 54.84375 124.121094 Z M 42.175781 121.382812 C 41.269531 120.246094 40.484375 121.917969 39.769531 120.972656 C 38.058594 120.921875 36.488281 120.234375 34.847656 119.855469 C 34.328125 119.738281 33.972656 119.917969 34.0625 120.722656 C 34.457031 121.121094 34.945312 121.609375 35.445312 122.109375 C 37.75 121.46875 39.910156 123.105469 42.164062 122.425781 L 42.164062 121.382812 Z M 10.152344 28.359375 C 10.363281 27.183594 10.035156 26.175781 9.289062 25.40625 C 8.246094 25.078125 7.699219 25.9375 6.914062 26.226562 C 7.089844 27.242188 6.503906 28.457031 7.855469 29.125 L 9.386719 29.125 C 9.585938 28.925781 9.777344 28.734375 10.152344 28.359375 Z M 12.363281 44.070312 C 12.363281 44.617188 12.363281 45.15625 12.363281 45.695312 C 13.066406 46.3125 13.535156 47.367188 14.898438 47.011719 C 15.175781 46.0625 16.03125 45.175781 15.484375 43.921875 C 14.90625 43.015625 14.003906 43.222656 13.128906 43.304688 C 12.9375 43.492188 12.75 43.683594 12.371094 44.0625 Z M 68.738281 27.539062 C 68.289062 26.496094 67.785156 25.519531 66.878906 24.859375 L 65.535156 26.207031 L 65.535156 28.328125 C 66.183594 29.375 67.097656 29.132812 67.960938 29.085938 C 68.222656 28.566406 68.480469 28.046875 68.738281 27.539062 Z M 61.546875 11.320312 C 61.90625 11.4375 62.285156 10.878906 62.710938 10.433594 L 62.710938 8.597656 C 62.125 7.792969 61.785156 7.304688 61.378906 6.746094 C 61.148438 7.601562 60.304688 7.152344 60.054688 7.710938 C 60.335938 8.46875 59.746094 8.996094 59.429688 9.804688 C 59.945312 10.171875 60.515625 10.582031 61.546875 11.320312 Z M 9.785156 34.921875 C 10.035156 36.210938 8.554688 35.171875 8.5625 36.199219 C 9.019531 36.765625 9.109375 37.535156 9.238281 38.300781 C 9.777344 38.03125 10.265625 37.785156 10.722656 37.542969 C 10.878906 36.546875 10.222656 35.890625 9.785156 34.921875 Z M 64.34375 17.816406 C 63.328125 17.707031 62.3125 17.367188 61.757812 18.632812 C 62.453125 18.8125 61.984375 19.660156 62.660156 19.949219 C 63.160156 19.707031 63.746094 19.417969 64.34375 19.140625 Z M 115.078125 94.277344 C 114.730469 94.777344 114.574219 95.117188 115.160156 95.34375 C 115.457031 95.027344 115.4375 94.726562 115.078125 94.277344 Z M 7.746094 41.082031 C 7.5 41.261719 7.5 41.441406 7.746094 41.621094 C 7.996094 41.441406 7.996094 41.261719 7.746094 41.082031 Z M 51.382812 121.75 C 51.207031 121.5 51.027344 121.5 50.847656 121.75 C 51.027344 122 51.207031 122 51.382812 121.75 Z M 51.382812 121.75 " fill-opacity="1" fill-rule="nonzero"/></g></svg>