<svg xmlns="http://www.w3.org/2000/svg" xmlns:xlink="http://www.w3.org/1999/xlink" width="1083" zoomAndPan="magnify" viewBox="0 0 812.25 237" height="316" preserveAspectRatio="xMidYMid meet" version="1.0"><defs><clipPath id="f45bc7b232"><path d="M 0 0.109375 L 810.75 0.109375 L 810.75 236.140625 L 0 236.140625 Z M 0 0.109375 " clip-rule="nonzero"/></clipPath></defs><g clip-path="url(#f45bc7b232)"><path fill="#f4c340" d="M 483.769531 125.628906 C 465.5625 125.988281 447.355469 126.320312 429.148438 126.703125 C 407.476562 127.15625 385.808594 127.65625 364.140625 128.121094 C 351.085938 128.402344 338.027344 128.636719 324.972656 128.917969 C 306.5 129.320312 288.027344 129.761719 269.554688 130.152344 C 255.078125 130.460938 240.601562 130.699219 226.121094 131 C 207.382812 131.390625 188.644531 131.8125 169.90625 132.214844 C 166.796875 132.28125 163.6875 132.371094 160.578125 132.339844 C 158.820312 132.324219 157.320312 132.851562 155.824219 133.726562 C 139.136719 143.480469 126.367188 156.996094 117.234375 173.972656 C 110.101562 187.246094 105.816406 201.453125 103.675781 216.335938 C 102.828125 222.230469 102.207031 228.144531 102.128906 234.105469 C 102.121094 234.460938 102.132812 234.820312 102.082031 235.167969 C 101.980469 235.863281 101.582031 236.324219 100.855469 236.308594 C 100.246094 236.292969 99.875 235.855469 99.800781 235.285156 C 99.699219 234.496094 99.6875 233.695312 99.65625 232.898438 C 98.980469 215.070312 95.632812 197.808594 88.246094 181.5 C 74.148438 150.371094 50.382812 130.71875 17.308594 122.285156 C 12.488281 121.054688 7.59375 120.199219 2.65625 119.59375 C 2.394531 119.5625 2.125 119.566406 1.859375 119.523438 C 1.027344 119.386719 0.234375 119.136719 0.300781 118.082031 C 0.355469 117.199219 1.039062 116.988281 1.808594 116.902344 C 3.042969 116.761719 4.273438 116.578125 5.5 116.398438 C 24.363281 113.609375 41.683594 107.03125 56.871094 95.324219 C 72.847656 83.003906 83.898438 67.074219 90.96875 48.289062 C 96.464844 33.695312 99.160156 18.554688 99.667969 2.996094 C 99.691406 2.289062 99.769531 1.585938 99.871094 0.886719 C 99.945312 0.382812 100.328125 0.148438 100.8125 0.113281 C 101.414062 0.0703125 101.878906 0.355469 102.015625 0.933594 C 102.136719 1.441406 102.113281 1.988281 102.128906 2.519531 C 102.4375 13.925781 104 25.164062 106.964844 36.183594 C 112.222656 55.757812 121.40625 73.148438 135.945312 87.488281 C 143.078125 94.523438 151.128906 100.300781 160.003906 104.945312 C 161.226562 105.582031 162.453125 105.871094 163.816406 105.898438 C 176.253906 106.136719 188.691406 106.425781 201.125 106.667969 C 212.851562 106.898438 224.578125 107.101562 236.304688 107.300781 C 261.976562 107.734375 287.652344 108.140625 313.324219 108.59375 C 334.289062 108.960938 355.253906 109.414062 376.21875 109.773438 C 396.472656 110.121094 416.726562 110.375 436.984375 110.707031 C 453.152344 110.972656 469.316406 111.3125 485.488281 111.578125 C 514.714844 112.058594 543.941406 112.507812 573.171875 112.972656 C 595.914062 113.332031 618.65625 113.710938 641.398438 114.050781 C 662.007812 114.355469 682.621094 114.597656 703.230469 114.910156 C 719.222656 115.152344 735.210938 115.484375 751.203125 115.734375 C 769.859375 116.027344 788.515625 116.269531 807.171875 116.539062 C 807.96875 116.550781 808.773438 116.578125 809.554688 116.710938 C 810.207031 116.824219 810.675781 117.257812 810.6875 117.992188 C 810.703125 118.726562 810.230469 119.148438 809.605469 119.335938 C 809.109375 119.488281 808.5625 119.515625 808.035156 119.523438 C 792.847656 119.777344 777.65625 120.003906 762.46875 120.269531 C 747.8125 120.519531 733.160156 120.808594 718.503906 121.078125 C 703.9375 121.34375 689.371094 121.59375 674.804688 121.867188 C 659.976562 122.144531 645.144531 122.445312 630.3125 122.726562 C 615.566406 123.003906 600.824219 123.261719 586.082031 123.542969 C 570.003906 123.847656 553.929688 124.15625 537.855469 124.488281 C 519.824219 124.855469 501.796875 125.246094 483.769531 125.628906 Z M 483.769531 125.628906 " fill-opacity="1" fill-rule="nonzero"/></g></svg>