<svg xmlns="http://www.w3.org/2000/svg" xmlns:xlink="http://www.w3.org/1999/xlink" width="170" zoomAndPan="magnify" viewBox="0 0 127.5 197.249996" height="263" preserveAspectRatio="xMidYMid meet" version="1.2"><defs><clipPath id="673f8ee29d"><path d="M 0 0.0117188 L 127 0.0117188 L 127 196.492188 L 0 196.492188 Z M 0 0.0117188 "/></clipPath></defs><g id="a8a4e3f568"><path style=" stroke:none;fill-rule:nonzero;fill:#000000;fill-opacity:1;" d="M 66.800781 25.644531 C 66.796875 25.65625 66.792969 25.667969 66.789062 25.683594 C 68.109375 26.601562 69.585938 27.296875 70.886719 28.238281 C 72.265625 29.242188 73.386719 30.46875 74.613281 31.640625 C 75.84375 32.820312 77.277344 33.84375 78.765625 34.675781 C 79.539062 35.105469 80.492188 35.484375 81.3125 34.957031 C 81.503906 34.839844 82.1875 34.308594 82.1875 34.070312 C 82.1875 33.699219 81.683594 33.019531 81.496094 32.695312 C 81.238281 32.257812 80.945312 31.835938 80.597656 31.460938 C 79.867188 30.65625 78.941406 30.0625 78.019531 29.503906 C 76.492188 28.585938 75.242188 27.410156 73.855469 26.3125 C 72.378906 25.140625 70.800781 24.140625 68.84375 24.046875 C 67.824219 23.996094 67.101562 24.730469 66.800781 25.644531 Z M 66.800781 25.644531 "/><path style=" stroke:none;fill-rule:nonzero;fill:#000000;fill-opacity:1;" d="M 49.832031 21.972656 C 46.800781 24.59375 43.703125 27.324219 40.8125 30.097656 C 39.78125 31.089844 38.433594 33.484375 40.917969 33.484375 C 42.390625 33.484375 43.242188 32.417969 44.125 31.449219 C 44.164062 31.40625 44.207031 31.359375 44.25 31.316406 C 44.835938 30.683594 45.386719 30.019531 45.964844 29.382812 C 47.074219 28.148438 48.300781 27.097656 49.621094 26.097656 C 50.820312 25.1875 52.355469 24.34375 52.625 22.675781 C 52.679688 22.339844 52.824219 21.554688 52.667969 21.246094 C 51.90625 19.722656 50.574219 21.335938 49.832031 21.972656 Z M 49.832031 21.972656 "/><g clip-rule="nonzero" clip-path="url(#673f8ee29d)"><path style=" stroke:none;fill-rule:nonzero;fill:#000000;fill-opacity:1;" d="M 124.183594 39.496094 C 123.078125 37.824219 121.675781 36.441406 119.628906 36.113281 C 115.429688 35.433594 111.164062 37.476562 107.183594 38.429688 C 105.742188 38.773438 104.296875 39.085938 102.875 39.535156 C 101.304688 40.03125 99.753906 41.171875 98.0625 41.171875 C 96.652344 41.171875 96.308594 39.910156 94.6875 40.253906 C 93.359375 40.535156 78.09375 45.8125 78.09375 44.9375 C 78.09375 43.070312 90.050781 40.980469 91.378906 40.421875 C 93.917969 39.351562 96.183594 37.746094 98.777344 36.757812 C 99.449219 36.503906 105.328125 34.113281 105.34375 34.125 C 106.195312 34.726562 106.613281 36.433594 107.269531 37.300781 C 107.851562 38.074219 109.914062 36.292969 109.972656 35.640625 C 110.097656 34.957031 109.664062 33.777344 109.449219 33.128906 C 109.183594 32.335938 108.777344 31.613281 108.234375 30.972656 C 106.960938 29.464844 105.203125 28.382812 103.675781 27.160156 C 102.667969 26.351562 101.730469 25.457031 100.71875 24.65625 C 99.703125 23.851562 98.632812 23.121094 97.5 22.484375 C 95.265625 21.214844 92.855469 20.277344 90.558594 19.132812 C 88.429688 18.070312 86.472656 16.792969 84.183594 16.070312 C 81.699219 15.28125 72.636719 12.796875 70.105469 13.769531 C 69.898438 13.847656 69.96875 14.742188 70.011719 14.902344 C 70.148438 15.449219 70.582031 15.886719 70.988281 16.246094 C 72.210938 17.320312 73.917969 18.15625 75.359375 18.902344 C 76.953125 19.722656 78.613281 20.390625 80.292969 21.007812 C 82.796875 21.925781 85.355469 22.730469 87.667969 24.085938 C 89.71875 25.292969 91.613281 26.738281 93.628906 28 C 94.921875 28.808594 96.339844 29.460938 97.585938 30.320312 C 98.277344 30.796875 98.804688 31.480469 99.480469 31.96875 C 100.359375 32.609375 97 33.945312 96.5 34.214844 C 93.445312 35.875 90.550781 37.550781 87.375 38.984375 C 86.582031 39.34375 85.566406 39.472656 84.714844 39.679688 C 83.839844 39.894531 82.945312 40.085938 82.058594 40.234375 C 80.285156 40.53125 78.5 40.65625 76.703125 40.601562 C 72.902344 40.480469 69.140625 39.703125 65.371094 39.25 C 63.09375 38.976562 60.8125 38.773438 58.527344 38.589844 C 55.125 38.316406 51.71875 38.082031 48.316406 37.773438 C 45 37.472656 41.714844 37.039062 38.378906 36.953125 C 37.664062 36.933594 36.992188 36.4375 36.398438 36.09375 C 35.707031 35.695312 35.050781 35.25 34.335938 34.890625 C 33.175781 34.304688 31.972656 33.8125 30.75 33.378906 C 28.402344 32.558594 25.703125 31.996094 23.78125 30.316406 C 23.34375 29.933594 22.964844 29.492188 22.644531 29.003906 C 22.226562 28.378906 21.90625 28.050781 21.90625 27.242188 C 21.90625 26.363281 22.238281 25.375 22.109375 24.507812 C 22.003906 23.808594 20.300781 21.894531 20.949219 21.609375 C 23.160156 20.644531 25.652344 20.316406 28.003906 19.890625 C 30.527344 19.4375 33.027344 18.855469 35.5 18.195312 C 36.90625 17.820312 38.308594 17.40625 39.6875 16.945312 C 40.851562 16.554688 42.019531 16.179688 43.164062 15.738281 C 44.472656 15.234375 45.578125 15.121094 46.972656 15.089844 C 47.683594 15.070312 48.40625 15.089844 49.101562 15.246094 C 50.277344 15.503906 51.179688 16.171875 51.769531 17.214844 C 52.464844 18.449219 53.132812 19.742188 54.230469 20.679688 C 55.289062 21.589844 56.613281 21.960938 57.984375 22.058594 C 58.851562 22.121094 59.710938 22.027344 60.570312 22.058594 C 63.300781 22.15625 64.441406 19.25 65.421875 17.054688 C 66.875 13.800781 68.320312 10.496094 69.113281 6.980469 C 69.449219 5.484375 69.722656 4.578125 68.066406 3.871094 C 66.6875 3.289062 65.601562 2.1875 64.253906 1.515625 C 61.136719 0.152344 57.714844 -0.0546875 54.675781 1.550781 C 52.347656 2.78125 49.027344 5.226562 49.550781 8.183594 C 49.667969 8.832031 50.609375 10.980469 49.492188 11.101562 C 46.472656 11.417969 43.449219 11.953125 40.4375 12.363281 C 37.445312 12.769531 34.472656 13.273438 31.554688 14.078125 C 29.910156 14.535156 28.230469 15.007812 26.628906 15.613281 C 24.605469 16.386719 22.652344 17.210938 20.730469 18.210938 C 19.496094 18.855469 18.0625 19.25 16.980469 20.148438 C 16.324219 20.6875 15.757812 21.324219 15.101562 21.859375 C 14.464844 22.382812 13.804688 22.570312 13.070312 22.894531 C 12.539062 23.125 12.011719 23.367188 11.492188 23.625 C 10.460938 24.140625 9.460938 24.722656 8.523438 25.402344 C 5.648438 27.492188 3.265625 30.574219 1.683594 33.730469 C 1.324219 34.445312 1.03125 35.195312 0.890625 35.984375 C 0.796875 36.527344 0.484375 37.371094 0.917969 37.832031 C 1.378906 38.3125 2.308594 38.125 2.898438 38.097656 C 3.582031 38.0625 4.242188 37.914062 4.898438 37.742188 C 6.832031 37.234375 9.074219 36.425781 11.101562 36.664062 C 11.335938 36.691406 12.214844 36.828125 12.328125 37.089844 C 13.824219 40.5625 13.292969 44.84375 14.234375 48.472656 C 15.003906 51.441406 15.726562 54.554688 16.609375 57.488281 C 17.757812 61.304688 17.660156 65.347656 18.679688 69.1875 C 19.527344 72.371094 20.878906 75.390625 21.683594 78.589844 C 22.132812 80.203125 22.765625 81.820312 23.0625 83.472656 C 23.53125 86.054688 24.214844 86.789062 26.191406 88.496094 C 27.695312 89.792969 29.316406 90.675781 31.050781 91.628906 C 32.570312 92.464844 32.507812 92.566406 32.320312 94.21875 C 31.914062 97.851562 31.984375 102.125 30.839844 105.621094 C 29.929688 108.386719 25.1875 108.367188 23.484375 110.4375 C 22.460938 111.683594 22.261719 113.355469 21.910156 114.867188 C 21.40625 117.054688 20.628906 119.167969 20.066406 121.34375 C 19.316406 124.253906 18.851562 127.527344 17.457031 130.210938 C 16.316406 132.414062 15.605469 134.757812 14.738281 137.074219 C 12.980469 141.761719 11.324219 146.488281 9.617188 151.1875 C 9.132812 152.527344 8.703125 153.886719 8.210938 155.230469 C 7.714844 156.597656 7.09375 157.921875 6.65625 159.308594 C 6.214844 160.695312 6.039062 162.15625 5.460938 163.496094 C 5.136719 164.253906 7.921875 167.519531 8.453125 168.324219 C 9.96875 170.613281 11.496094 172.914062 12.871094 175.285156 C 14.039062 177.304688 14.957031 179.457031 16.125 181.46875 C 17.269531 183.4375 18.640625 185.261719 19.878906 187.171875 C 20.4375 188.035156 20.96875 188.902344 21.441406 189.804688 C 21.867188 190.613281 22.203125 191.507812 22.902344 192.136719 C 23.78125 192.929688 25.980469 192.75 27.046875 192.761719 C 32.351562 192.8125 37.535156 194.027344 42.78125 194.679688 C 47.097656 195.214844 51.425781 195.566406 55.777344 195.632812 C 60.53125 195.699219 65.296875 195.359375 70.042969 195.550781 C 72.160156 195.640625 74.691406 196.421875 76.761719 195.90625 C 80.730469 194.914062 83.777344 191.554688 87.335938 189.679688 C 91.398438 187.542969 95.90625 186.589844 100.023438 184.628906 C 101.105469 184.113281 102.1875 183.492188 103.140625 182.757812 C 103.972656 182.117188 104.898438 181.398438 105.578125 180.601562 C 106.171875 179.90625 106.980469 179.078125 107.363281 178.246094 C 107.675781 177.585938 108.253906 176.496094 108.253906 175.757812 C 108.234375 173.652344 108.226562 171.625 107.382812 169.648438 C 106.589844 167.792969 105.910156 165.976562 105.410156 164.019531 C 104.769531 161.53125 104.203125 159.09375 103.800781 156.558594 C 103.390625 154.011719 102.964844 151.453125 102.148438 149 C 100.558594 144.242188 99.625 139.328125 98.867188 134.386719 C 98.085938 129.277344 97.003906 124.425781 95.847656 119.40625 C 95.269531 116.886719 94.703125 114.457031 94.210938 111.910156 C 94.039062 111.027344 93.316406 109.292969 92.546875 108.964844 C 91.460938 108.5 90.265625 107.769531 89.117188 108.023438 C 88.414062 108.179688 87.382812 108.675781 87 109.3125 C 86.363281 110.394531 86.621094 111.96875 86.855469 112.738281 C 87.082031 113.476562 85.898438 113.964844 85.421875 114.308594 C 84.753906 114.785156 84.035156 115.171875 83.304688 115.53125 C 81.015625 116.675781 78.800781 117.957031 76.515625 119.109375 C 75.71875 119.511719 74.914062 119.886719 74.085938 120.230469 C 73.3125 120.550781 72.664062 120.925781 71.800781 121.007812 C 66.65625 121.453125 61.585938 121.976562 56.414062 121.929688 C 54.964844 121.910156 53.523438 121.882812 52.074219 121.847656 C 48.160156 121.769531 43.09375 121.96875 39.925781 119.699219 C 37.582031 118.015625 35.597656 116.058594 33.476562 114.113281 C 32.738281 113.433594 31.839844 112.835938 31.269531 111.996094 C 31 111.601562 30.824219 111.1875 30.890625 110.707031 C 30.914062 110.546875 31.125 109.757812 31.300781 109.710938 C 31.953125 109.539062 33.238281 111.390625 33.574219 111.761719 C 34.566406 112.863281 35.578125 114.003906 36.839844 114.808594 C 37.953125 115.515625 39.207031 115.835938 40.476562 116.113281 C 47.035156 117.566406 53.332031 119.832031 60.152344 119.511719 C 61.96875 119.429688 63.945312 119.351562 65.722656 118.945312 C 68.515625 118.308594 71.863281 117.171875 74.476562 116.003906 C 77.714844 114.566406 80.878906 113.449219 83.578125 111.082031 C 84.867188 109.945312 85.792969 108.933594 87.09375 107.890625 C 88.007812 107.160156 88.082031 104.710938 88.128906 103.675781 C 88.207031 101.976562 88.1875 100.285156 88.363281 98.59375 C 88.546875 96.785156 88.875 93.542969 88.523438 91.683594 C 88.421875 91.148438 87.316406 90.378906 86.84375 90.203125 C 86.058594 89.910156 85.226562 90.144531 84.496094 90.480469 C 83.191406 91.074219 82.265625 92.125 81.128906 92.960938 C 80.195312 93.652344 78.765625 94.808594 77.75 95.375 C 75.574219 96.59375 74.074219 97.636719 71.664062 98.25 C 68.503906 99.054688 65.464844 100.347656 62.191406 100.390625 C 60.421875 100.410156 58.601562 100.433594 56.835938 100.28125 C 55.066406 100.128906 53.300781 99.914062 51.539062 99.667969 C 48.632812 99.257812 44.738281 98.484375 42.113281 97.167969 C 40.710938 96.46875 36.78125 95.554688 36.535156 93.496094 C 36.503906 93.234375 38.25 93.175781 38.394531 93.183594 C 39.507812 93.246094 40.609375 93.566406 41.6875 93.832031 C 44.203125 94.457031 46.695312 94.898438 49.273438 95.171875 C 50.726562 95.324219 52.179688 95.546875 53.632812 95.683594 C 58.105469 96.09375 62.996094 96.492188 67.390625 95.328125 C 70.835938 94.417969 73.941406 92.460938 77.195312 91.066406 C 79.941406 89.886719 82.742188 88.878906 85.640625 88.152344 C 87.425781 87.707031 89.296875 87.597656 91.019531 86.921875 C 92.761719 86.238281 94.253906 85.160156 95.480469 83.757812 C 97.757812 81.15625 98.675781 78.25 99.898438 75.089844 C 100.972656 72.316406 102.660156 69.824219 103.792969 67.074219 C 105.84375 62.125 107.609375 56.953125 109.238281 51.847656 C 110.242188 48.71875 104.441406 49.871094 103.28125 50.9375 C 101.402344 52.808594 100.597656 57.621094 99.996094 60.105469 C 99.480469 62.257812 98.71875 64.339844 98.082031 66.457031 C 97.441406 68.585938 96.816406 70.734375 95.824219 72.734375 C 95.230469 73.933594 94.542969 75.089844 93.992188 76.3125 C 93.417969 77.585938 93.015625 78.917969 92.488281 80.207031 C 92.050781 81.277344 91.761719 82.304688 90.789062 83.039062 C 89.636719 83.914062 88.269531 83.894531 86.964844 84.34375 C 83.667969 85.46875 80.464844 86.894531 77.105469 87.808594 C 76.859375 87.882812 73.976562 89.070312 73.925781 88.980469 C 73.3125 87.941406 74.042969 85.269531 74.148438 84.09375 C 74.75 77.019531 75.371094 69.984375 75.980469 62.910156 C 76.28125 59.410156 76.324219 55.902344 76.597656 52.40625 C 76.695312 51.226562 76.703125 49.839844 77.136719 48.722656 C 77.386719 48.078125 78.878906 47.996094 79.40625 47.847656 C 80.417969 47.5625 81.359375 47.144531 82.398438 46.953125 C 84.824219 46.503906 87.222656 45.941406 89.511719 45 C 90.613281 44.550781 91.699219 44.015625 92.84375 43.691406 C 93.382812 43.542969 94.851562 43.132812 95.378906 43.484375 C 95.628906 43.738281 94.625 46.519531 94.507812 46.980469 C 93.972656 49.019531 92.929688 50.886719 92.171875 52.84375 C 91.175781 55.390625 92.050781 57.8125 95.261719 57.351562 C 96.726562 57.140625 97.6875 56.351562 98.683594 55.292969 C 100.238281 53.644531 99.9375 52.453125 100.699219 50.503906 C 101.210938 49.175781 102.71875 48.703125 103.792969 47.945312 C 104.894531 47.171875 106.027344 46.40625 107.269531 45.875 C 108.46875 45.363281 109.757812 45.105469 111.050781 45.367188 C 114.167969 45.984375 115.898438 48.160156 116.445312 51.238281 C 116.84375 53.484375 116.265625 55.847656 115.8125 58.042969 C 115.421875 59.9375 115.117188 61.855469 114.527344 63.703125 C 113.90625 65.65625 113.054688 67.527344 112.542969 69.511719 C 111.996094 71.609375 111.46875 73.695312 110.726562 75.738281 C 109.304688 79.671875 108.226562 83.917969 106.136719 87.5625 C 105.589844 88.519531 104.988281 89.445312 104.410156 90.390625 C 103.582031 91.757812 101.902344 93.164062 103.574219 94.691406 C 104.5 95.539062 105.21875 94.757812 106.046875 94.308594 C 106.546875 94.035156 107.042969 93.761719 107.535156 93.476562 C 108.492188 92.921875 109.433594 92.339844 110.328125 91.695312 C 112.023438 90.476562 113.539062 89.035156 114.761719 87.34375 C 117.445312 83.632812 118.859375 79.101562 120.589844 74.910156 C 122.484375 70.316406 124.757812 66.011719 125.730469 61.089844 C 126.300781 58.183594 126.152344 55.324219 126.300781 52.421875 C 126.328125 52.023438 126.351562 51.625 126.386719 51.226562 C 126.738281 47.128906 126.535156 43.058594 124.183594 39.496094 Z M 31.957031 120.507812 C 32.214844 120.898438 32.488281 121.273438 32.800781 121.609375 C 33.988281 122.882812 35.5 123.769531 36.925781 124.734375 C 38.230469 125.609375 39.488281 126.59375 41 127.078125 C 43.875 128.003906 46.71875 127.554688 49.660156 127.636719 C 53.175781 127.738281 56.707031 127.5 60.214844 127.726562 C 61.910156 127.839844 63.300781 128.007812 64.972656 127.847656 C 67.410156 127.613281 67.746094 128.902344 67.984375 130.847656 C 68.980469 138.917969 69.585938 147.082031 69.929688 155.199219 C 70.25 162.777344 71.078125 170.335938 71.28125 177.921875 C 71.335938 179.835938 71.375 181.757812 71.582031 183.664062 C 71.632812 184.164062 72.898438 184.808594 73.351562 184.730469 C 75.496094 184.351562 75.21875 180.117188 75.078125 178.746094 C 74.375 171.882812 74.667969 164.941406 75.347656 158.09375 C 75.710938 154.398438 75.824219 150.683594 75.824219 146.964844 C 75.820312 142.28125 75.808594 137.589844 75.597656 132.910156 C 75.519531 131.167969 75.53125 127.574219 77.59375 126.675781 C 81.160156 125.117188 84.441406 122.859375 88.164062 121.644531 C 90.960938 120.730469 91.164062 126.082031 91.613281 128.046875 C 93.746094 137.328125 96.125 146.570312 98.378906 155.828125 C 98.988281 158.34375 99.695312 160.839844 100.566406 163.277344 C 101.746094 166.566406 102.875 169.863281 103.773438 173.238281 C 104.242188 174.980469 101.804688 175.636719 100.585938 176.285156 C 94.320312 179.644531 88.140625 183.363281 81.519531 186.066406 C 78.695312 187.21875 76.195312 188.832031 73.515625 190.242188 C 70.917969 191.605469 66 190.355469 63.230469 190.101562 C 55.347656 189.398438 47.621094 187.691406 39.757812 187 C 36.332031 186.691406 33.003906 185.824219 29.5625 185.585938 C 28.566406 185.515625 26.519531 185.972656 26.648438 184.5 C 26.992188 180.511719 27.28125 176.613281 28.101562 172.679688 C 28.988281 168.441406 30.203125 164.273438 31.367188 160.101562 C 32.019531 157.765625 32.6875 155.425781 33.292969 153.070312 C 34.042969 150.171875 35.042969 147.332031 35.585938 144.382812 C 36.101562 141.578125 36.214844 138.71875 36.878906 135.933594 C 37.167969 134.722656 37.296875 133.394531 37.609375 132.25 C 38.019531 130.746094 39.527344 128.886719 36.847656 128.519531 C 36.242188 128.433594 35.09375 130.003906 34.839844 130.421875 C 34.164062 131.558594 33.929688 132.921875 33.664062 134.195312 C 32.238281 141.070312 29.175781 147.34375 27.109375 154.03125 C 25.578125 158.988281 24.40625 164.046875 23.488281 169.15625 C 23.230469 170.582031 22.992188 172.015625 22.761719 173.449219 C 22.59375 174.5 22.949219 178.476562 21.121094 178.539062 C 20.253906 178.574219 19.503906 176.996094 19.15625 176.40625 C 18.207031 174.804688 17.15625 173.164062 16.242188 171.570312 C 15.15625 169.675781 14.070312 167.777344 13.066406 165.828125 C 12.585938 164.894531 12.125 163.953125 11.6875 162.992188 C 11.191406 161.914062 10.59375 160.90625 10.652344 159.675781 C 10.703125 158.5625 11.296875 157.664062 11.667969 156.648438 C 12.15625 155.324219 12.8125 154.074219 13.472656 152.828125 C 14.957031 150.03125 16.179688 147.15625 17.46875 144.273438 C 18.808594 141.273438 20.574219 138.472656 21.828125 135.433594 C 22.972656 132.671875 23.390625 129.769531 24.097656 126.894531 C 24.871094 123.75 26.328125 120.722656 27.46875 117.691406 C 27.875 116.617188 29.953125 117.917969 30.3125 118.269531 C 30.984375 118.921875 31.445312 119.738281 31.957031 120.507812 Z M 6.464844 31.367188 C 6.660156 31.050781 7.039062 30.371094 7.382812 30.105469 C 8.320312 29.371094 8.566406 29.078125 9.449219 28.324219 C 10.535156 27.386719 12.335938 26.386719 13.554688 25.460938 C 13.964844 25.148438 14.199219 24.785156 14.847656 24.722656 C 15.191406 24.6875 15.40625 24.839844 15.554688 24.996094 C 15.894531 25.367188 16.0625 26.144531 15.78125 26.667969 C 15.453125 27.28125 14.652344 27.535156 13.980469 27.949219 C 12.582031 28.820312 10.976562 29.476562 9.535156 30.308594 C 9.476562 30.34375 9.414062 30.378906 9.355469 30.414062 C 9.476562 30.347656 9.59375 30.277344 9.707031 30.199219 C 8.785156 30.691406 7.851562 30.960938 6.988281 31.503906 C 6.824219 31.609375 6.5 31.890625 6.308594 31.804688 C 6.132812 31.722656 6.378906 31.507812 6.464844 31.367188 Z M 38.085938 98.832031 C 40.574219 100.167969 42.222656 100.867188 44.996094 101.46875 C 47.503906 102.015625 50.003906 102.972656 52.550781 103.28125 C 58.105469 103.957031 63.558594 104.070312 69.03125 102.761719 C 70.464844 102.417969 72.074219 102.128906 73.4375 101.5625 C 76.539062 100.269531 79.054688 97.964844 82.023438 96.429688 C 82.949219 95.953125 83.648438 95.195312 84.507812 94.625 C 85.089844 94.238281 85.839844 95.691406 85.921875 96.019531 C 86.140625 96.886719 86.023438 97.804688 86.058594 98.691406 C 86.132812 100.679688 86.5 103.035156 85.871094 104.972656 C 85.363281 106.542969 82.917969 107.382812 81.816406 108.476562 C 81.21875 109.070312 80.058594 109.5 79.304688 109.871094 C 78.398438 110.3125 77.464844 110.6875 76.503906 111 C 74.492188 111.652344 72.398438 112.027344 70.316406 112.394531 C 64.492188 113.40625 57.40625 115.300781 51.671875 114.597656 C 46.574219 113.96875 41.867188 112.316406 37.472656 109.855469 C 33.417969 107.585938 36.203125 102.066406 36.203125 97.808594 C 36.828125 98.148438 37.457031 98.492188 38.085938 98.832031 Z M 39.023438 87.292969 C 38.582031 88.191406 36.96875 89.039062 35.949219 88.570312 C 34.40625 87.859375 33.121094 86.417969 31.601562 85.796875 C 30.234375 85.238281 28.648438 84.378906 27.867188 82.902344 C 27.382812 82 27.210938 81.019531 26.996094 80.027344 C 26.75 78.886719 26.425781 77.761719 26.179688 76.613281 C 25.636719 74.089844 25.230469 71.476562 24.410156 69.023438 C 24.007812 67.816406 23.480469 66.65625 23.027344 65.46875 C 22.046875 62.898438 22.167969 60.128906 21.609375 57.46875 C 21.269531 55.839844 20.761719 54.253906 20.28125 52.660156 C 19.292969 49.375 18.703125 45.933594 18.5 42.503906 C 18.410156 40.925781 18.300781 39.300781 17.441406 37.921875 C 16.730469 36.785156 15.832031 35.863281 14.550781 35.378906 C 13.539062 34.996094 12.480469 34.660156 11.386719 34.6875 C 10.550781 34.707031 9.585938 35.085938 8.761719 35.265625 C 7.976562 35.4375 7.191406 35.605469 6.402344 35.761719 C 5.785156 35.882812 5.1875 36.101562 4.554688 36.167969 C 4.058594 36.21875 4.367188 35.355469 4.496094 35.144531 C 4.761719 34.710938 5.300781 34.46875 5.742188 34.269531 C 8.664062 32.953125 11.761719 31.980469 14.828125 31.09375 C 15.496094 30.902344 16.28125 30.570312 16.988281 30.605469 C 17.574219 30.632812 17.664062 30.996094 17.691406 31.519531 C 17.734375 32.375 17.734375 33.171875 18.136719 33.960938 C 18.441406 34.558594 19.121094 35.160156 19.597656 35.625 C 20.152344 36.160156 20.765625 36.625 21.425781 37.019531 C 22.886719 37.894531 24.511719 38.488281 26.0625 39.183594 C 26.949219 39.582031 27.84375 39.988281 28.707031 40.433594 C 30.5625 41.394531 32.273438 42.617188 34.164062 43.511719 C 34.894531 43.855469 35.703125 43.953125 36.210938 44.652344 C 36.589844 45.183594 36.589844 45.804688 36.6875 46.421875 C 37.523438 51.863281 36.671875 55.964844 37.03125 61.035156 C 37.246094 64.058594 37.46875 67.535156 37.816406 70.546875 C 38.109375 73.09375 38.652344 74.125 38.847656 76.773438 C 38.945312 78.09375 39.054688 80.238281 39.253906 81.542969 C 39.285156 81.75 39.316406 81.957031 39.34375 82.167969 C 39.34375 81.988281 39.339844 81.808594 39.339844 81.632812 C 39.328125 83.519531 39.90625 85.496094 39.023438 87.292969 Z M 73.546875 49.757812 C 73.613281 49.652344 73.679688 49.546875 73.546875 49.757812 C 72.421875 51.511719 72.816406 54.394531 72.488281 56.390625 C 72.140625 58.5 71.679688 60.589844 71.269531 62.6875 C 70.335938 67.460938 69.453125 72.234375 68.804688 77.054688 C 68.417969 79.9375 68.035156 82.816406 67.777344 85.710938 C 67.648438 87.160156 68.179688 89.070312 67.402344 90.394531 C 66.96875 91.144531 65.445312 91.335938 64.703125 91.300781 C 61.910156 91.183594 59.132812 90.835938 56.34375 90.644531 C 53.53125 90.453125 50.78125 90.636719 47.976562 90.742188 C 46.585938 90.789062 44.5 90.632812 43.425781 89.574219 C 42.3125 88.472656 42.328125 86.308594 42.40625 84.867188 C 42.691406 79.738281 42.398438 74.578125 41.617188 69.492188 C 40.957031 65.183594 40.96875 60.828125 40.933594 56.460938 C 40.910156 53.714844 40.949219 50.96875 40.871094 48.226562 C 40.828125 46.632812 40.355469 45.449219 40.085938 44.113281 C 40.085938 43.449219 48.472656 43.925781 49.183594 44 C 50.105469 44.09375 50.867188 44.574219 51.8125 44.722656 C 53.394531 44.972656 55.183594 44.75 54.035156 46.53125 C 52.46875 48.964844 50.664062 51.246094 49.042969 53.65625 C 47.84375 55.4375 46.613281 57.203125 45.5625 59.078125 C 45.382812 59.394531 44.144531 62.253906 45.785156 61.476562 C 48.570312 60.15625 49.503906 56.542969 51.449219 54.449219 C 53.6875 52.03125 55.285156 48.746094 57.472656 46.199219 C 58.71875 44.746094 64.082031 46.796875 65.773438 47.019531 C 67.128906 47.195312 75.429688 46.785156 73.546875 49.757812 Z M 73.546875 49.757812 "/></g><path style=" stroke:none;fill-rule:nonzero;fill:#000000;fill-opacity:1;" d="M 49.226562 150.15625 C 48.28125 150.140625 46.382812 152.726562 46.082031 153.175781 C 44.917969 154.902344 44.007812 156.820312 42.984375 158.632812 C 42.058594 160.265625 41.125 161.898438 40.175781 163.519531 C 39.597656 164.507812 38.210938 166.449219 38.710938 167.703125 C 38.898438 168.167969 41.0625 166.414062 41.183594 166.277344 C 42.265625 165.109375 43.035156 163.636719 43.789062 162.246094 C 45.0625 159.914062 46.289062 157.570312 47.621094 155.265625 C 47.953125 154.683594 50.242188 151.023438 49.511719 150.277344 C 49.433594 150.199219 49.335938 150.160156 49.226562 150.15625 Z M 49.226562 150.15625 "/><path style=" stroke:none;fill-rule:nonzero;fill:#000000;fill-opacity:1;" d="M 36.671875 157.425781 C 36.652344 157.347656 36.632812 157.277344 36.671875 157.425781 C 36.710938 157.578125 36.695312 157.507812 36.671875 157.433594 C 37.449219 160.492188 41.226562 154.277344 41.519531 153.671875 C 43.980469 148.570312 47.164062 144.003906 50.359375 139.347656 C 51.023438 138.378906 51.660156 137.386719 52.371094 136.449219 C 53.226562 135.332031 55.929688 133.492188 55.265625 131.734375 C 54.5 129.703125 50.65625 134.941406 49.976562 135.742188 C 47.976562 138.09375 45.746094 140.570312 44.179688 143.238281 C 43.140625 145.003906 42.097656 146.765625 41.125 148.566406 C 40.273438 150.152344 39.367188 151.703125 38.523438 153.285156 C 38.089844 154.105469 36.421875 156.421875 36.671875 157.425781 Z M 36.671875 157.425781 "/><path style=" stroke:none;fill-rule:nonzero;fill:#000000;fill-opacity:1;" d="M 61.082031 48.429688 C 61.019531 48.441406 61.019531 48.445312 61.035156 48.445312 C 58.839844 48.917969 57.710938 51.429688 56.386719 53.050781 C 55.074219 54.65625 53.765625 56.066406 52.589844 57.8125 C 51.316406 59.699219 49.816406 61.363281 48.699219 63.371094 C 48.390625 63.921875 46.488281 68.285156 48.929688 67.066406 C 49.972656 66.546875 49.339844 65.949219 49.796875 65.304688 C 50.183594 64.765625 50.570312 64.582031 50.914062 63.945312 C 52.011719 61.917969 53.792969 60.09375 55.058594 58.144531 C 56.3125 56.21875 58.015625 54.652344 59.222656 52.699219 C 59.421875 52.375 62.019531 48.492188 61.097656 48.433594 C 61.121094 48.433594 61.140625 48.429688 61.082031 48.429688 Z M 61.082031 48.429688 "/></g></svg>