<svg xmlns="http://www.w3.org/2000/svg" xmlns:xlink="http://www.w3.org/1999/xlink" width="205" zoomAndPan="magnify" viewBox="0 0 153.75 223.499994" height="298" preserveAspectRatio="xMidYMid meet" version="1.2"><defs><clipPath id="29789d2df7"><path d="M 0.046875 0 L 152.707031 0 L 152.707031 222 L 0.046875 222 Z M 0.046875 0 "/></clipPath></defs><g id="433d348c5e"><g clip-rule="nonzero" clip-path="url(#29789d2df7)"><path style=" stroke:none;fill-rule:nonzero;fill:#0c0b0c;fill-opacity:1;" d="M 150.269531 95.492188 C 147.117188 92.617188 144.066406 89.609375 140.726562 86.972656 C 138.507812 85.226562 136.042969 83.984375 132.84375 84.082031 C 124.21875 84.339844 115.578125 84.167969 106.945312 84.179688 C 105.757812 84.179688 104.429688 83.921875 103.410156 84.359375 C 101.652344 85.117188 100.835938 83.8125 100.585938 82.914062 C 100.046875 80.964844 98.488281 80.578125 97.066406 80.089844 C 95.476562 79.625 93.859375 79.296875 92.214844 79.109375 C 89.484375 78.671875 86.746094 78.296875 83.414062 77.808594 C 85.089844 74.519531 86.496094 71.632812 88.050781 68.832031 C 88.363281 68.269531 89.292969 67.632812 89.863281 67.699219 C 105.671875 69.667969 116.191406 73.539062 129.070312 61.0625 C 135.945312 54.402344 138.980469 45.652344 138.84375 36.144531 C 138.667969 23.871094 130.957031 13.253906 118.601562 11.1875 C 117.375 10.984375 115.429688 9.738281 115.363281 8.859375 C 115.070312 4.980469 112.101562 4.144531 109.445312 3.542969 C 97.671875 0.886719 85.273438 0.546875 73.15625 0.300781 C 59.144531 0.0195312 44.125 0.0429688 30.476562 3.5 C 25.5 4.757812 23.957031 9.140625 26.527344 13.183594 C 38.148438 33.167969 47.742188 54.300781 59.097656 74.449219 C 64.601562 83.4375 49.441406 75.160156 42.363281 83.335938 C 42.074219 83.648438 41.398438 83.691406 40.894531 83.707031 C 34.925781 83.882812 28.960938 84.160156 22.992188 84.136719 C 19.179688 84.125 15.738281 84.261719 12.75 87.332031 C 9.671875 90.496094 5.9375 93.011719 2.652344 95.992188 C 1.035156 97.453125 0.0585938 99.308594 1.355469 101.675781 C 1.757812 102.53125 1.804688 103.40625 1.496094 104.300781 C 0.449219 107.007812 2.640625 109.617188 5.480469 110.027344 C 6.667969 110.199219 7.84375 110.425781 9.242188 110.667969 L 9.242188 110.679688 C 10.929688 110.792969 12.628906 110.816406 14.300781 111.070312 C 14.867188 111.226562 15.371094 111.496094 15.820312 111.875 C 16.265625 112.253906 16.613281 112.707031 16.859375 113.238281 C 17.140625 114.933594 17.070312 116.65625 17.128906 118.363281 C 17.347656 126.230469 17.550781 134.097656 17.800781 141.964844 C 17.507812 154.449219 17.3125 166.929688 17.375 179.417969 C 17.351562 181.625 16.84375 183.859375 17.054688 186.03125 C 17.402344 189.648438 16.066406 192.109375 13.496094 194.671875 C 10.496094 197.65625 8.164062 201.359375 5.847656 204.945312 C 4.84375 206.507812 4.488281 208.535156 4.054688 210.402344 C 3.804688 211.5 4.140625 212.726562 3.9375 213.84375 C 3.324219 217.269531 5.335938 220.386719 8.648438 220.699219 C 19.992188 222.25 31.367188 221.078125 42.746094 220.796875 C 57.226562 220.757812 71.703125 220.480469 86.179688 220.269531 C 104.84375 220.316406 123.511719 220.300781 142.152344 219.234375 C 144.222656 219.125 147.128906 218.898438 147.578125 216.15625 C 148.238281 212.136719 148.75 208.046875 145.847656 204.347656 C 142.785156 200.449219 140.042969 196.296875 137.238281 192.203125 C 136.75 191.453125 136.492188 190.625 136.464844 189.726562 C 136.230469 179.734375 136.113281 169.710938 135.835938 159.734375 C 136.066406 151.042969 135.460938 142.363281 135.132812 133.679688 C 135.488281 125.714844 135.628906 117.734375 135.796875 109.757812 C 140.3125 109.46875 144.863281 109.320312 149.394531 109.074219 C 151.253906 108.984375 152.128906 107.984375 152.109375 106.136719 C 152.09375 104.445312 151.824219 102.691406 152.183594 101.078125 C 152.71875 98.695312 151.910156 96.988281 150.269531 95.492188 Z M 114.820312 14.878906 C 115.308594 13.316406 118.699219 14.582031 119.9375 14.882812 C 138.183594 19.871094 138.949219 45.257812 127.417969 57.277344 C 123.035156 62.460938 118.59375 63.914062 112.113281 65.128906 C 106.050781 66.207031 100.015625 66.058594 94.015625 64.6875 C 93.660156 64.609375 89.894531 63.992188 89.894531 63.589844 L 92.410156 59.261719 C 92.511719 59.085938 101.1875 62.019531 102.097656 62.195312 C 119.378906 65.535156 135.433594 48.4375 130.554688 31.339844 C 129.722656 28.464844 128.378906 25.851562 126.527344 23.5 C 125.386719 21.953125 123.492188 20.769531 121.699219 19.953125 C 119.746094 19.058594 117.84375 17.808594 115.628906 17.613281 C 114.9375 16.820312 114.324219 15.949219 114.820312 14.878906 Z M 117.972656 21.6875 C 123.277344 23.308594 125.980469 27.46875 127.070312 32.371094 C 130.898438 45.871094 118.695312 61.488281 104.261719 58.371094 C 100.976562 57.703125 97.730469 56.84375 94.199219 56.007812 C 94.496094 54.839844 94.578125 53.925781 94.949219 53.152344 C 99.03125 44.652344 103.136719 36.167969 107.269531 27.695312 C 107.851562 26.488281 108.417969 25.269531 109.082031 24.105469 C 110.457031 21.695312 114.476562 20.621094 117.972656 21.6875 Z M 94.804688 5.195312 C 95.898438 5.339844 102.816406 4.726562 102.710938 5.976562 C 102.628906 6.902344 100.429688 7.273438 99.789062 7.4375 C 97.085938 8.171875 94.335938 8.527344 91.535156 8.5 C 90.683594 4.960938 91.101562 4.714844 94.804688 5.195312 Z M 74.371094 3.453125 C 78.171875 3.652344 81.980469 3.707031 85.777344 3.957031 C 86.667969 4.019531 88.105469 4.449219 88.289062 5.027344 C 88.804688 6.675781 87.335938 8.792969 85.851562 8.953125 C 84.78125 9.019531 83.710938 9.027344 82.640625 8.976562 C 79.824219 8.984375 76.988281 9.183594 74.210938 8.867188 C 73.332031 8.765625 72.003906 7.3125 71.964844 6.429688 C 71.90625 5.179688 72.144531 3.335938 74.371094 3.453125 Z M 68.058594 3.4375 C 70.769531 3.378906 69.835938 5.332031 69.941406 6.660156 C 70.058594 8.117188 69.511719 9.0625 67.800781 9.039062 C 64.179688 8.992188 60.429688 9.3125 56.835938 8.980469 C 57.664062 9.058594 56.550781 3.867188 56.480469 3.457031 C 60.503906 3.457031 64.28125 3.515625 68.058594 3.4375 Z M 44.246094 4.890625 C 47.644531 4.097656 53.59375 3.320312 53.765625 4.378906 C 53.9375 5.464844 54.15625 6.847656 54.492188 8.941406 C 54.445312 8.652344 47.96875 8.179688 47.25 8.085938 C 45.222656 7.824219 42.949219 7.789062 42.011719 5.617188 C 42.722656 5.269531 43.464844 5.027344 44.246094 4.890625 Z M 29.839844 8.570312 C 30.40625 7.78125 33.089844 8.355469 33.882812 8.488281 C 38.066406 9.183594 42.199219 10.292969 46.410156 10.816406 C 56.660156 12.09375 67.015625 12.273438 77.328125 11.816406 C 82.5625 11.585938 87.789062 11.191406 93.007812 10.695312 C 95.84375 10.425781 98.707031 10.394531 101.527344 9.953125 C 104.261719 9.53125 106.734375 8.183594 109.480469 7.96875 C 110.046875 7.863281 110.574219 7.96875 111.058594 8.277344 C 112.96875 9.828125 108.484375 11.996094 107.523438 12.203125 C 100.347656 13.726562 93.191406 15.15625 85.765625 15.046875 C 77.785156 14.933594 69.792969 15.476562 61.8125 15.394531 C 52.144531 15.292969 42.375 14.878906 33.191406 11.59375 C 32.546875 11.363281 30.835938 10.730469 30.054688 9.917969 C 29.660156 9.503906 29.5 9.042969 29.839844 8.570312 Z M 55.667969 61.421875 C 48.125 46.519531 40.660156 31.582031 32.542969 16.980469 C 32.273438 16.308594 32.054688 15.621094 31.894531 14.917969 C 57.660156 18.714844 83.121094 18.878906 108.761719 15.113281 C 103.929688 27.910156 97.988281 38.984375 91.925781 50.988281 C 87.421875 60.730469 83.382812 70.703125 78.234375 80.140625 C 76.585938 83.296875 74.398438 83.535156 72.53125 81.605469 C 72.195312 78.40625 71.953125 76.085938 71.707031 73.765625 L 70.894531 73.796875 C 70.894531 75.957031 71.09375 78.144531 70.800781 80.265625 C 70.679688 81.148438 69.65625 82.246094 68.789062 82.566406 C 68.238281 82.769531 66.871094 81.925781 66.46875 81.210938 C 62.785156 74.660156 59.132812 68.089844 55.667969 61.421875 Z M 46.277344 84.785156 C 46.742188 83.789062 47.683594 83.371094 48.667969 83.054688 C 48.945312 82.96875 49.222656 82.882812 49.5 82.804688 C 51.664062 82.183594 53.859375 81.84375 56.074219 81.421875 C 57.75 81.101562 59.855469 80.539062 61.527344 81.121094 C 63.53125 81.816406 64.5 83.90625 66.460938 84.664062 C 68.839844 85.585938 71.402344 85.539062 73.902344 85.351562 C 75.804688 85.207031 78.386719 85.433594 79.90625 84.09375 C 81.757812 82.460938 82.453125 80.308594 85.453125 80.96875 C 88.890625 81.726562 93.007812 82.207031 96.175781 83.800781 C 98.484375 84.964844 96.929688 87.238281 95.28125 88.03125 C 92.707031 89.273438 89.523438 89.855469 86.730469 90.363281 C 80.519531 91.496094 74.148438 91.609375 67.859375 91.285156 C 64.558594 91.113281 61.375 90.398438 58.105469 90.046875 C 54.785156 89.6875 51.378906 89.5625 48.238281 88.308594 C 47.476562 88.070312 46.851562 87.628906 46.371094 86.988281 C 46.175781 86.652344 46.066406 86.289062 46.050781 85.898438 C 46.035156 85.507812 46.109375 85.136719 46.277344 84.785156 Z M 6.375 96.851562 C 9.847656 93.800781 13.351562 90.777344 16.988281 87.921875 C 17.839844 87.253906 19.246094 87.089844 20.410156 87.046875 C 26.957031 86.800781 33.511719 86.703125 40.054688 86.457031 C 41.675781 86.398438 42.488281 86.789062 42.882812 88.511719 C 43.679688 91.996094 47.0625 92.257812 49.621094 92.839844 C 58.082031 94.761719 66.742188 94.414062 75.351562 94.304688 C 82.074219 94.222656 88.847656 94.414062 95.386719 92.453125 C 102.113281 90.640625 99.324219 87.863281 103.304688 87.457031 C 111.144531 87.363281 118.988281 87.402344 126.828125 87.398438 C 129.546875 87.398438 132.3125 87.070312 134.957031 87.5 C 136.449219 87.742188 137.824219 89.128906 139.109375 90.171875 C 142 92.515625 144.800781 94.976562 148.207031 97.871094 C 146.753906 98.164062 146.015625 98.4375 145.277344 98.445312 C 136.355469 98.527344 127.425781 98.324219 118.511719 98.382812 C 106.371094 98.464844 94.285156 99.058594 82.15625 98.960938 C 69.683594 98.859375 57.210938 99.226562 44.742188 99.289062 C 37.753906 99.324219 30.785156 99.050781 23.804688 98.972656 C 19.855469 98.929688 15.910156 99.070312 11.964844 99.09375 C 10.320312 99.140625 8.683594 99.078125 7.050781 98.914062 C 5.691406 98.746094 5.308594 97.789062 6.375 96.851562 Z M 144.742188 212.597656 C 144.703125 215.121094 143.660156 215.867188 139.796875 216.089844 C 136.824219 216.257812 133.851562 216.480469 130.875 216.539062 C 100.117188 217.476562 69.339844 216.554688 38.585938 217.414062 C 28.75 217.386719 18.878906 217.882812 9.070312 217.03125 C 6.976562 216.835938 7.136719 215.15625 7.273438 213.707031 C 7.421875 212.101562 8.621094 211.902344 9.964844 211.953125 C 33.058594 212.980469 56.1875 211.667969 79.296875 211.742188 C 100.171875 211.34375 121.140625 212.34375 141.945312 210.347656 C 144.339844 209.765625 144.78125 210.113281 144.742188 212.597656 Z M 137.34375 201.519531 C 137.21875 200.640625 137.046875 199.769531 136.828125 198.90625 L 137.429688 198.53125 C 137.539062 198.464844 142.535156 205.585938 143.113281 206.453125 C 143.808594 207.496094 143.164062 208.167969 141.960938 208.25 C 122.375 209.449219 102.703125 209.058594 83.082031 209.65625 C 72.238281 210.140625 61.40625 210.097656 50.5625 209.671875 C 43.441406 209.875 36.316406 209.71875 29.191406 209.695312 C 25.503906 209.703125 21.820312 209.855469 18.132812 209.964844 C 16.175781 210.027344 7.253906 211.882812 8.015625 207.761719 C 8.164062 207.183594 8.417969 206.65625 8.777344 206.179688 C 9.78125 204.65625 10.761719 203.117188 11.722656 201.5625 C 12.296875 200.636719 13.453125 197.558594 14.789062 197.558594 C 16.378906 196.546875 17.234375 197.535156 17.007812 199.273438 C 16.453125 203.558594 16.886719 205.070312 21.339844 205.078125 C 23.386719 205.082031 23.855469 203.898438 23.824219 202.335938 C 23.78125 199.90625 23.589844 197.472656 23.378906 195.046875 C 23.253906 193.617188 24.03125 193.113281 25.234375 193.070312 C 26.921875 193.007812 28.828125 192.570312 30.246094 193.191406 C 31.601562 193.789062 32.382812 195.605469 33.539062 196.761719 C 34.640625 197.863281 35.472656 199.394531 36.847656 200.121094 C 38.847656 201.175781 40.613281 202.613281 42.78125 203.414062 C 45.328125 204.351562 48.25 204.703125 50.917969 205.175781 C 65.257812 207.707031 79.632812 207.921875 94.042969 205.816406 C 101.3125 204.757812 110.226562 203.808594 115.785156 198.464844 C 116.953125 197.34375 118.410156 193.164062 119.996094 193.09375 C 122.757812 192.96875 125.53125 193.066406 128.296875 193.019531 C 129.648438 192.996094 130.011719 193.660156 129.988281 194.875 C 129.941406 197.179688 129.964844 199.488281 129.980469 201.792969 C 129.996094 204.265625 131.402344 205.546875 133.96875 205.464844 C 136.601562 205.378906 137.59375 204.25 137.34375 201.519531 Z M 40.222656 198.082031 C 37.046875 196.582031 34.921875 194.371094 34.601562 190.890625 C 33.207031 175.660156 41.339844 161.839844 46.472656 148.058594 C 48.277344 143.410156 50.851562 139.0625 52.851562 134.480469 C 53.78125 132.351562 55.089844 132.191406 56.957031 132.769531 C 60.628906 133.910156 67.390625 133.796875 70.527344 136.429688 C 74.027344 139.367188 75.078125 142.621094 75.140625 147.125 C 75.289062 157.289062 75.492188 167.351562 76.21875 177.480469 C 76.324219 178.957031 76.421875 180.433594 76.507812 181.914062 C 74.679688 181.972656 72.855469 182.105469 71.035156 182.339844 C 61.109375 183.253906 50.921875 182.902344 41.433594 186.386719 C 36.75 187.96875 37.328125 194.269531 41.914062 195.894531 C 57.964844 202.941406 75.738281 200.753906 92.707031 199.863281 C 98.988281 199.359375 105.367188 198.738281 110.648438 194.460938 C 112.25 193.167969 112.921875 191.695312 112.90625 189.953125 C 113.035156 189.910156 113.109375 189.824219 113.128906 189.695312 C 113.316406 189.058594 112.957031 188.488281 112.601562 187.980469 C 110.359375 181.316406 80.289062 184.011719 80.140625 181.882812 C 79.8125 177.089844 78.378906 172.484375 78.191406 167.710938 C 77.871094 159.46875 78.742188 151.335938 78.328125 143.042969 C 78.222656 140.972656 77.726562 138.320312 78.886719 136.421875 C 80.488281 133.796875 85.257812 134.832031 87.816406 134.507812 C 90.734375 134.179688 93.566406 133.492188 96.3125 132.445312 C 96.714844 132.285156 97.761719 132.863281 98.011719 133.347656 C 103.507812 143.84375 108.289062 154.652344 112.359375 165.773438 C 114.6875 172.207031 116.992188 178.722656 116.558594 185.890625 C 116.875 189.773438 116.457031 193.695312 113.015625 196.25 C 107.3125 200.542969 99.945312 201.140625 93.136719 202.425781 C 91.976562 202.625 90.808594 202.78125 89.632812 202.902344 C 73.054688 203.84375 55.773438 205.171875 40.222656 198.082031 Z M 50.082031 203.867188 L 49.929688 203.835938 L 49.980469 203.730469 C 50.015625 203.777344 50.046875 203.820312 50.082031 203.867188 Z M 80.421875 196.164062 C 81.96875 196.296875 83.511719 196.25 85.050781 196.03125 C 87.320312 195.796875 89.597656 195.605469 91.863281 195.316406 C 94.214844 195.03125 96.550781 194.609375 98.863281 194.089844 C 100.9375 193.691406 102.972656 193.152344 104.96875 192.46875 C 105.578125 192.265625 106.710938 191.8125 106.886719 191.734375 C 107.476562 191.4375 108.082031 191.183594 108.707031 190.972656 C 108.734375 190.96875 109.097656 190.921875 108.828125 190.957031 C 109.847656 190.71875 110.285156 191.582031 109.542969 192.296875 C 109.117188 192.785156 108.480469 193.011719 107.929688 193.328125 C 106.457031 194.082031 104.941406 194.738281 103.382812 195.292969 C 98.808594 196.980469 93.910156 197.4375 89.078125 197.832031 C 87.476562 197.953125 85.875 198.03125 84.269531 198.101562 C 82.996094 198.140625 81.667969 198.257812 80.441406 197.851562 C 79.976562 197.710938 79.570312 197.46875 79.222656 197.125 C 79.039062 196.9375 78.996094 196.722656 79.097656 196.476562 C 79.199219 196.234375 79.378906 196.109375 79.644531 196.105469 C 79.933594 196.140625 80.21875 196.148438 80.511719 196.175781 Z M 80.523438 132.136719 C 79.191406 132.253906 77.859375 132.355469 76.527344 132.433594 C 74.933594 132.527344 66.140625 133.550781 65.917969 130.726562 C 65.917969 130.699219 65.914062 130.667969 65.914062 130.636719 C 65.9375 129.382812 69.53125 129.730469 70.410156 129.671875 C 72.875 129.507812 75.339844 129.335938 77.804688 129.160156 C 80.785156 128.945312 83.765625 128.710938 86.742188 128.457031 C 88.300781 128.324219 89.84375 128.070312 91.382812 127.785156 C 92.320312 127.613281 93.75 126.5625 94.753906 126.929688 C 96.535156 127.578125 95.203125 130.144531 93.742188 130.386719 C 89.363281 131.113281 84.949219 131.730469 80.523438 132.132812 Z M 101.640625 131.730469 C 100.925781 130.027344 100.464844 128.21875 99.765625 126.085938 C 106.039062 123.792969 111.816406 122.613281 112.90625 115.125 C 113.089844 113.632812 113.421875 112.171875 113.902344 110.742188 C 114.117188 110.1875 115.117188 109.628906 115.785156 109.597656 C 118.472656 109.441406 121.160156 109.449219 123.84375 109.625 C 124.546875 109.679688 125.546875 110.628906 125.769531 111.363281 C 127.160156 116.015625 128.847656 120.589844 129.101562 125.546875 C 129.234375 128.144531 130.296875 130.703125 130.363281 133.292969 C 130.546875 140.605469 130.484375 147.925781 130.417969 155.242188 C 130.316406 166.195312 130.101562 177.148438 129.996094 188.101562 C 129.980469 189.929688 129.332031 190.792969 127.441406 190.738281 C 124.964844 190.671875 122.484375 190.726562 120.105469 190.726562 C 119.707031 183.636719 119.542969 177.953125 117.328125 171.527344 C 112.90625 157.945312 107.378906 144.796875 101.640625 131.730469 Z M 103.144531 121.914062 C 94.519531 125.398438 85.4375 125.660156 76.289062 126.28125 L 75.503906 126.332031 C 71.828125 126.582031 68.132812 125.785156 64.453125 125.367188 C 60.289062 124.898438 56.128906 124.394531 51.984375 123.765625 C 48.460938 123.230469 44.894531 121.523438 42.515625 118.832031 C 40.824219 116.914062 39.773438 114.339844 40.058594 111.796875 C 40.066406 111.632812 40.113281 111.476562 40.191406 111.328125 C 40.320312 111.175781 40.484375 111.082031 40.6875 111.050781 C 40.886719 111.019531 41.070312 111.058594 41.242188 111.167969 C 42.65625 111.980469 42.703125 113.953125 43.191406 115.296875 C 44.269531 118.230469 47.03125 119.757812 49.863281 120.652344 C 55.976562 122.582031 62.257812 123.261719 68.617188 123.371094 C 80.035156 123.933594 91.863281 123.582031 102.726562 119.644531 C 106.136719 118.410156 106.71875 116.480469 108.15625 113.433594 C 109.199219 111.230469 110.414062 109.414062 111.148438 111.808594 C 112.585938 116.480469 106.78125 120.441406 103.140625 121.914062 Z M 47.785156 125.882812 C 50.738281 126.902344 51.414062 127.878906 50.242188 130.871094 C 46.117188 140.734375 41.628906 150.464844 37.726562 160.425781 C 34.332031 169.414062 29.964844 178.550781 30.78125 188.402344 C 30.996094 190.238281 30.257812 191 28.433594 190.742188 C 26.796875 190.511719 24.382812 191.667969 23.28125 189.972656 C 22.285156 188.441406 22.574219 186.304688 22.714844 184.585938 C 23.25 177.972656 22.605469 171.195312 22.417969 164.570312 C 22.417969 147.246094 21.027344 129.90625 20.191406 112.609375 C 20.113281 110.683594 21.003906 109.484375 22.890625 109.527344 C 26.726562 109.621094 30.566406 109.578125 34.402344 109.542969 C 35.574219 109.53125 36.140625 109.816406 36.351562 111.164062 C 37.691406 119.421875 39.5625 123.261719 47.785156 125.882812 Z M 147.660156 105.199219 C 146.992188 105.945312 145.519531 106.257812 144.394531 106.265625 C 132.394531 106.335938 120.390625 106.238281 108.390625 106.347656 C 103.136719 106.398438 97.886719 107.039062 92.636719 107.027344 C 85.617188 107.015625 78.597656 106.539062 71.578125 106.433594 C 53.425781 107.046875 35.261719 106.546875 17.109375 107.007812 C 14.214844 107.082031 7.0625 108.910156 5.207031 105.703125 C 5.074219 105.460938 4.984375 105.203125 4.933594 104.929688 C 4.882812 104.660156 4.878906 104.386719 4.914062 104.109375 C 4.953125 103.835938 5.035156 103.574219 5.15625 103.328125 C 5.277344 103.078125 5.433594 102.855469 5.628906 102.65625 C 6.484375 101.820312 7.789062 101.703125 8.988281 101.636719 C 13.304688 101.386719 17.601562 101.140625 21.925781 101.136719 C 25.375 101.128906 28.828125 101.222656 32.277344 101.230469 C 40.351562 101.246094 48.425781 101.261719 56.503906 101.28125 C 72.601562 101.308594 88.703125 101.347656 104.800781 101.125 C 109.226562 101.066406 113.65625 100.992188 118.082031 100.808594 C 126.328125 101.050781 134.472656 101.363281 142.71875 100.789062 C 143.988281 100.699219 146.039062 100.296875 147.257812 101.011719 C 148.621094 101.8125 148.710938 104.03125 147.660156 105.199219 Z M 147.660156 105.199219 "/></g><path style=" stroke:none;fill-rule:nonzero;fill:#0c0b0c;fill-opacity:1;" d="M 101.871094 65.761719 C 101.945312 65.773438 101.914062 65.769531 101.871094 65.761719 Z M 101.871094 65.761719 "/><path style=" stroke:none;fill-rule:nonzero;fill:#0c0b0c;fill-opacity:1;" d="M 76.964844 70.816406 C 77.503906 69.203125 77.566406 67.480469 77.792969 65.800781 C 78.089844 63.296875 78.421875 60.796875 78.75 58.296875 L 78.804688 58.300781 C 79.820312 47.445312 81.03125 36.601562 82.0625 25.746094 C 82.191406 23.878906 82.464844 22.003906 82.449219 20.128906 C 82.445312 19.996094 82.394531 19.878906 82.304688 19.777344 C 82.214844 19.679688 82.105469 19.621094 81.972656 19.601562 C 81.839844 19.582031 81.714844 19.609375 81.601562 19.683594 C 81.488281 19.753906 81.410156 19.855469 81.371094 19.984375 C 81.179688 20.796875 81.039062 21.621094 80.957031 22.453125 C 80.585938 24.949219 80.285156 27.453125 80.011719 29.960938 C 78.710938 41.660156 77.285156 53.351562 76.484375 65.097656 C 76.363281 66.96875 76.058594 68.847656 76.265625 70.722656 C 76.273438 70.925781 76.375 71.039062 76.574219 71.066406 C 76.777344 71.09375 76.90625 71.011719 76.964844 70.816406 Z M 76.964844 70.816406 "/><path style=" stroke:none;fill-rule:nonzero;fill:#0c0b0c;fill-opacity:1;" d="M 81.953125 56.636719 C 81.855469 57.472656 81.625 58.339844 81.910156 59.15625 C 81.925781 59.207031 81.949219 59.25 81.988281 59.285156 C 82.023438 59.320312 82.066406 59.347656 82.117188 59.359375 C 82.167969 59.371094 82.21875 59.371094 82.265625 59.359375 C 82.316406 59.34375 82.359375 59.320312 82.398438 59.285156 C 82.8125 58.761719 83.085938 58.171875 83.214844 57.515625 C 85.042969 50.457031 86.4375 43.289062 88.128906 36.191406 C 89.308594 31.246094 90.464844 26.296875 91.664062 21.355469 C 91.746094 20.792969 92.167969 20.015625 91.550781 19.628906 C 91.59375 19.652344 91.601562 19.65625 91.59375 19.648438 C 91.476562 19.535156 91.335938 19.496094 91.175781 19.535156 L 91.203125 19.535156 C 91.050781 19.539062 90.910156 19.585938 90.789062 19.679688 C 90.664062 19.773438 90.582031 19.894531 90.539062 20.042969 C 90.128906 21.277344 89.816406 22.550781 89.476562 23.804688 C 89.136719 25.058594 88.792969 26.320312 88.457031 27.578125 C 86.085938 37.042969 83.703125 46.527344 82.019531 56.144531 C 81.992188 56.296875 81.96875 56.496094 81.953125 56.636719 Z M 81.953125 56.636719 "/><path style=" stroke:none;fill-rule:nonzero;fill:#0c0b0c;fill-opacity:1;" d="M 89.660156 46.632812 C 89.597656 46.96875 89.257812 48.515625 89.65625 48.730469 C 90.027344 48.929688 90.527344 48.027344 90.664062 47.792969 C 91.125 46.84375 91.480469 45.859375 91.734375 44.835938 C 93.015625 40.875 94.347656 36.964844 95.875 33.085938 C 97.402344 29.210938 98.613281 25.238281 100.074219 21.351562 C 100.5625 20.097656 101.085938 18.847656 101.507812 17.570312 C 101.539062 17.433594 101.523438 17.304688 101.460938 17.179688 C 101.398438 17.054688 101.304688 16.964844 101.175781 16.910156 C 101.046875 16.855469 100.917969 16.851562 100.785156 16.894531 C 100.652344 16.9375 100.546875 17.015625 100.472656 17.132812 C 100.140625 17.753906 99.84375 18.394531 99.554688 19.039062 L 99.527344 19.027344 C 99.183594 18.90625 94.101562 32.5625 93.648438 33.820312 C 92.339844 37.484375 90.886719 41.25 89.992188 45.0625 C 89.871094 45.585938 89.761719 46.109375 89.660156 46.632812 Z M 89.660156 46.632812 "/><path style=" stroke:none;fill-rule:nonzero;fill:#0c0b0c;fill-opacity:1;" d="M 67.648438 42.019531 C 67.6875 42.511719 67.769531 42.996094 67.886719 43.472656 C 68 43.929688 68.195312 44.347656 68.46875 44.726562 C 69.308594 44.195312 69.261719 43.035156 69.234375 42.101562 C 69.054688 35.183594 69.273438 26.667969 67.15625 20.011719 C 67.113281 19.867188 67.027344 19.75 66.898438 19.667969 C 66.769531 19.585938 66.632812 19.554688 66.480469 19.574219 C 66.332031 19.597656 66.203125 19.664062 66.105469 19.777344 C 66.003906 19.890625 65.949219 20.023438 65.949219 20.175781 C 66.046875 23.375 66.453125 26.570312 66.699219 29.765625 C 67.09375 33.84375 67.25 37.945312 67.648438 42.019531 Z M 67.648438 42.019531 "/><path style=" stroke:none;fill-rule:nonzero;fill:#0c0b0c;fill-opacity:1;" d="M 62.40625 40.292969 C 61.472656 33.761719 60.742188 27.042969 58.941406 20.675781 C 58.898438 20.53125 58.8125 20.417969 58.6875 20.335938 C 58.5625 20.253906 58.425781 20.222656 58.273438 20.242188 C 58.125 20.261719 58 20.324219 57.898438 20.4375 C 57.800781 20.554688 57.75 20.683594 57.75 20.835938 C 57.867188 21.871094 58.050781 22.894531 58.214844 23.921875 C 59.632812 32.640625 60.855469 41.382812 62.101562 50.125 L 62.101562 50.132812 C 62.105469 50.429688 62.199219 50.695312 62.382812 50.929688 C 63.871094 50.089844 63.789062 47.539062 63.378906 45.066406 C 63.0625 43.152344 62.546875 41.285156 62.40625 40.292969 Z M 62.40625 40.292969 "/><path style=" stroke:none;fill-rule:nonzero;fill:#0c0b0c;fill-opacity:1;" d="M 51.675781 24.109375 C 51.347656 22.78125 51.109375 20.671875 49.960938 19.757812 C 48.628906 18.699219 49.140625 20.480469 49.398438 21.460938 C 50.726562 26.515625 51.691406 30.917969 53.648438 37.054688 C 54.699219 40.960938 55.726562 44.871094 56.695312 48.800781 C 56.878906 49.714844 57.132812 50.609375 57.457031 51.484375 L 57.460938 51.488281 C 57.875 52.257812 58.121094 51.460938 58.203125 51 C 58.285156 50.527344 58.320312 50.054688 58.308594 49.574219 C 58.28125 48.046875 57.867188 46.453125 57.574219 45.023438 C 56.125 37.933594 53.429688 31.128906 51.675781 24.109375 Z M 51.675781 24.109375 "/><path style=" stroke:none;fill-rule:nonzero;fill:#0c0b0c;fill-opacity:1;" d="M 54.453125 51.121094 C 52.621094 44.894531 50.070312 38.863281 47.796875 32.789062 C 46.800781 30.125 45.800781 27.464844 44.777344 24.8125 C 44.207031 23.332031 43.683594 20.242188 42.167969 19.503906 C 41.769531 20.363281 42.058594 21.613281 42.339844 22.535156 C 45.324219 32.390625 49.34375 42.054688 53.070312 51.648438 C 53.832031 53.609375 55.007812 53.148438 54.480469 51.214844 C 54.472656 51.183594 54.464844 51.152344 54.453125 51.121094 Z M 54.453125 51.121094 "/><path style=" stroke:none;fill-rule:nonzero;fill:#0c0b0c;fill-opacity:1;" d="M 100.332031 65.570312 L 100.347656 65.570312 C 100.308594 65.566406 100.269531 65.5625 100.332031 65.570312 Z M 100.332031 65.570312 "/></g></svg>