<svg xmlns="http://www.w3.org/2000/svg" xmlns:xlink="http://www.w3.org/1999/xlink" width="241" zoomAndPan="magnify" viewBox="0 0 180.75 179.999997" height="240" preserveAspectRatio="xMidYMid meet" version="1.0"><defs><clipPath id="ebe77a274e"><path d="M 0 0.125 L 180.5 0.125 L 180.5 179.875 L 0 179.875 Z M 0 0.125 " clip-rule="nonzero"/></clipPath></defs><g clip-path="url(#ebe77a274e)"><path fill="#000000" d="M 21.953125 99.21875 C 22.96875 99.394531 24.117188 99.484375 25.203125 99.804688 C 26.445312 100.164062 27.585938 100.003906 28.796875 99.695312 C 31.121094 99.109375 33.472656 98.636719 35.820312 98.117188 C 35.957031 98.089844 36.089844 98.050781 36.265625 98.007812 C 36.027344 97.1875 35.742188 96.40625 35.589844 95.601562 C 35.324219 94.171875 35.089844 92.734375 34.925781 91.289062 C 34.828125 90.421875 35.304688 89.785156 36.148438 89.574219 C 37.824219 89.152344 39.515625 89.035156 41.238281 89.367188 C 42.691406 89.648438 43.117188 90.9375 42.984375 92.171875 C 42.902344 92.90625 42.707031 93.628906 42.570312 94.355469 C 42.535156 94.550781 42.519531 94.75 42.472656 95.152344 C 42.6875 94.863281 42.800781 94.738281 42.886719 94.59375 C 45.976562 89.035156 49.53125 83.769531 53.128906 78.539062 C 54.441406 76.632812 56.144531 75.1875 58.230469 74.191406 C 61.296875 72.722656 64.386719 71.292969 67.453125 69.8125 C 73.140625 67.0625 78.832031 64.3125 84.492188 61.503906 C 86 60.757812 87.417969 59.820312 88.847656 58.933594 C 89.222656 58.699219 89.539062 58.339844 89.824219 57.992188 C 90.574219 57.070312 91.480469 56.335938 92.480469 55.710938 C 92.71875 55.5625 92.996094 55.484375 93.320312 55.34375 C 93.320312 55.238281 93.328125 55.101562 93.320312 54.96875 C 93.261719 53.917969 93.164062 52.867188 93.148438 51.8125 C 93.136719 51.171875 92.980469 50.742188 92.320312 50.5 C 91.707031 50.277344 91.136719 49.925781 90.554688 49.625 C 89.289062 48.972656 88.203125 48.101562 87.375 46.933594 C 85.792969 44.691406 84.207031 42.453125 82.671875 40.175781 C 81.859375 38.96875 81.632812 37.523438 81.328125 36.132812 C 81.085938 35.019531 80.921875 33.882812 80.738281 32.820312 C 79.238281 32.222656 77.71875 31.722656 76.285156 31.027344 C 73.136719 29.511719 71.359375 26.988281 70.96875 23.476562 C 70.691406 20.996094 71.363281 18.773438 72.632812 16.710938 C 73.085938 15.972656 73.769531 15.375 74.433594 14.789062 C 74.453125 14.734375 74.488281 14.679688 74.484375 14.628906 C 74.21875 12.023438 75.539062 10.019531 76.96875 8.0625 C 77.691406 7.066406 78.636719 6.34375 79.71875 5.78125 C 81.386719 4.914062 83.148438 4.34375 85.023438 4.210938 C 85.667969 4.167969 86.324219 4.324219 87.066406 4.402344 C 88.421875 2.394531 90.222656 0.890625 92.773438 0.507812 C 95.238281 0.136719 97.507812 0.460938 99.25 2.34375 C 103.492188 1.292969 106.871094 2.753906 109.808594 5.621094 C 110.265625 6.628906 111.175781 6.921875 112.136719 7.269531 C 115.664062 8.539062 119.425781 12.542969 118.960938 18 C 118.816406 19.6875 118.554688 21.347656 117.960938 22.9375 C 117.554688 24.019531 117.058594 25.046875 116.007812 25.664062 C 116 25.800781 115.976562 25.917969 115.992188 26.027344 C 116.316406 28.285156 115.578125 30.257812 114.371094 32.097656 C 114.058594 32.578125 113.726562 33.046875 113.34375 33.472656 C 113.039062 33.816406 113.011719 34.148438 113.105469 34.570312 C 114.28125 39.839844 115.121094 45.167969 115.980469 50.496094 C 116.125 51.398438 116.246094 52.304688 116.347656 53.210938 C 116.390625 53.628906 116.558594 53.953125 116.796875 54.289062 C 117.625 55.445312 118.714844 56.324219 119.785156 57.230469 C 120.132812 57.523438 120.492188 57.832031 120.742188 58.199219 C 121.238281 58.925781 121.90625 59.449219 122.585938 59.96875 C 127.027344 63.363281 131.761719 66.304688 136.683594 68.949219 C 139.605469 70.519531 142.601562 71.953125 145.335938 73.851562 C 146.84375 74.898438 148.304688 75.996094 149.578125 77.324219 C 149.765625 77.523438 150.023438 77.65625 150.25 77.820312 C 150.828125 78.238281 151.226562 78.804688 151.441406 79.460938 C 151.964844 81.09375 152.53125 82.71875 152.910156 84.382812 C 153.855469 88.53125 154.757812 92.691406 155.578125 96.863281 C 156.054688 99.269531 156.34375 101.710938 156.699219 104.136719 C 157.140625 107.15625 157.585938 110.179688 157.996094 113.203125 C 158.300781 115.464844 158.582031 117.730469 158.796875 120.003906 C 158.921875 121.332031 158.949219 122.683594 158.910156 124.023438 C 158.878906 125.078125 158.714844 126.132812 158.082031 127.074219 C 158.308594 127.523438 158.542969 127.976562 158.765625 128.4375 C 159.121094 129.15625 159.210938 129.902344 158.976562 130.683594 C 158.53125 132.191406 158.113281 133.707031 157.074219 134.957031 C 156.089844 136.140625 155.117188 137.339844 154.148438 138.535156 C 153.96875 138.757812 153.800781 138.992188 153.652344 139.234375 C 152.617188 140.90625 151.121094 141.984375 149.238281 142.703125 C 148.28125 145.230469 146.050781 146.300781 143.660156 147.144531 C 142.613281 147.515625 141.515625 147.753906 140.464844 148.121094 C 139.71875 148.378906 138.96875 148.320312 138.257812 148.191406 C 137.464844 148.042969 136.8125 148.121094 136.183594 148.617188 C 135.917969 148.828125 135.597656 148.960938 135.300781 149.125 C 135.859375 155.527344 137.105469 161.808594 137.417969 168.253906 C 137.625 168.277344 137.84375 168.316406 138.0625 168.332031 C 138.40625 168.355469 138.75 168.371094 139.09375 168.375 C 143.898438 168.4375 148.707031 168.488281 153.511719 168.554688 C 156.832031 168.601562 160.148438 168.664062 163.46875 168.726562 C 166.414062 168.78125 169.359375 168.832031 172.304688 168.898438 C 174.363281 168.945312 176.421875 169.007812 178.480469 169.070312 C 178.679688 169.078125 178.875 169.132812 179.070312 169.164062 C 180 169.308594 180.292969 169.660156 180.289062 170.664062 C 179.792969 171.058594 179.171875 171.0625 178.589844 171.0625 C 174.183594 171.058594 169.777344 171.011719 165.371094 170.984375 C 165.082031 170.980469 164.796875 170.964844 164.511719 170.964844 C 160.015625 170.945312 155.523438 170.941406 151.03125 170.90625 C 145.535156 170.859375 140.042969 170.800781 134.546875 170.734375 C 130.542969 170.6875 126.535156 170.621094 122.53125 170.5625 C 118.382812 170.507812 114.234375 170.453125 110.085938 170.390625 C 106.96875 170.34375 103.851562 170.285156 100.734375 170.21875 C 98.21875 170.167969 95.699219 170.109375 93.183594 170.046875 C 91.242188 169.996094 89.296875 169.867188 87.355469 169.894531 C 84.558594 169.933594 81.769531 170.078125 78.894531 170.183594 C 79.035156 170.359375 79.148438 170.503906 79.265625 170.648438 C 80 171.558594 80.121094 172.550781 79.648438 173.613281 C 79.242188 174.53125 78.484375 175.15625 77.734375 175.773438 C 75.902344 177.285156 73.726562 178.0625 71.464844 178.632812 C 69.242188 179.195312 66.96875 179.441406 64.6875 179.550781 C 63.175781 179.625 61.65625 179.707031 60.144531 179.65625 C 56.371094 179.53125 52.613281 179.234375 49.058594 177.78125 C 47.601562 177.179688 46.175781 176.527344 44.910156 175.5625 C 43.617188 174.570312 42.804688 173.144531 43.667969 171.1875 C 43.710938 171.085938 43.71875 170.96875 43.769531 170.746094 C 42.90625 170.8125 42.101562 170.90625 41.292969 170.9375 C 39.8125 171.003906 38.324219 171.136719 36.847656 171.0625 C 34.65625 170.949219 32.480469 170.636719 30.320312 170.183594 C 29.554688 170.023438 28.730469 170.101562 27.933594 170.117188 C 26.503906 170.152344 25.078125 170.265625 23.648438 170.269531 C 17.980469 170.289062 12.3125 170.277344 6.644531 170.277344 C 5.644531 170.277344 4.644531 170.265625 3.644531 170.253906 C 3.398438 170.25 3.15625 170.203125 2.921875 170.171875 C 2.882812 169.269531 3.359375 168.679688 4.097656 168.675781 C 9.796875 168.632812 15.488281 168.585938 21.183594 168.570312 C 22.699219 168.566406 24.214844 168.667969 25.730469 168.71875 C 25.800781 168.722656 25.878906 168.6875 26.097656 168.632812 C 25.796875 168.484375 25.605469 168.386719 25.414062 168.300781 C 23.753906 167.554688 22.277344 166.542969 20.933594 165.316406 C 20.175781 164.621094 19.957031 163.757812 20.105469 162.753906 C 20.753906 158.320312 21.386719 153.882812 22.019531 149.449219 C 22.320312 147.328125 22.539062 145.195312 22.910156 143.089844 C 23.132812 141.832031 23.566406 140.613281 23.902344 139.375 C 23.941406 139.242188 23.96875 139.105469 24.003906 138.96875 C 23.066406 138.96875 22.15625 138.917969 21.253906 138.976562 C 19.226562 139.113281 17.570312 138.367188 16.179688 136.941406 C 15.382812 136.121094 14.558594 135.324219 13.8125 134.460938 C 12.730469 133.207031 12.269531 131.734375 12.5625 130.082031 C 12.621094 129.761719 12.542969 129.535156 12.363281 129.296875 C 9.8125 125.820312 8.097656 121.9375 6.753906 117.867188 C 6.175781 116.105469 5.550781 114.355469 4.976562 112.589844 C 4.753906 111.910156 4.523438 111.21875 4.453125 110.515625 C 4.386719 109.863281 4.074219 109.511719 3.570312 109.171875 C 1.945312 108.085938 0.84375 106.59375 0.25 104.722656 C -0.0078125 103.914062 0.0742188 103.160156 0.582031 102.53125 C 1.230469 101.730469 1.363281 100.871094 1.261719 99.886719 C 1.140625 98.746094 1.4375 97.730469 2.460938 97.035156 C 2.84375 96.773438 3.027344 96.402344 2.964844 95.925781 C 2.949219 95.8125 2.960938 95.699219 2.964844 95.582031 C 3.023438 94.027344 3.914062 92.984375 5.449219 92.792969 C 5.894531 92.734375 6.207031 92.617188 6.398438 92.214844 C 7.273438 90.402344 8.886719 90.246094 10.609375 90.339844 C 11.703125 90.402344 12.628906 90.789062 13.511719 91.457031 C 14.226562 91.996094 15.1875 92.09375 16.0625 92.050781 C 18.175781 91.953125 19.535156 92.933594 20.375 94.789062 C 20.726562 95.570312 21.109375 96.339844 21.402344 97.144531 C 21.636719 97.777344 21.761719 98.480469 21.953125 99.21875 Z M 75.167969 168.175781 C 82.652344 168.066406 90.019531 167.894531 97.378906 167.878906 C 104.777344 167.863281 112.175781 168.011719 119.53125 168.089844 C 119.4375 164.550781 119.347656 161.082031 119.253906 157.671875 C 118.703125 157.671875 118.222656 157.6875 117.746094 157.671875 C 116.089844 157.621094 114.433594 157.496094 112.777344 157.511719 C 109.660156 157.542969 106.546875 157.648438 103.429688 157.734375 C 103.179688 157.742188 102.921875 157.808594 102.683594 157.890625 C 100.363281 158.675781 98.003906 159.179688 95.539062 158.9375 C 95.289062 158.914062 95.035156 158.960938 94.785156 158.972656 C 94.570312 161.742188 91.3125 163.351562 88.890625 161.917969 C 87.972656 162.359375 87.132812 163.132812 86.042969 162.6875 C 85.667969 162.996094 85.359375 163.296875 85.007812 163.539062 C 84.175781 164.101562 83.320312 163.886719 82.835938 162.996094 C 82.703125 162.753906 82.609375 162.488281 82.503906 162.234375 C 81.410156 162.40625 80.929688 162.113281 80.628906 161.113281 C 80.609375 161.058594 80.609375 161 80.597656 160.945312 C 80.3125 159.929688 80.558594 158.957031 80.878906 158.007812 C 81.5 156.128906 82.308594 154.332031 83.402344 152.671875 C 83.515625 152.5 83.605469 152.308594 83.792969 151.964844 C 83.390625 152.152344 83.164062 152.261719 82.9375 152.359375 C 81.777344 152.84375 80.628906 153.359375 79.449219 153.792969 C 78.371094 154.1875 77.242188 154.390625 76.082031 154.238281 C 75.246094 154.125 74.929688 153.761719 74.925781 152.933594 C 74.921875 151.933594 75.332031 151.074219 75.988281 150.378906 C 76.871094 149.449219 77.78125 148.523438 78.78125 147.726562 C 81.917969 145.222656 85.480469 143.488281 89.199219 142.019531 C 91.363281 141.164062 93.507812 141.027344 95.738281 141.640625 C 97.042969 142 98.390625 142.171875 99.730469 142.011719 C 101.890625 141.753906 104.011719 141.289062 106.070312 140.578125 C 107.878906 139.957031 109.667969 139.261719 111.488281 138.667969 C 114.5625 137.664062 117.597656 136.566406 120.5 135.117188 C 121.46875 134.636719 122.484375 134.226562 123.511719 133.882812 C 124.140625 133.671875 124.445312 133.304688 124.71875 132.71875 C 125.871094 130.242188 127.164062 127.851562 129.683594 126.441406 C 129.71875 126.421875 129.726562 126.351562 129.742188 126.316406 C 129.519531 125.941406 129.25 125.597656 129.085938 125.207031 C 128.703125 124.28125 128.289062 123.363281 128.035156 122.398438 C 127.445312 120.167969 126.867188 117.921875 126.421875 115.65625 C 125.855469 112.773438 125.335938 109.875 124.96875 106.960938 C 124.667969 104.527344 124.617188 102.070312 124.445312 99.621094 C 124.433594 99.460938 124.367188 99.304688 124.320312 99.097656 C 123.976562 99.097656 123.664062 99.089844 123.351562 99.097656 C 121.234375 99.152344 119.121094 99.238281 117.003906 99.261719 C 113.429688 99.300781 109.851562 99.3125 106.273438 99.320312 C 105.1875 99.324219 104.101562 99.300781 103.011719 99.261719 C 100.871094 99.175781 98.734375 99.058594 96.59375 98.988281 C 94.21875 98.910156 91.84375 98.902344 89.472656 98.796875 C 88.078125 98.734375 86.6875 98.558594 85.300781 98.40625 C 84.710938 98.339844 84.132812 98.203125 83.558594 98.097656 C 83.492188 98.246094 83.433594 98.316406 83.417969 98.398438 C 83.121094 100.082031 82.828125 101.769531 82.539062 103.460938 C 81.664062 108.582031 80.847656 113.707031 79.910156 118.816406 C 79.105469 123.203125 78.042969 127.539062 76.464844 131.71875 C 75.433594 134.445312 74.304688 137.132812 73.167969 139.820312 C 71.535156 143.667969 70.066406 147.566406 69.046875 151.625 C 68.984375 151.867188 68.929688 152.109375 68.867188 152.382812 C 69.042969 152.449219 69.171875 152.492188 69.300781 152.542969 C 70.332031 152.960938 71.386719 153.332031 72.386719 153.816406 C 73.351562 154.28125 74.042969 155.03125 74.199219 156.15625 C 74.25 156.527344 74.453125 156.652344 74.824219 156.710938 C 75.523438 156.820312 76.234375 156.953125 76.898438 157.191406 C 78.789062 157.871094 79.964844 159.617188 79.960938 161.617188 C 79.953125 163.488281 79.113281 164.980469 77.769531 166.191406 C 77.007812 166.886719 76.125 167.457031 75.167969 168.175781 Z M 42.664062 98.457031 C 43.632812 98.804688 44.683594 99.164062 45.722656 99.550781 C 48.023438 100.410156 50.320312 101.289062 52.621094 102.148438 C 53.878906 102.617188 55.125 103.1875 56.425781 103.472656 C 57.523438 103.714844 58.46875 104.179688 59.382812 104.757812 C 60.660156 105.566406 61.90625 106.433594 63.164062 107.28125 C 63.394531 107.433594 63.613281 107.601562 63.917969 107.824219 C 63.640625 108.265625 63.40625 108.6875 63.128906 109.074219 C 61.542969 111.28125 59.941406 113.476562 58.347656 115.675781 C 57.410156 116.96875 56.460938 118.261719 55.527344 119.5625 C 55.429688 119.691406 55.382812 119.867188 55.355469 120.023438 C 55.078125 121.683594 54.804688 123.347656 54.542969 125.007812 C 54.511719 125.210938 54.539062 125.425781 54.539062 125.714844 C 57.460938 123.71875 60.253906 121.722656 63.597656 120.695312 C 63.597656 119.988281 63.585938 119.277344 63.601562 118.566406 C 63.613281 117.824219 63.585938 117.070312 63.703125 116.34375 C 63.8125 115.683594 63.652344 114.957031 64.117188 114.339844 C 64.265625 114.65625 64.300781 114.972656 64.351562 115.289062 C 65.003906 119.71875 65.59375 124.164062 66.566406 128.542969 C 67.121094 131.03125 67.726562 133.5 68.722656 135.851562 C 69.265625 137.128906 70.097656 138.195312 71.085938 139.230469 C 71.289062 138.707031 71.460938 138.253906 71.640625 137.808594 C 71.777344 137.46875 71.730469 137.199219 71.523438 136.863281 C 71.113281 136.183594 70.6875 135.484375 70.457031 134.734375 C 70.046875 133.402344 69.699219 132.035156 69.46875 130.660156 C 68.65625 125.878906 67.882812 121.085938 67.136719 116.292969 C 66.964844 115.195312 66.9375 114.078125 66.859375 112.964844 C 66.84375 112.671875 66.808594 112.339844 67.230469 112.074219 C 67.324219 112.351562 67.414062 112.574219 67.472656 112.804688 C 68.765625 117.988281 69.910156 123.203125 70.859375 128.460938 C 71.207031 130.398438 71.734375 132.300781 72.199219 134.210938 C 72.273438 134.523438 72.429688 134.8125 72.574219 135.1875 C 72.789062 134.847656 72.933594 134.613281 73.082031 134.371094 C 73.28125 134.609375 73.4375 134.804688 73.628906 135.03125 C 74.101562 134.828125 74.378906 134.464844 74.632812 134.101562 C 74.929688 133.679688 74.824219 133.335938 74.367188 133.121094 C 74.136719 133.015625 73.882812 132.964844 73.640625 132.894531 C 74.132812 131.5 74.65625 130.140625 75.101562 128.753906 C 77.085938 122.617188 78.121094 116.277344 79.070312 109.917969 C 79.632812 106.164062 80.296875 102.425781 80.863281 98.675781 C 81.378906 95.265625 81.882812 91.847656 82.289062 88.425781 C 82.566406 86.078125 82.652344 83.707031 82.863281 81.347656 C 83.175781 77.933594 83.832031 74.570312 84.484375 71.207031 C 85.109375 67.996094 85.980469 64.867188 87.378906 61.902344 C 87.421875 61.808594 87.433594 61.703125 87.480469 61.523438 C 86.246094 62.355469 85.113281 63.171875 83.925781 63.898438 C 80.96875 65.699219 77.902344 67.300781 74.777344 68.789062 C 70.902344 70.632812 67.050781 72.515625 63.179688 74.367188 C 61.347656 75.246094 59.5 76.085938 57.667969 76.949219 C 56.882812 77.324219 56.246094 77.902344 55.644531 78.523438 C 55.378906 78.804688 55.285156 79.023438 55.484375 79.417969 C 57.121094 82.667969 58.382812 86.078125 59.667969 89.46875 C 60.8125 92.488281 61.871094 95.542969 63.296875 98.449219 C 63.402344 98.671875 63.535156 98.890625 63.65625 99.113281 C 63.632812 97.65625 63.5 96.261719 63.378906 94.875 C 63.21875 93.101562 63.253906 91.339844 63.496094 89.578125 C 63.511719 89.449219 63.664062 89.339844 63.835938 89.113281 C 63.953125 89.484375 64.050781 89.710938 64.09375 89.953125 C 64.921875 94.328125 65.546875 98.742188 66.640625 103.070312 C 66.804688 103.707031 66.949219 104.410156 66.605469 105.089844 C 65.796875 105.1875 65.433594 104.585938 65 104.125 C 64.824219 103.9375 64.707031 103.667969 64.503906 103.558594 C 63.292969 102.9375 62.539062 101.894531 61.941406 100.75 C 61.238281 99.410156 60.511719 98.058594 60.027344 96.636719 C 58.636719 92.582031 57.355469 88.488281 56.058594 84.40625 C 55.578125 82.894531 55.179688 81.363281 54.695312 79.660156 C 50.371094 85.832031 46.1875 91.917969 42.664062 98.457031 Z M 93.78125 27.359375 C 93.78125 27.429688 93.777344 27.503906 93.777344 27.574219 C 93.515625 27.613281 93.253906 27.691406 92.992188 27.695312 C 92.132812 27.699219 91.273438 27.613281 90.421875 27.679688 C 89.472656 27.753906 88.609375 27.527344 87.746094 27.210938 C 86.203125 26.632812 84.964844 25.636719 83.941406 24.371094 C 83.4375 23.753906 82.824219 23.152344 82.546875 22.4375 C 81.703125 20.292969 81.25 18.054688 81.664062 15.730469 C 81.738281 15.3125 81.851562 14.902344 81.949219 14.484375 C 81.492188 15.136719 81.148438 15.828125 80.898438 16.546875 C 79.886719 19.441406 80.367188 22.097656 82.199219 24.546875 C 83.320312 26.046875 84.851562 27.039062 86.386719 28.03125 C 86.554688 28.140625 86.710938 28.261719 86.976562 28.445312 C 86.464844 28.492188 86.117188 28.484375 85.789062 28.5625 C 84.636719 28.828125 83.46875 28.886719 82.300781 28.832031 C 81.546875 28.800781 80.824219 28.578125 80.21875 28.121094 C 78.328125 26.695312 76.824219 24.996094 76.332031 22.566406 C 75.992188 20.90625 75.714844 19.261719 76.046875 17.566406 C 76.113281 17.242188 76.058594 16.894531 76.058594 16.414062 C 74.421875 17.992188 73.078125 19.53125 73.054688 21.789062 C 73.039062 23.378906 72.917969 25 73.859375 26.429688 C 73.574219 24.992188 73.496094 23.546875 73.574219 22.089844 C 73.652344 20.574219 74.332031 19.3125 75.269531 18.03125 C 75.339844 19.425781 75.382812 20.679688 75.476562 21.929688 C 75.695312 24.855469 76.988281 27.09375 79.71875 28.390625 C 80.792969 28.898438 81.898438 29.230469 83.074219 29.363281 C 83.265625 29.382812 83.441406 29.546875 83.625 29.640625 C 83.492188 29.8125 83.394531 30.0625 83.21875 30.136719 C 82.78125 30.320312 82.308594 30.421875 81.835938 30.566406 C 81.835938 30.574219 81.8125 30.632812 81.828125 30.683594 C 82.386719 32.332031 82.941406 33.980469 83.507812 35.628906 C 83.882812 36.703125 84.117188 37.871094 84.691406 38.832031 C 85.980469 40.988281 87.441406 43.042969 88.839844 45.132812 C 89.523438 46.152344 90.445312 46.914062 91.519531 47.488281 C 92.148438 47.824219 92.78125 48.160156 93.421875 48.476562 C 94.433594 48.980469 95.503906 49.269531 96.636719 49.273438 C 98.515625 49.285156 100.234375 48.722656 101.839844 47.769531 C 103.722656 46.652344 104.988281 44.976562 106.011719 43.089844 C 106.132812 42.863281 106.238281 42.625 106.394531 42.421875 C 106.664062 42.070312 107.273438 41.953125 107.640625 42.144531 C 107.972656 42.320312 108.074219 42.675781 107.921875 43.195312 C 107.863281 43.386719 107.785156 43.570312 107.695312 43.75 C 106.71875 45.648438 105.53125 47.40625 103.871094 48.769531 C 101.484375 50.730469 98.769531 51.757812 95.625 51.410156 C 95.402344 51.382812 95.179688 51.40625 94.90625 51.40625 C 94.992188 51.890625 95.101562 52.332031 95.144531 52.777344 C 95.289062 54.25 95.5625 55.734375 95.503906 57.199219 C 95.445312 58.757812 95.09375 60.304688 94.820312 61.851562 C 94.734375 62.3125 94.785156 62.675781 95.042969 63.058594 C 95.984375 64.441406 97.179688 65.515625 98.734375 66.152344 C 101.128906 67.136719 103.605469 67.601562 106.1875 67.167969 C 108.585938 66.765625 110.753906 65.84375 112.410156 64.003906 C 113.421875 62.878906 114.335938 61.667969 115.265625 60.476562 C 115.675781 59.953125 115.96875 59.371094 115.816406 58.65625 C 115.589844 57.597656 115.371094 56.539062 115.152344 55.480469 C 114.132812 50.527344 113.085938 45.585938 112.105469 40.628906 C 111.683594 38.476562 111.414062 36.289062 111.066406 34.121094 C 110.980469 33.582031 111.074219 33.179688 111.523438 32.761719 C 112.582031 31.777344 113.347656 30.566406 113.941406 29.25 C 114.347656 28.335938 114.398438 27.367188 114.257812 26.386719 C 114.144531 25.625 113.710938 25.160156 112.988281 24.929688 C 111.761719 24.539062 110.507812 24.90625 109.671875 25.914062 C 108.964844 26.769531 108.71875 27.777344 108.65625 28.859375 C 108.632812 29.21875 108.585938 29.597656 108.460938 29.933594 C 108.324219 30.296875 108.128906 30.734375 107.683594 30.746094 C 107.253906 30.757812 107.105469 30.308594 106.972656 29.972656 C 106.5 28.746094 106.035156 27.515625 105.617188 26.269531 C 105.496094 25.910156 105.527344 25.5 105.503906 25.207031 C 105.964844 24.957031 106.347656 24.816406 106.648438 24.574219 C 107.6875 23.726562 108.722656 22.867188 109.714844 21.96875 C 110.59375 21.171875 111.039062 20.128906 111.230469 18.964844 C 111.492188 17.328125 111.257812 15.726562 110.894531 14.128906 C 110.539062 12.570312 109.578125 11.425781 108.320312 10.515625 C 108.183594 10.417969 108.011719 10.375 107.730469 10.257812 C 107.972656 10.699219 108.101562 11.023438 108.308594 11.292969 C 109.148438 12.394531 109.535156 13.675781 109.796875 15 C 110.078125 16.433594 110.226562 17.871094 110.023438 19.335938 C 109.878906 20.359375 109.539062 21.300781 108.792969 22.011719 C 107.414062 23.324219 105.761719 24.171875 103.863281 24.417969 C 102.320312 24.617188 100.765625 24.46875 99.320312 23.878906 C 96.222656 22.617188 93.109375 21.355469 90.734375 18.839844 C 90.601562 18.699219 90.398438 18.621094 90.125 18.445312 C 90.121094 19.265625 90.40625 19.816406 90.769531 20.328125 C 91.503906 21.371094 92.410156 22.238281 93.535156 22.84375 C 94.390625 23.304688 95.261719 23.738281 96.128906 24.179688 C 96.253906 24.246094 96.390625 24.292969 96.511719 24.363281 C 96.910156 24.613281 96.960938 25.007812 96.902344 25.417969 C 96.835938 25.878906 96.433594 25.789062 96.152344 25.777344 C 95.332031 25.742188 94.5 25.6875 93.683594 25.578125 C 92.671875 25.441406 91.648438 25.300781 90.660156 25.042969 C 89.835938 24.828125 88.972656 24.5625 88.417969 23.859375 C 87.90625 23.214844 87.417969 22.527344 87.070312 21.789062 C 86.683594 20.96875 86.449219 20.074219 86.167969 19.203125 C 86.019531 18.746094 85.835938 18.324219 85.359375 17.835938 C 85.238281 18.347656 85.105469 18.691406 85.089844 19.039062 C 85.019531 20.527344 85.582031 21.84375 86.375 23.050781 C 87.902344 25.386719 90.074219 26.738281 92.832031 27.152344 C 93.140625 27.210938 93.457031 27.292969 93.78125 27.359375 Z M 147.316406 77.863281 C 145.859375 79.175781 144.605469 80.582031 143.335938 81.976562 C 140.804688 84.761719 139.039062 87.925781 138.140625 91.601562 C 137.144531 95.6875 136.433594 99.816406 135.761719 103.960938 C 135.261719 107.0625 134.699219 110.148438 133.863281 113.183594 C 133.144531 115.808594 132.371094 118.421875 130.996094 120.78125 C 130.433594 121.75 130.320312 122.546875 130.761719 123.550781 C 131.113281 124.34375 131.289062 125.214844 131.558594 126.097656 C 132.0625 126.054688 132.511719 126.019531 132.964844 125.976562 C 134.242188 125.855469 135.511719 125.644531 136.804688 125.855469 C 140.59375 126.480469 143.574219 128.585938 146.171875 131.21875 C 148.015625 133.089844 148.792969 135.613281 149.488281 138.097656 C 149.691406 138.820312 149.695312 139.597656 149.789062 140.351562 C 150.585938 140.042969 151.394531 139.34375 151.847656 138.617188 C 151.292969 136.308594 149.960938 134.402344 148.988281 132.296875 C 150.960938 133.183594 152.160156 134.765625 153.042969 136.714844 C 153.152344 136.582031 153.25 136.480469 153.332031 136.371094 C 153.882812 135.644531 154.351562 134.839844 154.992188 134.199219 C 156.117188 133.058594 156.65625 131.613281 157.285156 130.210938 C 157.585938 129.546875 157.523438 128.867188 157.015625 128.289062 C 156.699219 127.921875 156.378906 127.550781 156.023438 127.222656 C 153.882812 125.253906 151.449219 123.699219 148.933594 122.277344 C 146.574219 120.941406 144.085938 119.976562 141.363281 119.691406 C 140.285156 119.578125 139.21875 119.386719 138.152344 119.210938 C 137.984375 119.179688 137.835938 119.050781 137.65625 118.957031 C 137.746094 118.816406 137.773438 118.722656 137.835938 118.679688 C 137.949219 118.601562 138.082031 118.542969 138.207031 118.484375 C 139.332031 118 140.515625 117.824219 141.722656 117.882812 C 143.800781 117.984375 145.785156 118.507812 147.664062 119.398438 C 150.738281 120.851562 153.492188 122.78125 156.039062 125.023438 C 156.257812 125.214844 156.5 125.382812 156.824219 125.636719 C 156.824219 124.984375 156.859375 124.5 156.816406 124.023438 C 156.671875 122.175781 156.535156 120.320312 156.335938 118.476562 C 156.117188 116.464844 155.851562 114.457031 155.570312 112.449219 C 155.210938 109.847656 154.828125 107.253906 154.449219 104.65625 C 154.082031 102.144531 153.726562 99.628906 153.328125 97.125 C 152.601562 92.582031 151.539062 88.109375 150.492188 83.628906 C 150.292969 82.765625 150.101562 81.902344 149.824219 81.0625 C 149.390625 79.742188 148.375 78.839844 147.316406 77.863281 Z M 86.925781 160.984375 C 86.972656 161.039062 87.019531 161.097656 87.066406 161.152344 C 87.371094 160.96875 87.71875 160.828125 87.976562 160.589844 C 88.699219 159.941406 89.390625 159.257812 90.089844 158.582031 C 91.015625 157.6875 92.105469 157.203125 93.402344 157.207031 C 94.660156 157.210938 95.921875 157.222656 97.179688 157.207031 C 99.699219 157.175781 102.015625 156.410156 104.175781 155.167969 C 105.339844 154.503906 106.46875 153.757812 107.53125 152.945312 C 108.585938 152.140625 109.769531 151.691406 111.011719 151.347656 C 113.6875 150.605469 116.464844 150.40625 119.203125 149.996094 C 122.019531 149.570312 124.859375 149.25 127.691406 148.9375 C 130.648438 148.605469 133.402344 147.601562 136.15625 146.546875 C 137.695312 145.960938 138.164062 144.8125 138.167969 143.328125 C 138.167969 142.957031 138.121094 142.582031 138.050781 142.222656 C 137.65625 140.277344 136.800781 138.542969 135.585938 136.996094 C 134.929688 136.160156 134.15625 135.4375 133.179688 134.960938 C 130.8125 133.808594 128.414062 133.691406 125.96875 134.679688 C 125.65625 134.808594 125.28125 135.003906 124.996094 134.929688 C 124.519531 134.8125 124.222656 135.039062 123.894531 135.246094 C 120.757812 137.175781 117.441406 138.675781 113.910156 139.726562 C 111.53125 140.4375 109.183594 141.277344 106.824219 142.050781 C 106.011719 142.320312 105.199219 142.601562 104.367188 142.8125 C 102.292969 143.335938 100.207031 143.910156 98.039062 143.738281 C 96.878906 143.648438 95.710938 143.46875 94.578125 143.199219 C 92.902344 142.804688 91.304688 142.914062 89.707031 143.53125 C 86.40625 144.796875 83.296875 146.433594 80.429688 148.5 C 79.367188 149.261719 78.414062 150.183594 77.441406 151.0625 C 77.050781 151.417969 76.6875 151.835938 76.589844 152.507812 C 76.988281 152.492188 77.324219 152.492188 77.648438 152.457031 C 78.796875 152.324219 79.894531 151.96875 80.914062 151.457031 C 82.855469 150.488281 84.777344 149.46875 86.6875 148.4375 C 87.867188 147.796875 89 147.0625 90.179688 146.425781 C 90.964844 146.003906 91.550781 146.292969 91.914062 147.242188 C 91.707031 147.394531 91.496094 147.582031 91.257812 147.722656 C 90.222656 148.335938 89.152344 148.886719 88.152344 149.550781 C 87.46875 150.003906 86.824219 150.542969 86.261719 151.136719 C 84.230469 153.273438 83.015625 155.890625 82.078125 158.644531 C 81.914062 159.121094 81.886719 159.648438 81.851562 160.160156 C 81.824219 160.492188 81.898438 160.835938 82.347656 161.058594 C 82.515625 160.714844 82.695312 160.394531 82.839844 160.066406 C 83.1875 159.28125 83.539062 158.5 83.855469 157.703125 C 84.488281 156.148438 85.410156 154.769531 86.5 153.511719 C 87.515625 152.332031 88.847656 151.609375 90.277344 151.0625 C 90.457031 150.996094 90.675781 151.035156 90.902344 151.023438 C 90.863281 151.1875 90.867188 151.257812 90.828125 151.289062 C 90.636719 151.457031 90.445312 151.628906 90.234375 151.773438 C 88.824219 152.742188 87.582031 153.882812 86.742188 155.375 C 85.660156 157.292969 84.671875 159.257812 83.65625 161.207031 C 83.511719 161.476562 83.703125 161.980469 83.976562 162.175781 C 84.300781 162.402344 84.554688 162.199219 84.710938 161.984375 C 85.027344 161.546875 85.351562 161.089844 85.550781 160.597656 C 86.328125 158.6875 87.484375 157.023438 88.871094 155.527344 C 89.445312 154.910156 90.132812 154.355469 90.863281 153.921875 C 91.511719 153.539062 92.273438 153.304688 93.011719 153.113281 C 93.546875 152.976562 94.132812 153.023438 94.535156 153.585938 C 93.972656 153.804688 93.457031 153.964844 92.980469 154.195312 C 90.425781 155.445312 88.859375 157.664062 87.40625 159.980469 C 87.214844 160.300781 87.085938 160.652344 86.925781 160.984375 Z M 101.859375 69.6875 C 101.835938 69.847656 101.796875 70.011719 101.792969 70.175781 C 101.730469 72.945312 101.691406 75.71875 101.609375 78.492188 C 101.5625 80.089844 101.464844 81.6875 101.371094 83.28125 C 101.238281 85.503906 101.066406 87.722656 100.9375 89.941406 C 100.855469 91.285156 100.8125 92.628906 100.777344 93.96875 C 100.753906 94.902344 100.773438 95.839844 100.773438 96.785156 C 107.570312 97.304688 114.265625 97.207031 121.035156 96.988281 C 120.992188 96.527344 120.960938 96.160156 120.925781 95.796875 C 120.789062 94.519531 120.59375 93.246094 120.523438 91.964844 C 120.371094 89.085938 120.300781 86.195312 120.15625 83.316406 C 120.097656 82.003906 120.007812 80.691406 119.835938 79.390625 C 119.503906 76.84375 119.164062 74.292969 118.730469 71.761719 C 118.234375 68.894531 117.625 66.042969 117.058594 63.1875 C 117.03125 63.039062 116.949219 62.902344 116.875 62.726562 C 111.984375 68.714844 106.46875 69.964844 101.859375 69.6875 Z M 123.023438 62.808594 C 123.320312 64.078125 123.574219 65.1875 123.84375 66.292969 C 124.894531 70.582031 125.367188 74.945312 125.601562 79.339844 C 125.691406 81.050781 125.722656 82.765625 125.777344 84.476562 C 125.804688 85.25 125.808594 86.023438 125.84375 86.792969 C 125.929688 88.621094 126.023438 90.441406 126.125 92.269531 C 126.1875 93.464844 126.257812 94.664062 126.363281 95.855469 C 126.613281 98.640625 126.882812 101.417969 127.15625 104.199219 C 127.292969 105.621094 127.382812 107.046875 127.605469 108.453125 C 128.0625 111.328125 128.582031 114.191406 129.09375 117.058594 C 129.21875 117.746094 129.386719 118.425781 129.539062 119.117188 C 130.070312 118.167969 130.464844 117.230469 130.796875 116.265625 C 132.480469 111.382812 133.351562 106.316406 134.226562 101.246094 C 134.824219 97.78125 135.484375 94.328125 136.457031 90.945312 C 137.304688 88.011719 138.457031 85.21875 140.460938 82.859375 C 142.214844 80.804688 144.125 78.921875 146.457031 77.511719 C 146.519531 77.476562 146.554688 77.402344 146.625 77.3125 C 146.445312 77.164062 146.308594 77.019531 146.144531 76.914062 C 144.582031 75.90625 143.066406 74.820312 141.445312 73.921875 C 138.945312 72.535156 136.367188 71.289062 133.839844 69.960938 C 130.570312 68.238281 127.402344 66.351562 124.515625 64.027344 C 124.050781 63.660156 123.601562 63.28125 123.023438 62.808594 Z M 63.636719 122.535156 C 60.355469 124.238281 57.488281 126.605469 54.210938 128.199219 C 53.992188 129.195312 54.179688 130.296875 52.980469 130.738281 C 53.074219 131.542969 53.210938 132.304688 53.242188 133.0625 C 53.300781 134.570312 53.582031 136.144531 52.269531 137.367188 C 52.566406 137.578125 52.832031 137.742188 53.070312 137.949219 C 53.234375 138.09375 53.425781 138.269531 53.480469 138.472656 C 53.792969 139.59375 54.152344 140.71875 54.335938 141.867188 C 54.746094 144.398438 55.058594 146.945312 55.421875 149.492188 C 55.53125 150.269531 55.671875 151.046875 55.792969 151.808594 C 59.875 151.5625 63.855469 151.472656 67.886719 152.191406 C 68.335938 148.371094 69.101562 144.699219 70.441406 141.175781 C 70.109375 140.914062 69.808594 140.730469 69.574219 140.488281 C 68.363281 139.21875 67.359375 137.804688 66.710938 136.152344 C 65.992188 134.308594 65.386719 132.433594 65.019531 130.496094 C 64.523438 127.894531 64.105469 125.277344 63.636719 122.535156 Z M 99.410156 96.691406 C 99.148438 92.074219 99.484375 87.542969 99.71875 83.011719 C 99.953125 78.488281 99.960938 73.949219 100.539062 69.425781 C 97.292969 68.546875 94.554688 67.082031 92.875 63.894531 C 90.710938 69.242188 89.945312 74.757812 89.011719 80.234375 C 88.070312 85.726562 87.84375 91.265625 87.683594 96.777344 C 89.695312 96.746094 91.605469 96.707031 93.519531 96.691406 C 95.4375 96.675781 97.34375 96.691406 99.410156 96.691406 Z M 121.109375 156.167969 C 121.046875 156.648438 120.957031 156.972656 120.96875 157.289062 C 121.003906 158.144531 121.113281 158.996094 121.132812 159.851562 C 121.171875 161.9375 121.1875 164.027344 121.191406 166.117188 C 121.191406 166.761719 121.117188 167.40625 121.078125 168.046875 C 121.980469 168.199219 135.609375 168.304688 136.101562 168.160156 C 134.949219 162.113281 134.289062 155.992188 133.472656 149.847656 C 133.300781 149.890625 133.144531 149.9375 132.988281 149.96875 C 131.644531 150.246094 130.316406 150.609375 128.960938 150.78125 C 123.921875 151.414062 118.875 151.96875 113.839844 152.585938 C 112.191406 152.785156 110.574219 153.136719 109.027344 153.769531 C 108.089844 154.15625 107.402344 154.851562 106.648438 155.589844 C 107.433594 155.589844 108.113281 155.597656 108.789062 155.589844 C 110.5625 155.566406 112.335938 155.460938 114.101562 155.519531 C 116.152344 155.589844 118.203125 155.796875 120.25 155.960938 C 120.550781 155.980469 120.84375 156.101562 121.109375 156.167969 Z M 51.292969 167.261719 C 51.292969 167.25 51.308594 167.195312 51.289062 167.144531 C 51.214844 166.898438 51.128906 166.652344 51.042969 166.410156 C 50.28125 164.226562 49.554688 162.03125 49.324219 159.707031 C 49.222656 158.683594 49.191406 157.65625 49.03125 156.648438 C 48.917969 155.941406 48.90625 155.308594 49.300781 154.683594 C 49.390625 154.539062 49.359375 154.296875 49.332031 154.105469 C 49.207031 153.144531 49.058594 152.183594 48.917969 151.226562 C 48.5625 148.742188 48.082031 146.269531 48.1875 143.738281 C 48.195312 143.546875 48.148438 143.355469 48.128906 143.175781 C 46.605469 142.453125 45.390625 141.398438 44.367188 140.226562 C 42.617188 141.648438 40.933594 143.015625 39.261719 144.371094 C 39.261719 145.191406 39.261719 146.046875 39.261719 146.902344 C 39.261719 149.421875 39.289062 151.941406 39.253906 154.460938 C 39.210938 157.605469 39.121094 160.746094 39.035156 163.890625 C 38.992188 165.457031 38.917969 167.03125 38.867188 168.601562 C 38.859375 168.839844 38.90625 169.082031 38.929688 169.3125 C 39.699219 169.269531 40.386719 169.207031 41.066406 169.199219 C 42.542969 169.175781 43.996094 168.652344 45.484375 169.003906 C 45.554688 169.019531 45.652344 168.96875 45.730469 168.945312 C 47.558594 168.390625 49.386719 167.839844 51.292969 167.261719 Z M 36.894531 169.199219 C 37.347656 160.730469 37.15625 152.339844 37.933594 143.953125 C 35.820312 143.265625 34.550781 141.527344 33.078125 140.183594 C 31.78125 141.359375 30.566406 142.480469 29.320312 143.566406 C 29.054688 143.800781 29.09375 144.058594 29.070312 144.335938 C 28.996094 145.328125 28.949219 146.328125 28.828125 147.316406 C 28.523438 149.894531 28.175781 152.460938 27.871094 155.039062 C 27.71875 156.3125 27.644531 157.59375 27.503906 158.871094 C 27.234375 161.386719 26.945312 163.90625 26.65625 166.496094 C 29.859375 168.164062 33.339844 168.824219 36.894531 169.199219 Z M 38.769531 131.539062 C 41.625 131.628906 44.347656 131.316406 47.097656 130.851562 C 47.902344 123.21875 48.488281 115.632812 49.699219 108.035156 C 45.921875 108.230469 42.21875 108.847656 38.382812 108.378906 C 38.953125 116.097656 38.675781 123.753906 38.769531 131.539062 Z M 37.324219 108.628906 C 33.753906 108.167969 30.242188 108.257812 26.777344 107.503906 C 27.96875 115.164062 28.464844 122.789062 29.554688 130.40625 C 32.023438 130.894531 34.496094 131.433594 37.082031 131.4375 C 37.113281 131.214844 37.144531 131.078125 37.140625 130.945312 C 37.109375 129.855469 37.03125 128.773438 37.035156 127.6875 C 37.070312 122.027344 36.894531 116.359375 37.203125 110.703125 C 37.234375 110.050781 37.277344 109.398438 37.324219 108.628906 Z M 72.429688 158.140625 C 65.21875 160.441406 58.160156 160.136719 51.113281 157.980469 C 51.113281 158.125 51.101562 158.1875 51.113281 158.238281 C 51.902344 161.136719 52.9375 163.945312 54.148438 166.699219 C 54.804688 168.191406 55.753906 169.457031 56.949219 170.554688 C 57.535156 171.085938 58.191406 171.453125 58.984375 171.574219 C 60.261719 171.769531 61.539062 171.757812 62.8125 171.566406 C 64.570312 171.308594 66.113281 170.566406 67.285156 169.242188 C 69.449219 166.792969 71.09375 164.035156 71.875 160.824219 C 72.089844 159.972656 72.234375 159.109375 72.429688 158.140625 Z M 138.894531 146.488281 C 139.085938 146.425781 139.265625 146.371094 139.441406 146.304688 C 140.777344 145.816406 142.132812 145.367188 143.449219 144.816406 C 144.445312 144.398438 145.449219 143.945312 146.339844 143.347656 C 147.808594 142.359375 148.304688 140.882812 148.023438 139.15625 C 147.667969 136.996094 146.621094 135.125 145.523438 133.285156 C 145.378906 133.046875 145.160156 132.839844 144.941406 132.65625 C 143.1875 131.179688 141.332031 129.84375 139.238281 128.890625 C 137.929688 128.292969 136.539062 127.9375 135.085938 128.042969 C 133.867188 128.136719 132.652344 128.347656 131.59375 127.953125 C 129.671875 129.210938 127.875 130.449219 126.550781 132.320312 C 126.800781 132.285156 126.996094 132.265625 127.191406 132.230469 C 128.316406 132.023438 129.429688 131.910156 130.585938 132.054688 C 133.730469 132.449219 136.085938 133.996094 137.675781 136.714844 C 138.488281 138.105469 139 139.621094 139.441406 141.164062 C 139.949219 142.9375 139.933594 144.660156 138.902344 146.277344 C 138.871094 146.308594 138.894531 146.375 138.894531 146.488281 Z M 16.855469 131.8125 C 17.609375 131.550781 18.355469 131.351562 19.054688 131.035156 C 20.597656 130.339844 21.773438 129.160156 22.894531 127.929688 C 23.269531 127.519531 23.488281 127.144531 23.304688 126.5625 C 23.160156 126.105469 23.152344 125.605469 23.078125 125.128906 C 22.722656 122.816406 22.363281 120.5 22.003906 118.1875 C 21.9375 117.734375 21.734375 117.355469 21.457031 116.972656 C 19.441406 114.195312 17.464844 111.394531 15.46875 108.597656 C 15.339844 108.425781 15.191406 108.265625 15.019531 108.058594 C 14.664062 108.398438 14.367188 108.714844 14.039062 108.980469 C 13.671875 109.277344 13.613281 109.589844 13.765625 110.035156 C 14.234375 111.414062 14.664062 112.804688 15.101562 114.199219 C 15.832031 116.542969 16.542969 118.898438 17.285156 121.238281 C 17.5 121.910156 17.296875 122.386719 16.816406 122.84375 C 16.421875 123.21875 15.980469 123.453125 15.453125 123.492188 C 14.484375 123.566406 13.515625 123.621094 12.546875 123.667969 C 11.746094 123.707031 11.167969 123.378906 10.898438 122.585938 C 10.386719 121.101562 9.800781 119.636719 9.363281 118.128906 C 8.738281 115.960938 8.222656 113.761719 7.644531 111.582031 C 7.585938 111.355469 7.460938 111.070312 7.28125 110.976562 C 6.945312 110.796875 6.542969 110.742188 6.058594 110.597656 C 6.136719 110.84375 6.167969 110.972656 6.214844 111.09375 C 6.972656 113.101562 7.777344 115.089844 8.476562 117.113281 C 9.449219 119.925781 10.40625 122.738281 11.90625 125.332031 C 13.257812 127.660156 14.785156 129.859375 16.855469 131.8125 Z M 10.535156 108.300781 C 10.527344 108.222656 10.519531 108.140625 10.511719 108.0625 C 9.742188 107.777344 8.960938 107.503906 8.199219 107.203125 C 6.253906 106.4375 4.6875 105.1875 3.484375 103.488281 C 3.261719 103.175781 3.03125 102.851562 3.050781 102.257812 C 3.375 102.421875 3.601562 102.5 3.789062 102.636719 C 4.226562 102.960938 4.636719 103.320312 5.066406 103.652344 C 7.074219 105.199219 9.449219 105.96875 11.789062 106.8125 C 12.046875 106.90625 12.359375 106.894531 12.636719 106.871094 C 13.191406 106.816406 13.746094 106.34375 13.828125 105.902344 C 13.925781 105.390625 13.664062 104.84375 13.152344 104.527344 C 12.980469 104.425781 12.800781 104.335938 12.609375 104.269531 C 12.105469 104.074219 11.601562 103.863281 11.078125 103.71875 C 9.273438 103.222656 7.722656 102.265625 6.34375 101.03125 C 5.910156 100.644531 5.605469 100.101562 5.292969 99.597656 C 5.1875 99.421875 5.238281 99.152344 5.203125 98.761719 C 5.503906 98.996094 5.644531 99.085938 5.761719 99.203125 C 7.378906 100.863281 9.351562 101.910156 11.539062 102.601562 C 12.300781 102.839844 13.085938 103.082031 13.757812 103.492188 C 14.375 103.875 15.03125 104.113281 15.691406 104.363281 C 16.035156 104.492188 16.441406 104.640625 16.734375 104.328125 C 17.0625 103.976562 17.003906 103.496094 16.785156 103.117188 C 16.613281 102.8125 16.320312 102.554688 16.027344 102.34375 C 15.804688 102.183594 15.503906 102.128906 15.234375 102.035156 C 13.109375 101.292969 11.328125 100.027344 9.75 98.457031 C 8.957031 97.660156 8.289062 96.765625 7.84375 95.730469 C 7.699219 95.402344 7.648438 95.019531 7.613281 94.65625 C 7.589844 94.410156 7.730469 94.21875 8.09375 94.238281 C 8.242188 94.429688 8.402344 94.65625 8.585938 94.871094 C 9.496094 95.933594 10.378906 97.023438 11.332031 98.046875 C 12.808594 99.632812 14.785156 100.457031 16.695312 101.367188 C 16.820312 101.425781 17.03125 101.316406 17.277344 101.273438 C 17.105469 100.867188 16.984375 100.546875 16.835938 100.242188 C 16.21875 98.984375 15.617188 97.714844 14.949219 96.484375 C 14.402344 95.480469 13.769531 94.523438 13.160156 93.558594 C 12.570312 92.636719 11.726562 92.125 10.628906 91.992188 C 9.230469 91.828125 7.996094 91.988281 7.273438 93.410156 C 7.183594 93.589844 7.039062 93.734375 6.925781 93.898438 C 6.75 94.160156 6.554688 94.316406 6.207031 94.199219 C 6.050781 94.144531 5.867188 94.167969 5.695312 94.183594 C 4.84375 94.25 4.195312 94.902344 4.238281 95.757812 C 4.285156 96.953125 4.035156 97.960938 2.960938 98.65625 C 2.78125 98.765625 2.683594 99.074219 2.640625 99.3125 C 2.59375 99.558594 2.65625 99.820312 2.675781 100.078125 C 2.753906 101.242188 2.699219 102.382812 1.921875 103.332031 C 1.578125 103.75 1.539062 104.140625 1.769531 104.589844 C 1.976562 104.996094 2.125 105.449219 2.40625 105.796875 C 4.203125 107.996094 6.535156 108.976562 9.359375 108.703125 C 9.761719 108.65625 10.144531 108.4375 10.535156 108.300781 Z M 51.789062 168.503906 C 49.949219 169.152344 48.066406 169.636719 46.339844 170.546875 C 46.261719 170.585938 46.191406 170.632812 46.121094 170.679688 C 45 171.464844 44.941406 172.769531 46.003906 173.621094 C 46.359375 173.90625 46.746094 174.171875 47.15625 174.367188 C 48.058594 174.796875 48.964844 175.210938 49.898438 175.574219 C 53.28125 176.890625 56.859375 177.078125 60.421875 177.226562 C 62.386719 177.304688 64.359375 177.207031 66.328125 177.121094 C 68.300781 177.03125 70.246094 176.746094 72.15625 176.226562 C 74.121094 175.695312 75.894531 174.8125 77.382812 173.398438 C 77.992188 172.816406 77.960938 172.382812 77.335938 171.816406 C 77.230469 171.722656 77.109375 171.632812 76.980469 171.578125 C 76.292969 171.300781 75.625 170.972656 74.914062 170.769531 C 73.421875 170.339844 71.859375 170.410156 70.328125 170.257812 C 69.878906 170.214844 69.566406 170.382812 69.285156 170.710938 C 69.003906 171.03125 68.695312 171.332031 68.375 171.621094 C 66.855469 173.015625 65.160156 174.101562 63.09375 174.476562 C 61.503906 174.769531 59.90625 174.78125 58.320312 174.492188 C 56.820312 174.21875 55.472656 173.601562 54.453125 172.433594 C 53.796875 171.683594 53.199219 170.878906 52.625 170.0625 C 52.304688 169.601562 52.085938 169.066406 51.789062 168.503906 Z M 51.40625 131.722656 C 50.753906 131.949219 50.25 132.152344 49.734375 132.296875 C 46.910156 133.089844 44 133.324219 41.09375 133.425781 C 38.554688 133.511719 36.007812 133.390625 33.464844 133.332031 C 31.863281 133.296875 30.277344 133.074219 28.730469 132.648438 C 28.003906 132.449219 27.292969 132.210938 26.625 132.007812 C 26.625 133.390625 26.625 134.742188 26.625 136.140625 C 27.921875 136.335938 29.242188 136.566406 30.566406 136.730469 C 32.066406 136.917969 33.570312 137.074219 35.074219 137.214844 C 36.636719 137.355469 38.203125 137.503906 39.769531 137.554688 C 41.996094 137.625 44.226562 137.457031 46.417969 137.046875 C 48.09375 136.730469 49.746094 136.28125 51.402344 135.890625 C 51.40625 134.460938 51.40625 133.152344 51.40625 131.722656 Z M 52.292969 129.101562 C 52.347656 128.546875 52.378906 127.980469 52.460938 127.421875 C 52.828125 124.828125 53.214844 122.234375 53.582031 119.644531 C 53.625 119.335938 53.679688 119.011719 53.621094 118.714844 C 53.089844 116.191406 52.960938 113.628906 52.828125 111.066406 C 52.777344 110.078125 52.710938 109.089844 52.648438 108.101562 C 51.964844 108.101562 51.359375 108.101562 50.847656 108.101562 C 50.167969 115.605469 49.496094 123.027344 48.820312 130.503906 C 50.078125 130.242188 51.171875 129.710938 52.292969 129.101562 Z M 27.785156 129.945312 C 27.386719 126.042969 27.019531 122.304688 26.617188 118.566406 C 26.210938 114.804688 25.664062 111.046875 25.660156 107.351562 C 24.316406 106.792969 23.0625 106.273438 21.804688 105.75 C 23.238281 113.4375 24.0625 121.222656 25.242188 129.015625 C 26.058594 129.316406 26.847656 129.605469 27.785156 129.945312 Z M 93.214844 58.214844 C 93.152344 58.171875 93.089844 58.132812 93.027344 58.089844 C 92.621094 58.484375 92.183594 58.851562 91.8125 59.273438 C 90.570312 60.679688 89.640625 62.289062 88.875 63.992188 C 87.71875 66.5625 87.082031 69.28125 86.554688 72.039062 C 85.589844 77.039062 85.109375 82.082031 84.765625 87.152344 C 84.617188 89.371094 84.347656 91.578125 84.109375 93.789062 C 84.003906 94.800781 83.847656 95.808594 83.703125 96.867188 C 84.464844 96.867188 85.164062 96.867188 85.910156 96.867188 C 85.96875 94.828125 86.011719 92.832031 86.097656 90.839844 C 86.179688 88.960938 86.28125 87.078125 86.433594 85.199219 C 86.792969 80.839844 87.46875 76.53125 88.355469 72.246094 C 88.980469 69.222656 89.6875 66.222656 91.035156 63.414062 C 91.578125 62.28125 92.066406 61.121094 92.554688 59.960938 C 92.800781 59.390625 92.996094 58.800781 93.214844 58.214844 Z M 116.898438 57.328125 C 117.066406 57.996094 117.160156 58.515625 117.328125 59.011719 C 117.902344 60.71875 118.609375 62.386719 119.054688 64.121094 C 119.707031 66.664062 120.203125 69.242188 120.726562 71.816406 C 121.644531 76.296875 122.113281 80.832031 122.335938 85.394531 C 122.480469 88.386719 122.597656 91.386719 122.746094 94.378906 C 122.789062 95.25 122.902344 96.117188 122.980469 96.96875 C 123.445312 96.96875 123.832031 96.96875 124.238281 96.96875 C 124.253906 96.710938 124.285156 96.515625 124.273438 96.320312 C 124.167969 94.324219 124.042969 92.332031 123.945312 90.335938 C 123.816406 87.679688 123.730469 85.023438 123.585938 82.375 C 123.445312 79.8125 123.273438 77.25 123.074219 74.695312 C 122.804688 71.234375 122.027344 67.875 121.125 64.535156 C 120.398438 61.8125 119.148438 59.390625 116.898438 57.328125 Z M 24.867188 165.523438 C 25.207031 161.667969 25.441406 157.941406 25.890625 154.246094 C 26.347656 150.511719 27.015625 146.804688 27.59375 143.105469 C 26.773438 142.433594 25.90625 141.722656 25.007812 140.984375 C 24.339844 148.6875 22.660156 156.195312 21.917969 163.847656 C 22.859375 164.382812 23.792969 164.914062 24.867188 165.523438 Z M 51.117188 155.390625 C 55.164062 157.894531 68.296875 158.242188 71.894531 155.953125 C 71.824219 155.867188 71.773438 155.746094 71.679688 155.707031 C 70.675781 155.234375 69.707031 154.613281 68.644531 154.359375 C 67.210938 154.011719 65.714844 153.863281 64.238281 153.804688 C 61.898438 153.703125 59.550781 153.714844 57.210938 153.734375 C 55.542969 153.75 53.925781 154.089844 52.332031 154.585938 C 51.867188 154.730469 51.417969 154.898438 51.117188 155.390625 Z M 25.429688 136.835938 C 25.144531 136.148438 24.804688 135.59375 24.6875 135 C 24.488281 134 24.421875 132.96875 24.308594 131.949219 C 24.242188 131.351562 24.214844 130.75 24.128906 130.160156 C 24.101562 129.976562 23.9375 129.8125 23.867188 129.691406 C 23.488281 130.015625 23.179688 130.261719 22.890625 130.542969 C 22.136719 131.285156 21.386719 132.023438 20.429688 132.519531 C 19.171875 133.171875 17.824219 133.519531 16.421875 133.675781 C 16.164062 133.707031 15.90625 133.765625 15.511719 133.835938 C 16.359375 134.75 17.078125 135.554688 17.828125 136.332031 C 18.429688 136.960938 19.148438 137.300781 20.050781 137.230469 C 20.902344 137.167969 21.761719 137.167969 22.613281 137.101562 C 23.542969 137.035156 24.464844 136.929688 25.429688 136.835938 Z M 54.101562 152.109375 C 54.175781 150.902344 52.820312 141.277344 52.5 140.625 C 52.070312 141.027344 51.65625 141.460938 51.1875 141.828125 C 50.722656 142.199219 50.207031 142.5 49.679688 142.855469 C 50.0625 146.257812 50.441406 149.667969 50.824219 153.113281 C 51.933594 152.773438 52.992188 152.453125 54.101562 152.109375 Z M 38.753906 106.828125 C 41.957031 106.679688 45.046875 106.535156 48.09375 106.394531 C 45.242188 104.113281 42.367188 101.816406 39.449219 99.476562 C 38.972656 101.894531 38.917969 104.328125 38.753906 106.828125 Z M 95.300781 2.972656 C 94.492188 2.277344 93.65625 2.097656 92.777344 2.382812 C 92.128906 2.589844 91.503906 2.902344 90.921875 3.253906 C 90.617188 3.441406 90.175781 3.648438 90.339844 4.261719 C 90.882812 4.449219 91.480469 4.621094 92.0625 4.851562 C 94.6875 5.886719 96.132812 7.765625 96.242188 10.644531 C 96.296875 11.953125 96.453125 13.261719 96.617188 14.5625 C 96.871094 16.542969 97.777344 18.195312 99.296875 19.496094 C 100.59375 20.613281 102.085938 21.152344 103.808594 20.941406 C 104.109375 20.902344 104.480469 20.925781 104.609375 20.613281 C 103.554688 20.234375 102.480469 19.976562 101.539062 19.476562 C 99.648438 18.480469 98.609375 16.777344 98.164062 14.738281 C 97.941406 13.71875 97.914062 12.648438 97.839844 11.597656 C 97.667969 9.296875 96.859375 7.257812 95.351562 5.515625 C 95.046875 5.164062 94.617188 4.90625 94.207031 4.667969 C 93.707031 4.378906 93.167969 4.148438 92.597656 3.875 C 93.378906 3.035156 94.390625 3.308594 95.300781 2.972656 Z M 37.226562 106.773438 C 37.449219 104.46875 37.675781 102.167969 37.902344 99.84375 C 34.777344 101.875 31.570312 103.796875 28.425781 106.078125 C 31.472656 106.320312 34.332031 106.542969 37.226562 106.773438 Z M 55.164062 116.328125 C 55.214844 116.363281 55.261719 116.398438 55.3125 116.433594 C 57.164062 113.753906 59.214844 111.242188 61.523438 108.945312 C 61.539062 108.933594 61.53125 108.890625 61.53125 108.867188 C 61.527344 108.839844 61.519531 108.8125 61.503906 108.738281 C 59.042969 108.53125 56.574219 108.324219 54.132812 108.113281 C 54.484375 110.925781 54.828125 113.625 55.164062 116.328125 Z M 55.378906 104.917969 C 53.269531 104.226562 51.328125 103.640625 49.425781 102.949219 C 47.527344 102.257812 45.664062 101.457031 43.789062 100.699219 C 43.90625 100.949219 44.082031 101.097656 44.257812 101.234375 C 46.050781 102.613281 47.84375 103.984375 49.625 105.371094 C 50.070312 105.71875 50.429688 106.273438 50.925781 106.429688 C 51.460938 106.59375 52.109375 106.410156 52.703125 106.367188 C 52.898438 106.351562 53.121094 106.351562 53.28125 106.257812 C 53.9375 105.867188 54.574219 105.4375 55.378906 104.917969 Z M 74.425781 159.527344 C 75.054688 159.828125 75.582031 160 76.003906 160.308594 C 76.988281 161.03125 77.144531 162.019531 76.449219 162.996094 C 75.785156 163.9375 74.871094 164.535156 73.71875 164.746094 C 73.488281 164.792969 73.195312 164.894531 73.085938 165.066406 C 72.671875 165.734375 72.320312 166.441406 71.902344 167.207031 C 72.09375 167.183594 72.203125 167.183594 72.304688 167.148438 C 73.589844 166.75 74.8125 166.203125 75.925781 165.441406 C 76.886719 164.78125 77.652344 163.945312 78.066406 162.839844 C 78.433594 161.863281 78.339844 160.921875 77.695312 160.085938 C 76.910156 159.066406 75.863281 158.523438 74.503906 158.480469 C 74.476562 158.882812 74.445312 159.242188 74.425781 159.527344 Z M 32.210938 101.128906 C 28.90625 101.847656 23.605469 103.210938 22.46875 104.277344 C 23.664062 104.734375 24.824219 105.179688 25.824219 105.566406 C 28.042969 104.027344 30.109375 102.589844 32.210938 101.128906 Z M 15.269531 93.609375 C 15.445312 93.902344 15.542969 94.070312 15.640625 94.242188 C 16.464844 95.679688 17.300781 97.105469 18.101562 98.558594 C 18.542969 99.359375 18.890625 99.582031 19.796875 99.492188 C 20.21875 99.449219 20.476562 99.199219 20.46875 98.765625 C 20.464844 98.546875 20.40625 98.308594 20.320312 98.109375 C 19.792969 96.863281 19.144531 95.6875 18.269531 94.660156 C 18.023438 94.375 17.636719 94.15625 17.273438 94.042969 C 16.679688 93.847656 16.058594 93.769531 15.269531 93.609375 Z M 31.683594 139.429688 C 30.058594 138.828125 28.492188 138.253906 26.90625 137.667969 C 26.523438 138.347656 26.132812 139.039062 25.699219 139.800781 C 26.898438 140.097656 27.753906 140.871094 28.472656 141.824219 C 29.589844 140.988281 30.636719 140.210938 31.683594 139.429688 Z M 21.066406 113.496094 C 21.128906 113.480469 21.191406 113.46875 21.253906 113.453125 C 20.984375 111.527344 20.71875 109.601562 20.441406 107.597656 C 19.277344 107.84375 18.128906 107.816406 16.949219 108.097656 C 18.375 109.964844 19.722656 111.730469 21.066406 113.496094 Z M 84.496094 7.019531 C 83.800781 6.703125 83.148438 6.855469 82.53125 7.132812 C 79.636719 8.453125 77.714844 10.699219 76.464844 13.574219 C 76.367188 13.800781 76.296875 14.027344 76.484375 14.265625 C 78.425781 11.003906 81.273438 8.851562 84.496094 7.019531 Z M 49.011719 141.328125 C 49.777344 140.457031 50.546875 139.582031 51.335938 138.683594 C 51.332031 138.679688 51.222656 138.550781 51.101562 138.433594 C 50.957031 138.300781 50.800781 138.183594 50.714844 138.121094 C 49.027344 138.589844 47.421875 139.035156 45.707031 139.515625 C 46.804688 140.117188 47.839844 140.683594 49.011719 141.328125 Z M 35.78125 139.917969 C 36.859375 140.691406 37.792969 141.363281 38.730469 142.035156 C 39.261719 141.65625 39.761719 141.28125 40.277344 140.929688 C 40.765625 140.597656 41.265625 140.28125 41.835938 139.917969 C 39.792969 139.917969 37.890625 139.917969 35.78125 139.917969 Z M 23.570312 101.285156 C 22.6875 101.191406 21.992188 101.113281 21.296875 101.046875 C 20.253906 100.949219 19.789062 101.421875 19.796875 102.472656 C 19.804688 103.582031 19.761719 104.695312 19.71875 105.804688 C 19.699219 106.28125 19.679688 106.28125 20.328125 106.28125 C 20.351562 105.714844 20.46875 105.136719 20.382812 104.585938 C 20.214844 103.425781 20.800781 102.765625 21.71875 102.265625 C 22.285156 101.957031 22.851562 101.667969 23.570312 101.285156 Z M 60.015625 107.050781 C 60.039062 106.984375 60.066406 106.921875 60.089844 106.851562 C 59.269531 106.363281 58.457031 105.851562 57.617188 105.398438 C 57.441406 105.304688 57.09375 105.347656 56.933594 105.46875 C 56.5625 105.738281 56.257812 106.101562 55.835938 106.519531 C 57.324219 106.710938 58.671875 106.882812 60.015625 107.050781 Z M 89.960938 160.816406 C 91.679688 161.089844 93.023438 160.242188 93.117188 158.921875 C 91.566406 158.652344 90.859375 159.765625 89.960938 160.816406 Z M 75.144531 161.878906 C 74.855469 161.628906 74.632812 161.4375 74.289062 161.136719 C 74.140625 161.796875 74.03125 162.292969 73.921875 162.789062 C 73.972656 162.824219 74.023438 162.851562 74.074219 162.886719 C 74.410156 162.570312 74.746094 162.253906 75.144531 161.878906 Z M 14.554688 132.695312 C 14.769531 132.5625 14.886719 132.492188 15.03125 132.402344 C 14.699219 132.054688 14.394531 131.742188 14.09375 131.425781 C 14.046875 131.453125 14 131.484375 13.953125 131.511719 C 14.132812 131.878906 14.316406 132.238281 14.554688 132.695312 Z M 14.554688 132.695312 " fill-opacity="1" fill-rule="nonzero"/></g><path fill="#000000" d="M 89.863281 40.355469 C 90.191406 40.441406 90.46875 40.492188 90.730469 40.582031 C 92.230469 41.109375 93.691406 41.019531 95.160156 40.441406 C 96.285156 39.996094 97.347656 39.46875 98.199219 38.582031 C 98.257812 38.519531 98.328125 38.464844 98.398438 38.414062 C 98.855469 38.054688 99.195312 38.003906 99.464844 38.253906 C 99.738281 38.503906 99.832031 39.074219 99.597656 39.449219 C 99.371094 39.804688 99.121094 40.175781 98.796875 40.445312 C 97.351562 41.640625 95.773438 42.585938 93.878906 42.878906 C 92.417969 43.109375 91.171875 42.683594 90.15625 41.613281 C 89.863281 41.300781 89.621094 40.945312 89.863281 40.355469 Z M 89.863281 40.355469 " fill-opacity="1" fill-rule="nonzero"/><path fill="#000000" d="M 99.285156 28.511719 C 99.867188 28.46875 100.324219 28.742188 100.613281 29.238281 C 101.199219 30.238281 101.160156 32.320312 100.421875 33.226562 C 99.941406 33.8125 99.523438 33.894531 98.996094 33.359375 C 98.011719 32.359375 97.699219 31.101562 97.84375 29.75 C 97.914062 29.070312 98.640625 28.519531 99.285156 28.511719 Z M 99.285156 28.511719 " fill-opacity="1" fill-rule="nonzero"/><path fill="#000000" d="M 86.539062 37.167969 C 86.257812 36.910156 85.910156 36.714844 85.75 36.421875 C 85.21875 35.433594 84.859375 34.378906 84.949219 33.226562 C 84.988281 32.746094 85.160156 32.320312 85.652344 32.144531 C 86.214844 31.941406 86.859375 32.144531 87.203125 32.589844 C 88.078125 33.722656 87.800781 36.105469 86.539062 37.167969 Z M 86.539062 37.167969 " fill-opacity="1" fill-rule="nonzero"/><path fill="#000000" d="M 92.777344 37.21875 C 92.195312 38.5 90.921875 38.859375 90.023438 38.09375 C 89.785156 37.894531 89.625 37.53125 89.574219 37.214844 C 89.5 36.769531 89.539062 36.304688 89.5625 35.847656 C 89.59375 35.136719 89.644531 34.425781 89.707031 33.714844 C 89.722656 33.503906 89.800781 33.296875 89.890625 32.910156 C 91.003906 34.105469 90.917969 35.394531 90.800781 36.71875 C 91.460938 36.886719 92.078125 37.039062 92.777344 37.21875 Z M 92.777344 37.21875 " fill-opacity="1" fill-rule="nonzero"/><path fill="#000000" d="M 97.390625 27.226562 C 97.042969 26.523438 97.25 25.773438 97.953125 25.441406 C 98.609375 25.125 99.277344 25.203125 99.933594 25.46875 C 100.265625 25.609375 100.273438 25.898438 100.226562 26.1875 C 100.164062 26.601562 99.832031 26.933594 99.449219 26.980469 C 98.796875 27.0625 98.140625 27.140625 97.390625 27.226562 Z M 97.390625 27.226562 " fill-opacity="1" fill-rule="nonzero"/><path fill="#000000" d="M 83.867188 31.269531 C 83.535156 30.867188 83.617188 30.4375 83.855469 30.027344 C 84.273438 29.3125 85.257812 28.902344 86.070312 29.082031 C 86.652344 29.210938 86.800781 29.621094 86.402344 30.074219 C 86.238281 30.261719 86.011719 30.421875 85.785156 30.519531 C 85.167969 30.785156 84.535156 31.011719 83.867188 31.269531 Z M 83.867188 31.269531 " fill-opacity="1" fill-rule="nonzero"/><path fill="#000000" d="M 112.363281 26.523438 C 111.347656 26.738281 110.878906 27.386719 110.671875 28.285156 C 110.664062 28.316406 110.671875 28.347656 110.65625 28.367188 C 110.515625 28.59375 110.390625 28.976562 110.222656 29.003906 C 109.835938 29.058594 109.757812 28.644531 109.679688 28.355469 C 109.425781 27.363281 110.382812 26.027344 111.34375 25.789062 C 111.832031 25.667969 112.046875 25.828125 112.363281 26.523438 Z M 112.363281 26.523438 " fill-opacity="1" fill-rule="nonzero"/><path fill="#000000" d="M 153.707031 129.328125 C 153.476562 129.296875 153.226562 129.304688 153.011719 129.230469 C 152.292969 128.964844 151.558594 128.707031 150.867188 128.375 C 149.34375 127.644531 147.863281 126.835938 146.332031 126.128906 C 142.800781 124.492188 139.101562 124.136719 135.28125 124.777344 C 134.664062 124.878906 134.03125 124.910156 133.40625 124.910156 C 132.898438 124.910156 132.75 124.582031 133.042969 124.179688 C 133.136719 124.042969 133.277344 123.910156 133.425781 123.84375 C 133.996094 123.601562 134.566406 123.289062 135.167969 123.183594 C 140.351562 122.261719 145.164062 123.195312 149.550781 126.140625 C 150.855469 127.019531 152.128906 127.945312 153.410156 128.855469 C 153.542969 128.945312 153.648438 129.074219 153.761719 129.1875 C 153.746094 129.234375 153.726562 129.28125 153.707031 129.328125 Z M 153.707031 129.328125 " fill-opacity="1" fill-rule="nonzero"/></svg>