<svg xmlns="http://www.w3.org/2000/svg" xmlns:xlink="http://www.w3.org/1999/xlink" width="309" zoomAndPan="magnify" viewBox="0 0 231.75 162.749997" height="217" preserveAspectRatio="xMidYMid meet" version="1.2"><defs><clipPath id="92de5ceda1"><path d="M 2 115 L 228 115 L 228 162.5 L 2 162.5 Z M 2 115 "/></clipPath></defs><g id="e9b16c7335"><path style=" stroke:none;fill-rule:nonzero;fill:#000000;fill-opacity:1;" d="M 186.394531 67.65625 C 186.621094 66.925781 186.863281 66.191406 187.0625 65.449219 C 186.289062 66.457031 185.875 67.507812 186.121094 68.523438 C 186.195312 68.234375 186.292969 67.945312 186.394531 67.65625 Z M 186.394531 67.65625 "/><g clip-rule="nonzero" clip-path="url(#92de5ceda1)"><path style=" stroke:none;fill-rule:nonzero;fill:#000000;fill-opacity:1;" d="M 202.179688 122.347656 C 194.082031 120.429688 186.359375 117.101562 178.101562 115.929688 C 176.804688 115.695312 175.496094 115.558594 174.179688 115.515625 C 170.746094 115.472656 169.578125 121.855469 173.234375 122.433594 C 174.742188 122.585938 176.246094 122.699219 177.753906 122.871094 C 182.96875 123.488281 188.21875 123.65625 193.425781 124.339844 C 197.363281 125.066406 201.214844 126.109375 204.980469 127.464844 C 211.503906 130.023438 219.304688 132.941406 222.128906 139.9375 C 217.78125 144.605469 207.75 145.875 201.535156 146.953125 C 194.714844 148 187.867188 148.847656 181.058594 149.980469 C 180.542969 150.054688 180.027344 150.140625 179.515625 150.226562 L 179.332031 150.066406 C 179.199219 149.960938 178.902344 150.039062 179.039062 150.242188 C 179.058594 150.257812 179.074219 150.277344 179.089844 150.296875 C 175.746094 150.855469 172.414062 151.523438 169.074219 152.1875 C 162.050781 152.109375 155.003906 152.1875 148.023438 153.039062 C 144.289062 153.546875 140.554688 154.011719 136.804688 154.386719 C 133.972656 154.324219 131.101562 154.292969 128.246094 154.308594 C 125.460938 154.308594 122.675781 154.371094 119.890625 154.433594 C 114.820312 154.550781 109.753906 154.667969 104.691406 154.398438 C 98.527344 154.09375 92.417969 152.976562 86.28125 152.546875 C 81.019531 152.074219 75.730469 152.1875 70.449219 152.34375 C 65.007812 152.59375 59.519531 152.851562 54.101562 152.117188 C 47.617188 151.234375 41.257812 149.566406 34.777344 148.628906 C 29.585938 147.71875 24.328125 147.074219 19.09375 146.3125 C 18.101562 146.109375 16.535156 145.792969 14.816406 145.335938 C 13.773438 144.546875 12.875 143.613281 12.128906 142.535156 C 11.917969 141.679688 12.667969 140.929688 13.097656 140.25 C 16.257812 135.851562 21.6875 134.417969 26.382812 132.269531 C 30.632812 130.332031 34.640625 127.824219 38.980469 126.019531 C 42.152344 124.703125 45.589844 124.269531 48.828125 123.183594 C 51.050781 122.925781 52.339844 120.859375 50.863281 118.949219 C 50.578125 118.59375 50.246094 118.285156 49.871094 118.027344 C 49.496094 117.765625 49.089844 117.566406 48.652344 117.425781 C 48.21875 117.285156 47.773438 117.210938 47.316406 117.199219 C 46.859375 117.191406 46.410156 117.25 45.972656 117.371094 C 44.617188 117.753906 43.46875 118.628906 42.101562 118.976562 C 38.640625 119.425781 35.320312 120.367188 32.136719 121.792969 C 31.222656 122.167969 30.300781 122.523438 29.382812 122.882812 C 28.984375 122.972656 28.582031 123.058594 28.175781 123.128906 C 23.644531 124.007812 19.3125 125.480469 15.183594 127.550781 C 13.121094 128.5625 11 129.441406 8.929688 130.441406 C 7.699219 130.960938 6.625 131.703125 5.699219 132.667969 C 4.671875 134.132812 3.957031 135.738281 3.5625 137.484375 C 0.125 145.167969 10.542969 151.269531 17.082031 153.039062 C 20.699219 154.097656 24.488281 155.035156 28.304688 155.796875 C 34.351562 156.96875 40.53125 157.261719 46.558594 158.601562 C 50.230469 159.359375 53.894531 160.226562 57.613281 160.746094 C 66 161.765625 74.472656 161.867188 82.90625 162.382812 C 84.320312 162.457031 85.738281 162.496094 87.152344 162.496094 C 94.003906 162.496094 100.84375 161.695312 107.667969 161.277344 C 108.546875 161.203125 109.417969 161.089844 110.292969 160.960938 C 114.597656 161.304688 118.910156 161.53125 123.222656 161.53125 C 125.292969 161.53125 127.359375 161.476562 129.421875 161.371094 C 136.613281 161.007812 143.679688 159.671875 150.796875 158.679688 C 156.421875 157.933594 162.101562 157.828125 167.792969 157.734375 C 173.050781 157.636719 178.316406 157.546875 183.546875 156.929688 C 184.085938 156.871094 184.613281 156.796875 185.152344 156.726562 C 193.457031 155.824219 201.5 153.480469 209.664062 151.808594 C 215.375 150.519531 221.894531 149.347656 225.839844 144.605469 C 229.425781 140.449219 227.859375 134.917969 224.398438 131.238281 C 218.839844 124.777344 209.863281 124.328125 202.179688 122.347656 Z M 202.179688 122.347656 "/></g><path style=" stroke:none;fill-rule:nonzero;fill:#000000;fill-opacity:1;" d="M 25.527344 38.808594 C 25.671875 39.601562 25.886719 40.375 25.972656 41.171875 C 26.308594 45.386719 26.628906 49.625 27.152344 53.824219 C 27.542969 55.890625 28.105469 57.914062 28.832031 59.890625 C 30.433594 65.902344 33.402344 71.605469 35.472656 77.476562 C 38.730469 88.351562 42.902344 98.800781 49.246094 108.257812 C 51.363281 112.4375 52.71875 117.03125 55.804688 120.65625 C 56.535156 121.539062 57.320312 122.367188 58.167969 123.136719 C 58.207031 123.265625 58.261719 123.394531 58.332031 123.511719 C 62.054688 128.023438 68.375 129.796875 73.636719 131.902344 C 78.4375 133.738281 83.550781 134.601562 88.578125 135.511719 C 91.675781 136.144531 94.796875 136.546875 97.953125 136.722656 C 99.5 136.8125 101.046875 136.851562 102.597656 136.851562 C 110.027344 136.851562 117.441406 135.949219 124.832031 135.21875 C 131.417969 135.183594 138.054688 135.21875 144.527344 133.800781 C 147.542969 133.058594 150.761719 132.113281 153.085938 129.957031 C 153.316406 129.722656 153.519531 129.46875 153.695312 129.191406 L 153.921875 128.988281 C 154.046875 129.421875 154.453125 129.800781 155.277344 129.980469 C 159.394531 130.589844 163.515625 131.125 167.59375 131.972656 C 170.644531 132.691406 174.722656 132.992188 176.628906 135.777344 C 174.085938 136.851562 171.292969 137.117188 168.539062 137.386719 C 167.792969 137.453125 167.046875 137.527344 166.3125 137.613281 C 161.460938 138.183594 156.589844 138.535156 151.722656 138.949219 C 150.832031 139.050781 149.960938 139.175781 149.082031 139.296875 C 147.664062 139.492188 146.292969 139.6875 144.882812 139.796875 C 141.703125 139.890625 138.53125 139.59375 135.355469 139.53125 C 130.195312 139.59375 125.074219 138.992188 119.929688 138.738281 C 115.71875 138.601562 111.5 138.648438 107.289062 138.695312 C 101.78125 138.757812 96.273438 138.816406 90.765625 138.46875 C 86.148438 138.421875 81.539062 138.226562 76.929688 137.996094 C 75.339844 137.925781 73.753906 137.996094 72.167969 138.082031 C 70.582031 138.164062 68.964844 138.230469 67.367188 138.15625 C 61.640625 137.460938 55.757812 136.5625 50.667969 133.6875 C 51.285156 133.046875 51.949219 132.464844 52.664062 131.9375 C 53.5 131.207031 55.972656 130.425781 55.082031 128.988281 C 54.902344 128.804688 54.6875 128.6875 54.433594 128.644531 C 54.191406 128.5 53.933594 128.417969 53.65625 128.398438 C 53.066406 128.398438 52.34375 128.8125 52.34375 129.460938 C 50.101562 130.523438 44.320312 133.09375 47.375 136.082031 C 51.121094 138.773438 56.019531 138.96875 60.402344 139.894531 C 62.9375 140.34375 65.4375 140.960938 67.957031 141.503906 C 71.792969 142.273438 75.683594 142.703125 79.570312 143.09375 C 83.449219 143.566406 87.34375 143.148438 91.21875 142.929688 C 96.578125 142.582031 101.859375 143.507812 107.171875 144.070312 C 109.113281 144.25 111.058594 144.324219 112.996094 144.324219 C 118.878906 144.324219 124.757812 143.625 130.613281 142.90625 C 132.390625 142.695312 134.175781 142.480469 135.957031 142.292969 C 138.914062 142.09375 141.867188 142.5 144.828125 142.59375 C 151.777344 142.742188 158.730469 142.847656 165.675781 142.445312 C 167.261719 142.363281 168.878906 142.261719 170.484375 142.074219 C 173.398438 141.734375 176.28125 141.09375 178.867188 139.710938 C 180.757812 138.667969 182.667969 136.480469 181.519531 134.25 C 179.046875 129.8125 171.886719 130.332031 167.488281 129.375 C 163.886719 128.667969 160.40625 127.484375 156.804688 126.78125 C 156.667969 126.742188 156.527344 126.714844 156.386719 126.703125 C 161.53125 121.859375 166.136719 116.542969 170.199219 110.757812 C 171.269531 109.257812 172.234375 107.691406 173.09375 106.0625 L 173.253906 106.0625 C 176.449219 106.0625 180.230469 102.519531 183.242188 101.441406 C 196.027344 94.433594 206.574219 84.035156 217.910156 74.992188 C 225.84375 66.757812 231.363281 55.226562 228.816406 43.628906 C 228.375 40.824219 227.015625 38.003906 224.449219 36.574219 C 212.339844 30.476562 197.988281 39.136719 190.195312 48.542969 C 188.445312 49.078125 189.589844 51.882812 191.222656 50.742188 C 195.417969 46.683594 199.796875 42.503906 205.167969 40.015625 C 211.515625 37.328125 224.667969 39.382812 224.996094 47.890625 C 226.734375 55.855469 219.644531 61.96875 215.769531 68.152344 C 210.273438 75.121094 204.542969 82.1875 197.324219 87.433594 C 191.929688 90.742188 186.089844 93.289062 180.328125 95.863281 C 179.382812 96.195312 178.15625 96.617188 176.90625 97.125 C 178.09375 93.816406 179.117188 90.425781 180.183594 87.101562 C 180.332031 86.683594 180.472656 86.261719 180.617188 85.835938 C 181.019531 86.304688 181.523438 86.605469 182.125 86.738281 C 182.265625 86.757812 182.40625 86.769531 182.550781 86.773438 C 184.175781 86.773438 185.433594 85.355469 186.585938 84.328125 C 188.144531 82.933594 189.804688 81.65625 191.308594 80.207031 C 193.59375 78.066406 195.800781 75.855469 197.964844 73.585938 C 202.167969 69.246094 206.628906 64.660156 208.324219 58.699219 C 209.617188 54.21875 207.253906 51.335938 202.621094 52.664062 C 198.371094 54.34375 195.105469 57.800781 191.445312 60.453125 C 190.367188 61.429688 187.21875 62.910156 187.738281 64.609375 C 188.101562 65.398438 188.890625 64.664062 189.28125 64.296875 C 189.792969 63.894531 190.300781 63.492188 190.828125 63.105469 C 192.558594 61.890625 194.367188 60.808594 196.253906 59.859375 C 198.375 58.914062 200.542969 57.371094 202.964844 57.699219 C 200.664062 63.25 196.675781 68.03125 192.175781 71.949219 C 189.816406 73.78125 187.40625 75.519531 184.929688 77.152344 C 184.292969 77.519531 183.664062 77.902344 183.039062 78.3125 C 187.039062 65.113281 189.574219 51.589844 189.550781 37.6875 C 189.726562 35.730469 190.230469 33.824219 190.542969 31.886719 C 190.664062 31.011719 190.324219 29.804688 189.273438 29.726562 C 188.757812 29.785156 188.320312 30.007812 187.96875 30.390625 C 188.367188 29.722656 188.664062 29.015625 188.859375 28.261719 C 189.054688 27.511719 189.140625 26.75 189.117188 25.972656 C 189.09375 25.195312 188.964844 24.4375 188.726562 23.699219 C 188.488281 22.960938 188.152344 22.269531 187.71875 21.625 C 189.300781 19.3125 186.351562 16.332031 184.414062 14.320312 C 181.816406 11.578125 177.511719 10.492188 173.707031 9.082031 C 170.0625 7.691406 166.328125 6.617188 162.503906 5.859375 C 159.425781 5.242188 156.308594 4.726562 153.261719 4.039062 C 148.902344 2.933594 144.488281 2.171875 140.015625 1.75 C 135.144531 1.277344 130.339844 0.375 125.433594 0.164062 C 122.011719 0.0195312 118.578125 0.164062 115.15625 0.292969 C 111.410156 0.449219 107.675781 0.699219 103.929688 0.660156 C 99.613281 0.566406 95.269531 0.253906 90.964844 0.660156 C 79.675781 1.636719 68.578125 3.652344 57.671875 6.714844 C 53.113281 8.132812 48.3125 9.078125 43.785156 10.558594 C 38.230469 12.5625 32.507812 15.546875 30.566406 20.296875 C 29.667969 22.414062 28.882812 24.570312 28.207031 26.765625 C 27.785156 27.5 27.546875 28.289062 27.496094 29.132812 C 27.441406 29.980469 27.578125 30.792969 27.902344 31.574219 C 28.628906 33.421875 30.09375 34.882812 31.601562 36.171875 C 38.789062 42.347656 48.125 46.160156 57.566406 46.179688 L 58.265625 46.34375 L 59.140625 46.34375 C 63.019531 46.34375 66.898438 46.136719 70.773438 45.925781 C 75.019531 45.691406 79.269531 45.453125 83.542969 45.515625 C 89.769531 45.515625 95.964844 46.15625 102.175781 46.398438 C 107.769531 46.589844 113.367188 46.839844 118.96875 46.875 L 120.769531 46.875 C 137.097656 46.660156 152.894531 42.859375 168.523438 39.40625 C 174.925781 37.945312 182.183594 36.652344 186.464844 32.316406 C 186.851562 31.933594 187.207031 31.519531 187.519531 31.078125 C 186.882812 32.496094 187.105469 34.648438 186.65625 36.011719 C 185.382812 53.507812 179.417969 70.238281 175.273438 87.179688 C 172.148438 95.804688 167.523438 103.765625 162.632812 111.488281 C 159.21875 116.945312 156.410156 123.089844 151.253906 127.160156 L 150.839844 127.25 C 150.355469 127.382812 149.859375 127.464844 149.359375 127.496094 C 149.722656 127.292969 149.359375 126.945312 149.070312 127.085938 C 148.785156 127.230469 148.175781 127.636719 148.601562 127.90625 C 145.238281 128.5625 141.851562 129.019531 138.433594 129.273438 C 134.132812 129.816406 129.816406 130.101562 125.480469 130.128906 C 121.089844 130.289062 116.707031 130.085938 112.324219 129.886719 C 108.308594 129.707031 104.296875 129.523438 100.273438 129.613281 C 95.503906 129.691406 90.742188 129.542969 85.976562 129.398438 C 78.125 126.75 70.828125 123.015625 64.078125 118.203125 C 62.527344 116.648438 61.121094 114.96875 59.855469 113.171875 C 57.796875 110.046875 56.574219 106.484375 54.980469 103.121094 C 51.480469 95.714844 47.648438 88.464844 43.710938 81.3125 C 41.183594 76.46875 39.976562 71.09375 38.328125 65.917969 C 37.0625 60.882812 34.996094 56.050781 34.316406 50.882812 C 33.414062 46.675781 32.746094 42.371094 31.0625 38.386719 C 30.777344 37.757812 30.375 37.21875 29.847656 36.773438 C 29.570312 35.648438 29.222656 34.546875 28.804688 33.464844 L 28.398438 33.195312 L 27.859375 32.839844 L 27.417969 32.507812 L 26.851562 32.144531 L 26.613281 31.996094 C 25.59375 32.679688 25.707031 35.085938 26.054688 36.675781 C 25.558594 37.308594 25.386719 38.019531 25.527344 38.808594 Z M 33.695312 27.167969 C 34.589844 27.183594 35.449219 27.027344 36.277344 26.695312 L 36.582031 26.597656 C 34.921875 27.1875 33.496094 28.054688 33.238281 29.5625 C 33.152344 29.882812 33.160156 30.195312 33.261719 30.507812 C 32.789062 30.144531 32.316406 29.761719 31.84375 29.355469 C 32.121094 28.535156 32.445312 27.726562 32.789062 26.921875 C 33.074219 27.074219 33.382812 27.15625 33.707031 27.167969 Z M 37.160156 26.394531 C 37.601562 26.25 38.039062 26.089844 38.480469 25.921875 L 38.277344 26.066406 C 37.914062 26.179688 37.539062 26.289062 37.171875 26.394531 Z M 52.066406 24.503906 L 53.011719 24.230469 L 53.226562 24.167969 C 54.765625 23.902344 56.320312 23.667969 57.882812 23.472656 L 57.210938 23.710938 L 56.996094 23.78125 C 53.515625 24.390625 50.074219 25.164062 46.609375 25.863281 L 46.292969 25.898438 C 45.925781 25.9375 45.550781 25.976562 45.171875 26.003906 C 46.929688 25.503906 48.710938 25.0625 50.523438 24.679688 C 50.441406 24.738281 50.351562 24.785156 50.273438 24.839844 Z M 52.128906 38.15625 C 51.960938 37.933594 52.261719 37.683594 52.527344 37.640625 L 52.722656 37.601562 L 52.769531 37.601562 C 52.992188 37.511719 53.242188 37.4375 53.445312 37.351562 L 53.765625 37.234375 C 53.792969 37.234375 53.816406 37.183594 53.839844 37.167969 L 54.421875 37.285156 L 55.339844 37.4375 L 54.78125 37.601562 L 54.152344 37.796875 C 54.152344 37.796875 54.128906 37.796875 54.125 37.820312 C 54.011719 37.917969 53.894531 38.023438 53.765625 38.117188 C 53.636719 38.210938 53.578125 38.277344 53.464844 38.347656 C 53.359375 38.410156 53.246094 38.449219 53.125 38.464844 Z M 50.550781 35.890625 L 50.90625 35.9375 C 50.992188 36.019531 51.085938 36.101562 51.183594 36.171875 L 51.117188 36.171875 C 50.933594 36.070312 50.746094 35.984375 50.550781 35.890625 Z M 55.121094 28.507812 C 55.296875 28.53125 55.46875 28.570312 55.640625 28.625 C 55.785156 28.667969 55.921875 28.726562 56.054688 28.796875 C 55.753906 28.875 55.453125 28.941406 55.148438 28.992188 L 55.105469 28.964844 L 55.03125 28.929688 L 54.96875 28.902344 L 54.78125 28.902344 C 54.714844 28.902344 54.644531 28.902344 54.570312 28.902344 C 54.472656 28.96875 54.371094 29.023438 54.277344 29.089844 C 53.585938 29.015625 52.902344 28.941406 52.207031 28.878906 C 53.347656 28.542969 54.503906 28.238281 55.671875 27.960938 C 55.550781 28.089844 55.417969 28.210938 55.289062 28.335938 L 55.050781 28.542969 Z M 48.6875 35.886719 C 48.878906 35.835938 49.074219 35.808594 49.269531 35.808594 C 48.703125 36.074219 48.21875 36.445312 47.816406 36.925781 C 46.316406 36.492188 44.820312 36.046875 43.339844 35.542969 L 42.789062 35.351562 L 44.71875 35.351562 C 45.457031 36.347656 47.417969 36.097656 48.695312 35.886719 Z M 42.292969 35.101562 L 42.191406 35.136719 L 41.410156 34.84375 L 41.84375 34.703125 C 42.285156 34.730469 42.722656 34.753906 43.128906 34.792969 Z M 70.480469 41.441406 C 67.996094 41.175781 65.527344 40.839844 63.066406 40.472656 L 65.261719 40.210938 L 65.707031 40.164062 C 66.304688 40.1875 66.890625 40.226562 67.433594 40.292969 C 71.101562 40.621094 74.785156 40.898438 78.472656 41.035156 C 78.433594 41.226562 78.449219 41.417969 78.519531 41.601562 C 78.59375 41.785156 78.710938 41.9375 78.875 42.050781 C 76.078125 41.960938 73.277344 41.777344 70.488281 41.441406 Z M 66.601562 31.675781 C 66.679688 31.546875 66.746094 31.414062 66.8125 31.277344 C 68.640625 31.21875 70.460938 31.042969 72.269531 30.746094 C 72.1875 30.867188 72.109375 30.992188 72.03125 31.113281 C 72.5625 31.144531 73.097656 31.199219 73.632812 31.214844 C 74.105469 31.214844 74.53125 31.261719 74.976562 31.289062 C 74.304688 31.402344 73.625 31.503906 72.9375 31.59375 L 71.824219 31.460938 C 71.769531 31.554688 71.714844 31.652344 71.660156 31.753906 C 69.875 31.957031 68.070312 32.085938 66.269531 32.140625 C 66.394531 31.996094 66.507812 31.84375 66.601562 31.675781 Z M 66.304688 28.253906 C 66.453125 27.90625 66.609375 27.558594 66.777344 27.21875 C 66.925781 26.878906 67.097656 26.550781 67.289062 26.230469 C 67.839844 26.230469 68.390625 26.183594 68.941406 26.175781 L 70.355469 26.175781 C 69.039062 26.878906 67.753906 27.660156 66.351562 28.253906 Z M 73.628906 27.78125 C 74.375 27.421875 75.097656 27.023438 75.800781 26.585938 C 75.933594 26.503906 76.058594 26.425781 76.183594 26.339844 C 75.867188 26.769531 75.5 27.152344 75.082031 27.488281 L 74.78125 27.761719 L 74.628906 27.789062 Z M 70.054688 35.269531 L 70.03125 35.335938 L 70.03125 35.382812 C 69.964844 35.574219 69.902344 35.761719 69.847656 35.957031 C 68.664062 35.867188 67.484375 35.785156 66.308594 35.722656 C 67.578125 35.414062 68.859375 35.179688 70.15625 35.019531 C 70.125 35.101562 70.097656 35.179688 70.066406 35.265625 Z M 85.789062 35.625 C 84.539062 35.929688 83.269531 36.148438 81.984375 36.347656 C 81.394531 36.386719 80.804688 36.40625 80.214844 36.417969 C 80.453125 36.261719 80.6875 36.101562 80.914062 35.945312 L 81.183594 35.761719 C 81.277344 35.691406 81.367188 35.617188 81.449219 35.539062 C 82.253906 35.472656 83.066406 35.328125 83.617188 35.292969 L 86.449219 35.421875 Z M 86.648438 31.371094 L 86.207031 31.371094 L 86.539062 31.058594 C 87.011719 31.152344 87.484375 31.25 87.929688 31.367188 C 87.503906 31.371094 87.070312 31.378906 86.648438 31.378906 Z M 86.074219 24.609375 L 86.417969 24.65625 L 86.207031 24.65625 Z M 84.765625 16.96875 C 83.933594 17.039062 83.136719 17.253906 82.382812 17.613281 L 80.964844 17.695312 C 79.195312 17.800781 77.394531 17.90625 75.628906 17.871094 C 75.625 17.824219 75.613281 17.773438 75.59375 17.730469 C 79.320312 16.714844 83.28125 16.492188 87.214844 16.355469 L 88.425781 16.429688 C 87.1875 16.570312 85.960938 16.75 84.765625 16.976562 Z M 89.488281 37.0625 L 89.589844 37.035156 Z M 93.550781 30.492188 C 93.503906 30.550781 93.457031 30.617188 93.40625 30.679688 L 93.363281 30.679688 C 93.207031 30.570312 93.050781 30.46875 92.890625 30.367188 L 93.578125 30.453125 Z M 96.308594 24.941406 C 96.144531 25.796875 95.875 26.621094 95.496094 27.40625 C 95.390625 27.628906 95.277344 27.851562 95.160156 28.074219 L 95.109375 28.164062 C 93.820312 27.988281 92.53125 27.796875 91.253906 27.554688 C 91.378906 27.113281 91.121094 26.769531 90.78125 26.453125 C 90.78125 26.414062 90.835938 26.371094 90.863281 26.335938 C 91.0625 26.042969 91.257812 25.742188 91.4375 25.441406 L 91.507812 25.277344 C 92.882812 24.894531 94.285156 24.679688 95.714844 24.625 L 96.359375 24.71875 C 96.347656 24.796875 96.347656 24.867188 96.316406 24.949219 Z M 93.121094 20.789062 C 93.179688 20.597656 93.269531 20.417969 93.386719 20.253906 C 93.644531 19.957031 93.960938 19.75 94.339844 19.636719 C 94.714844 19.523438 95.09375 19.515625 95.472656 19.617188 C 95.890625 19.703125 96.195312 19.933594 96.390625 20.316406 C 96.386719 20.332031 96.386719 20.347656 96.390625 20.363281 C 96.421875 20.4375 96.449219 20.515625 96.472656 20.59375 C 95.402344 20.71875 94.257812 20.773438 93.132812 20.796875 Z M 103.226562 27.644531 C 103.457031 27.058594 103.667969 26.46875 103.867188 25.875 C 105.589844 26.136719 107.3125 26.386719 109.058594 26.640625 L 109.617188 26.6875 C 109.601562 26.742188 109.578125 26.796875 109.554688 26.851562 C 109.238281 27.640625 108.863281 28.402344 108.425781 29.132812 L 106.019531 29.257812 C 104.894531 29.210938 103.773438 29.101562 102.648438 28.992188 C 102.800781 28.679688 102.949219 28.367188 103.089844 28.046875 C 103.144531 27.90625 103.195312 27.765625 103.253906 27.628906 Z M 104.84375 19.195312 C 104.804688 19.019531 104.785156 18.839844 104.789062 18.65625 L 104.835938 18.71875 C 104.789062 18.457031 104.984375 18.203125 105.359375 18.054688 C 105.957031 17.863281 106.535156 17.910156 107.089844 18.199219 C 107.867188 18.609375 108.515625 19.167969 109.042969 19.871094 C 109.09375 19.941406 109.136719 20.019531 109.183594 20.09375 C 107.789062 20.140625 106.398438 20.199219 105.003906 20.253906 C 105.007812 20.21875 105.007812 20.183594 105.003906 20.144531 C 105.003906 20.054688 104.980469 19.960938 104.96875 19.871094 L 104.910156 19.871094 C 104.820312 19.832031 104.746094 19.769531 104.742188 19.691406 C 104.730469 19.664062 104.730469 19.636719 104.742188 19.613281 C 104.777344 19.542969 104.816406 19.480469 104.863281 19.417969 Z M 116.855469 33.082031 L 119.394531 33.226562 C 116.859375 33.527344 114.320312 33.824219 111.839844 34.359375 C 110.503906 34.292969 109.171875 34.214844 107.835938 34.140625 C 110.851562 33.851562 113.863281 33.503906 116.855469 33.089844 Z M 111.523438 24.277344 L 112.515625 24.175781 C 112.515625 24.234375 112.492188 24.289062 112.476562 24.34375 Z M 110.109375 24.140625 L 109.101562 24.042969 L 110.117188 24.042969 C 110.117188 24.074219 110.117188 24.113281 110.113281 24.152344 Z M 114.1875 40.84375 C 113.855469 40.875 113.53125 40.875 113.207031 40.878906 C 112.558594 40.878906 111.910156 40.878906 111.261719 40.878906 L 110.527344 40.855469 C 108.5 40.941406 106.46875 41.03125 104.4375 41.128906 C 105.09375 41.058594 105.671875 40.808594 106.175781 40.382812 L 107.179688 40.496094 C 107.121094 40.433594 107.089844 40.359375 107.089844 40.273438 C 107.089844 40.191406 107.121094 40.117188 107.179688 40.054688 C 107.328125 39.882812 107.511719 39.765625 107.730469 39.707031 C 107.839844 39.664062 107.957031 39.628906 108.074219 39.605469 L 108.210938 39.605469 L 108.816406 39.535156 C 109.757812 39.472656 110.742188 39.421875 111.703125 39.351562 C 113.667969 39.199219 115.628906 39.011719 117.585938 38.808594 L 120.296875 38.507812 L 121.046875 38.433594 L 121.992188 38.386719 C 119.4375 39.351562 116.835938 40.171875 114.191406 40.855469 Z M 115.492188 24.523438 L 115.597656 24.230469 C 117.25 24.339844 118.902344 24.460938 120.554688 24.527344 C 123.285156 24.605469 126.007812 24.671875 128.734375 24.78125 C 124.277344 24.707031 119.894531 24.730469 115.496094 24.535156 Z M 124.230469 19.289062 C 124.199219 19.488281 124.15625 19.679688 124.097656 19.871094 C 124.058594 20.007812 124.011719 20.140625 123.960938 20.273438 C 121.527344 20.09375 119.09375 19.980469 116.648438 19.964844 C 116.648438 19.933594 116.648438 19.898438 116.648438 19.863281 C 116.714844 19.390625 116.75 18.875 116.851562 18.386719 C 119.328125 18.558594 121.789062 18.863281 124.234375 19.300781 Z M 118.757812 15.703125 C 118.867188 15.640625 118.976562 15.578125 119.089844 15.527344 L 119.1875 15.480469 C 119.363281 15.402344 119.546875 15.335938 119.734375 15.289062 C 120.324219 15.148438 120.917969 15.140625 121.511719 15.265625 C 121.652344 15.292969 121.792969 15.328125 121.929688 15.375 L 121.964844 15.375 C 122.054688 15.402344 122.136719 15.441406 122.222656 15.476562 L 122.402344 15.550781 C 122.65625 15.671875 122.898438 15.8125 123.128906 15.976562 C 123.425781 16.191406 123.664062 16.460938 123.84375 16.78125 C 122.160156 16.445312 120.464844 16.066406 118.761719 15.710938 Z M 129.082031 39.160156 C 129.3125 39.070312 129.554688 38.972656 129.777344 38.875 C 129.8125 38.925781 129.839844 38.984375 129.851562 39.046875 C 129.601562 39.09375 129.347656 39.144531 129.085938 39.171875 Z M 127.996094 20.636719 L 128.378906 20.574219 L 128.617188 20.542969 C 128.832031 20.511719 129.054688 20.492188 129.28125 20.46875 C 129.796875 20.617188 130.308594 20.773438 130.820312 20.941406 C 129.871094 20.84375 128.929688 20.746094 128 20.648438 Z M 138.363281 32.660156 C 136.632812 32.660156 134.902344 32.695312 133.171875 32.632812 C 132.417969 32.277344 131.632812 32.039062 130.8125 31.914062 C 131.386719 31.855469 131.960938 31.828125 132.542969 31.820312 C 135.375 31.785156 138.246094 32.261719 141.09375 32.425781 L 139.925781 32.769531 C 139.410156 32.691406 138.886719 32.65625 138.363281 32.660156 Z M 135.6875 20.484375 L 135.714844 20.484375 C 136.460938 20.53125 137.203125 20.621094 137.941406 20.753906 L 138.109375 20.753906 C 138.738281 21.023438 139.355469 21.304688 139.949219 21.617188 C 140.007812 22.203125 140.257812 22.691406 140.703125 23.082031 L 140.558594 23.082031 L 136.867188 22.671875 C 137.3125 21.90625 136.753906 21.164062 135.664062 20.484375 Z M 138.160156 25.652344 C 137.601562 25.742188 137.03125 25.808594 136.460938 25.871094 C 135.417969 25.773438 134.371094 25.742188 133.324219 25.765625 C 133.875 25.605469 134.421875 25.441406 134.964844 25.261719 C 136.003906 25.414062 137.074219 25.503906 138.136719 25.652344 Z M 151.851562 37.429688 C 149.441406 37.777344 147.015625 38.09375 144.574219 38.273438 C 143.066406 38.273438 141.5625 38.226562 140.058594 38.160156 C 144.730469 37.832031 149.375 37.40625 154.019531 36.921875 C 153.289062 37.132812 152.546875 37.304688 151.796875 37.4375 Z M 144.503906 23.105469 L 144.527344 23.074219 L 144.632812 23.105469 Z M 144.695312 21.277344 L 145.898438 21.394531 C 145.78125 21.476562 145.667969 21.570312 145.5625 21.671875 L 145.445312 21.671875 C 145.265625 21.503906 145.058594 21.457031 144.824219 21.535156 C 144.796875 21.441406 144.753906 21.355469 144.695312 21.277344 Z M 149.785156 21.851562 L 151.300781 22.0625 C 150.957031 22.0625 150.609375 22.03125 150.265625 22.007812 Z M 157.84375 24.898438 L 154.574219 24.613281 C 154.429688 24.414062 154.273438 24.226562 154.101562 24.050781 C 153.972656 23.925781 153.835938 23.804688 153.695312 23.691406 C 155.167969 23.757812 156.640625 23.824219 158.113281 23.90625 C 158.4375 23.90625 158.824219 23.90625 159.246094 23.9375 C 158.71875 24.171875 158.253906 24.492188 157.84375 24.898438 Z M 160.738281 32.40625 C 160.414062 32.636719 160.058594 32.761719 159.660156 32.785156 C 160.082031 32.605469 160.496094 32.417969 160.914062 32.230469 C 160.863281 32.296875 160.804688 32.355469 160.738281 32.40625 Z M 163.878906 32.183594 C 163.070312 32.253906 162.265625 32.253906 161.460938 32.183594 C 161.339844 32.171875 161.222656 32.152344 161.105469 32.125 C 161.761719 31.832031 162.414062 31.527344 163.0625 31.214844 C 163.175781 31.765625 163.683594 32.011719 164.285156 32.097656 Z M 168.664062 18.199219 L 167.25 17.613281 C 166.871094 17.667969 166.488281 17.683594 166.105469 17.648438 C 165.160156 17.59375 164.265625 17.484375 163.347656 17.351562 L 163.316406 17.351562 C 162.84375 17.28125 162.371094 17.207031 161.875 17.125 L 160.6875 16.894531 C 154.992188 15.820312 149.355469 14.132812 143.453125 13.976562 C 142.101562 13.960938 140.757812 14.074219 139.425781 14.316406 L 136.71875 13.910156 C 135.894531 13.785156 135.054688 13.703125 134.21875 13.613281 L 132.332031 13.613281 C 131.070312 13.449219 129.8125 13.28125 128.554688 13.105469 C 124.304688 12.738281 120.054688 12.726562 115.808594 12.378906 C 114.316406 12.378906 112.808594 12.511719 111.320312 12.671875 L 110.617188 12.609375 C 110.414062 12.496094 110.246094 12.347656 110.109375 12.160156 C 108.21875 11.957031 106.332031 11.863281 104.441406 11.847656 C 100.761719 12.128906 97.078125 12.382812 93.394531 12.644531 C 85.648438 13.175781 77.894531 13.589844 70.144531 14.0625 C 68.476562 14.164062 66.800781 14.234375 65.132812 14.371094 L 58.78125 14.941406 C 57.363281 15.269531 55.980469 15.546875 54.574219 15.832031 L 52.585938 16.257812 L 50.339844 17.0625 C 48.449219 17.734375 46.5625 18.433594 44.671875 19.078125 C 42.894531 19.679688 41.121094 20.289062 39.347656 20.886719 L 38.925781 21.113281 C 39.109375 21.332031 39.332031 21.492188 39.597656 21.589844 C 38.347656 21.996094 37.109375 22.460938 35.820312 22.789062 L 34.34375 23.578125 L 34.371094 23.511719 C 34.933594 22.203125 35.628906 20.96875 36.464844 19.816406 C 37.144531 19.121094 37.882812 18.488281 38.675781 17.921875 C 41.832031 15.695312 45.25 14.003906 48.9375 12.855469 C 52.742188 11.746094 57.277344 10.421875 61.542969 9.820312 C 67.632812 9.007812 73.816406 8.824219 79.953125 8.132812 C 84.832031 7.695312 89.582031 6.636719 94.4375 6.113281 C 104.824219 5.195312 115.242188 6.03125 125.550781 6.996094 C 128.808594 7.273438 132.105469 7.582031 135.390625 7.554688 C 136.609375 7.554688 137.820312 7.507812 139.042969 7.46875 C 140.664062 7.421875 142.292969 7.375 143.917969 7.390625 C 146.179688 7.445312 148.445312 7.550781 150.695312 7.722656 C 151.523438 7.972656 152.347656 8.230469 153.175781 8.46875 C 157.398438 9.671875 161.671875 10.75 165.691406 12.359375 C 168.277344 13.492188 170.851562 14.660156 173.34375 15.921875 C 175.222656 16.8125 177.011719 17.859375 178.707031 19.0625 C 179.179688 19.484375 179.6875 19.90625 180.179688 20.320312 C 178.214844 19.953125 176.203125 19.71875 174.203125 19.515625 C 172.550781 19.074219 170.863281 18.71875 169.164062 18.398438 Z M 174.082031 34.003906 C 173.734375 34.144531 173.386719 34.28125 173.042969 34.414062 L 173.277344 34.277344 C 174.742188 33.402344 175.933594 32.246094 176.851562 30.808594 C 177.71875 30.480469 178.269531 29.480469 177.597656 28.855469 C 177.5625 28.824219 177.527344 28.792969 177.488281 28.765625 C 177.507812 28.511719 177.5 28.261719 177.464844 28.011719 C 179.355469 27.585938 180.804688 25.980469 180.925781 24.425781 C 182.097656 25.394531 182.890625 26.503906 183.027344 27.773438 C 182.351562 30.828125 177.234375 32.589844 174.082031 34.003906 Z M 174.082031 34.003906 "/></g></svg>